<?xml version="1.0" encoding="UTF-8" standalone="no"?>
<!-- Created with Inkscape (http://www.inkscape.org/) -->

<svg
   xmlns:dc="http://purl.org/dc/elements/1.1/"
   xmlns:cc="http://creativecommons.org/ns#"
   xmlns:rdf="http://www.w3.org/1999/02/22-rdf-syntax-ns#"
   xmlns:svg="http://www.w3.org/2000/svg"
   xmlns="http://www.w3.org/2000/svg"
   xmlns:sodipodi="http://sodipodi.sourceforge.net/DTD/sodipodi-0.dtd"
   xmlns:inkscape="http://www.inkscape.org/namespaces/inkscape"
   width="433.29807mm"
   height="430.26456mm"
   viewBox="0 0 433.29807 430.26456"
   version="1.1"
   id="svg5983"
   inkscape:version="0.92.2 5c3e80d, 2017-08-06"
   sodipodi:docname="cut.svg">
  <defs
     id="defs5977" />
  <sodipodi:namedview
     id="base"
     pagecolor="#ffffff"
     bordercolor="#666666"
     borderopacity="1.0"
     inkscape:pageopacity="0.0"
     inkscape:pageshadow="2"
     inkscape:zoom="0.35"
     inkscape:cx="593.11672"
     inkscape:cy="755.95551"
     inkscape:document-units="mm"
     inkscape:current-layer="layer1"
     showgrid="false"
     fit-margin-top="0"
     fit-margin-left="0"
     fit-margin-right="0"
     fit-margin-bottom="0"
     inkscape:window-width="1920"
     inkscape:window-height="1016"
     inkscape:window-x="0"
     inkscape:window-y="27"
     inkscape:window-maximized="1" />
  <metadata
     id="metadata5980">
    <rdf:RDF>
      <cc:Work
         rdf:about="">
        <dc:format>image/svg+xml</dc:format>
        <dc:type
           rdf:resource="http://purl.org/dc/dcmitype/StillImage" />
        <dc:title></dc:title>
      </cc:Work>
    </rdf:RDF>
  </metadata>
  <g
     inkscape:label="Layer 1"
     inkscape:groupmode="layer"
     id="layer1"
     transform="translate(204.5538,-69.772486)">
    <path
       inkscape:connector-curvature="0"
       style="fill:none;fill-opacity:1;stroke:#ff0000;stroke-width:0.32881868;stroke-miterlimit:4;stroke-dasharray:none;stroke-opacity:1"
       d="m 13.672492,70.538125 c -2.5646,-0.04199 -5.1128899,0.777192 -7.0858699,2.623095 -2.72955,2.37235 -4.3076,5.804854 -4.80178,9.358603 -12.1590701,0.155367 -24.3235801,0.333358 -36.4597901,0.958081 -1.01573,-7.178541 -8.63807,-13.648986 -15.97732,-11.198283 -5.51937,2.022231 -8.29229,7.590353 -8.29407,13.196094 -12.09916,1.826987 -23.93015,5.226939 -35.26968,9.834542 -3.25628,-6.23274 -11.997392,-9.924721 -18.156512,-5.667871 -5.21124,3.829064 -6.03547,10.853714 -3.73982,16.577284 -11.63182,7.58383 -21.37486,17.60006 -30.54129,28.02929 -0.11349,-0.0734 -0.22513,-0.15 -0.34003,-0.22065 -6.04425,-4.0097 -15.95102,-2.60163 -18.98799,4.5191 -2.16045,5.50124 0.20302,11.30366 4.43952,15.02182 -4.34704,7.18191 -7.99543,14.80767 -11.67939,22.33094 -2.0117,4.50961 -4.09886,9.00434 -6.06681,13.54646 -0.34865,-0.0906 -0.69823,-0.17442 -1.05007,-0.24339 -7.06557,-1.6396 -15.85213,3.14817 -16.20366,10.88151 -0.0982,5.94766 4.20289,10.57694 9.52035,12.5553 -2.21208,10.80368 -3.17658,21.82929 -3.99924,32.83831 -7.14799,0.0803 -14.48368,6.51411 -13.2271,14.03118 1.14935,5.83284 6.31938,9.45723 11.92951,10.28051 -0.25865,13.35731 0.13273,26.72616 0.31936,40.09006 -6.88539,1.02588 -13.20508,7.88064 -11.35538,15.05076 1.52563,5.27788 6.30855,8.37902 11.49284,9.08265 0.067,15.40749 0.33621,30.8989 2.72024,46.08453 -6.85157,2.07044 -12.10462,10.31803 -8.78292,17.1891 2.89589,5.57298 9.40645,7.52092 15.2833,6.35725 4.95736,11.71753 10.72346,23.09868 17.28887,33.99483 -5.11051,4.04358 -7.486,12.03109 -3.26647,17.47232 4.63676,5.63491 13.03028,5.46939 18.82883,1.67431 13.28513,11.96517 27.72488,23.07609 45.09337,28.05721 0.31216,0.0802 0.62517,0.15124 0.93792,0.22529 -0.009,6.98551 5.893622,14.27433 13.281882,13.46068 6.4901,-0.90532 10.57402,-6.83802 11.19156,-13.05502 8.20967,-1.41449 16.26163,-4.14057 23.79855,-7.41608 4.71198,-2.19509 9.40504,-4.63508 13.77849,-7.51737 3.08411,3.48906 7.68336,5.56061 12.37495,4.31395 7.3648,-2.12833 10.33046,-11.41415 7.5396,-18.10433 -0.57414,-1.63885 -1.44739,-3.21093 -2.55179,-4.5961 4.12238,-5.70151 8.71985,-11.02302 15.1474001,-14.19654 0.1635,-0.0922 0.32932,-0.18015 0.49454,-0.26924 2.28137,5.41015 8.09107002,9.53723 14.02085,7.81916 4.51616,-1.3552 7.5211699,-5.14067 8.7457199,-9.50328 1.14948,0.47477 2.27089,1.0441 3.35277,1.71926 10.48342,5.76032 19.43269,15.53022 31.88797,16.90129 1.03139,0.12589 2.05099,0.17889 3.06028,0.17159 1.74946,5.38794 6.84168,9.92113 12.51241,9.77511 1.21857,8.58567 9.54892,15.3852 18.23249,14.72313 9.14049,-0.26744 17.687428,-3.89125 26.539458,-5.69526 1.34398,-0.34819 2.68708,-0.70017 4.02921,-1.05524 0.12536,0.15322 0.25744,0.3034 0.40309,0.44752 3.22146,4.17936 11.19754,2.14058 11.4613,-3.31917 0.3411,-2.18094 0.39484,-5.26582 -2.17556,-6.06269 -1.25617,-0.87313 -2.60276,-1.86627 -4.18529,-1.90169 -0.10549,-0.003 -0.21222,-2.7e-4 -0.31988,0.006 -3.48059,0.10935 -6.15529,3.35338 -6.42493,6.64506 -9.25227,2.50788 -18.507288,5.13673 -27.986908,6.56651 -6.47277,0.54303 -13.38104,-3.05776 -14.85699,-9.6552 -0.28109,-0.36108 -0.28075,-1.13403 -0.32142,-1.8278 5.37001,-2.73161 7.85816,-9.54034 6.6828,-15.41198 1.29844,-0.42685 2.60363,-0.81219 3.91967,-1.12501 10.64622,-3.14105 21.427968,-6.05514 31.900888,-9.77407 2.65245,5.08322 8.16909,8.79229 13.99707,7.4626 7.21103,-1.80137 10.53134,-10.47663 8.4124,-17.1907 12.75101,-6.22194 24.89962,-14.36116 33.85788,-25.40722 3.73954,2.05618 8.21468,2.59487 12.22872,0.61288 6.50195,-3.24337 7.53131,-12.60938 3.34812,-18.10486 -0.5737,-0.88601 -1.23812,-1.71865 -1.97509,-2.48406 5.39546,-8.56472 10.46451,-17.33812 15.23061,-26.2599 1.50839,-2.94399 2.90687,-5.94175 4.19767,-8.98395 4.54361,1.58109 9.69579,1.19745 13.52476,-2.06034 5.74341,-4.71556 4.24531,-14.38349 -1.47331,-18.48362 -1.34959,-1.14554 -2.88338,-2.06035 -4.51908,-2.72076 1.10908,-4.83898 1.96249,-9.7379 2.55074,-14.67249 1.40245,-9.47124 2.68671,-18.98714 3.53208,-28.53263 4.19899,0.032 8.34753,-1.52484 11.02775,-4.94905 4.03786,-4.51798 3.03128,-12.01262 -1.65002,-15.69051 -2.45427,-2.15556 -5.61432,-3.42179 -8.85528,-3.75068 -0.50766,-11.1816 -0.80172,-22.38123 -1.36012,-33.56074 3.03845,-0.39654 5.92569,-1.65679 8.0858,-3.86436 4.39698,-4.00024 5.28108,-11.55059 0.90847,-15.9117 -2.76481,-2.96735 -6.81199,-4.43981 -10.82156,-4.56044 -0.10033,-0.93161 -0.20029,-1.86326 -0.30954,-2.79414 -2.14804,-13.72078 -6.23226,-27.1651 -12.16102,-39.72885 2.83597,-2.01192 5.00687,-4.89882 5.74541,-8.31474 1.59128,-5.72736 -1.68098,-12.58899 -7.70446,-13.9516 -4.35401,-1.1541 -9.06846,0.0902 -12.70929,2.61431 -0.0265,0.0169 -0.0513,0.0361 -0.0775,0.0532 -11.36253,-9.79892 -23.9295,-18.25619 -37.46645,-24.67911 0.56739,-2.11753 0.65796,-4.34127 0.13125,-6.50452 -1.06859,-5.847469 -7.00841,-10.592183 -13.02244,-9.188583 -4.08472,0.796798 -7.54954,3.571288 -9.76789,7.033163 -12.06865,-4.238792 -24.40398,-7.722604 -36.892838,-10.45621 0.39812,-2.300723 0.25472,-4.670293 -0.57412,-6.888985 -1.42467,-4.614854 -5.95606,-8.125998 -10.71925,-8.150924 -1.09918,-0.0058 -2.21099,0.17412 -3.29954,0.568957 -4.28783,1.379793 -7.58333,4.973044 -9.2847,9.06353 -0.0534,0.116791 -0.10073,0.236425 -0.15037,0.355017 -11.96411,-2.586751 -24.02836,-4.811871 -36.28151,-4.857584 -0.503,-0.0018 -1.00642,0.0012 -1.50999,0.0067 -0.38415,-2.819903 -1.52716,-5.500456 -3.51038,-7.580031 -2.16325,-2.549607 -5.48765,-4.026899 -8.78499,-4.080888 z"
       id="path831-9" />
    <path
       inkscape:connector-curvature="0"
       style="fill:none;stroke:#fb0000;stroke-width:0.32881868px;stroke-linecap:butt;stroke-linejoin:miter;stroke-opacity:1"
       d="m 26.027802,86.08498 c -0.60225,5.935458 -4.33653,11.566279 -10.48152,12.729456 -0.62587,0.09982 -1.24302,0.136824 -1.85002,0.122989 l -0.83871,7.836735 c 1.05905,0.57487 2.01109,1.44081 3.10782,1.91099 0.95313,1.37013 0.68846,3.76297 0.31161,5.53145 -1.15401,4.14506 -7.3137499,5.0895 -9.8526299,1.66811 -3.18035,-3.40578 -0.32658,-9.20232 4.0354099,-9.65574 l 0.48731,-7.730793 C 5.8496321,96.958725 2.0184821,91.653684 1.6442821,86.292719 c -12.0206701,0.06563 -24.0778501,0.132646 -36.0624001,0.818038 -0.10192,3.254774 -1.11317,6.48685 -3.20342,9.013403 -1.49685,1.950572 -3.60307,3.137612 -5.88181,3.62045 l 1.66088,8.24033 c 1.18929,0.56079 2.21982,1.55469 3.4246,2.07119 0.95313,1.37013 0.68846,3.76296 0.31161,5.53144 -1.15401,4.14507 -7.31376,5.0895 -9.85263,1.66812 -2.87508,-3.07888 -0.81852,-8.11153 2.82515,-9.38496 l -1.34204,-7.888923 c -2.5482,-0.118888 -5.08125,-1.04185 -7.04143,-2.703195 -2.53364,-1.906106 -4.17836,-4.700855 -4.93923,-7.755082 -7.95117,1.209671 -15.83622,2.885573 -23.6213,5.22087 -3.67446,1.088726 -7.27583,2.36073 -10.80037,3.799767 1.04388,3.379333 1.08308,7.095223 -0.33332,10.365773 -0.95156,2.43849 -2.80793,4.23825 -5.04258,5.32113 l 2.38693,5.06118 c 0.17062,-0.0277 0.34288,-0.0506 0.51832,-0.0615 2.10395,-0.10406 3.50489,1.7138 5.2896,2.47892 0.95314,1.37015 0.68792,3.76241 0.31109,5.53093 -1.15338,4.14465 -7.31087,5.08947 -9.85056,1.67018 -2.530462,-2.70696 -1.246362,-6.92986 1.57871,-8.77517 l -2.602942,-5.05654 c -2.48502,0.60097 -5.18208,0.42204 -7.53287,-0.62942 -2.43157,-0.9222 -4.45427,-2.58637 -5.97638,-4.65605 -11.13281,7.3327 -21.16625,16.38273 -29.86795,26.55601 2.30943,2.22067 4.00911,5.07988 4.50464,8.26771 0.53235,2.75529 -0.20599,5.44484 -1.71928,7.64036 l 5.9645,4.88652 c 0.78372,-0.50867 1.68454,-0.83507 2.65565,-0.89555 2.09183,-0.10814 3.51662,1.7174 5.28908,2.4784 0.95314,1.37015 0.68793,3.76293 0.31109,5.53145 -1.15347,4.14533 -7.31299,5.08932 -9.85159,1.66811 -1.76469,-1.88977 -1.66934,-4.51541 -0.49196,-6.55722 l -5.56814,-5.15472 c -1.72433,1.60683 -3.92431,2.72604 -6.27145,3.06234 -3.09703,0.62906 -6.26818,0.0112 -9.05164,-1.43557 -0.47977,0.77442 -0.95524,1.55125 -1.4211,2.33267 -6.39517,10.30084 -11.85332,21.22146 -16.20211,32.55875 2.57874,1.29044 4.82241,3.23148 6.24509,5.76346 1.40998,2.3072 1.69611,4.97072 1.13481,7.47551 l 9.13743,5.5144 c 1.01519,-1.39093 2.56298,-2.39931 4.34754,-2.51044 2.09183,-0.10814 3.51611,1.7174 5.28857,2.4784 0.95314,1.37017 0.68844,3.7629 0.31161,5.53144 -1.15348,4.14534 -7.313,5.08881 -9.8516,1.6676 -1.02667,-1.09944 -1.42264,-2.44821 -1.3441,-3.78633 l -9.59012,-4.9165 c -1.03048,1.5628 -2.421,2.89284 -4.07055,3.79409 -2.59862,1.62236 -5.67272,2.1703 -8.69508,1.8557 -2.50296,10.52856 -4.02795,21.28402 -4.4421,32.1262 3.31456,0.56743 6.4775,2.09164 8.71833,4.63124 2.16892,2.28375 2.94567,5.35937 2.59157,8.34006 l 10.76524,4.86017 c 0.97544,-0.98174 2.25684,-1.65213 3.69176,-1.74149 2.10396,-0.10408 3.50438,1.71327 5.28908,2.4784 0.95313,1.37012 0.68846,3.76297 0.31161,5.53144 -1.154,4.14507 -7.31375,5.08899 -9.85262,1.6676 -1.45578,-1.55896 -1.64462,-3.61843 -1.00615,-5.43842 l -10.40194,-3.34916 c -0.67087,1.33804 -1.58976,2.55211 -2.728,3.53261 -2.23602,2.16457 -5.18419,3.34832 -8.25738,3.65145 -0.29826,13.26593 -0.27196,26.53825 -0.0961,39.80998 3.55982,0.171 7.09551,1.4173 9.69657,3.89433 2.1452,1.89804 3.20067,4.54868 3.30367,7.26984 l 5.06687,1.14205 c 0.7875,-2.208 2.7941,-4.05521 5.24723,-4.20749 2.09182,-0.10815 3.51611,1.71791 5.28856,2.47891 0.95317,1.37015 0.68844,3.76241 0.31161,5.53093 -1.15337,4.14465 -7.31086,5.08895 -9.85056,1.66967 -0.67771,-0.72499 -1.07851,-1.55907 -1.25263,-2.42673 l -5.14853,-0.88263 c -0.48759,1.99921 -1.47992,3.88295 -2.92333,5.36298 -2.34547,2.70248 -5.74116,4.19473 -9.28522,4.55064 0.13482,6.02688 0.27712,12.05318 0.41496,18.07745 0.25579,9.04234 0.66135,18.18502 2.04897,27.1456 3.28801,-0.34774 6.68362,0.23524 9.49916,2.01279 1.3252,0.77026 2.3863,1.81327 3.18482,3.02205 l 10.10533,-3.44115 c 0.008,-2.97989 2.4333,-6.0063 5.60379,-6.20373 2.10395,-0.10409 3.50489,1.71325 5.2896,2.4784 0.95312,1.37012 0.68846,3.76297 0.31161,5.53143 -1.15403,4.14507 -7.31376,5.0895 -9.85263,1.66812 -0.0639,-0.0684 -0.12081,-0.13957 -0.17984,-0.20981 l -9.89603,3.23961 c 0.8774,3.15994 0.41597,6.74336 -1.39217,9.53326 -1.42947,2.51434 -3.68731,4.38844 -6.29832,5.56709 4.44815,11.62254 10.22526,22.73356 16.98553,33.18455 3.61949,-1.67061 7.86588,-2.1616 11.6458,-0.76533 1.72804,0.56731 3.17079,1.58904 4.29586,2.88718 l 5.42447,-4.72221 c -1.601,-3.46752 1.19524,-8.1044 5.14542,-8.3504 2.09183,-0.10814 3.5161,1.71741 5.28857,2.47841 0.95314,1.37013 0.68844,3.76292 0.31161,5.53145 -1.04571,3.75806 -6.20563,4.88493 -9.05216,2.51354 l -5.76089,4.51961 c 1.58217,2.93357 1.90666,6.60318 0.69763,9.76014 -0.58594,1.84404 -1.59436,3.48461 -2.88871,4.87669 10.01711,9.76217 21.75217,17.78273 34.43201,23.63579 2.98271,1.26545 6.06697,2.27237 9.2108,3.01789 0.73367,-3.33494 2.441,-6.47155 5.143362,-8.59946 1.65982,-1.40849 3.66042,-2.13016 5.71386,-2.27172 l 0.65939,-4.97228 c -0.98665,-0.32211 -1.88152,-0.91115 -2.53524,-1.79216 -3.23288,-3.46202 -0.23156,-9.39874 4.25194,-9.67796 2.09182,-0.10813 3.5161,1.71739 5.28856,2.47841 0.95314,1.37014 0.68844,3.7629 0.31161,5.53143 -0.56019,2.01319 -2.30193,3.26829 -4.2354,3.63802 l -0.0274,5.15163 c 2.48163,0.64862 4.77987,2.09087 6.35414,4.1398 1.72279,1.99139 2.71535,4.45294 3.05976,7.03212 1.62329,-0.2934 3.23502,-0.65593 4.82968,-1.08932 10.83633,-2.55227 21.44317,-6.9261 30.6033,-13.32375 -0.83796,-1.63203 -1.38226,-3.40056 -1.53583,-5.19245 -0.30918,-1.68008 -0.24717,-3.44445 0.13126,-5.15059 l 0.83303,-2.57813 c 1.20625,-2.80111 3.29364,-5.20244 5.98412,-6.45284 l -0.96841,-4.73252 c -1.88015,0.18108 -3.84523,-0.46474 -5.02657,-2.05671 -3.23288,-3.46205 -0.23206,-9.39877 4.25142,-9.67799 2.10396,-0.10406 3.50489,1.71382 5.2896,2.47894 0.95313,1.37012 0.68846,3.76245 0.31161,5.53093 -0.29453,1.05791 -0.91602,1.90643 -1.71927,2.52801 l 1.42833,5.02552 c 0.13297,-0.008 0.26682,-0.0138 0.40153,-0.0164 2.82969,-0.0964 5.45361,0.92596 7.62331,2.60294 2.61223,-3.50779 5.32515,-6.91279 8.46873,-9.84022 l 2.42414,-2.10944 c 1.92313,-1.50659 4.01436,-2.81461 6.3365701,-3.84369 -0.0162,-0.19124 -0.0302,-0.38261 -0.0367,-0.57411 -0.6291701,-4.81815 1.48964,-10.10987 5.24774,-13.20075 -0.13531,-0.0316 -0.27294,-0.0479 -0.40773,-0.0822 -0.69549,-0.17672 -1.38349,-0.3881 -2.05982,-0.63302 -0.67633,-0.24506 -1.34132,-0.52348 -1.98955,-0.8351 -0.64822,-0.31163 -1.2801801,-0.65593 -1.8913501,-1.03249 -0.61117,-0.37661 -1.20164,-0.78533 -1.76682,-1.22526 -0.56518,-0.43992 -1.10465,-0.91122 -1.61489,-1.41282 -0.51025,-0.50157 -0.99127,-1.03367 -1.43764,-1.59525 -0.44636,-0.56163 -0.85791,-1.153 -1.23145,-1.77303 -0.84722,-0.14933 -1.76528,-0.32327 -2.65875,-0.59841 -0.44673,-0.13753 -0.88797,-0.30051 -1.31051,-0.49815 -0.42255,-0.19765 -0.82644,-0.42961 -1.20096,-0.70644 -0.34646,-0.12988 -0.67533,-0.29874 -0.98186,-0.49866 -0.30654,-0.19989 -0.59115,-0.43124 -0.84956,-0.68834 -0.25841,-0.2571 -0.4904,-0.53983 -0.69246,-0.8413 -0.20206,-0.30144 -0.37409,-0.6215 -0.5116,-0.95445 -0.1375,-0.33304 -0.24068,-0.67869 -0.30541,-1.03042 -0.0647,-0.35171 -0.0907,-0.70946 -0.0744,-1.06712 0.0163,-0.35764 0.0749,-0.71536 0.18035,-1.06609 0.10547,-0.35076 0.25755,-0.69426 0.46044,-1.02526 0.1597,-0.13306 0.26631,-0.26868 0.33176,-0.40619 0.0653,-0.13747 0.0895,-0.27686 0.0832,-0.4191 -0.0125,-0.28456 -0.14553,-0.57949 -0.30799,-0.88521 -0.16246,-0.3057 -0.35481,-0.62288 -0.48524,-0.9524 -0.0652,-0.16481 -0.11489,-0.33213 -0.13798,-0.50331 -0.0231,-0.17122 -0.0191,-0.34605 0.0227,-0.52401 0.0549,-0.52374 0.17929,-1.01089 0.36174,-1.46296 0.18245,-0.45209 0.42232,-0.86776 0.71055,-1.25058 0.28823,-0.38177 0.62412,-0.72893 0.99632,-1.04177 0.3722,-0.3139 0.78105,-0.59134 1.21543,-0.83667 0.43437,-0.24529 0.89467,-0.45759 1.36942,-0.63664 0.47486,-0.17909 0.96395,-0.32551 1.45728,-0.43976 0.49333,-0.11425 0.99095,-0.19677 1.48105,-0.24755 0.4901,-0.0508 0.97256,-0.0697 1.43764,-0.0584 0.42094,-0.53022 0.87179,-1.04016 1.34927,-1.52704 0.47747,-0.48691 0.98191,-0.95049 1.50947,-1.38957 0.52744,-0.43905 1.07812,-0.85307 1.64899,-1.23973 0.57088,-0.38669 1.16166,-0.7462 1.7694001,-1.0759 0.60775,-0.32967 1.2321,-0.62995 1.87017,-0.89813 0.63807,-0.26818 1.28998,-0.50429 1.95182,-0.70641 0.66184,-0.20211 1.33373,-0.37026 2.0128,-0.50178 0.67907,-0.13147 1.36542,-0.22633 2.05517,-0.28268 0.28602,0.0122 0.47647,-0.005 0.58963,-0.0455 0.11326,-0.0408 0.14846,-0.10504 0.12609,-0.18708 -0.0447,-0.16397 -0.32293,-0.39963 -0.68575,-0.66146 -0.36282,-0.26181 -0.80948,-0.54922 -1.19166,-0.81854 -0.38218,-0.26938 -0.69972,-0.51983 -0.80253,-0.70642 2.22812,-0.50911 4.44273002,-1.26472 6.68383,-1.83814 1.12054,-0.28667 2.24779,-0.52857 3.38635,-0.67077 0.56928,-0.0711 1.14158,-0.11742 1.71721,-0.13229 0.57563,-0.0148 1.15467,0 1.73788,0.0569 0.24761,0.0122 0.49469,0.0346 0.7405199,0.0635 0.47627,0.0568 0.94861,0.14388 1.4149,0.25993 0.46629,0.11602 0.92641,0.25919 1.37821,0.43101 0.90361,0.34141 1.77396,0.78867 2.59261,1.32185 0.81866,0.53327 1.58538,1.15295 2.28306,1.84177 0.69779,0.68884 1.32639,1.44637 1.86708,2.25465 0.54068,0.80827 0.99385,1.66743 1.34152,2.55899 0.17383,0.44575 0.32094,0.89985 0.43976,1.35962 0.11882,0.45982 0.20941,0.9254 0.26872,1.39475 0.0593,0.46934 0.0874,0.9416 0.0827,1.41594 -0.005,0.47432 -0.042,0.95041 -0.11524,1.42523 -0.0732,0.4748 -0.18241,0.94877 -0.32866,1.41955 -0.14624,0.47077 -0.3302,0.93824 -0.55397,1.40044 0.4961,-0.0206 1.00517,0.007 1.51567,0.0786 0.5105,0.0718 1.02229,0.18751 1.52394,0.34571 0.50164,0.15819 0.99343,0.35827 1.46296,0.59687 0.46953,0.23852 0.91702,0.51588 1.33118,0.82889 0.41417,0.31289 0.79514,0.66185 1.13068,1.04333 0.33554,0.38142 0.62573,0.79531 0.85938,1.2392 0.23366,0.44381 0.41083,0.91768 0.51935,1.41801 0.10852,0.50032 0.14839,1.0274 0.10852,1.57818 -0.0342,0.54356 -0.1412,1.04778 -0.30954,1.51361 -0.16835,0.46579 -0.39759,0.89349 -0.67748,1.28315 -0.27988,0.3897 -0.60996,0.74112 -0.97875,1.05624 -0.36879,0.3152 -0.77675,0.59343 -1.21181,0.83561 -0.43507,0.24227 -0.89796,0.44915 -1.37666,0.62013 -0.47871,0.17097 -0.97359,0.30691 -1.4733,0.40825 -0.4997,0.10136 -1.00365,0.16819 -1.50172,0.20153 -0.49806,0.0333 -0.99019,0.0329 -1.46399,0 0.20505,0.53541 0.35413,1.08043 0.45165,1.63039 0.0975,0.54991 0.14406,1.10464 0.14315,1.65933 -8e-4,0.55465 -0.0493,1.10924 -0.13953,1.65881 -0.0902,0.54962 -0.22224,1.09418 -0.39274,1.62885 -0.1705,0.53465 -0.37939,1.05948 -0.62115,1.56941 -0.24166,0.50988 -0.51639,1.00518 -0.82011,1.48053 -0.30371,0.47537 -0.63602,0.93019 -0.9927,1.36114 -0.35668,0.43093 -0.73737,0.83768 -1.13792,1.21442 -0.68316,0.67077 -1.42059,1.24002 -2.19883,1.71513 -0.44643,0.27252 -0.93166,0.44783 -1.40301,0.6599 1.08381,2.25991 1.57207,4.80406 1.44642,7.34322 3.85155,1.27436 7.4793,3.22649 10.61382,5.78569 8.00174,5.44129 16.12048,12.76366 26.3648,12.81266 -0.48428,-5.02568 1.98288,-10.54801 6.2482,-13.1723 0,0 0.45274,-0.38246 1.32757,-0.75915 l -3.71864,-13.82704 c -1.22179,0.21254 -2.48821,0.0359 -3.59461,-0.68731 -4.66391,-2.25391 -2.9341,-10.27123 2.11511,-10.62106 0.15721,-0.0143 0.31512,-0.0222 0.47284,-0.0243 2.36579,-0.0289 4.74053,1.30429 5.68132,3.52692 1.37578,2.61532 0.005,5.34283 -2.20711,6.80733 l 5.66375,14.1211 c 1.19261,0.0694 2.56374,0.32695 4.11189,0.89091 3.17379,1.41576 5.7458,4.22185 7.121,7.44297 4.18058,-1.59856 8.39004,-3.09629 12.77183,-3.91658 7.60164,-2.178 15.274528,-4.48574 22.821348,-7.14737 -0.14383,-0.63913 -0.24445,-1.2854 -0.29197,-1.93371 -0.74689,-4.62092 1.23677,-9.81313 4.88551,-12.72532 l -7.11224,-14.66218 c -2.31119,0.99581 -5.3208,0.56603 -6.91068,-1.57662 -3.232888,-3.46263 -0.23207,-9.39877 4.2514,-9.67799 2.09183,-0.10813 3.5161,1.71792 5.28857,2.47894 0.95314,1.37014 0.68845,3.7624 0.3116,5.53093 -0.14118,0.50736 -0.35811,0.96578 -0.63407,1.37509 l 7.88739,14.80219 c 0.98427,-0.34895 2.03623,-0.55194 3.14708,-0.57205 4.99581,-0.12618 9.30987,3.21789 11.57968,7.51118 8.72175,-4.45159 16.94812,-9.78731 24.30859,-16.43362 2.71664,-2.53034 5.24386,-5.21398 7.62641,-8.01296 -2.37382,-2.18498 -4.12364,-5.04962 -4.73462,-8.17986 -1.02208,-3.37346 -0.1311,-7.07088 1.92702,-9.86141 l -12.85399,-13.87822 c -2.28812,0.9071 -5.19409,0.44971 -6.74688,-1.6428 -3.23339,-3.46159 -0.23058,-9.39858 4.25247,-9.67692 2.09182,-0.10814 3.5161,1.71791 5.28857,2.47891 0.95308,1.36985 0.68842,3.76171 0.3116,5.52989 -0.0974,0.34981 -0.23342,0.67474 -0.39688,0.97825 l 12.47418,13.83532 c 1.67674,-1.27182 3.70255,-2.05393 5.90921,-2.05877 3.08475,-0.14589 6.08494,0.82148 8.62737,2.50835 4.90815,-8.11575 9.389,-16.52696 14.07872,-24.67652 1.7137,-3.23461 3.26805,-6.53814 4.68138,-9.89708 -3.15283,-1.9821 -5.63542,-4.99441 -6.5531,-8.62685 -0.71932,-2.08857 -0.63714,-4.23693 0.0212,-6.21047 l -12.63386,-9.09557 c -2.0497,2.77836 -6.91075,3.0693 -9.09608,0.12713 -3.23562,-3.46131 -0.23424,-9.40111 4.25037,-9.67951 2.09182,-0.10814 3.51613,1.71791 5.28857,2.47891 0.73861,1.06178 0.74335,2.73513 0.53383,4.25866 l 14.01775,7.87135 c 2.07296,-2.33685 5.04627,-3.9035 8.20569,-3.92895 1.10815,-0.0517 2.21675,0.0164 3.30832,0.18965 2.0076,-8.30445 3.40151,-16.77021 4.3584,-25.24136 0.69321,-5.79441 1.20483,-11.60075 1.56477,-17.41444 -5.0673,-1.20538 -9.55034,-4.71179 -10.76732,-9.9968 -0.30496,-1.24037 -0.34811,-2.46271 -0.1824,-3.63906 l -7.64141,-1.80299 c -1.77226,3.29423 -7.12946,3.82423 -9.45523,0.69298 -3.23559,-3.46131 -0.23371,-9.40111 4.2509,-9.67951 2.09183,-0.10814 3.5161,1.71792 5.28857,2.47892 0.52041,0.74808 0.67633,1.80111 0.65061,2.89078 l 8.24394,1.61334 c 2.07402,-3.58429 6.11794,-6.18405 10.27171,-6.53139 -0.053,-11.15598 -0.57182,-22.31647 -1.40094,-33.45119 -5.78445,-0.54582 -11.27935,-4.05561 -12.61835,-9.99732 -0.11819,-0.60566 -0.17833,-1.20568 -0.18809,-1.7973 l -7.31221,-0.14677 c -0.0254,0.13277 -0.05,0.2689 -0.077,0.39584 -1.15337,4.14466 -7.31137,5.08895 -9.85108,1.66967 -3.23558,-3.46131 -0.2337,-9.40111 4.25091,-9.67951 2.09182,-0.10814 3.51612,1.7174 5.28857,2.4784 0.44487,0.6395 0.62238,1.50247 0.64905,2.42001 l 7.57422,-0.54105 c 1.41825,-4.3409 5.53599,-7.78016 10.06036,-8.84908 -0.137,-1.26266 -0.27699,-2.52446 -0.4191,-3.78581 -1.92955,-12.76405 -5.14707,-25.78022 -11.10112,-37.32589 -4.91593,2.0899 -10.76693,1.83554 -14.78566,-2.01073 l -9.61131,4.44366 c 0.0424,1.07218 -0.12906,2.22687 -0.33538,3.19515 -1.15337,4.1447 -7.31086,5.08895 -9.85054,1.66967 -3.23562,-3.46132 -0.23424,-9.40112 4.25037,-9.67952 1.51389,-0.0783 2.67869,0.85518 3.87831,1.66605 l 9.14313,-5.46685 c -1.3363,-4.25931 0.018,-9.27011 2.97863,-12.73824 -10.63001,-9.76049 -23.25812,-17.12461 -36.27583,-23.37222 -3.18416,5.55742 -9.63626,9.36172 -15.99229,7.38302 l -4.60026,7.12928 c 0.95313,1.37012 0.68847,3.76296 0.31162,5.53144 -1.154,4.14507 -7.31377,5.08898 -9.85263,1.6676 -3.23289,-3.46203 -0.23154,-9.39823 4.25193,-9.67744 0.65916,-0.0326 1.24897,0.12356 1.80351,0.37672 l 3.83802,-7.76129 c -3.30761,-3.55125 -4.14332,-9.27444 -2.46859,-13.91129 -11.89487,-4.07712 -24.066598,-7.286831 -36.353848,-10.037115 -2.49503,5.796915 -8.32896,10.265785 -14.765,9.191685 l -2.8081,7.26674 c 0.38933,0.25605 0.7851,0.49336 1.20253,0.67231 0.95314,1.37015 0.68842,3.76293 0.3116,5.53145 -1.15337,4.14465 -7.31086,5.08894 -9.85057,1.66966 -3.23541,-3.46118 -0.23458,-9.40044 4.24987,-9.67951 0.50226,-0.0248 0.96353,0.0618 1.40044,0.21549 l 2.30423,-6.8306 c -4.32647,-2.46996 -6.45391,-7.888027 -5.94591,-12.893274 -5.25305,-0.983865 -10.5088,-1.932877 -15.75511,-2.872693 -6.96725,-1.020612 -13.99307,-1.716227 -21.03541,-1.853634 z"
       id="path1529" />
    <path
       inkscape:connector-curvature="0"
       style="fill:none;stroke:#fb0000;stroke-width:0.32881865px;stroke-linecap:butt;stroke-linejoin:miter;stroke-opacity:1"
       d="m 8.8956721,382.80177 c -0.61067,-0.0474 -1.21823,-0.0416 -1.82263,0.004 -0.60439,0.0455 -1.20589,0.1306 -1.80336,0.24212 -1.19495,0.22307 -2.37534,0.55123 -3.53866,0.87791 0.82849,0.61035 1.75584,1.15695 2.70698,1.69487 0.95112,0.5379 1.92609,1.06693 2.85147,1.64407 0.46269,0.28858 0.91317,0.58947 1.3416,0.90874 0.42844,0.3193 0.83497,0.6572 1.2106,1.02116 0.3756199,0.36393 0.7200799,0.75393 1.0243499,1.17655 0.30426,0.42262 0.5685,0.87786 0.78287,1.37305 -0.4451,-0.38081 -0.91064,-0.73422 -1.39299,-1.06032 -0.4823499,-0.32609 -0.9817099,-0.62484 -1.4957399,-0.89654 -0.51403,-0.27167 -1.04231,-0.51646 -1.58244,-0.73403 -0.54013,-0.21765 -1.09179,-0.40841 -1.65244,-0.57224 -0.56065,-0.16383 -1.13079,-0.30062 -1.70639,-0.41103 -0.57559,-0.11033 -1.15675,-0.19386 -1.74171,-0.25106 -1.16992998,-0.11449 -2.35314998,-0.1233 -3.52709,-0.0272 -1.17395,0.0963 -2.33852,0.29726 -3.47187,0.60174 -0.56667,0.15227 -1.12612,0.33049 -1.67428,0.53435 -0.54815,0.20381 -1.08534,0.43334 -1.60941,0.68845 -0.52407,0.25513 -1.03473,0.53588 -1.52913,0.84195 -0.4944101,0.30607 -0.9723601,0.63744 -1.4315201,0.99418 -0.45916,0.35673 -0.89951,0.73866 -1.31785,1.14572 -0.41833,0.40704 -0.81488,0.83958 -1.18682,1.29664 -0.21271,0.15637 -0.38633,0.42154 -0.54397,0.71094 -0.15765,0.2894 -0.29945,0.60314 -0.44892,0.85609 -0.14945,0.25296 -0.30635,0.44495 -0.4945,0.49194 -0.0941,0.0238 -0.19573,0.0108 -0.30827,-0.0488 -0.11254,-0.0598 -0.23628,-0.16656 -0.37313,-0.33076 -0.58689,-0.13951 -1.19275,-0.16274 -1.79759,-0.0931 -0.60483,0.0696 -1.20822,0.23188 -1.78924,0.46366 -0.58101,0.23185 -1.13959,0.53345 -1.65501,0.88051 -0.51541,0.34705 -0.98815,0.74001 -1.39619,1.15535 -0.12497,0.23866 -0.18654,0.4671 -0.19845,0.68654 -0.0119,0.21942 0.026,0.42979 0.10147,0.63066 0.0755,0.2009 0.18838,0.39241 0.32561,0.57545 0.13724,0.18304 0.29871,0.35758 0.47203,0.52342 0.34666,0.33171 0.73992,0.63005 1.07701,0.89715 0.3371,0.26712 0.61817,0.50305 0.74049,0.71096 -0.39429,0.14923 -0.85284,0.38725 -1.2883,0.68657 -0.43547,0.29927 -0.84766,0.65982 -1.15023,1.05386 -0.15128,0.19704 -0.27486,0.4023 -0.36029,0.61267 -0.0854,0.21035 -0.13257,0.42548 -0.13036,0.64225 0.002,0.21675 0.0535,0.43556 0.16504,0.65185 0.11159,0.21628 0.28327,0.43016 0.52599,0.639 0.43396,0.31411 0.92977,0.68577 1.46234,1.04042 0.53257,0.35465 1.10211,0.69263 1.68327,0.9402 0.29059,0.1238 0.58393,0.22474 0.87728,0.29414 0.29335,0.0693 0.58676,0.10683 0.87663,0.10342 0.28987,-0.005 0.57595,-0.0478 0.85609,-0.14258 0.28013,-0.0948 0.55405,-0.2399 0.81819,-0.44442 0.23091,0.57266 0.4958,1.12175 0.79122,1.64729 0.29542,0.52557 0.6211,1.02764 0.9749,1.50538 0.35379,0.4777 0.73583,0.93106 1.14187,1.36024 0.40604,0.42913 0.83615,0.83392 1.2883,1.21378 0.45216,0.37989 0.92589,0.73491 1.41803,1.06479 0.4921501,0.32991 1.0031501,0.63471 1.5291401,0.9139 0.52598,0.27921 1.06727,0.53321 1.62097,0.76104 0.55371,0.22781 1.11954,0.42926 1.69483,0.605 1.15059,0.35139 2.33852,0.59788 3.53865,0.7366 0.31167,0.0359 0.62537,0.005 0.93829002,0.0236 l 0.13808,-9.36556 c -0.47773002,-0.0772 -0.94420002,-0.21455 -1.38463002,-0.41741 -0.44043,-0.20286 -0.85483,-0.47122 -1.22922,-0.81052 -0.25979,-0.19339 -0.49251,-0.40304 -0.69874,-0.62614 -0.20623,-0.22312 -0.38627,-0.45979 -0.54139,-0.7071 -0.31024,-0.49459 -0.52054,-1.03187 -0.64094,-1.59012 -0.12041,-0.5583 -0.15075,-1.13752 -0.10083,-1.71537 0.0499,-0.57791 0.18008,-1.15433 0.38084,-1.7077 0.20076,-0.55343 0.47198,-1.0835 0.80406,-1.56829 0.33209,-0.48485 0.72493,-0.92446 1.16885,-1.29667 0.44392,-0.37225 0.93894,-0.6772 1.47518,-0.89268 0.53626002,-0.21553 1.11401002,-0.34171 1.72309002,-0.35645 0.0814,-0.005 0.16198,-0.007 0.24212,-0.005 0.30053,0.006 0.59215998,0.0546 0.87534998,0.13486 0.28319,0.0803 0.55782,0.19211 0.82526,0.32369 0.53488,0.26315 1.03998,0.60547 1.52143,0.93379 0.25792,0.0756 0.49575,0.176 0.71351,0.29734 0.21777,0.12137 0.4154,0.26371 0.59341,0.42386 0.35603,0.32036 0.63288,0.71152 0.83233,1.14576 0.19944,0.4342 0.32125,0.91151 0.36735,1.40451 0.0461,0.49303 0.0167,1.00163 -0.0873,1.49834 0.0259,0.31469 0.0215,0.61957 -0.01,0.91387 -0.0312,0.29437 -0.089,0.57824 -0.17147,0.85034 -0.16492,0.54417 -0.42688,1.04225 -0.76232,1.48606 -0.33544,0.44384 -0.74435,0.83349 -1.20417,1.16179 -0.45982,0.32829 -0.97052,0.59488 -1.50858,0.7925 l 0.65635,9.2795 c 0.405,0.039 0.81744,0.0425 1.21316,0.12266 0.34265,-0.0695 0.68799,-0.12825 1.02499,-0.21707 0.57604,-0.15187 1.14334,-0.33179 1.69804,-0.54075 0.5547,-0.20889 1.09696,-0.44681 1.62418,-0.71348 0.28166,-0.0649 0.87722,-0.53014 1.2767499,-0.8028 0.19976,-0.13631 0.35037,-0.22418 0.38854,-0.1901 -0.4434,1.00679 -1.5499899,1.95321 -2.4783399,2.61387 -0.34695,0.24569 -0.74326,0.42365 -1.11233,0.63897 2.00834,0.94493 3.7511899,2.47933 5.0318299,4.31514 v 0 c 0.53203,-0.23087 1.0552,-0.48702 1.54583,-0.81566 0.56304,-0.37713 1.09501,-0.82102 1.58822,-1.33709 0.33144,-0.32489 0.65494,-0.68729 0.96076,-1.07831 0.30583,-0.39103 0.59426,-0.81108 0.85673,-1.25164 0.26247,-0.44064 0.49864,-0.90149 0.70002,-1.37504 0.20139,-0.47355 0.36811,-0.95956 0.49066,-1.44952 0.12256,-0.48988 0.20071,-0.9842 0.22671,-1.47389 0.026,-0.48966 -2.6e-4,-0.97475 -0.0886,-1.44753 -0.0883,-0.47284 -0.2382,-0.93306 -0.45854,-1.3725 -0.22036,-0.43934 -0.51101,-0.85781 -0.88114,-1.24714 -0.14731,-0.15558 -0.34447,-0.26731 -0.53947,-0.36222 -0.19499,-0.095 -0.38823,-0.17288 -0.52919,-0.26138 -0.14096,-0.0886 -0.2293,-0.18796 -0.2145,-0.32435 0.0148,-0.13634 0.13297,-0.31004 0.40524,-0.54846 0.0314,-0.22225 0.0936,-0.39499 0.18047,-0.52792 0.0868,-0.13293 0.19815,-0.22566 0.32882,-0.28834 0.26132,-0.12536 0.59897,-0.1296 0.96654,-0.088 0.36758,0.0416 0.76478,0.12911 1.14638,0.18558 0.38159,0.0566 0.74728,0.082 1.05067,0 0.62645,0.0333 1.33106,0.0525 2.04613,0.0148 0.71506,-0.0377 1.44081,-0.13218 2.1097,-0.32562 0.33445,-0.0967 0.65479,-0.21773 0.95242,-0.36923 0.29763,-0.15152 0.5723,-0.33356 0.81627,-0.55041 0.24396,-0.21688 0.45721,-0.46884 0.63066,-0.76171 0.17345,-0.29281 0.30696,-0.62637 0.39304,-1.00571 0.0682,-0.41116 0.0703,-0.79139 0.0161,-1.14252 -0.0542,-0.3511 -0.16459,-0.67294 -0.32047,-0.9665 -0.15588,-0.29363 -0.35734,-0.55922 -0.59406,-0.79769 -0.23671,-0.23844 -0.50858,-0.44995 -0.80534,-0.63579 -0.29677,-0.18585 -0.61835,-0.346 -0.95435,-0.48165 -0.336,-0.1357 -0.6866,-0.24664 -1.04105,-0.33459 -0.70888,-0.17595 -1.43389,-0.25895 -2.09172,-0.25882 -0.68719,-0.0864 -1.41847,-0.10395 -2.13604,-0.12718 -0.71756,-0.0233 -1.42105,-0.0525 -2.05383,-0.16309 0.006,-0.21791 -0.0726,-0.44313 -0.17211,-0.65895 -0.0995,-0.21584 -0.2198,-0.42211 -0.29479,-0.60245 -0.075,-0.18024 -0.10504,-0.33446 -0.0251,-0.44564 0.08,-0.11123 0.27033,-0.17955 0.6358,-0.18817 0.42945,-0.22299 0.79425,-0.4939 1.10077,-0.8028 0.30653,-0.30893 0.55487,-0.6559 0.75076,-1.03079 0.1959,-0.37484 0.33916,-0.77751 0.43672,-1.19838 0.0976,-0.42084 0.14905,-0.85944 0.16055,-1.3063 0.0115,-0.44683 -0.0167,-0.90223 -0.079,-1.35506 -0.0622,-0.45289 -0.15823,-0.90337 -0.28194,-1.34229 -0.12371,-0.43886 -0.27539,-0.866 -0.44827,-1.27095 -0.17288,-0.40492 -0.36696,-0.78766 -0.57672,-1.13866 -0.41567,-0.7657 -0.92544,-1.47153 -1.50986,-2.10585 -0.58444,-0.63433 -1.24362,-1.19692 -1.95879,-1.67621 -0.71516,-0.47924 -1.48613,-0.87535 -2.29402,-1.17589 -0.80789,-0.30054 -1.65234,-0.50617 -2.5149499,-0.60433 -0.23006,-0.0259 -0.46139,-0.0441 -0.6936,-0.0553 z"
       id="path1523" />
    <rect
       style="fill:none;fill-opacity:1;stroke:#ff0000;stroke-width:0.26458332;stroke-miterlimit:4;stroke-dasharray:none;stroke-opacity:1"
       id="rect4740"
       width="429.99997"
       height="429.99997"
       x="-201.38799"
       y="69.904778" />
  </g>
</svg>
