<?xml version="1.0" encoding="UTF-8" standalone="no"?>
<!-- Created with Inkscape (http://www.inkscape.org/) -->

<svg
   xmlns:dc="http://purl.org/dc/elements/1.1/"
   xmlns:cc="http://creativecommons.org/ns#"
   xmlns:rdf="http://www.w3.org/1999/02/22-rdf-syntax-ns#"
   xmlns:svg="http://www.w3.org/2000/svg"
   xmlns="http://www.w3.org/2000/svg"
   xmlns:sodipodi="http://sodipodi.sourceforge.net/DTD/sodipodi-0.dtd"
   xmlns:inkscape="http://www.inkscape.org/namespaces/inkscape"
   width="433.29807mm"
   height="430.26456mm"
   viewBox="0 0 433.29807 430.26456"
   version="1.1"
   id="svg5983"
   inkscape:version="0.92.2 (unknown)"
   sodipodi:docname="cut2.svg">
  <defs
     id="defs5977" />
  <sodipodi:namedview
     id="base"
     pagecolor="#ffffff"
     bordercolor="#666666"
     borderopacity="1.0"
     inkscape:pageopacity="0.0"
     inkscape:pageshadow="2"
     inkscape:zoom="0.35"
     inkscape:cx="-171.90319"
     inkscape:cy="1634.3942"
     inkscape:document-units="mm"
     inkscape:current-layer="layer1"
     showgrid="false"
     fit-margin-top="0"
     fit-margin-left="0"
     fit-margin-right="0"
     fit-margin-bottom="0"
     inkscape:window-width="2736"
     inkscape:window-height="1709"
     inkscape:window-x="0"
     inkscape:window-y="0"
     inkscape:window-maximized="1"
     showguides="false" />
  <metadata
     id="metadata5980">
    <rdf:RDF>
      <cc:Work
         rdf:about="">
        <dc:format>image/svg+xml</dc:format>
        <dc:type
           rdf:resource="http://purl.org/dc/dcmitype/StillImage" />
        <dc:title />
      </cc:Work>
    </rdf:RDF>
  </metadata>
  <g
     inkscape:label="Layer 1"
     inkscape:groupmode="layer"
     id="layer1"
     transform="translate(204.5538,-69.772486)">
    <g
       id="g4728"
       transform="translate(-46.727271,-47.386897)">
      <path
         id="path831-9"
         transform="matrix(0.26458333,0,0,0.26458333,-204.5538,69.772486)"
         d="m 802.28906,1173.0684 c -2.17561,0.056 -4.33862,0.2312 -6.49023,0.5 -4.30322,0.5374 -8.56372,1.4516 -12.79883,2.5351 -8.4703,2.1673 -16.84048,5.0231 -25.26172,6.9473 0.38857,0.7052 1.58874,1.6518 3.0332,2.6699 1.44446,1.0179 3.13262,2.1042 4.50391,3.0938 1.37129,0.9895 2.42285,1.8802 2.5918,2.5 0.0845,0.31 -0.0485,0.5528 -0.47657,0.707 -0.42768,0.1529 -1.14749,0.2179 -2.22851,0.1719 -2.60693,0.2129 -5.20101,0.5714 -7.76758,1.0683 -2.56656,0.4971 -5.10598,1.1326 -7.60742,1.8965 -2.50144,0.7639 -4.96535,1.6563 -7.37695,2.6699 -2.41161,1.0136 -4.77136,2.1486 -7.06836,3.3946 -2.29697,1.2461 -4.52985,2.6049 -6.6875,4.0664 -2.15762,1.4614 -4.23896,3.0261 -6.23242,4.6855 -1.99393,1.6595 -3.90047,3.4117 -5.70508,5.252 -1.80465,1.8401 -3.50866,3.7675 -5.09961,5.7714 -1.75779,-0.043 -3.58125,0.029 -5.4336,0.2208 -1.85234,0.1918 -3.7331,0.5037 -5.59765,0.9355 -1.86456,0.4318 -3.71307,0.9852 -5.50782,1.6621 -1.79432,0.6767 -3.53406,1.4792 -5.17578,2.4063 -1.64175,0.9272 -3.18701,1.9757 -4.59375,3.1621 -1.40674,1.1824 -2.67625,2.4946 -3.76562,3.9375 -1.08937,1.4468 -1.99597,3.0178 -2.68555,4.7265 -0.68957,1.7086 -1.15969,3.5498 -1.36719,5.5293 -0.1579,0.6726 -0.17323,1.3334 -0.0859,1.9805 0.0873,0.647 0.27506,1.2794 0.52148,1.9023 0.49297,1.2455 1.21996,2.4442 1.83399,3.5996 0.61402,1.1555 1.11686,2.2703 1.16406,3.3457 0.0238,0.5376 -0.0677,1.0645 -0.31445,1.584 -0.24738,0.5198 -0.65032,1.0323 -1.25391,1.5352 -0.76683,1.251 -1.34161,2.5493 -1.74024,3.875 -0.39855,1.3256 -0.62004,2.6776 -0.68164,4.0293 -0.0616,1.3518 0.0367,2.7039 0.28125,4.0332 0.24465,1.3294 0.63462,2.6358 1.1543,3.8945 0.51972,1.2584 1.1699,2.4681 1.93359,3.6074 0.7637,1.1395 1.64052,2.208 2.61719,3.1797 0.97667,0.9717 2.05236,1.8461 3.21094,2.6016 1.15854,0.7556 2.40148,1.3939 3.71094,1.8848 1.41551,1.0462 2.94202,1.9229 4.53906,2.6699 1.597,0.747 3.2647,1.363 4.95312,1.8828 3.3769,1.0399 6.84674,1.6973 10.04883,2.2617 1.41181,2.3434 2.96727,4.5785 4.6543,6.7012 1.68707,2.1225 3.50509,4.1336 5.43359,6.0293 1.92847,1.8958 3.96741,3.6771 6.10352,5.3398 2.13611,1.6628 4.3678,3.2075 6.67773,4.6309 2.30994,1.4232 4.69848,2.7245 7.14844,3.9023 2.45,1.1778 4.96332,2.2301 7.51953,3.1563 2.55621,0.9257 5.15653,1.7246 7.78516,2.3926 0.50944,0.1296 1.02961,0.1911 1.54101,0.3105 0.0359,0.096 0.0799,0.1877 0.11719,0.2832 a 46.117578,52.762349 0 0 0 -20.62109,43.9238 46.117578,52.762349 0 0 0 46.11719,52.7637 46.117578,52.762349 0 0 0 46.11914,-52.7637 46.117578,52.762349 0 0 0 -5.56836,-25.0293 c 1.77968,-0.8103 4.33037,-2.0863 5.95507,-3.0781 2.94138,-1.7957 5.72853,-3.9472 8.31055,-6.4824 1.51389,-1.4239 2.9527,-2.9611 4.30078,-4.5899 1.34808,-1.6287 2.60408,-3.3478 3.75196,-5.1445 1.14791,-1.7966 2.18625,-3.6686 3.0996,-5.5957 0.91374,-1.9273 1.70325,-3.9109 2.34766,-5.9316 0.64441,-2.0208 1.14346,-4.079 1.48438,-6.1563 0.34102,-2.0771 0.52434,-4.1732 0.52734,-6.2695 0.003,-2.0965 -0.17251,-4.1931 -0.54102,-6.2715 -0.36858,-2.0786 -0.93203,-4.1385 -1.70703,-6.1621 1.79074,0.1243 3.65077,0.1259 5.53321,0 1.88247,-0.126 3.78715,-0.3786 5.67578,-0.7617 1.88867,-0.383 3.75906,-0.8968 5.56836,-1.543 1.80926,-0.6462 3.55876,-1.4281 5.20312,-2.3437 1.64432,-0.9154 3.18623,-1.9669 4.58008,-3.1582 1.39385,-1.191 2.6414,-2.5193 3.69922,-3.9922 1.05785,-1.4728 1.92426,-3.0892 2.56055,-4.8496 0.63624,-1.7607 1.04066,-3.6663 1.16992,-5.7207 0.15069,-2.0817 0,-4.0739 -0.41016,-5.9649 -0.41015,-1.891 -1.07976,-3.682 -1.96289,-5.3594 -0.88309,-1.6777 -1.97986,-3.242 -3.24805,-4.6836 -1.26818,-1.4418 -2.70807,-2.7607 -4.27343,-3.9433 -1.56533,-1.183 -3.25665,-2.2313 -5.03125,-3.1328 -1.77461,-0.9018 -3.63334,-1.658 -5.5293,-2.2559 -1.896,-0.5979 -3.83032,-1.0353 -5.75977,-1.3066 -1.92945,-0.2709 -3.85349,-0.3749 -5.72851,-0.2969 0.84574,-1.7469 1.54103,-3.5137 2.09375,-5.293 0.55275,-1.7793 0.96552,-3.5707 1.24219,-5.3652 0.27681,-1.7946 0.41664,-3.594 0.43554,-5.3867 0.0178,-1.7928 -0.0884,-3.5777 -0.3125,-5.3516 -0.22416,-1.7739 -0.56654,-3.5336 -1.01562,-5.2715 -0.44909,-1.7377 -1.00512,-3.4539 -1.66211,-5.1386 -1.31403,-3.3697 -3.0268,-6.617 -5.07031,-9.6719 -2.04356,-3.0549 -4.41933,-5.918 -7.05665,-8.5215 -2.63689,-2.6034 -5.53475,-4.9454 -8.6289,-6.9609 -3.09411,-2.0152 -6.38361,-3.7058 -9.79883,-4.9961 -1.70759,-0.6494 -3.44663,-1.1904 -5.20898,-1.6289 -1.76236,-0.4387 -3.54758,-0.7678 -5.34766,-0.9825 -0.92912,-0.1092 -1.86298,-0.1942 -2.79883,-0.2402 -2.20426,-0.2151 -4.39275,-0.2708 -6.56836,-0.2148 z"
         style="fill:none;fill-opacity:1;stroke:#ff0000;stroke-width:1.24277925;stroke-miterlimit:4;stroke-dasharray:none;stroke-opacity:1"
         inkscape:connector-curvature="0" />
      <path
         id="path1523"
         transform="matrix(0.26458333,0,0,0.26458333,-204.5538,69.772486)"
         d="m 803.28516,1182.9785 c -1.14813,0 -2.29338,0.053 -3.43555,0.1387 -2.28431,0.172 -4.55825,0.4945 -6.81641,0.916 -4.51634,0.8431 -8.9782,2.0837 -13.375,3.3184 3.1313,2.3068 6.63757,4.3731 10.23242,6.4062 3.59479,2.033 7.27985,4.0316 10.77735,6.2129 1.74875,1.0907 3.45105,2.2289 5.07031,3.4355 1.6193,1.2069 3.15647,2.4838 4.57617,3.8594 1.41967,1.3755 2.7211,2.848 3.8711,4.4453 1.14996,1.5973 2.14876,3.3179 2.95898,5.1895 -1.68227,-1.4393 -3.44257,-2.7734 -5.26562,-4.0059 -1.82306,-1.2324 -3.70956,-2.3617 -5.65235,-3.3886 -1.94279,-1.0268 -3.93903,-1.9531 -5.98047,-2.7754 -2.04143,-0.8226 -4.1271,-1.5429 -6.24609,-2.1621 -2.11899,-0.6192 -4.27372,-1.1374 -6.44922,-1.5547 -2.17546,-0.417 -4.37311,-0.7311 -6.58398,-0.9473 -4.42179,-0.4327 -8.89314,-0.4667 -13.33008,-0.1035 -4.43698,0.364 -8.83757,1.1226 -13.1211,2.2734 -2.14174,0.5755 -4.25633,1.2491 -6.32812,2.0196 -2.07175,0.7703 -4.10325,1.6393 -6.08398,2.6035 -1.98074,0.9642 -3.9107,2.0248 -5.7793,3.1816 -1.86864,1.1568 -3.67475,2.4095 -5.41016,3.7578 -1.73541,1.3483 -3.39934,2.7916 -4.98047,4.3301 -1.58109,1.5384 -3.08057,3.1729 -4.48632,4.9004 -0.80395,0.591 -1.45889,1.5937 -2.05469,2.6875 -0.59584,1.0938 -1.13234,2.2783 -1.69727,3.2344 -0.56485,0.956 -1.15802,1.6817 -1.86914,1.8593 -0.35565,0.09 -0.74067,0.042 -1.16601,-0.1835 -0.42535,-0.2261 -0.89293,-0.6294 -1.41016,-1.25 -2.21817,-0.5273 -4.50696,-0.6148 -6.79297,-0.3516 -2.28597,0.263 -4.56769,0.8759 -6.76367,1.7519 -2.19594,0.8763 -4.30586,2.0164 -6.25391,3.3282 -1.948,1.3117 -3.73514,2.7974 -5.27734,4.3672 -0.47233,0.902 -0.70499,1.7643 -0.75,2.5937 -0.045,0.8293 0.0976,1.6256 0.38281,2.3848 0.28536,0.7593 0.71181,1.482 1.23047,2.1738 0.5187,0.6918 1.13009,1.3517 1.78516,1.9785 1.31021,1.2537 2.79627,2.3811 4.07031,3.3906 1.27408,1.0096 2.33652,1.9017 2.79883,2.6875 -1.49023,0.5641 -3.22331,1.4625 -4.86914,2.5938 -1.64587,1.1311 -3.20409,2.4951 -4.34766,3.9844 -0.57177,0.7447 -1.03844,1.5193 -1.36133,2.3144 -0.32277,0.795 -0.50054,1.6085 -0.49218,2.4278 0.008,0.8192 0.20147,1.6473 0.62304,2.4648 0.42176,0.8174 1.07092,1.6247 1.98828,2.4141 1.64017,1.1871 3.51448,2.5931 5.52735,3.9336 2.01286,1.3404 4.16481,2.617 6.36133,3.5527 1.09829,0.4679 2.20768,0.849 3.3164,1.1113 1.10873,0.2619 2.21693,0.4035 3.3125,0.3906 1.09557,-0.019 2.17753,-0.1808 3.23633,-0.539 1.05876,-0.3583 2.09347,-0.9067 3.0918,-1.6797 0.87273,2.1644 1.87368,4.2403 2.99023,6.2266 1.11655,1.9864 2.34835,3.8838 3.68555,5.6894 1.33716,1.8055 2.77981,3.5185 4.31445,5.1406 1.53464,1.6219 3.16023,3.1522 4.86914,4.5879 1.70895,1.4358 3.49932,2.7786 5.35938,4.0254 1.86009,1.2469 3.7913,2.3979 5.77929,3.4531 1.98796,1.0553 4.03423,2.0159 6.12696,2.877 2.09276,0.861 4.23192,1.6229 6.40625,2.2871 4.34868,1.3281 8.83712,2.2589 13.37304,2.7832 1.17797,0.1357 2.36419,0.019 3.54688,0.09 l 0.51758,-35.1562 a 23.165906,22.853403 0 0 0 4.5,0.4414 23.165906,22.853403 0 0 0 7.58007,-1.2871 l 2.43555,34.4414 c 1.53071,0.1474 3.0903,0.1599 4.58594,0.4629 1.29505,-0.2627 2.59934,-0.4846 3.87305,-0.8203 2.17715,-0.574 4.32146,-1.2532 6.41796,-2.043 2.09651,-0.7895 4.14603,-1.6894 6.13868,-2.6973 1.06454,-0.2452 3.31613,-2.0026 4.82617,-3.0332 0.755,-0.5151 1.32448,-0.8475 1.46875,-0.7187 -1.67584,3.8052 -5.85846,7.3819 -9.36719,9.8789 -1.31131,0.9286 -2.81017,1.6003 -4.20508,2.4141 7.59058,3.5713 14.17932,9.372 19.01953,16.3105 2.01083,-0.8726 3.98745,-1.8419 5.8418,-3.084 2.12803,-1.4254 4.13785,-3.1022 6.00195,-5.0527 1.25269,-1.2279 2.47696,-2.5983 3.63282,-4.0762 1.15589,-1.4779 2.24431,-3.0653 3.23632,-4.7305 0.99202,-1.6654 1.88537,-3.4074 2.64649,-5.1972 0.76116,-1.7898 1.39229,-3.6267 1.85547,-5.4785 0.46322,-1.8515 0.7572,-3.7196 0.85547,-5.5703 0.0983,-1.8507 -10e-5,-3.6839 -0.33399,-5.4707 -0.33373,-1.7872 -0.89964,-3.5267 -1.73242,-5.1876 -0.83286,-1.6604 -1.93311,-3.2414 -3.33203,-4.7128 -0.55676,-0.5881 -1.30206,-1.0105 -2.03906,-1.3692 -0.73697,-0.359 -1.46724,-0.6538 -2,-0.9883 -0.53277,-0.3348 -0.86649,-0.711 -0.81055,-1.2265 0.0559,-0.5153 0.50415,-1.1712 1.5332,-2.0723 0.11868,-0.84 0.35332,-1.4937 0.68164,-1.9961 0.32807,-0.5024 0.74832,-0.8529 1.24219,-1.0898 0.98767,-0.4738 2.2631,-0.4893 3.65234,-0.3321 1.38928,0.1573 2.89172,0.4878 4.33399,0.7012 1.44223,0.2139 2.82403,0.3099 3.9707,0 2.36769,0.1259 5.0298,0.1991 7.73242,0.057 2.70259,-0.1425 5.44652,-0.4994 7.97461,-1.2305 1.26407,-0.3655 2.47471,-0.8239 3.59961,-1.3965 1.1249,-0.5727 2.16385,-1.2605 3.08594,-2.0801 0.92205,-0.8197 1.72725,-1.772 2.38281,-2.8789 0.65556,-1.1067 1.16099,-2.367 1.48633,-3.8008 0.25776,-1.554 0.2654,-2.9912 0.0606,-4.3183 -0.20485,-1.327 -0.62179,-2.5429 -1.21094,-3.6524 -0.58915,-1.1098 -1.3514,-2.1143 -2.24609,-3.0156 -0.89466,-0.9012 -1.92136,-1.7 -3.04297,-2.4023 -1.12165,-0.7025 -2.3375,-1.3077 -3.60742,-1.8204 -1.26993,-0.5128 -2.5959,-0.9332 -3.93555,-1.2656 -2.67923,-0.665 -5.41801,-0.979 -7.9043,-0.9785 -2.59725,-0.3265 -5.36214,-0.3927 -8.07422,-0.4805 -2.71203,-0.088 -5.37011,-0.1972 -7.76172,-0.6152 0.0227,-0.8236 -0.27429,-1.6745 -0.65039,-2.4902 -0.37606,-0.8158 -0.8318,-1.5958 -1.11523,-2.2774 -0.28347,-0.6812 -0.39589,-1.2653 -0.0937,-1.6855 0.30236,-0.4204 1.02104,-0.6784 2.40234,-0.711 1.62312,-0.8428 3.00166,-1.8657 4.16016,-3.0332 1.15854,-1.1676 2.09752,-2.4795 2.83789,-3.8964 0.74041,-1.4168 1.28166,-2.9387 1.65039,-4.5293 0.36888,-1.5906 0.56396,-3.2486 0.60742,-4.9375 0.0435,-1.6888 -0.0634,-3.4097 -0.29883,-5.1211 -0.23508,-1.7117 -0.59884,-3.4153 -1.0664,-5.0743 -0.46757,-1.6586 -1.03996,-3.2722 -1.69336,-4.8027 -0.65341,-1.5304 -1.3869,-2.9761 -2.17969,-4.3027 -1.57103,-2.894 -3.4982,-5.5616 -5.70703,-7.959 -2.20891,-2.3975 -4.70129,-4.5245 -7.4043,-6.3359 -2.70296,-1.8113 -5.61648,-3.3095 -8.66992,-4.4454 -3.05344,-1.1359 -6.24365,-1.9122 -9.5039,-2.2832 -0.86952,-0.098 -1.74541,-0.1666 -2.62305,-0.2089 l 0.002,0.01 c -1.15402,-0.09 -2.305,-0.1296 -3.45312,-0.125 z"
         style="fill:none;stroke:#fb0000;stroke-width:1.24277914px;stroke-linecap:butt;stroke-linejoin:miter;stroke-opacity:1"
         inkscape:connector-curvature="0" />
    </g>
    <path
       style="fill:none;stroke:#ff0000;stroke-width:0.29999998;stroke-miterlimit:4;stroke-dasharray:none;stroke-opacity:1"
       d="m -68.222368,164.11086 v 18.69757 a 14.052,12.298178 89.784448 0 0 -2.632398,0.71467 14.052,12.298178 89.784448 0 0 -7.362856,17.99529 14.052,12.298178 89.784448 0 0 15.756659,8.431 14.052,12.298178 89.784448 0 0 7.36286,-17.99526 14.052,12.298178 89.784448 0 0 -10.24227,-9.16998 v -18.67329 z"
       id="path871"
       inkscape:connector-curvature="0" />
    <path
       style="fill:none;stroke:#ff0000;stroke-width:0.29999998;stroke-miterlimit:4;stroke-dasharray:none;stroke-opacity:1"
       d="m -36.335473,164.11086 v 18.69757 a 14.052,12.298178 89.784448 0 0 -2.6324,0.71467 14.052,12.298178 89.784448 0 0 -7.36286,17.99529 14.052,12.298178 89.784448 0 0 15.75666,8.431 14.052,12.298178 89.784448 0 0 7.36286,-17.99526 14.052,12.298178 89.784448 0 0 -10.24227,-9.16998 v -18.67329 z"
       id="path871-3"
       inkscape:connector-curvature="0" />
    <path
       style="fill:none;stroke:#ff0000;stroke-width:0.29999998;stroke-miterlimit:4;stroke-dasharray:none;stroke-opacity:1"
       d="m -4.4485785,164.11085 v 18.69757 a 14.052,12.298178 89.784448 0 0 -2.6324,0.71467 14.052,12.298178 89.784448 0 0 -7.3628595,17.9953 14.052,12.298178 89.784448 0 0 15.7566595,8.431 14.052,12.298178 89.784448 0 0 7.3628603,-17.99527 14.052,12.298178 89.784448 0 0 -10.2422702,-9.16998 v -18.67329 z"
       id="path871-6"
       inkscape:connector-curvature="0" />
    <path
       style="fill:none;stroke:#ff0000;stroke-width:0.29999998;stroke-miterlimit:4;stroke-dasharray:none;stroke-opacity:1"
       d="m 27.438313,164.11086 v 18.69757 a 14.052,12.298178 89.784448 0 0 -2.6324,0.71467 14.052,12.298178 89.784448 0 0 -7.36286,17.99529 14.052,12.298178 89.784448 0 0 15.75666,8.431 14.052,12.298178 89.784448 0 0 7.36286,-17.99526 14.052,12.298178 89.784448 0 0 -10.24227,-9.16998 v -18.67329 z"
       id="path871-7"
       inkscape:connector-curvature="0" />
    <path
       style="fill:none;stroke:#ff0000;stroke-width:0.29999998;stroke-miterlimit:4;stroke-dasharray:none;stroke-opacity:1"
       d="m 59.325193,164.11086 v 18.69757 a 14.052,12.298178 89.784448 0 0 -2.6324,0.71467 14.052,12.298178 89.784448 0 0 -7.36286,17.99529 14.052,12.298178 89.784448 0 0 15.75666,8.431 14.052,12.298178 89.784448 0 0 7.36286,-17.99526 14.052,12.298178 89.784448 0 0 -10.24227,-9.16998 v -18.67329 z"
       id="path871-5"
       inkscape:connector-curvature="0" />
    <path
       style="fill:none;stroke:#ff0000;stroke-width:0.29999998;stroke-miterlimit:4;stroke-dasharray:none;stroke-opacity:1"
       d="m 123.099,164.11086 v 18.69757 a 14.052,12.298178 89.784448 0 0 -2.6324,0.71467 14.052,12.298178 89.784448 0 0 -7.36286,17.99529 14.052,12.298178 89.784448 0 0 15.75666,8.431 14.052,12.298178 89.784448 0 0 7.36286,-17.99526 14.052,12.298178 89.784448 0 0 -10.24227,-9.16998 v -18.67329 z"
       id="path871-35"
       inkscape:connector-curvature="0" />
    <path
       style="fill:none;stroke:#ff0000;stroke-width:0.29999998;stroke-miterlimit:4;stroke-dasharray:none;stroke-opacity:1"
       d="m 91.212067,164.11086 v 18.69757 a 14.052,12.298178 89.784448 0 0 -2.6324,0.71467 14.052,12.298178 89.784448 0 0 -7.36286,17.99529 14.052,12.298178 89.784448 0 0 15.75666,8.431 14.052,12.298178 89.784448 0 0 7.362853,-17.99526 14.052,12.298178 89.784448 0 0 -10.242263,-9.16998 v -18.67329 z"
       id="path871-62"
       inkscape:connector-curvature="0" />
    <path
       style="fill:none;stroke:#ff0000;stroke-width:0.29999998;stroke-miterlimit:4;stroke-dasharray:none;stroke-opacity:1"
       d="m -66.299813,219.29539 v 18.69757 a 14.052,12.298178 89.784448 0 0 -2.6324,0.71467 14.052,12.298178 89.784448 0 0 -7.36286,17.99529 14.052,12.298178 89.784448 0 0 15.75666,8.431 14.052,12.298178 89.784448 0 0 7.36286,-17.99526 14.052,12.298178 89.784448 0 0 -10.24227,-9.16998 v -18.67329 z"
       id="path871-9"
       inkscape:connector-curvature="0" />
    <path
       style="fill:none;stroke:#ff0000;stroke-width:0.29999998;stroke-miterlimit:4;stroke-dasharray:none;stroke-opacity:1"
       d="m -34.412923,219.29539 v 18.69757 a 14.052,12.298178 89.784448 0 0 -2.6324,0.71467 14.052,12.298178 89.784448 0 0 -7.36286,17.99529 14.052,12.298178 89.784448 0 0 15.75666,8.431 14.052,12.298178 89.784448 0 0 7.36286,-17.99526 14.052,12.298178 89.784448 0 0 -10.24227,-9.16998 v -18.67329 z"
       id="path871-3-1"
       inkscape:connector-curvature="0" />
    <path
       style="fill:none;stroke:#ff0000;stroke-width:0.29999998;stroke-miterlimit:4;stroke-dasharray:none;stroke-opacity:1"
       d="m -2.5260231,219.29538 v 18.69757 a 14.052,12.298178 89.784448 0 0 -2.6324,0.71467 14.052,12.298178 89.784448 0 0 -7.3628599,17.9953 14.052,12.298178 89.784448 0 0 15.7566599,8.431 14.052,12.298178 89.784448 0 0 7.3628601,-17.99527 14.052,12.298178 89.784448 0 0 -10.24227015,-9.16998 v -18.67329 z"
       id="path871-6-2"
       inkscape:connector-curvature="0" />
    <path
       style="fill:none;stroke:#ff0000;stroke-width:0.29999998;stroke-miterlimit:4;stroke-dasharray:none;stroke-opacity:1"
       d="m 29.360867,219.29539 v 18.69757 a 14.052,12.298178 89.784448 0 0 -2.6324,0.71467 14.052,12.298178 89.784448 0 0 -7.36286,17.99529 14.052,12.298178 89.784448 0 0 15.75666,8.431 14.052,12.298178 89.784448 0 0 7.362862,-17.99526 14.052,12.298178 89.784448 0 0 -10.242273,-9.16998 v -18.67329 z"
       id="path871-7-7"
       inkscape:connector-curvature="0" />
    <path
       style="fill:none;stroke:#ff0000;stroke-width:0.29999998;stroke-miterlimit:4;stroke-dasharray:none;stroke-opacity:1"
       d="m 61.247749,219.29539 v 18.69757 a 14.052,12.298178 89.784448 0 0 -2.632401,0.71467 14.052,12.298178 89.784448 0 0 -7.362859,17.99529 14.052,12.298178 89.784448 0 0 15.75666,8.431 14.052,12.298178 89.784448 0 0 7.362859,-17.99526 14.052,12.298178 89.784448 0 0 -10.242269,-9.16998 v -18.67329 z"
       id="path871-5-0"
       inkscape:connector-curvature="0" />
    <path
       style="fill:none;stroke:#ff0000;stroke-width:0.29999998;stroke-miterlimit:4;stroke-dasharray:none;stroke-opacity:1"
       d="m 125.02156,219.29539 v 18.69757 a 14.052,12.298178 89.784448 0 0 -2.6324,0.71467 14.052,12.298178 89.784448 0 0 -7.36286,17.99529 14.052,12.298178 89.784448 0 0 15.75666,8.431 14.052,12.298178 89.784448 0 0 7.36286,-17.99526 14.052,12.298178 89.784448 0 0 -10.24227,-9.16998 v -18.67329 z"
       id="path871-35-9"
       inkscape:connector-curvature="0" />
    <path
       style="fill:none;stroke:#ff0000;stroke-width:0.29999998;stroke-miterlimit:4;stroke-dasharray:none;stroke-opacity:1"
       d="m 93.134623,219.29539 v 18.69757 a 14.052,12.298178 89.784448 0 0 -2.6324,0.71467 14.052,12.298178 89.784448 0 0 -7.36286,17.99529 14.052,12.298178 89.784448 0 0 15.75666,8.431 14.052,12.298178 89.784448 0 0 7.362857,-17.99526 14.052,12.298178 89.784448 0 0 -10.242267,-9.16998 v -18.67329 z"
       id="path871-62-3"
       inkscape:connector-curvature="0" />
    <path
       style="fill:none;stroke:#ff0000;stroke-width:0.29999998;stroke-miterlimit:4;stroke-dasharray:none;stroke-opacity:1"
       d="m -64.787908,275.61384 v 18.69757 a 14.052,12.298178 89.784448 0 0 -2.6324,0.71467 14.052,12.298178 89.784448 0 0 -7.36286,17.9953 14.052,12.298178 89.784448 0 0 15.75666,8.431 14.052,12.298178 89.784448 0 0 7.36286,-17.99527 14.052,12.298178 89.784448 0 0 -10.24227,-9.16998 v -18.67329 z"
       id="path871-2"
       inkscape:connector-curvature="0" />
    <path
       style="fill:none;stroke:#ff0000;stroke-width:0.29999998;stroke-miterlimit:4;stroke-dasharray:none;stroke-opacity:1"
       d="m -32.901019,275.61384 v 18.69757 a 14.052,12.298178 89.784448 0 0 -2.6324,0.71467 14.052,12.298178 89.784448 0 0 -7.362859,17.9953 14.052,12.298178 89.784448 0 0 15.756659,8.431 14.052,12.298178 89.784448 0 0 7.362861,-17.99527 14.052,12.298178 89.784448 0 0 -10.242271,-9.16998 v -18.67329 z"
       id="path871-3-0"
       inkscape:connector-curvature="0" />
    <path
       style="fill:none;stroke:#ff0000;stroke-width:0.29999998;stroke-miterlimit:4;stroke-dasharray:none;stroke-opacity:1"
       d="m -1.0141182,275.61383 v 18.69757 a 14.052,12.298178 89.784448 0 0 -2.6324,0.71467 14.052,12.298178 89.784448 0 0 -7.3628598,17.99531 14.052,12.298178 89.784448 0 0 15.7566598,8.431 14.052,12.298178 89.784448 0 0 7.3628602,-17.99528 14.052,12.298178 89.784448 0 0 -10.2422702,-9.16998 v -18.67329 z"
       id="path871-6-23"
       inkscape:connector-curvature="0" />
    <path
       style="fill:none;stroke:#ff0000;stroke-width:0.29999998;stroke-miterlimit:4;stroke-dasharray:none;stroke-opacity:1"
       d="m 30.872772,275.61384 v 18.69757 a 14.052,12.298178 89.784448 0 0 -2.6324,0.71467 14.052,12.298178 89.784448 0 0 -7.36286,17.9953 14.052,12.298178 89.784448 0 0 15.75666,8.431 14.052,12.298178 89.784448 0 0 7.362862,-17.99527 14.052,12.298178 89.784448 0 0 -10.242273,-9.16998 v -18.67329 z"
       id="path871-7-75"
       inkscape:connector-curvature="0" />
    <path
       style="fill:none;stroke:#ff0000;stroke-width:0.29999998;stroke-miterlimit:4;stroke-dasharray:none;stroke-opacity:1"
       d="m 62.759654,275.61384 v 18.69757 a 14.052,12.298178 89.784448 0 0 -2.632401,0.71467 14.052,12.298178 89.784448 0 0 -7.362859,17.9953 14.052,12.298178 89.784448 0 0 15.75666,8.431 14.052,12.298178 89.784448 0 0 7.362861,-17.99527 14.052,12.298178 89.784448 0 0 -10.242271,-9.16998 v -18.67329 z"
       id="path871-5-9"
       inkscape:connector-curvature="0" />
    <path
       style="fill:none;stroke:#ff0000;stroke-width:0.29999998;stroke-miterlimit:4;stroke-dasharray:none;stroke-opacity:1"
       d="m 94.646525,275.61384 v 18.69757 a 14.052,12.298178 89.784448 0 0 -2.6324,0.71467 14.052,12.298178 89.784448 0 0 -7.36286,17.9953 14.052,12.298178 89.784448 0 0 15.756665,8.431 14.052,12.298178 89.784448 0 0 7.36285,-17.99527 14.052,12.298178 89.784448 0 0 -10.242265,-9.16998 v -18.67329 z"
       id="path871-62-2"
       inkscape:connector-curvature="0" />
    <path
       style="fill:none;fill-opacity:1;stroke:#ff0000;stroke-width:0.32881868;stroke-miterlimit:4;stroke-dasharray:none;stroke-opacity:1"
       d="m 14.157904,326.77376 c -2.09878,2.39823 -4.2878703,4.72421 -6.6419703,6.91689 -6.97127,6.29486 -14.7359752,11.38516 -22.9459147,15.69104 l 1.35962,3.34759 c 11.8332197,-5.92762 23.0636447,-13.54469 31.595485,-23.66211 z"
       id="path831-9-7"
       inkscape:connector-curvature="0" />
    <path
       style="fill:none;fill-opacity:1;stroke:#ff0000;stroke-width:0.32881868;stroke-miterlimit:4;stroke-dasharray:none;stroke-opacity:1"
       d="m 100.60509,358.07806 c -2.09878,2.39823 -4.28787,4.72421 -6.64197,6.91689 -6.97127,6.29486 -14.73597,11.38516 -22.94591,15.69104 l 1.35962,3.34759 c 11.83322,-5.92762 23.06364,-13.54469 31.59548,-23.66211 z"
       id="path831-9-3"
       inkscape:connector-curvature="0" />
    <path
       style="fill:none;fill-opacity:1;stroke:#ff0000;stroke-width:0.32881868;stroke-miterlimit:4;stroke-dasharray:none;stroke-opacity:1"
       d="m 102.11699,347.30574 c -2.09878,2.39823 -4.287865,4.72421 -6.641965,6.91689 -6.97127,6.29486 -14.73597,11.38516 -22.94591,15.69104 l 1.35962,3.34759 c 11.83322,-5.92762 23.06364,-13.54469 31.595475,-23.66211 z"
       id="path831-9-6"
       inkscape:connector-curvature="0" />
    <path
       style="fill:none;fill-opacity:1;stroke:#ff0000;stroke-width:0.32881868;stroke-miterlimit:4;stroke-dasharray:none;stroke-opacity:1"
       d="m 100.98307,336.72241 c -2.098784,2.39823 -4.287874,4.72421 -6.641974,6.91689 -6.97127,6.29486 -14.73597,11.38516 -22.94591,15.69104 l 1.35962,3.34759 c 11.83322,-5.92762 23.06364,-13.54469 31.595484,-23.66211 z"
       id="path831-9-1"
       inkscape:connector-curvature="0" />
    <path
       style="fill:none;fill-opacity:1;stroke:#ff0000;stroke-width:0.32881868;stroke-miterlimit:4;stroke-dasharray:none;stroke-opacity:1"
       d="m 103.25092,325.19413 c -2.09878,2.39823 -4.287867,4.72421 -6.641967,6.91689 -6.97127,6.29486 -14.73597,11.38516 -22.94591,15.69104 l 1.35962,3.34759 c 11.83322,-5.92762 23.06364,-13.54469 31.595477,-23.66211 z"
       id="path831-9-2"
       inkscape:connector-curvature="0" />
    <path
       style="fill:none;fill-opacity:1;stroke:#ff0000;stroke-width:0.32881868;stroke-miterlimit:4;stroke-dasharray:none;stroke-opacity:1"
       d="m 61.484554,366.20455 c -2.09878,2.39823 -4.28787,4.72421 -6.64197,6.91689 -6.97127,6.29486 -14.73597,11.38516 -22.94591,15.69104 l 1.35962,3.34759 c 11.83322,-5.92762 23.06364,-13.54469 31.59548,-23.66211 z"
       id="path831-9-9"
       inkscape:connector-curvature="0" />
    <path
       style="fill:none;fill-opacity:1;stroke:#ff0000;stroke-width:0.32881868;stroke-miterlimit:4;stroke-dasharray:none;stroke-opacity:1"
       d="m 20.096162,367.14949 c -2.09878,2.39823 -4.28787,4.72421 -6.64197,6.91689 -6.9712703,6.29486 -14.7359703,11.38516 -22.9459108,15.69104 l 1.35962,3.34759 C 3.7011217,387.17739 14.931542,379.56032 23.463382,369.4429 Z"
       id="path831-9-31"
       inkscape:connector-curvature="0" />
    <path
       style="fill:none;fill-opacity:1;stroke:#ff0000;stroke-width:0.32881868;stroke-miterlimit:4;stroke-dasharray:none;stroke-opacity:1"
       d="m 142.44974,341.38782 c -2.09878,2.39823 -4.28787,4.72421 -6.64197,6.91689 -6.97127,6.29486 -14.73597,11.38516 -22.94591,15.69104 l 1.35962,3.34759 c 11.83322,-5.92762 23.06364,-13.54469 31.59548,-23.66211 z"
       id="path831-9-94"
       inkscape:connector-curvature="0" />
    <path
       style="fill:none;fill-opacity:1;stroke:#ff0000;stroke-width:0.32881868;stroke-miterlimit:4;stroke-dasharray:none;stroke-opacity:1"
       d="m 58.649733,354.86526 c -2.09878,2.39823 -4.28787,4.72421 -6.64197,6.91689 -6.97127,6.29486 -14.73597,11.38516 -22.94591,15.69104 l 1.35962,3.34759 c 11.83322,-5.92762 23.06364,-13.54469 31.59548,-23.66211 z"
       id="path831-9-78"
       inkscape:connector-curvature="0" />
    <path
       style="fill:none;fill-opacity:1;stroke:#ff0000;stroke-width:0.32881868;stroke-miterlimit:4;stroke-dasharray:none;stroke-opacity:1"
       d="m 56.0039,343.52598 c -2.09878,2.39823 -4.28787,4.72421 -6.64197,6.91689 -6.97127,6.29486 -14.73597,11.38516 -22.94591,15.69104 l 1.35962,3.34759 c 11.83322,-5.92762 23.06364,-13.54469 31.59548,-23.66211 z"
       id="path831-9-4"
       inkscape:connector-curvature="0" />
    <path
       style="fill:none;fill-opacity:1;stroke:#ff0000;stroke-width:0.32881868;stroke-miterlimit:4;stroke-dasharray:none;stroke-opacity:1"
       d="m 55.625923,331.05276 c -2.09878,2.39823 -4.28787,4.72421 -6.64197,6.91689 -6.97127,6.29486 -14.73597,11.38516 -22.94591,15.69104 l 1.35962,3.34759 c 11.83322,-5.92762 23.06364,-13.54469 31.59548,-23.66211 z"
       id="path831-9-5"
       inkscape:connector-curvature="0" />
    <path
       style="fill:none;fill-opacity:1;stroke:#ff0000;stroke-width:0.32881868;stroke-miterlimit:4;stroke-dasharray:none;stroke-opacity:1"
       d="m 53.169078,320.84741 c -2.09878,2.39823 -4.28787,4.72421 -6.64197,6.91689 -6.97127,6.29486 -14.73597,11.38516 -22.94591,15.69104 l 1.35962,3.34759 c 11.83322,-5.92762 23.06364,-13.54469 31.59548,-23.66211 z"
       id="path831-9-0"
       inkscape:connector-curvature="0" />
    <path
       style="fill:none;fill-opacity:1;stroke:#ff0000;stroke-width:0.32881868;stroke-miterlimit:4;stroke-dasharray:none;stroke-opacity:1"
       d="m 17.639316,357.88907 c -2.09878,2.39823 -4.28787,4.72421 -6.64197,6.91689 -6.9712703,6.29486 -14.73597,11.38516 -22.94591,15.69104 l 1.35962,3.34759 c 11.8332197,-5.92762 23.06364,-13.54469 31.59548,-23.66211 z"
       id="path831-9-36"
       inkscape:connector-curvature="0" />
    <path
       style="fill:none;fill-opacity:1;stroke:#ff0000;stroke-width:0.32881868;stroke-miterlimit:4;stroke-dasharray:none;stroke-opacity:1"
       d="m 16.694376,347.11675 c -2.09878,2.39823 -4.28787,4.72421 -6.64197,6.91689 -6.9712703,6.29486 -14.7359705,11.38516 -22.945911,15.69104 l 1.35962,3.34759 c 11.8332207,-5.92762 23.063641,-13.54469 31.595481,-23.66211 z"
       id="path831-9-10"
       inkscape:connector-curvature="0" />
    <path
       style="fill:none;fill-opacity:1;stroke:#ff0000;stroke-width:0.32881868;stroke-miterlimit:4;stroke-dasharray:none;stroke-opacity:1"
       d="m 15.371459,337.10038 c -2.09878,2.39823 -4.28787,4.72421 -6.6419703,6.91689 -6.97127,6.29486 -14.7359699,11.38516 -22.9459097,15.69104 l 1.35962,3.34759 c 11.8332197,-5.92762 23.06364,-13.54469 31.59548,-23.66211 z"
       id="path831-9-63"
       inkscape:connector-curvature="0" />
    <path
       style="fill:none;fill-opacity:1;stroke:#ff0000;stroke-width:0.32881868;stroke-miterlimit:4;stroke-dasharray:none;stroke-opacity:1"
       d="m 143.88336,327.46199 c -2.09878,2.39823 -4.28787,4.72421 -6.64197,6.91689 -6.97127,6.29486 -14.73597,11.38516 -22.94591,15.69104 l 1.35962,3.34759 c 11.83322,-5.92762 23.06364,-13.54469 31.59548,-23.66211 z"
       id="path831-9-20"
       inkscape:connector-curvature="0" />
    <path
       style="fill:none;fill-opacity:1;stroke:#ff0000;stroke-width:0.32881868;stroke-miterlimit:4;stroke-dasharray:none;stroke-opacity:1"
       d="m 143.3164,317.25663 c -2.09878,2.39823 -4.28787,4.72421 -6.64197,6.91689 -6.97127,6.29486 -14.73597,11.38516 -22.94591,15.69104 l 1.35962,3.34759 c 11.83322,-5.92762 23.06364,-13.54469 31.59548,-23.66211 z"
       id="path831-9-61"
       inkscape:connector-curvature="0" />
    <path
       style="fill:none;fill-opacity:1;stroke:#ff0000;stroke-width:0.32881868;stroke-miterlimit:4;stroke-dasharray:none;stroke-opacity:1"
       d="m 145.58426,305.35038 c -2.09878,2.39823 -4.28787,4.72421 -6.64197,6.91689 -6.97127,6.29486 -14.73597,11.38516 -22.94591,15.69104 l 1.35962,3.34759 c 11.83322,-5.92762 23.06364,-13.54469 31.59548,-23.66211 z"
       id="path831-9-55"
       inkscape:connector-curvature="0" />
    <path
       style="fill:none;fill-opacity:1;stroke:#ff0000;stroke-width:0.32881868;stroke-miterlimit:4;stroke-dasharray:none;stroke-opacity:1"
       d="m 145.01729,295.90098 c -2.09878,2.39823 -4.28787,4.72421 -6.64197,6.91689 -6.97127,6.29486 -14.73597,11.38516 -22.94591,15.69104 l 1.35962,3.34759 c 11.83322,-5.92762 23.06364,-13.54469 31.59548,-23.66211 z"
       id="path831-9-47"
       inkscape:connector-curvature="0" />
    <path
       style="fill:none;fill-opacity:1;stroke:#ff0000;stroke-width:0.32881868;stroke-miterlimit:4;stroke-dasharray:none;stroke-opacity:1"
       d="m 143.88336,286.0736 c -2.09878,2.39823 -4.28787,4.72421 -6.64197,6.91689 -6.97127,6.29486 -14.73597,11.38516 -22.94591,15.69104 l 1.35962,3.34759 c 11.83322,-5.92762 23.06364,-13.54469 31.59548,-23.66211 z"
       id="path831-9-65"
       inkscape:connector-curvature="0" />
    <path
       style="fill:none;fill-opacity:1;stroke:#ff0000;stroke-width:0.32881868;stroke-miterlimit:4;stroke-dasharray:none;stroke-opacity:1"
       d="m 142.74944,277.19116 c -2.09878,2.39823 -4.28787,4.72421 -6.64197,6.91689 -6.97127,6.29486 -14.73597,11.38516 -22.94591,15.69104 l 1.35962,3.34759 c 11.83322,-5.92762 23.06364,-13.54469 31.59548,-23.66211 z"
       id="path831-9-69"
       inkscape:connector-curvature="0" />
    <path
       style="fill:none;fill-opacity:1;stroke:#ff0000;stroke-width:0.32881868;stroke-miterlimit:4;stroke-dasharray:none;stroke-opacity:1"
       d="m 140.67057,270.00961 c -2.09878,2.39823 -4.28787,4.72421 -6.64197,6.91689 -6.97127,6.29486 -14.73597,11.38516 -22.94591,15.69104 l 1.35962,3.34759 c 11.83322,-5.92762 23.06364,-13.54469 31.59548,-23.66211 z"
       id="path831-9-37"
       inkscape:connector-curvature="0" />
    <path
       style="fill:none;fill-opacity:1;stroke:#ff0000;stroke-width:0.32881868;stroke-miterlimit:4;stroke-dasharray:none;stroke-opacity:1"
       d="m 139.34765,262.2611 c -2.09878,2.39823 -4.28787,4.72421 -6.64197,6.91689 -6.97127,6.29486 -14.73597,11.38516 -22.94591,15.69104 l 1.35962,3.34759 c 11.83322,-5.92762 23.06364,-13.54469 31.59548,-23.66211 z"
       id="path831-9-45"
       inkscape:connector-curvature="0" />
    <path
       style="fill:none;fill-opacity:1;stroke:#ff0000;stroke-width:0.32881868;stroke-miterlimit:4;stroke-dasharray:none;stroke-opacity:1"
       d="m 142.89336,365.17998 c -2.09878,2.39823 -4.28787,4.72421 -6.64197,6.91689 -6.97127,6.29486 -14.73597,11.38516 -22.94591,15.69104 l 1.35962,3.34759 c 11.83322,-5.92762 23.06364,-13.54469 31.59548,-23.66211 z"
       id="path831-9-94-2"
       inkscape:connector-curvature="0" />
    <path
       style="fill:none;fill-opacity:1;stroke:#ff0000;stroke-width:0.32881868;stroke-miterlimit:4;stroke-dasharray:none;stroke-opacity:1"
       d="m 142.89336,353.42012 c -2.09878,2.39823 -4.28787,4.72421 -6.64197,6.91689 -6.97127,6.29486 -14.73597,11.38516 -22.94591,15.69104 l 1.35962,3.34759 c 11.83322,-5.92762 23.06364,-13.54469 31.59548,-23.66211 z"
       id="path831-9-94-5"
       inkscape:connector-curvature="0" />
  </g>
</svg>
