<?xml version="1.0" encoding="UTF-8" standalone="no"?>
<!-- Created with Inkscape (http://www.inkscape.org/) -->

<svg
   xmlns:dc="http://purl.org/dc/elements/1.1/"
   xmlns:cc="http://creativecommons.org/ns#"
   xmlns:rdf="http://www.w3.org/1999/02/22-rdf-syntax-ns#"
   xmlns:svg="http://www.w3.org/2000/svg"
   xmlns="http://www.w3.org/2000/svg"
   xmlns:sodipodi="http://sodipodi.sourceforge.net/DTD/sodipodi-0.dtd"
   xmlns:inkscape="http://www.inkscape.org/namespaces/inkscape"
   width="432.95599mm"
   height="428.3844mm"
   viewBox="0 0 432.95599 428.3844"
   version="1.1"
   id="svg4079"
   inkscape:version="0.92.2 5c3e80d, 2017-08-06"
   sodipodi:docname="drawing-without-bolt.svg">
  <defs
     id="defs4073" />
  <sodipodi:namedview
     id="base"
     pagecolor="#ffffff"
     bordercolor="#666666"
     borderopacity="1.0"
     inkscape:pageopacity="0.0"
     inkscape:pageshadow="2"
     inkscape:zoom="0.49497475"
     inkscape:cx="799.43841"
     inkscape:cy="857.11443"
     inkscape:document-units="mm"
     inkscape:current-layer="layer1"
     showgrid="false"
     fit-margin-top="0"
     fit-margin-left="0"
     fit-margin-right="0"
     fit-margin-bottom="0"
     inkscape:window-width="1920"
     inkscape:window-height="1016"
     inkscape:window-x="0"
     inkscape:window-y="27"
     inkscape:window-maximized="1" />
  <metadata
     id="metadata4076">
    <rdf:RDF>
      <cc:Work
         rdf:about="">
        <dc:format>image/svg+xml</dc:format>
        <dc:type
           rdf:resource="http://purl.org/dc/dcmitype/StillImage" />
        <dc:title></dc:title>
      </cc:Work>
    </rdf:RDF>
  </metadata>
  <g
     inkscape:label="Layer 1"
     inkscape:groupmode="layer"
     id="layer1"
     transform="translate(258.81133,-106.24264)">
    <path
       inkscape:connector-curvature="0"
       style="fill:none;fill-opacity:1;stroke:#ff0000;stroke-width:0.32881868;stroke-miterlimit:4;stroke-dasharray:none;stroke-opacity:1"
       d="m -40.58504,106.40937 c -2.5646,-0.042 -5.11289,0.77719 -7.08587,2.62309 -2.72955,2.37235 -4.3076,5.80486 -4.80178,9.3586 -12.15907,0.15537 -24.32358,0.33336 -36.45979,0.95808 -1.01573,-7.17854 -8.63807,-13.64898 -15.97732,-11.19828 -5.51937,2.02223 -8.29229,7.59035 -8.29407,13.1961 -12.09916,1.82698 -23.93015,5.22693 -35.26968,9.83454 -3.25628,-6.23274 -11.99739,-9.92472 -18.15651,-5.66787 -5.21125,3.82906 -6.03547,10.85371 -3.73983,16.57728 -11.63181,7.58383 -21.37486,17.60006 -30.54128,28.0293 -0.11349,-0.0734 -0.22513,-0.15001 -0.34004,-0.22066 -6.04424,-4.0097 -15.95101,-2.60163 -18.98798,4.5191 -2.16045,5.50124 0.20302,11.30366 4.43952,15.02182 -4.34704,7.18191 -7.99543,14.80767 -11.67939,22.33095 -2.01171,4.5096 -4.09886,9.00433 -6.06681,13.54645 -0.34866,-0.0906 -0.69824,-0.17442 -1.05007,-0.24339 -7.06557,-1.6396 -15.85213,3.14817 -16.20366,10.88151 -0.0982,5.94766 4.20289,10.57694 9.52035,12.5553 -2.21208,10.80368 -3.17658,21.82929 -3.99924,32.83831 -7.14799,0.0803 -14.48369,6.51411 -13.2271,14.03118 1.14935,5.83284 6.31937,9.45723 11.9295,10.28051 -0.25864,13.35732 0.13274,26.72616 0.31936,40.09006 -6.88538,1.02588 -13.20508,7.88064 -11.35538,15.05076 1.52564,5.27789 6.30856,8.37902 11.49284,9.08265 0.067,15.40751 0.33621,30.89892 2.72025,46.08455 -6.85158,2.07044 -12.10462,10.31804 -8.78293,17.18911 2.89589,5.57297 9.40646,7.52091 15.28331,6.35725 4.95735,11.71752 10.72346,23.09868 17.28887,33.99483 -5.11051,4.04357 -7.486,12.03108 -3.26647,17.47231 4.63676,5.63491 13.03028,5.46939 18.82882,1.67431 13.28514,11.96518 27.72489,23.07609 45.09337,28.05721 0.31217,0.0802 0.62518,0.15124 0.93793,0.2253 -0.009,6.9855 5.89362,14.27432 13.28188,13.46067 6.4901,-0.90532 10.57402,-6.83802 11.19156,-13.05502 8.20967,-1.41448 16.26163,-4.14057 23.79855,-7.41608 4.71198,-2.19509 9.40504,-4.63508 13.77849,-7.51737 3.08411,3.48906 7.68336,5.56062 12.37495,4.31395 7.3648,-2.12833 10.33046,-11.41415 7.5396,-18.10432 -0.57414,-1.63886 -1.44739,-3.21093 -2.55179,-4.59611 4.12238,-5.7015 8.71985,-11.02301 15.1474,-14.19653 0.1635,-0.0922 0.32932,-0.18016 0.49454,-0.26924 2.28137,5.41014 8.09107,9.53722 14.02085,7.81915 4.51616,-1.3552 7.52117,-5.14067 8.74572,-9.50328 1.14948,0.47477 2.27089,1.0441 3.35277,1.71926 10.48342,5.76033 19.43269,15.53022 31.8879696,16.9013 1.03139,0.12588 2.05099,0.17888 3.06028,0.17158 1.74945997,5.38795 6.84168,9.92113 12.5124104,9.77511 1.21857,8.58567 9.54892,15.3852 18.23249,14.72314 9.14049,-0.26745 17.68743,-3.89126 26.53946,-5.69527 1.34398,-0.34819 2.68708,-0.70016 4.02921,-1.05523 0.12536,0.15322 0.25744,0.30339 0.40309,0.44751 3.22146,4.17936 11.19754,2.14059 11.4613,-3.31917 0.3411,-2.18093 0.39484,-5.26582 -2.17556,-6.06269 -1.25617,-0.87312 -2.60276,-1.86626 -4.18529,-1.90169 -0.10549,-0.003 -0.21222,-2.7e-4 -0.31988,0.006 -3.48059,0.10935 -6.15529,3.35338 -6.42493,6.64506 -9.25227,2.50788 -18.50729,5.13673 -27.98691,6.56651 -6.47277,0.54303 -13.38104,-3.05776 -14.85699,-9.6552 -0.28109,-0.36108 -0.28075,-1.13403 -0.32142,-1.8278 5.37001,-2.73161 7.85816,-9.54034 6.6828,-15.41197 1.29844,-0.42686 2.60363,-0.8122 3.91967,-1.12501 10.64622,-3.14106 21.42797,-6.05515 31.90089,-9.77408 2.65245,5.08323 8.16909,8.79229 13.99707,7.4626 7.21103,-1.80137 10.53134,-10.47663 8.4124,-17.1907 12.75101,-6.22194 24.89962,-14.36116 33.85788,-25.40722 3.73954,2.05618 8.21468,2.59488 12.22872,0.61288 6.50195,-3.24337 7.53131,-12.60938 3.34812,-18.10485 -0.5737,-0.88601 -1.23812,-1.71866 -1.97509,-2.48407 5.39546,-8.56472 10.46451,-17.33812 15.23061,-26.2599 1.50839,-2.94399 2.90687,-5.94174 4.19767,-8.98395 4.54361,1.5811 9.69579,1.19745 13.52476,-2.06034 5.74341,-4.71556 4.24531,-14.38351 -1.47331,-18.48364 -1.34959,-1.14554 -2.88338,-2.06035 -4.51908,-2.72076 1.10908,-4.83898 1.96249,-9.7379 2.55074,-14.67249 1.40245,-9.47124 2.68671,-18.98714 3.53208,-28.53263 4.19899,0.032 8.34753,-1.52484 11.02775,-4.94905 4.03786,-4.51798 3.03128,-12.01262 -1.65002,-15.69051 -2.45427,-2.15556 -5.61432,-3.42179 -8.85528,-3.75068 -0.50766,-11.1816 -0.80172,-22.38123 -1.36012,-33.56074 3.03845,-0.39654 5.92569,-1.65679 8.0858,-3.86436 4.39698,-4.00024 5.28108,-11.55059 0.90847,-15.9117 -2.76481,-2.96735 -6.81199,-4.43981 -10.82156,-4.56044 -0.10033,-0.93161 -0.20029,-1.86326 -0.30954,-2.79414 -2.14804,-13.72078 -6.23226,-27.1651 -12.16102,-39.72885 2.83597,-2.01192 5.00687,-4.89882 5.74541,-8.31474 1.59128,-5.72736 -1.68098,-12.58899 -7.70446,-13.9516 -4.35401,-1.1541 -9.06846,0.0902 -12.70929,2.61431 -0.0265,0.0169 -0.0513,0.0361 -0.0775,0.0532 -11.36253,-9.79892 -23.9295,-18.25619 -37.46645,-24.67911 0.56739,-2.11753 0.65796,-4.34127 0.13125,-6.50452 -1.06859,-5.84747 -7.00841,-10.59218 -13.02244,-9.18858 -4.08472,0.79679 -7.54954,3.57128 -9.76789,7.03316 -12.06865,-4.23879 -24.40398,-7.7226 -36.89284,-10.45621 0.39812,-2.30072 0.25472,-4.67029 -0.57412,-6.88899 -1.42467,-4.61485 -5.95606,-8.12599 -10.71925,-8.15092 -1.09918,-0.006 -2.21099,0.17412 -3.29954,0.56896 -4.28783,1.37979 -7.58333,4.97304 -9.2847004,9.06353 -0.0534,0.11679 -0.10073,0.23642 -0.15037,0.35501 -11.96411,-2.58675 -24.0283596,-4.81187 -36.2815096,-4.85758 -0.503,-0.002 -1.00642,10e-4 -1.50999,0.007 -0.38415,-2.8199 -1.52716,-5.50046 -3.51038,-7.58003 -2.16325,-2.54961 -5.48765,-4.0269 -8.78499,-4.08089 z"
       id="path831-9" />
    <path
       inkscape:connector-curvature="0"
       style="fill:none;stroke:#fb0000;stroke-width:0.32881868px;stroke-linecap:butt;stroke-linejoin:miter;stroke-opacity:1"
       d="m -28.22973,121.95622 c -0.60225,5.93546 -4.33653,11.56628 -10.48152,12.72946 -0.62587,0.0998 -1.24302,0.13682 -1.85002,0.12299 l -0.83871,7.83673 c 1.05905,0.57487 2.01109,1.44081 3.10782,1.91099 0.95313,1.37013 0.68846,3.76297 0.31161,5.53145 -1.15401,4.14506 -7.31375,5.0895 -9.85263,1.66811 -3.18035,-3.40578 -0.32658,-9.20232 4.03541,-9.65574 l 0.48731,-7.73079 c -5.09744,-1.53945 -8.92859,-6.8445 -9.30279,-12.20546 -12.02067,0.0656 -24.07785,0.13265 -36.0624,0.81804 -0.10192,3.25477 -1.11317,6.48685 -3.20342,9.0134 -1.49685,1.95057 -3.60307,3.13761 -5.88181,3.62045 l 1.66088,8.24033 c 1.18929,0.56079 2.21982,1.55469 3.4246,2.07119 0.95313,1.37013 0.68846,3.76296 0.31161,5.53144 -1.15401,4.14507 -7.31376,5.0895 -9.85263,1.66812 -2.87508,-3.07888 -0.81852,-8.11153 2.82515,-9.38496 l -1.34204,-7.88892 c -2.5482,-0.11889 -5.08125,-1.04185 -7.04143,-2.7032 -2.53364,-1.9061 -4.17836,-4.70085 -4.93923,-7.75508 -7.95117,1.20967 -15.83622,2.88557 -23.6213,5.22087 -3.67446,1.08873 -7.27583,2.36073 -10.80037,3.79977 1.04388,3.37933 1.08308,7.09522 -0.33332,10.36577 -0.95156,2.43849 -2.80793,4.23825 -5.04258,5.32113 l 2.38693,5.06118 c 0.17062,-0.0277 0.34288,-0.0506 0.51832,-0.0615 2.10395,-0.10406 3.50489,1.7138 5.2896,2.47892 0.95314,1.37015 0.68792,3.76241 0.31109,5.53093 -1.15338,4.14465 -7.31087,5.08947 -9.85056,1.67018 -2.53046,-2.70696 -1.24636,-6.92986 1.57871,-8.77517 l -2.60294,-5.05654 c -2.48502,0.60097 -5.18209,0.42204 -7.53288,-0.62942 -2.43156,-0.9222 -4.45426,-2.58637 -5.97638,-4.65605 -11.1328,7.3327 -21.16625,16.38273 -29.86794,26.55601 2.30943,2.22067 4.00911,5.07988 4.50463,8.26771 0.53236,2.75529 -0.20598,5.44484 -1.71927,7.64036 l 5.9645,4.88652 c 0.78371,-0.50867 1.68454,-0.83507 2.65565,-0.89555 2.09182,-0.10814 3.51662,1.7174 5.28908,2.4784 0.95314,1.37015 0.68793,3.76293 0.31109,5.53145 -1.15347,4.14533 -7.313,5.08932 -9.85159,1.66811 -1.76469,-1.88977 -1.66935,-4.51541 -0.49196,-6.55722 l -5.56814,-5.15472 c -1.72433,1.60683 -3.92432,2.72604 -6.27145,3.06234 -3.09703,0.62906 -6.26819,0.0112 -9.05164,-1.43557 -0.47977,0.77442 -0.95524,1.55125 -1.42111,2.33267 -6.39517,10.30084 -11.85331,21.22145 -16.20211,32.55874 2.57874,1.29044 4.82242,3.23149 6.2451,5.76347 1.40997,2.3072 1.69611,4.97072 1.13481,7.47552 l 9.13743,5.51439 c 1.01519,-1.39093 2.56297,-2.39931 4.34754,-2.51044 2.09182,-0.10814 3.51611,1.7174 5.28856,2.4784 0.95315,1.37017 0.68845,3.7629 0.31161,5.53145 -1.15347,4.14533 -7.313,5.0888 -9.85159,1.66759 -1.02667,-1.09944 -1.42264,-2.44821 -1.34411,-3.78633 l -9.59011,-4.9165 c -1.03048,1.5628 -2.421,2.89284 -4.07055,3.79409 -2.59862,1.62236 -5.67273,2.1703 -8.69508,1.8557 -2.50296,10.52856 -4.02795,21.28402 -4.4421,32.1262 3.31456,0.56743 6.4775,2.09164 8.71833,4.63125 2.16892,2.28374 2.94567,5.35936 2.59157,8.34005 l 10.76523,4.86017 c 0.97545,-0.98174 2.25685,-1.65213 3.69177,-1.74149 2.10396,-0.10407 3.50437,1.71327 5.28908,2.4784 0.95313,1.37013 0.68846,3.76297 0.31161,5.53144 -1.15401,4.14507 -7.31376,5.08899 -9.85263,1.6676 -1.45577,-1.55896 -1.64462,-3.61843 -1.00614,-5.43842 l -10.40195,-3.34916 c -0.67086,1.33804 -1.58975,2.55211 -2.728,3.53261 -2.23601,2.16457 -5.18419,3.34832 -8.25737,3.65145 -0.29827,13.26593 -0.27196,26.53825 -0.0961,39.80998 3.55982,0.171 7.09551,1.4173 9.69656,3.89433 2.1452,1.89804 3.20068,4.54869 3.30368,7.26984 l 5.06687,1.14205 c 0.7875,-2.208 2.7941,-4.05521 5.24722,-4.20749 2.09183,-0.10814 3.51611,1.71791 5.28857,2.47891 0.95316,1.37015 0.68844,3.76241 0.31161,5.53093 -1.15337,4.14465 -7.31086,5.08895 -9.85056,1.66967 -0.67771,-0.72498 -1.07851,-1.55907 -1.25264,-2.42673 l -5.14852,-0.88263 c -0.4876,1.99921 -1.47992,3.88296 -2.92334,5.36298 -2.34547,2.70247 -5.74115,4.19472 -9.28522,4.55063 0.13483,6.02692 0.27713,12.0532 0.41496,18.07747 0.25579,9.04235 0.66136,18.18502 2.04897,27.14561 3.28802,-0.34774 6.68363,0.23525 9.49917,2.0128 1.3252,0.77025 2.3863,1.81326 3.18482,3.02204 l 10.10532,-3.44114 c 0.008,-2.9799 2.43331,-6.00631 5.60379,-6.20374 2.10396,-0.10409 3.5049,1.71325 5.2896,2.4784 0.95313,1.37012 0.68846,3.76296 0.31161,5.53143 -1.15402,4.14507 -7.31375,5.0895 -9.85263,1.66812 -0.0639,-0.0684 -0.1208,-0.13956 -0.17983,-0.20981 l -9.89604,3.23961 c 0.87741,3.15995 0.41598,6.74336 -1.39216,9.53325 -1.42947,2.51434 -3.68731,4.38844 -6.29832,5.5671 4.44815,11.62254 10.22525,22.73356 16.98552,33.18455 3.6195,-1.67061 7.86588,-2.1616 11.6458,-0.76534 1.72804,0.56732 3.1708,1.58904 4.29587,2.88719 l 5.42447,-4.7222 c -1.60101,-3.46753 1.19523,-8.1044 5.14542,-8.35041 2.09183,-0.10814 3.51609,1.71741 5.28857,2.4784 0.95314,1.37015 0.68844,3.76293 0.31161,5.53146 -1.04572,3.75806 -6.20563,4.88492 -9.05216,2.51354 l -5.76089,4.51961 c 1.58217,2.93357 1.90665,6.60318 0.69763,9.76014 -0.58594,1.84404 -1.59437,3.48462 -2.88871,4.87669 10.01711,9.76218 21.75217,17.78273 34.432,23.63579 2.98272,1.26545 6.06697,2.27237 9.21081,3.01789 0.73367,-3.33494 2.441,-6.47155 5.14336,-8.59946 1.65982,-1.40848 3.66042,-2.13016 5.71386,-2.27171 l 0.65939,-4.97229 c -0.98665,-0.32211 -1.88152,-0.91115 -2.53524,-1.79216 -3.23288,-3.46202 -0.23156,-9.39874 4.25194,-9.67795 2.09182,-0.10814 3.5161,1.71738 5.28856,2.4784 0.95314,1.37015 0.68844,3.76291 0.31161,5.53143 -0.56019,2.01319 -2.30193,3.2683 -4.2354,3.63802 l -0.0274,5.15163 c 2.48163,0.64862 4.77987,2.09087 6.35414,4.1398 1.72279,1.99139 2.71535,4.45294 3.05976,7.03212 1.62329,-0.29339 3.23502,-0.65593 4.82968,-1.08931 10.83633,-2.55228 21.44317,-6.92611 30.6033,-13.32376 -0.83796,-1.63203 -1.38226,-3.40056 -1.53583,-5.19245 -0.30918,-1.68007 -0.24717,-3.44445 0.13126,-5.15059 l 0.83303,-2.57812 c 1.20625,-2.80112 3.29364,-5.20245 5.98412,-6.45285 l -0.96841,-4.73252 c -1.88015,0.18108 -3.84523,-0.46474 -5.02657,-2.05671 -3.23288,-3.46205 -0.23206,-9.39877 4.25142,-9.67798 2.10396,-0.10406 3.50489,1.71381 5.2896,2.47893 0.95313,1.37012 0.68846,3.76245 0.31161,5.53093 -0.29453,1.05791 -0.91602,1.90643 -1.71927,2.52801 l 1.42833,5.02553 c 0.13297,-0.008 0.26682,-0.0138 0.40153,-0.0164 2.82969,-0.0964 5.45361,0.92596 7.62331,2.60295 2.61223,-3.5078 5.32515,-6.9128 8.46873,-9.84023 l 2.42414,-2.10944 c 1.92313,-1.50659 4.01436,-2.81461 6.33657,-3.84368 -0.0162,-0.19124 -0.0302,-0.38262 -0.0367,-0.57412 -0.62917,-4.81814 1.48964,-10.10986 5.24774,-13.20075 -0.13531,-0.0316 -0.27294,-0.0479 -0.40773,-0.0822 -0.69549,-0.17672 -1.38349,-0.38809 -2.05982,-0.63302 -0.67633,-0.24506 -1.34132,-0.52348 -1.98955,-0.8351 -0.64822,-0.31163 -1.28018,-0.65593 -1.89135,-1.03249 -0.61117,-0.3766 -1.20164,-0.78533 -1.76682,-1.22526 -0.56518,-0.43992 -1.10465,-0.91122 -1.61489,-1.41282 -0.51025,-0.50157 -0.99127,-1.03367 -1.43764,-1.59525 -0.44636,-0.56163 -0.85791,-1.153 -1.23145,-1.77303 -0.84722,-0.14933 -1.76528,-0.32326 -2.65875,-0.5984 -0.44673,-0.13753 -0.88797,-0.30052 -1.31051,-0.49816 -0.42255,-0.19764 -0.82644,-0.4296 -1.20096,-0.70644 -0.34646,-0.12988 -0.67533,-0.29874 -0.98186,-0.49866 -0.30654,-0.19989 -0.59115,-0.43124 -0.84956,-0.68834 -0.25841,-0.25709 -0.4904,-0.53983 -0.69246,-0.84129 -0.20206,-0.30144 -0.37409,-0.62151 -0.5116,-0.95446 -0.1375,-0.33303 -0.24068,-0.67868 -0.30541,-1.03042 -0.0647,-0.35171 -0.0907,-0.70946 -0.0744,-1.06712 0.0163,-0.35764 0.0749,-0.71535 0.18035,-1.06609 0.10547,-0.35075 0.25755,-0.69426 0.46044,-1.02526 0.1597,-0.13305 0.26631,-0.26868 0.33176,-0.40618 0.0653,-0.13748 0.0895,-0.27686 0.0832,-0.4191 -0.0125,-0.28456 -0.14553,-0.57949 -0.30799,-0.88522 -0.16246,-0.3057 -0.35481,-0.62288 -0.48524,-0.95239 -0.0652,-0.16481 -0.11489,-0.33214 -0.13798,-0.50332 -0.0231,-0.17121 -0.0191,-0.34605 0.0227,-0.52401 0.0549,-0.52374 0.17929,-1.01089 0.36174,-1.46296 0.18245,-0.45209 0.42232,-0.86775 0.71055,-1.25058 0.28823,-0.38177 0.62412,-0.72893 0.99632,-1.04177 0.3722,-0.3139 0.78105,-0.59134 1.21543,-0.83666 0.43437,-0.2453 0.89467,-0.4576 1.36942,-0.63665 0.47486,-0.17909 0.96395,-0.32551 1.45728,-0.43976 0.49333,-0.11425 0.99095,-0.19677 1.48105,-0.24754 0.4901,-0.0508 0.97256,-0.0697 1.43764,-0.0584 0.42094,-0.53022 0.87179,-1.04015 1.34927,-1.52704 0.47747,-0.48691 0.98191,-0.95049 1.50947,-1.38956 0.52744,-0.43905 1.07812,-0.85307 1.64899,-1.23974 0.57088,-0.38668 1.16166,-0.7462 1.7694,-1.0759 0.60775,-0.32967 1.2321,-0.62994 1.87017,-0.89813 0.63807,-0.26818 1.28998,-0.50429 1.95182,-0.70641 0.66184,-0.20211 1.33373,-0.37026 2.0128,-0.50178 0.67907,-0.13147 1.36542,-0.22632 2.05517,-0.28268 0.28602,0.0122 0.47647,-0.005 0.58963,-0.0455 0.11326,-0.0408 0.14846,-0.10504 0.12609,-0.18708 -0.0447,-0.16396 -0.32293,-0.39963 -0.68575,-0.66146 -0.36282,-0.26181 -0.80948,-0.54922 -1.19166,-0.81854 -0.38218,-0.26937 -0.69972,-0.51983 -0.80253,-0.70641 2.22812,-0.50911 4.44273,-1.26474 6.68383,-1.83814 1.12054,-0.28668 2.24779,-0.52859 3.38635,-0.67077 0.56928,-0.0711 1.14158,-0.11743 1.71721,-0.1323 0.57563,-0.0148 1.15467,0 1.73788,0.0569 0.24761,0.0122 0.49469,0.0346 0.74052,0.0636 0.47627,0.0568 0.94861,0.14388 1.4149,0.25992 0.46629,0.11602 0.92641,0.25919 1.37821,0.43101 0.90361,0.34142 1.77396,0.78867 2.59261,1.32186 0.81866,0.53326 1.58538,1.15294 2.28306,1.84176 0.69779,0.68884 1.32639,1.44637 1.86708,2.25465 0.54068,0.80827 0.99385,1.66743 1.34152,2.559 0.17383,0.44574 0.32094,0.89984 0.43976,1.35961 0.11882,0.45982 0.20941,0.92541 0.26872,1.39475 0.0593,0.46934 0.0874,0.9416 0.0827,1.41594 -0.005,0.47432 -0.042,0.95041 -0.11524,1.42524 -0.0732,0.47479 -0.18241,0.94877 -0.32866,1.41954 -0.14624,0.47077 -0.3302,0.93824 -0.55397,1.40044 0.4961,-0.0206 1.00517,0.007 1.51567,0.0786 0.5105,0.0718 1.02229,0.18751 1.52394,0.34571 0.50164,0.15819 0.99343,0.35827 1.46296,0.59687 0.46953,0.23852 0.91702,0.51589 1.33118,0.82889 0.41417,0.31289 0.79514,0.66185 1.13068,1.04333 0.33554,0.38142 0.62573,0.79531 0.85938,1.2392 0.23366,0.44381 0.41083,0.91768 0.51935,1.41801 0.10852,0.50033 0.14839,1.0274 0.10852,1.57819 -0.0342,0.54356 -0.1412,1.04777 -0.30954,1.5136 -0.16835,0.4658 -0.39759,0.8935 -0.67748,1.28315 -0.27988,0.3897 -0.60996,0.74112 -0.97875,1.05624 -0.36879,0.3152 -0.77675,0.59343 -1.21181,0.83561 -0.43507,0.24228 -0.89796,0.44915 -1.37666,0.62013 -0.47871,0.17097 -0.97359,0.30691 -1.4733,0.40825 -0.4997,0.10136 -1.00365,0.1682 -1.50172,0.20153 -0.49806,0.0333 -0.99019,0.0329 -1.46399,0 0.20505,0.53541 0.35413,1.08043 0.45165,1.63039 0.0975,0.54991 0.14406,1.10464 0.14315,1.65934 -8e-4,0.55464 -0.0493,1.10924 -0.13953,1.6588 -0.0902,0.54962 -0.22224,1.09419 -0.39274,1.62886 -0.1705,0.53464 -0.37939,1.05947 -0.62115,1.5694 -0.24166,0.50988 -0.51639,1.00518 -0.82011,1.48053 -0.30371,0.47537 -0.63602,0.93019 -0.9927,1.36115 -0.35668,0.43092 -0.73737,0.83767 -1.13792,1.21441 -0.68316,0.67077 -1.42059,1.24002 -2.19883,1.71513 -0.44643,0.27252 -0.93166,0.44784 -1.40301,0.6599 1.08381,2.25991 1.57207,4.80407 1.44642,7.34322 3.85155,1.27437 7.4793,3.22649 10.61382,5.7857 8.00174,5.44128 16.12048,12.76365 26.3647996,12.81266 -0.48428,-5.02569 1.98287997,-10.54802 6.2482,-13.17231 0,0 0.45274,-0.38246 1.32757,-0.75914 l -3.71864,-13.82705 c -1.22179003,0.21254 -2.48821,0.0359 -3.59461,-0.68731 -4.66391,-2.2539 -2.9341,-10.27123 2.11510997,-10.62106 0.15721,-0.0143 0.31512,-0.0222 0.47284,-0.0243 2.36579003,-0.0289 4.74053003,1.30429 5.68132003,3.52692 1.37578,2.61533 0.005,5.34284 -2.20711,6.80733 l 5.66375,14.12111 c 1.1926104,0.0694 2.5637404,0.32694 4.1118904,0.8909 3.17379,1.41576 5.7458,4.22185 7.121,7.44297 4.18058,-1.59856 8.39004,-3.09629 12.77183,-3.91658 7.60164,-2.17799 15.27453,-4.48574 22.82135,-7.14737 -0.14383,-0.63913 -0.24445,-1.2854 -0.29197,-1.93371 -0.74689,-4.62092 1.23677,-9.81313 4.88551,-12.72532 l -7.11224,-14.66218 c -2.31119,0.99582 -5.3208,0.56603 -6.91068,-1.57662 -3.23289,-3.46263 -0.23207,-9.39877 4.2514,-9.67798 2.09183,-0.10814 3.5161,1.71791 5.28857,2.47893 0.95314,1.37015 0.68845,3.7624 0.3116,5.53093 -0.14118,0.50737 -0.35811,0.96578 -0.63407,1.37509 l 7.88739,14.8022 c 0.98427,-0.34896 2.03623,-0.55195 3.14708,-0.57206 4.99581,-0.12618 9.30987,3.21789 11.57968,7.51118 8.72175,-4.45159 16.94812,-9.78731 24.30859,-16.43362 2.71664,-2.53034 5.24386,-5.21398 7.62641,-8.01296 -2.37382,-2.18498 -4.12364,-5.04962 -4.73462,-8.17985 -1.02208,-3.37347 -0.1311,-7.07089 1.92702,-9.86142 L 94.8723,403.60746 c -2.28812,0.9071 -5.19409,0.44971 -6.74688,-1.6428 -3.23339,-3.46159 -0.23058,-9.39858 4.25247,-9.67692 2.09182,-0.10814 3.5161,1.71791 5.28857,2.47891 0.95308,1.36985 0.68842,3.76171 0.3116,5.5299 -0.0974,0.3498 -0.23342,0.67474 -0.39688,0.97824 l 12.47418,13.83533 c 1.67674,-1.27183 3.70255,-2.05394 5.90921,-2.05878 3.08475,-0.14589 6.08494,0.82148 8.62737,2.50836 4.90815,-8.11575 9.389,-16.52696 14.07872,-24.67653 1.7137,-3.23461 3.26805,-6.53814 4.68138,-9.89708 -3.15283,-1.9821 -5.63542,-4.99441 -6.5531,-8.62685 -0.71932,-2.08859 -0.63714,-4.23695 0.0212,-6.21049 l -12.63386,-9.09556 c -2.0497,2.77835 -6.91075,3.06929 -9.09608,0.12712 -3.23562,-3.46131 -0.23424,-9.40111 4.25037,-9.67951 2.09182,-0.10814 3.51613,1.71791 5.28857,2.47891 0.73861,1.06178 0.74335,2.73513 0.53383,4.25866 l 14.01775,7.87136 c 2.07296,-2.33686 5.04627,-3.90351 8.20569,-3.92896 1.10815,-0.0517 2.21675,0.0164 3.30832,0.18965 2.0076,-8.30445 3.40151,-16.77021 4.3584,-25.24136 0.69321,-5.79441 1.20483,-11.60075 1.56477,-17.41444 -5.0673,-1.20538 -9.55034,-4.71179 -10.76732,-9.9968 -0.30496,-1.24037 -0.34811,-2.46271 -0.1824,-3.63906 l -7.64141,-1.80299 c -1.77226,3.29423 -7.12946,3.82423 -9.45523,0.69298 -3.23559,-3.46131 -0.23371,-9.40111 4.2509,-9.67951 2.09183,-0.10814 3.5161,1.71792 5.28857,2.47892 0.52041,0.74809 0.67633,1.80111 0.65061,2.89078 l 8.24394,1.61334 c 2.07402,-3.58429 6.11794,-6.18405 10.27171,-6.53139 -0.053,-11.15598 -0.57182,-22.31647 -1.40094,-33.45119 -5.78445,-0.54582 -11.27935,-4.05561 -12.61835,-9.99732 -0.11819,-0.60566 -0.17833,-1.20568 -0.18809,-1.7973 l -7.31221,-0.14677 c -0.0254,0.13277 -0.05,0.2689 -0.077,0.39585 -1.15337,4.14465 -7.31137,5.08894 -9.85108,1.66966 -3.23558,-3.46131 -0.2337,-9.40111 4.25091,-9.67951 2.09182,-0.10814 3.51612,1.7174 5.28857,2.4784 0.44487,0.6395 0.62238,1.50247 0.64905,2.42001 l 7.57422,-0.54105 c 1.41825,-4.3409 5.53599,-7.78016 10.06036,-8.84908 -0.137,-1.26265 -0.27699,-2.52446 -0.4191,-3.78581 -1.92955,-12.76405 -5.14707,-25.78022 -11.10112,-37.32589 -4.91593,2.0899 -10.76693,1.83554 -14.78566,-2.01073 l -9.61131,4.44366 c 0.0424,1.07218 -0.12906,2.22687 -0.33538,3.19515 -1.15337,4.14469 -7.31086,5.08895 -9.85054,1.66967 -3.23562,-3.46132 -0.23424,-9.40112 4.25037,-9.67952 1.51389,-0.0783 2.67869,0.85517 3.87831,1.66605 l 9.14313,-5.46685 c -1.3363,-4.25931 0.018,-9.27011 2.97863,-12.73824 -10.63001,-9.76049 -23.25812,-17.12461 -36.27583,-23.37222 -3.18416,5.55742 -9.63626,9.36172 -15.99229,7.38302 l -4.60026,7.12928 c 0.95313,1.37012 0.68847,3.76296 0.31162,5.53144 -1.154,4.14507 -7.31377,5.08898 -9.85263,1.6676 -3.23289,-3.46203 -0.23154,-9.39823 4.25193,-9.67744 0.65916,-0.0326 1.24897,0.12356 1.80351,0.37672 l 3.83802,-7.76129 c -3.30761,-3.55125 -4.14332,-9.27444 -2.46859,-13.91129 -11.89487,-4.07712 -24.0666,-7.28683 -36.35385,-10.03712 -2.49503,5.79691 -8.32896,10.26579 -14.765,9.19169 l -2.8081,7.26674 c 0.38933,0.25605 0.7851,0.49336 1.20253,0.67231 0.95314,1.37015 0.68842,3.76293 0.3116,5.53145 -1.15337,4.14465 -7.3108604,5.08894 -9.8505704,1.66966 -3.23541,-3.46118 -0.23458,-9.40044 4.2498704,-9.67951 0.50226,-0.0248 0.96353,0.0618 1.40044,0.21549 l 2.30423,-6.83071 c -4.32647,-2.46996 -6.4539104,-7.88803 -5.9459104,-12.89327 -5.25305,-0.98387 -10.5088,-1.93288 -15.75511,-2.8727 C -14.1616,122.78932 -21.18742,122.09371 -28.22976,121.9563 Z"
       id="path1529" />
    <path
       inkscape:connector-curvature="0"
       style="fill:none;stroke:#fb0000;stroke-width:0.32881865px;stroke-linecap:butt;stroke-linejoin:miter;stroke-opacity:1"
       d="m -45.36186,418.67301 c -0.61067,-0.0474 -1.21823,-0.0417 -1.82263,0.005 -0.60439,0.0455 -1.20589,0.13059 -1.80336,0.24214 -1.19495,0.22307 -2.37534,0.55124 -3.53866,0.87789 0.82849,0.61034 1.75584,1.15697 2.70698,1.69487 0.95112,0.5379 1.92609,1.06693 2.85147,1.64407 0.46269,0.28858 0.91317,0.58946 1.3416,0.90873 0.42844,0.3193 0.83497,0.6572 1.2106,1.02116 0.37562,0.36394 0.72008,0.75393 1.02435,1.17658 0.30426,0.42259 0.5685,0.87783 0.78287,1.37305 -0.4451,-0.38081 -0.91064,-0.73424 -1.39299,-1.06034 -0.48235,-0.3261 -0.98171,-0.62484 -1.49574,-0.89651 -0.51403,-0.27171 -1.04231,-0.51647 -1.58244,-0.73406 -0.54013,-0.21765 -1.09179,-0.40839 -1.65244,-0.57225 -0.56065,-0.16383 -1.13079,-0.30061 -1.70639,-0.411 -0.57559,-0.11036 -1.15675,-0.19389 -1.74171,-0.25109 -1.16993,-0.11448 -2.35315,-0.12329 -3.52709,-0.0272 -1.17395,0.0963 -2.33852,0.29726 -3.47187,0.60174 -0.56667,0.15227 -1.12612,0.3305 -1.67428,0.53436 -0.54815,0.20383 -1.08534,0.43333 -1.60941,0.68844 -0.52407,0.25514 -1.03473,0.53589 -1.52913,0.84196 -0.49441,0.30607 -0.97236,0.63743 -1.43152,0.99417 -0.45916,0.35674 -0.89951,0.73867 -1.31785,1.14573 -0.41833,0.40703 -0.81488,0.83957 -1.18682,1.29664 -0.21271,0.1564 -0.38633,0.42153 -0.54397,0.71094 -0.15765,0.28942 -0.29945,0.60314 -0.44892,0.85608 -0.14945,0.25297 -0.30635,0.44495 -0.4945,0.49194 -0.0941,0.0238 -0.19573,0.0111 -0.30827,-0.0488 -0.11254,-0.0598 -0.23628,-0.16655 -0.37313,-0.33075 -0.58689,-0.13949 -1.19275,-0.16275 -1.79759,-0.0931 -0.60483,0.0696 -1.20822,0.23188 -1.78924,0.46368 -0.58101,0.23183 -1.13959,0.53343 -1.65501,0.88048 -0.51541,0.34706 -0.98815,0.74002 -1.39619,1.15538 -0.12497,0.23863 -0.18654,0.4671 -0.19845,0.68652 -0.0119,0.21944 0.026,0.42979 0.10147,0.63069 0.0755,0.20087 0.18838,0.39237 0.32561,0.57541 0.13724,0.18304 0.29871,0.35759 0.47203,0.52343 0.34666,0.33173 0.73992,0.63008 1.07701,0.89715 0.3371,0.26715 0.61817,0.50305 0.74049,0.71096 -0.39429,0.14922 -0.85284,0.38724 -1.2883,0.68657 -0.43547,0.29927 -0.84766,0.65981 -1.15023,1.05388 -0.15128,0.19701 -0.27486,0.4023 -0.36029,0.61265 -0.0854,0.21037 -0.13257,0.4255 -0.13036,0.64225 0.002,0.21674 0.0535,0.43558 0.16504,0.65185 0.11159,0.21627 0.28327,0.43019 0.52599,0.639 0.43396,0.31414 0.92977,0.68577 1.46234,1.04042 0.53257,0.35464 1.10211,0.69262 1.68327,0.94019 0.29059,0.12383 0.58393,0.22474 0.87728,0.29414 0.29335,0.0694 0.58676,0.10684 0.87663,0.10343 0.28987,-0.005 0.57595,-0.0478 0.85609,-0.14259 0.28013,-0.0948 0.55405,-0.2399 0.81819,-0.44442 0.23091,0.57267 0.4958,1.12176 0.79122,1.6473 0.29542,0.52557 0.6211,1.02767 0.9749,1.50537 0.35379,0.47771 0.73583,0.93107 1.14187,1.36025 0.40604,0.42913 0.83615,0.83391 1.2883,1.21378 0.45216,0.37989 0.92589,0.73493 1.41803,1.06479 0.49215,0.3299 1.00315,0.6347 1.52914,0.91389 0.52598,0.27924 1.06727,0.53322 1.62097,0.76105 0.55371,0.22781 1.11954,0.42926 1.69483,0.605 1.15059,0.35139 2.33852,0.59788 3.53865,0.7366 0.31167,0.0359 0.62537,0.004 0.93829,0.0238 l 0.13808,-9.36556 c -0.47773,-0.0772 -0.9442,-0.21458 -1.38463,-0.41744 -0.44043,-0.20285 -0.85483,-0.47122 -1.22922,-0.81052 -0.25979,-0.19338 -0.49251,-0.40304 -0.69874,-0.62614 -0.20623,-0.22312 -0.38627,-0.45979 -0.54139,-0.7071 -0.31024,-0.49458 -0.52054,-1.03187 -0.64094,-1.59012 -0.12041,-0.55829 -0.15075,-1.13752 -0.10083,-1.71537 0.0499,-0.57788 0.18008,-1.15432 0.38084,-1.7077 0.20076,-0.55343 0.47198,-1.08347 0.80406,-1.56829 0.33209,-0.48485 0.72493,-0.92445 1.16885,-1.29667 0.44392,-0.37222 0.93894,-0.6772 1.47518,-0.89268 0.53626,-0.21553 1.11401,-0.34171 1.72309,-0.35644 0.0814,-0.005 0.16198,-0.007 0.24212,-0.005 0.30053,0.006 0.59216,0.0546 0.87535,0.13486 0.28319,0.0803 0.55782,0.19214 0.82526,0.32369 0.53488,0.26316 1.03998,0.60548 1.52143,0.9338 0.25792,0.0756 0.49575,0.176 0.71351,0.29734 0.21777,0.12136 0.4154,0.26373 0.59341,0.42389 0.35603,0.32035 0.63288,0.71151 0.83233,1.14572 0.19944,0.43421 0.32125,0.91152 0.36735,1.40454 0.0461,0.493 0.0167,1.00161 -0.0873,1.49831 0.0259,0.3147 0.0215,0.61957 -0.01,0.9139 -0.0312,0.29435 -0.089,0.57822 -0.17147,0.85032 -0.16492,0.54416 -0.42688,1.04224 -0.76232,1.48608 -0.33544,0.44381 -0.74435,0.83346 -1.20417,1.16176 -0.45982,0.32829 -0.97052,0.59491 -1.50858,0.79251 l 0.65635,9.27949 c 0.405,0.039 0.81744,0.0425 1.21316,0.12266 0.34265,-0.0694 0.68799,-0.12824 1.02499,-0.21706 0.57604,-0.15188 1.14334,-0.33179 1.69804,-0.54076 0.5547,-0.20889 1.09696,-0.44678 1.62418,-0.71348 0.28166,-0.0649 0.87722,-0.53014 1.27675,-0.80279 0.19976,-0.13632 0.35037,-0.22416 0.38854,-0.19011 -0.4434,1.0068 -1.54999,1.95324 -2.47834,2.61387 -0.34695,0.2457 -0.74326,0.42366 -1.11233,0.63897 2.00834,0.94494 3.75119,2.47933 5.03183,4.31515 v 0 c 0.53203,-0.23088 1.0552,-0.487 1.54583,-0.81566 0.56304,-0.37711 1.09501,-0.82103 1.58822,-1.3371 0.33144,-0.32486 0.65494,-0.68726 0.96076,-1.07831 0.30583,-0.39103 0.59426,-0.81108 0.85673,-1.25164 0.26247,-0.44061 0.49864,-0.90149 0.70002,-1.37504 0.20139,-0.47352 0.36811,-0.95956 0.49066,-1.44952 0.12256,-0.48987 0.20071,-0.98419 0.22671,-1.47388 0.026,-0.48967 -2.6e-4,-0.97476 -0.0886,-1.44754 -0.0883,-0.47284 -0.2382,-0.93305 -0.45854,-1.37247 -0.22036,-0.43937 -0.51101,-0.85784 -0.88114,-1.24714 -0.14731,-0.1556 -0.34447,-0.26731 -0.53947,-0.36224 -0.19499,-0.095 -0.38823,-0.17286 -0.52919,-0.26139 -0.14096,-0.0885 -0.2293,-0.18796 -0.2145,-0.32435 0.0148,-0.13634 0.13297,-0.31004 0.40524,-0.54845 0.0314,-0.22225 0.0936,-0.39497 0.18047,-0.52793 0.0868,-0.13292 0.19815,-0.22563 0.32882,-0.28834 0.26132,-0.12533 0.59897,-0.12959 0.96654,-0.088 0.36758,0.0417 0.76478,0.12912 1.14638,0.18561 0.38159,0.0565 0.74728,0.082 1.05067,0 0.62645,0.0333 1.33106,0.0525 2.04613,0.0148 0.71506,-0.0377 1.44081,-0.13218 2.1097,-0.32562 0.33445,-0.0967 0.65479,-0.21773 0.95242,-0.36923 0.29763,-0.15152 0.5723,-0.33356 0.81627,-0.55041 0.24396,-0.21688 0.45721,-0.46884 0.63066,-0.76171 0.17345,-0.29281 0.30696,-0.62637 0.39304,-1.00571 0.0682,-0.41113 0.0703,-0.79139 0.0161,-1.14252 -0.0542,-0.35108 -0.16459,-0.67294 -0.32047,-0.9665 -0.15588,-0.2936 -0.35734,-0.55922 -0.59406,-0.79766 -0.23671,-0.23847 -0.50858,-0.44995 -0.80534,-0.63582 -0.29677,-0.18585 -0.61835,-0.346 -0.95435,-0.48165 -0.336,-0.13568 -0.6866,-0.24664 -1.04105,-0.33459 -0.70888,-0.17595 -1.43389,-0.25895 -2.09172,-0.25882 -0.68719,-0.0864 -1.41847,-0.10395 -2.13604,-0.12718 -0.71756,-0.0233 -1.42105,-0.0525 -2.05383,-0.16309 0.006,-0.21789 -0.0726,-0.44313 -0.17211,-0.65895 -0.0995,-0.21584 -0.2198,-0.42211 -0.29479,-0.60243 -0.075,-0.18026 -0.10504,-0.33448 -0.0251,-0.44566 0.08,-0.11123 0.27033,-0.17955 0.6358,-0.18817 0.42945,-0.22299 0.79425,-0.4939 1.10077,-0.8028 0.30653,-0.30893 0.55487,-0.65588 0.75076,-1.03079 0.1959,-0.37484 0.33916,-0.77748 0.43672,-1.19838 0.0976,-0.42084 0.14905,-0.85944 0.16055,-1.30627 0.0115,-0.44686 -0.0167,-0.90223 -0.079,-1.35509 -0.0622,-0.45289 -0.15823,-0.90337 -0.28194,-1.34229 -0.12371,-0.43886 -0.27539,-0.866 -0.44827,-1.27092 -0.17288,-0.40495 -0.36696,-0.78769 -0.57672,-1.13869 -0.41567,-0.7657 -0.92544,-1.47153 -1.50986,-2.10585 -0.58444,-0.63433 -1.24362,-1.19692 -1.95879,-1.67621 -0.71516,-0.47924 -1.48613,-0.87535 -2.29402,-1.17589 -0.80789,-0.30054 -1.65234,-0.50617 -2.51495,-0.60433 -0.23006,-0.0259 -0.46139,-0.0441 -0.6936,-0.0553 z"
       id="path1523" />
  </g>
</svg>
