<?xml version="1.0" encoding="UTF-8" standalone="no"?>
<!DOCTYPE svg PUBLIC "-//W3C//DTD SVG 20010904//EN"
              "http://www.w3.org/TR/2001/REC-SVG-20010904/DTD/svg10.dtd">

<svg xmlns="http://www.w3.org/2000/svg"
     width="13.6944in" height="13.6667in"
     viewBox="0 0 986 984">
  <path id="numbers places"
        fill="none" stroke="black" stroke-width="1"
        d="M 452.67,819.33
           C 452.67,819.33 475.50,812.00 475.50,812.00
             475.50,812.00 481.00,835.00 481.00,835.50
             481.00,836.00 454.00,842.50 454.50,842.50
             455.00,842.50 452.67,819.33 452.67,819.33 Z
           M 598.50,863.00
           C 598.50,863.00 605.00,884.50 605.00,884.50
             605.00,884.50 614.00,881.00 614.00,881.00
             614.00,881.00 608.50,859.00 608.50,859.00
             608.50,859.00 598.50,863.00 598.50,863.00 Z
           M 728.50,821.00
           C 728.50,821.00 735.50,840.00 736.00,840.00
             736.50,840.00 750.50,834.00 750.50,834.00
             750.50,834.00 741.00,813.00 741.00,813.00
             741.00,813.00 728.50,821.00 728.50,821.00 Z
           M 840.50,733.00
           C 840.50,733.00 858.50,749.00 858.50,749.00
             858.50,749.00 868.00,737.00 868.00,737.00
             868.00,737.00 851.00,720.50 851.00,720.50
             851.00,720.50 840.50,733.00 840.50,733.00 Z
           M 910.00,609.50
           C 910.00,609.00 936.00,621.50 936.00,621.50
             936.00,621.50 942.50,607.00 942.50,607.00
             942.50,607.00 917.50,594.50 917.50,594.50
             917.50,594.50 910.00,610.00 910.00,609.50 Z
           M 935.50,444.00
           C 935.50,444.00 934.00,461.00 934.00,461.00
             934.00,461.00 959.00,464.00 959.00,464.00
             959.00,464.00 961.50,447.00 961.50,447.00
             961.50,447.00 935.50,444.00 935.50,444.00 Z
           M 927.00,313.50
           C 927.00,313.50 927.50,332.00 927.50,332.00
             927.50,332.00 959.50,331.50 959.50,331.50
             959.50,331.50 958.00,313.50 958.00,313.50
             958.00,313.50 927.00,313.50 927.00,313.50 Z
           M 881.50,176.50
           C 881.50,176.00 893.50,190.00 893.50,190.00
             893.50,190.00 916.00,175.00 916.00,175.00
             916.00,175.00 904.00,160.50 904.00,160.50
             904.00,160.50 881.50,177.00 881.50,176.50 Z
           M 766.50,77.00
           C 766.50,77.00 757.50,100.50 757.50,100.50
             757.50,100.50 773.50,107.50 773.50,107.50
             773.50,107.50 782.50,83.50 782.50,83.50
             782.50,83.50 766.50,77.00 766.50,77.00 Z
           M 627.50,38.00
           C 627.50,38.00 622.00,63.50 622.00,63.50
             622.00,63.50 636.50,68.00 636.50,68.00
             636.50,68.00 644.50,42.50 644.50,42.50
             644.50,42.50 627.50,38.00 627.50,38.00 Z
           M 474.50,24.00
           C 474.50,24.00 475.50,49.00 475.50,49.00
             475.50,49.00 509.00,49.50 509.00,49.50
             509.00,49.50 508.50,23.50 508.50,23.50
             508.50,23.50 474.50,24.00 474.50,24.00 Z
           M 339.00,27.00
           C 339.00,27.00 341.50,55.50 341.50,55.50
             341.50,55.50 368.50,53.00 368.50,53.00
             368.50,53.00 367.00,24.50 367.00,24.50
             367.00,24.50 339.00,27.00 339.00,27.00 Z
           M 201.00,70.00
           C 201.00,70.00 213.00,95.50 213.00,95.50
             213.00,95.50 241.50,82.00 241.50,82.00
             241.50,82.00 231.50,56.50 231.50,56.50
             231.50,56.50 201.00,70.00 201.00,70.00 Z
           M 109.50,153.00
           C 109.50,153.00 132.50,171.00 132.50,171.00
             132.50,171.00 115.50,192.50 115.50,192.50
             115.50,192.50 90.50,177.00 91.00,177.00
             91.50,177.00 109.50,153.00 109.50,153.00 Z
           M 34.50,286.50
           C 34.50,286.50 61.50,295.00 61.50,295.00
             61.50,295.00 55.50,320.00 55.50,320.00
             55.50,320.00 27.00,312.50 27.00,312.50
             27.00,312.50 34.50,286.50 34.50,286.50 Z
           M 16.00,421.00
           C 16.00,421.00 16.00,444.00 16.00,444.00
             16.00,444.00 37.50,444.50 38.00,444.50
             38.50,444.50 39.00,420.00 39.00,420.00
             39.00,420.00 16.00,421.00 16.00,421.00 Z
           M 16.00,565.00
           C 16.00,565.00 17.00,592.50 16.50,592.50
             16.00,592.50 44.00,589.00 44.00,589.50
             44.00,590.00 41.50,564.00 41.50,564.00
             41.50,564.00 16.00,565.00 16.00,565.00 Z
           M 22.50,727.00
           C 22.50,727.00 30.50,755.50 30.50,755.50
             30.50,755.50 55.00,747.00 55.00,747.00
             55.00,747.00 47.00,719.50 47.50,719.50
             48.00,719.50 22.50,727.00 22.50,727.00 Z
           M 84.50,858.50
           C 84.50,858.50 104.50,883.50 104.50,883.50
             104.50,883.50 122.50,867.50 122.50,867.50
             122.50,867.50 105.00,843.00 105.00,843.00
             105.00,843.00 84.50,858.50 84.50,858.50 Z
           M 236.50,936.50
           C 236.50,936.50 238.50,964.50 238.50,964.50
             238.50,964.50 268.50,962.00 268.50,962.00
             268.50,962.00 266.50,935.00 266.50,935.00
             266.50,935.00 236.50,936.50 236.50,936.50 Z
           M 363.50,891.00
           C 363.50,891.00 373.00,914.50 373.00,914.50
             373.00,914.50 406.50,899.50 406.50,899.50
             406.50,899.50 398.00,876.00 398.00,876.00
             398.00,876.00 363.50,891.00 363.50,891.00 Z" />
</svg>
