<?xml version="1.0" encoding="UTF-8" standalone="no"?>
<svg
   xmlns:dc="http://purl.org/dc/elements/1.1/"
   xmlns:cc="http://creativecommons.org/ns#"
   xmlns:rdf="http://www.w3.org/1999/02/22-rdf-syntax-ns#"
   xmlns:svg="http://www.w3.org/2000/svg"
   xmlns="http://www.w3.org/2000/svg"
   xmlns:sodipodi="http://sodipodi.sourceforge.net/DTD/sodipodi-0.dtd"
   xmlns:inkscape="http://www.inkscape.org/namespaces/inkscape"
   width="13.6944in"
   height="13.6667in"
   viewBox="0 0 986 984"
   version="1.1"
   id="svg3"
   sodipodi:docname="plate.svg"
   inkscape:version="0.92.2 5c3e80d, 2017-08-06">
  <metadata
     id="metadata9">
    <rdf:RDF>
      <cc:Work
         rdf:about="">
        <dc:format>image/svg+xml</dc:format>
        <dc:type
           rdf:resource="http://purl.org/dc/dcmitype/StillImage" />
      </cc:Work>
    </rdf:RDF>
  </metadata>
  <defs
     id="defs7" />
  <sodipodi:namedview
     pagecolor="#ffffff"
     bordercolor="#666666"
     borderopacity="1"
     objecttolerance="10"
     gridtolerance="10"
     guidetolerance="10"
     inkscape:pageopacity="0"
     inkscape:pageshadow="2"
     inkscape:window-width="1920"
     inkscape:window-height="1016"
     id="namedview5"
     showgrid="false"
     inkscape:zoom="1.4390208"
     inkscape:cx="702.46254"
     inkscape:cy="-1254.9192"
     inkscape:window-x="0"
     inkscape:window-y="27"
     inkscape:window-maximized="1"
     inkscape:current-layer="svg3" />
  <path
     id="full"
     fill="none"
     stroke="black"
     stroke-width="1"
     d="M 3.00,1.50            C 3.00,1.50 1.50,982.50 1.50,982.50              1.50,982.50 982.50,984.00 982.50,984.00              982.50,984.00 984.00,3.00 984.00,3.00              984.00,3.00 3.00,1.50 3.00,1.50 Z            M 304.00,545.00            C 304.00,545.00 355.50,741.00 355.50,741.00              355.50,741.00 507.50,698.50 507.50,698.50              507.50,698.50 458.00,504.00 458.00,504.00              458.00,504.00 304.00,545.00 304.00,545.00 Z            M 418.00,762.00            C 418.00,762.00 516.50,764.00 516.50,764.00M 544.00,811.00            C 544.00,811.00 634.00,778.50 634.00,778.50M 663.50,778.00            C 663.50,778.00 743.00,727.00 743.00,727.00M 767.50,707.50            C 767.50,707.50 826.00,630.00 826.00,630.00M 845.50,610.50            C 845.50,610.50 872.50,518.50 872.50,518.50M 885.00,488.00            C 885.00,488.00 891.00,392.50 891.00,392.50M 887.00,363.00            C 887.00,363.00 876.50,269.00 876.50,269.00M 866.50,245.50            C 866.50,245.50 809.50,169.00 809.50,169.00M 775.50,164.00            C 775.50,164.00 689.00,125.50 689.00,125.50M 654.50,118.00            C 654.50,118.00 561.00,98.50 561.00,98.50M 529.00,100.00            C 529.00,100.00 435.50,97.50 435.50,97.50M 405.00,96.50            C 405.00,96.50 310.00,108.50 310.00,108.50M 284.00,107.50            C 284.00,107.50 197.50,154.50 197.50,154.50M 185.50,177.50            C 185.50,177.50 130.00,256.50 130.00,256.50M 114.50,283.00            C 114.50,283.00 102.50,378.00 102.50,378.00M 95.00,406.50            C 95.00,406.50 91.00,504.00 91.00,504.00M 82.00,539.00            C 82.00,539.00 90.00,635.00 90.00,635.00M 91.00,670.50            C 91.00,670.50 118.00,766.00 118.00,765.50M 122.00,791.50            C 122.00,791.50 187.00,867.00 187.00,867.00M 209.50,895.00            C 209.50,895.00 307.50,889.00 307.50,889.00M 335.00,871.50            C 335.00,871.50 406.00,809.00 406.00,809.00M 452.67,819.33            C 452.67,819.33 475.50,812.00 475.50,812.00              475.50,812.00 481.00,835.00 481.00,835.50              481.00,836.00 454.00,842.50 454.50,842.50              455.00,842.50 452.67,819.33 452.67,819.33 Z            M 598.50,863.00            C 598.50,863.00 605.00,884.50 605.00,884.50              605.00,884.50 614.00,881.00 614.00,881.00              614.00,881.00 608.50,859.00 608.50,859.00              608.50,859.00 598.50,863.00 598.50,863.00 Z            M 728.50,821.00            C 728.50,821.00 735.50,840.00 736.00,840.00              736.50,840.00 750.50,834.00 750.50,834.00              750.50,834.00 741.00,813.00 741.00,813.00              741.00,813.00 728.50,821.00 728.50,821.00 Z            M 840.50,733.00            C 840.50,733.00 858.50,749.00 858.50,749.00              858.50,749.00 868.00,737.00 868.00,737.00              868.00,737.00 851.00,720.50 851.00,720.50              851.00,720.50 840.50,733.00 840.50,733.00 Z            M 910.00,609.50            C 910.00,609.00 936.00,621.50 936.00,621.50              936.00,621.50 942.50,607.00 942.50,607.00              942.50,607.00 917.50,594.50 917.50,594.50              917.50,594.50 910.00,610.00 910.00,609.50 Z            M 935.50,444.00            C 935.50,444.00 934.00,461.00 934.00,461.00              934.00,461.00 959.00,464.00 959.00,464.00              959.00,464.00 961.50,447.00 961.50,447.00              961.50,447.00 935.50,444.00 935.50,444.00 Z            M 927.00,313.50            C 927.00,313.50 927.50,332.00 927.50,332.00              927.50,332.00 959.50,331.50 959.50,331.50              959.50,331.50 958.00,313.50 958.00,313.50              958.00,313.50 927.00,313.50 927.00,313.50 Z            M 881.50,176.50            C 881.50,176.00 893.50,190.00 893.50,190.00              893.50,190.00 916.00,175.00 916.00,175.00              916.00,175.00 904.00,160.50 904.00,160.50              904.00,160.50 881.50,177.00 881.50,176.50 Z            M 766.50,77.00            C 766.50,77.00 757.50,100.50 757.50,100.50              757.50,100.50 773.50,107.50 773.50,107.50              773.50,107.50 782.50,83.50 782.50,83.50              782.50,83.50 766.50,77.00 766.50,77.00 Z            M 627.50,38.00            C 627.50,38.00 622.00,63.50 622.00,63.50              622.00,63.50 636.50,68.00 636.50,68.00              636.50,68.00 644.50,42.50 644.50,42.50              644.50,42.50 627.50,38.00 627.50,38.00 Z            M 474.50,24.00            C 474.50,24.00 475.50,49.00 475.50,49.00              475.50,49.00 509.00,49.50 509.00,49.50              509.00,49.50 508.50,23.50 508.50,23.50              508.50,23.50 474.50,24.00 474.50,24.00 Z            M 339.00,27.00            C 339.00,27.00 341.50,55.50 341.50,55.50              341.50,55.50 368.50,53.00 368.50,53.00              368.50,53.00 367.00,24.50 367.00,24.50              367.00,24.50 339.00,27.00 339.00,27.00 Z            M 201.00,70.00            C 201.00,70.00 213.00,95.50 213.00,95.50              213.00,95.50 241.50,82.00 241.50,82.00              241.50,82.00 231.50,56.50 231.50,56.50              231.50,56.50 201.00,70.00 201.00,70.00 Z            M 109.50,153.00            C 109.50,153.00 132.50,171.00 132.50,171.00              132.50,171.00 115.50,192.50 115.50,192.50              115.50,192.50 90.50,177.00 91.00,177.00              91.50,177.00 109.50,153.00 109.50,153.00 Z            M 34.50,286.50            C 34.50,286.50 61.50,295.00 61.50,295.00              61.50,295.00 55.50,320.00 55.50,320.00              55.50,320.00 27.00,312.50 27.00,312.50              27.00,312.50 34.50,286.50 34.50,286.50 Z            M 16.00,421.00            C 16.00,421.00 16.00,444.00 16.00,444.00              16.00,444.00 37.50,444.50 38.00,444.50              38.50,444.50 39.00,420.00 39.00,420.00              39.00,420.00 16.00,421.00 16.00,421.00 Z            M 16.00,565.00            C 16.00,565.00 17.00,592.50 16.50,592.50              16.00,592.50 44.00,589.00 44.00,589.50              44.00,590.00 41.50,564.00 41.50,564.00              41.50,564.00 16.00,565.00 16.00,565.00 Z            M 22.50,727.00            C 22.50,727.00 30.50,755.50 30.50,755.50              30.50,755.50 55.00,747.00 55.00,747.00              55.00,747.00 47.00,719.50 47.50,719.50              48.00,719.50 22.50,727.00 22.50,727.00 Z            M 84.50,858.50            C 84.50,858.50 104.50,883.50 104.50,883.50              104.50,883.50 122.50,867.50 122.50,867.50              122.50,867.50 105.00,843.00 105.00,843.00              105.00,843.00 84.50,858.50 84.50,858.50 Z            M 236.50,936.50            C 236.50,936.50 238.50,964.50 238.50,964.50              238.50,964.50 268.50,962.00 268.50,962.00              268.50,962.00 266.50,935.00 266.50,935.00              266.50,935.00 236.50,936.50 236.50,936.50 Z            M 363.50,891.00            C 363.50,891.00 373.00,914.50 373.00,914.50              373.00,914.50 406.50,899.50 406.50,899.50              406.50,899.50 398.00,876.00 398.00,876.00              398.00,876.00 363.50,891.00 363.50,891.00 Z            M 460.79,805.46            C 436.00,812.75 445.38,857.75 470.79,852.12              497.50,844.25 485.75,798.00 460.79,805.46 Z            M 636.67,872.67            C 636.67,872.67 800.67,831.33 800.67,831.33              800.67,831.33 831.33,964.67 831.33,964.67              831.33,964.67 762.00,984.00 762.00,984.00              762.00,984.00 666.00,981.33 666.00,981.33              666.00,981.33 636.67,872.67 636.67,872.67 Z" />
  <path
     style="fill:none;fill-opacity:1;stroke:#ff0000;stroke-width:1;stroke-miterlimit:4;stroke-dasharray:none;stroke-opacity:1"
     d="M 698.10547 40.884766 C 694.78223 40.872368 691.45561 40.912811 688.12305 41.009766 C 684.47458 40.992232 680.82618 41.003978 677.17773 41.017578 C 597.0344 42.666055 516.55601 41.415188 436.80664 50.634766 C 379.09592 59.135187 323.36167 79.417385 272.23242 107.23828 C 220.87755 137.45933 181.63653 183.48745 143.47266 228.3125 C 120.40372 257.98784 104.19348 292.26881 87.740234 325.86914 C 74.21864 356.18069 59.558666 386.26349 50.228516 418.19336 C 37.79724 466.61839 35.222017 516.86512 31.458984 566.52344 C 27.094128 634.35628 30.998951 702.3415 30.910156 770.24023 C 31.361255 845.34365 29.468368 921.91497 49.552734 994.99219 C 71.706072 1052.0414 100.01729 1106.7879 134.41406 1157.4141 C 181.66712 1201.7752 232.4326 1247.1515 296.13867 1265.4219 C 346.43707 1278.343 399.33069 1264.9801 445.79492 1244.7871 C 460.12494 1238.1113 474.39677 1230.6914 487.69727 1221.9258 C 497.07664 1232.5367 511.06399 1238.8362 525.33203 1235.0449 C 547.72978 1228.5723 556.74928 1200.3324 548.26172 1179.9863 C 546.51566 1175.0022 543.86061 1170.2224 540.50195 1166.0098 C 553.03887 1148.6704 567.02096 1132.4853 586.56836 1122.834 C 587.06561 1122.5537 587.5698 1122.2864 588.07227 1122.0156 C 595.01034 1138.4688 612.67737 1151.0197 630.71094 1145.7949 C 644.44545 1141.6735 653.58449 1130.1621 657.30859 1116.8945 C 660.80437 1118.3384 664.21566 1120.0697 667.50586 1122.123 C 699.38795 1139.6413 726.60355 1169.3537 764.48242 1173.5234 C 767.61907 1173.9062 770.71961 1174.0671 773.78906 1174.0449 C 779.84485 1192.6955 799.07193 1207.986 819.07227 1202.748 C 839.60841 1196.9723 849.52752 1173.4328 845.53125 1153.4688 C 849.48007 1152.1707 853.44887 1151.0002 857.45117 1150.0488 C 910.47732 1134.404 964.61307 1120.6231 1013.9082 1094.8809 C 1062.2707 1072.4769 1108.737 1041.4689 1138.2695 996.08984 C 1165.7174 956.59012 1190.6136 915.27144 1213.2715 872.85742 C 1236.0848 828.33202 1250.7821 779.83172 1256.7031 730.16211 C 1263.3506 685.2692 1269.1422 640.04687 1270.332 594.66602 C 1266.2898 524.67422 1266.5761 454.32803 1258.3984 384.63867 C 1249.7539 329.42163 1230.807 275.6732 1202.1816 227.66016 C 1145.55 172.61984 1077.3614 128.21672 1001.3125 105.51758 C 950.57973 87.20407 898.24005 73.304687 845.21289 63.791016 C 796.77642 53.116169 747.95411 41.070737 698.10547 40.884766 z "
     transform="matrix(0.75000246,0,0,0.75000246,0,-0.00280435)"
     id="path831-9" />
  <path
     inkscape:connector-curvature="0"
     id="path831-6-2"
     d="m 737.52725,793.39082 c -16.82078,0.30433 -27.8663,18.71715 -25.35156,34.27539 1.25311,17.09666 17.79346,33.66115 35.60351,29.59766 17.00766,-4.24859 24.52787,-25.26261 18.65231,-40.75885 -3.85544,-12.47125 -15.2691,-23.45864 -28.90426,-23.1142 z"
     style="fill:none;fill-opacity:1;stroke:#ff0000;stroke-width:0.75000244;stroke-miterlimit:4;stroke-dasharray:none;stroke-opacity:1" />
  <path
     inkscape:connector-curvature="0"
     id="path831-6-7-7"
     d="m 849.16592,703.49824 c -15.89478,0.0352 -27.69739,17.71626 -23.18555,32.60743 3.82924,19.61899 27.21566,34.72174 46.10547,25.39453 14.83029,-7.3978 17.17817,-28.76035 7.63672,-41.29493 -6.56475,-10.13895 -18.27104,-17.28797 -30.55664,-16.70703 z"
     style="fill:none;fill-opacity:1;stroke:#ff0000;stroke-width:0.75000244;stroke-miterlimit:4;stroke-dasharray:none;stroke-opacity:1" />
  <path
     inkscape:connector-curvature="0"
     id="path831-6-7-5-0"
     d="m 920.83584,578.34395 c -15.71875,0.12662 -29.44777,16.95382 -24.14844,32.33984 5.52419,21.86618 35.88879,33.91617 53.69336,18.76758 13.10015,-10.7557 9.68223,-32.80621 -3.36133,-42.1582 -7.21586,-6.12484 -16.72375,-9.39028 -26.18359,-8.94922 z"
     style="fill:none;fill-opacity:1;stroke:#ff0000;stroke-width:0.75000244;stroke-miterlimit:4;stroke-dasharray:none;stroke-opacity:1" />
  <path
     inkscape:connector-curvature="0"
     id="path831-6-7-5-3-9"
     d="m 946.67178,426.73067 c -16.39897,-0.74208 -33.53054,14.9015 -29.33858,31.9503 5.70436,24.77286 42.87176,32.41867 58.40694,12.57118 9.20996,-10.30506 6.91392,-27.40015 -3.76367,-35.78906 -6.88392,-6.04597 -16.20263,-9.02535 -25.30469,-8.73242 z"
     style="fill:none;fill-opacity:1;stroke:#ff0000;stroke-width:0.75000244;stroke-miterlimit:4;stroke-dasharray:none;stroke-opacity:1" />
  <path
     inkscape:connector-curvature="0"
     id="path831-6-7-5-5-3"
     d="m 941.48037,294.86153 c -16.54323,0.16774 -33.44261,15.50765 -30.06054,32.83789 5.3269,23.63756 39.48961,30.41145 55.69921,13.8457 10.02904,-9.12404 12.04572,-26.34573 2.07227,-36.29297 -7.00378,-7.51685 -17.61613,-10.84101 -27.71094,-10.39062 z"
     style="fill:none;fill-opacity:1;stroke:#ff0000;stroke-width:0.75000244;stroke-miterlimit:4;stroke-dasharray:none;stroke-opacity:1" />
  <path
     style="fill:none;stroke:#fb0000;stroke-width:1px;stroke-linecap:butt;stroke-linejoin:miter;stroke-opacity:1"
     d="M 486.07227 1053.9863 C 478.86615 1054.0847 471.7205 1056.536 466.01562 1061.0273 C 465.46309 1061.4637 464.92429 1061.918 464.39844 1062.3906 C 458.7126 1067.2061 454.94762 1073.7587 451.31641 1080.1484 C 463.70199 1078.3351 477.29676 1070.9363 489.47852 1075.8301 C 475.54884 1076.8423 462.61697 1084.1814 453.32617 1094.7109 L 481.64258 1107.7461 C 483.07677 1106.4382 484.69989 1105.3433 486.46875 1104.5449 C 487.35318 1104.1457 488.27529 1103.8213 489.22656 1103.5801 C 490.17784 1103.3389 491.15912 1103.1819 492.16602 1103.1191 C 493.76565 1103.04 495.23128 1103.3258 496.61523 1103.8359 C 497.99919 1104.3461 499.30066 1105.0797 500.57227 1105.8965 C 501.84387 1106.7132 503.08507 1107.6125 504.34766 1108.4531 C 505.61025 1109.2937 506.89505 1110.0765 508.25195 1110.6582 C 508.97662 1111.6999 509.46899 1112.9351 509.7832 1114.2871 C 510.09742 1115.6392 510.23332 1117.1073 510.24219 1118.6133 C 510.25106 1120.1192 510.13278 1121.6645 509.94141 1123.168 C 509.75003 1124.6714 509.48574 1126.1339 509.19922 1127.4785 C 508.76053 1129.0543 508.08387 1130.4775 507.2207 1131.7422 C 506.35754 1133.0069 505.3082 1134.113 504.12305 1135.0527 C 502.93789 1135.9925 501.61757 1136.7662 500.21289 1137.3672 C 498.80822 1137.9682 497.31859 1138.3962 495.79688 1138.6445 C 494.27516 1138.8929 492.71988 1138.9619 491.18359 1138.8438 C 489.6473 1138.7256 488.13002 1138.4203 486.68164 1137.9219 C 485.23326 1137.4234 483.85566 1136.7325 482.59766 1135.8398 C 481.33965 1134.9472 480.20148 1133.8534 479.23633 1132.5527 C 478.07631 1131.3105 477.18115 1129.9639 476.52539 1128.5527 C 475.86963 1127.1416 475.45298 1125.6668 475.25391 1124.168 C 475.05483 1122.6691 475.07317 1121.1459 475.2832 1119.6406 C 475.49323 1118.1354 475.89524 1116.6472 476.4668 1115.2168 L 447.06055 1103.2441 C 441.34046 1112.6841 438.27823 1123.6194 439.35352 1134.6465 C 438.85268 1137.8187 443.43655 1143.4128 438.25977 1142.916 C 431.99195 1146.7323 429.03388 1155.2353 429.06055 1162.3184 C 430.98421 1168.5838 440.27454 1164.8779 443.11133 1165.6289 C 440.97964 1170.2935 439.67182 1180.2266 447.44336 1179.6836 C 453.88371 1178.6862 464.41709 1177.5475 465.48438 1169.4902 C 469.96531 1171.4232 474.6057 1172.4488 479.26758 1172.8242 C 484.58493 1160.4764 495.53114 1150.6797 509.53516 1150.4004 C 518.14078 1150.1072 526.1203 1153.2165 532.71875 1158.3164 C 540.66304 1147.6486 548.9144 1137.2934 558.47461 1128.3906 C 557.81163 1117.4584 551.76686 1104.1681 539.62305 1103.7988 C 537.0183 1103.7148 534.20957 1106.8346 534.52344 1102.4434 C 531.26342 1098.0628 538.99724 1096.3292 540.92969 1093.0352 C 546.63204 1087.9635 554.53723 1079.7223 549.5332 1071.6895 C 543.67586 1063.4126 532.82343 1068.4675 527.13672 1074.0977 C 523.79629 1076.6644 520.66776 1080.2063 517.45898 1082.4355 C 515.65027 1080.4965 510.63087 1081.2315 513.7168 1078.0293 C 517.3266 1066.8238 505.44062 1057.8187 495.80664 1055.3398 C 492.63581 1054.3826 489.34777 1053.9416 486.07227 1053.9863 z "
     id="path1529"
     transform="matrix(0.75000246,0,0,0.75000246,0,-0.00280435)" />
  <path
     style="fill:none;stroke:#fb0000;stroke-width:1px;stroke-linecap:butt;stroke-linejoin:miter;stroke-opacity:1"
     d="M 476.73438 1180.6641 C 476.73836 1180.6645 476.74239 1180.6641 476.74609 1180.6641 C 476.75809 1180.6101 476.75508 1180.5541 476.76758 1180.5 C 476.75538 1180.554 476.74626 1180.6082 476.73438 1180.6621 L 476.73438 1180.6641 z "
     id="path1527"
     transform="matrix(0.75000246,0,0,0.75000246,0,-0.00280435)" />
  <path
     style="fill:none;stroke:#fb0000;stroke-width:1px;stroke-linecap:butt;stroke-linejoin:miter;stroke-opacity:1"
     d="M 641.59375 955.0957 C 639.7366 954.95136 637.88887 954.96924 636.05078 955.10742 C 634.2127 955.24562 632.38344 955.50452 630.56641 955.84375 C 626.93235 956.52219 623.34257 957.52022 619.80469 958.51367 C 622.32428 960.36969 625.14454 962.03211 628.03711 963.66797 C 630.92968 965.30382 633.89472 966.91285 636.70898 968.66797 C 638.11612 969.54552 639.48612 970.46062 640.78906 971.43164 C 642.09201 972.40265 643.32836 973.43021 644.4707 974.53711 C 645.61305 975.64401 646.66061 976.83002 647.58594 978.11523 C 648.51127 979.40044 649.31489 980.78507 649.9668 982.29102 C 648.61316 981.13288 647.1974 980.05815 645.73047 979.06641 C 644.26354 978.07467 642.7449 977.16614 641.18164 976.33984 C 639.61838 975.51354 638.01177 974.76922 636.36914 974.10742 C 634.72651 973.44562 633.04879 972.86545 631.34375 972.36719 C 629.63871 971.86894 627.90479 971.45286 626.1543 971.11719 C 624.4038 970.78153 622.63641 970.52754 620.85742 970.35352 C 617.29944 970.00548 613.70105 969.97864 610.13086 970.27148 C 606.56067 970.56429 603.019 971.1755 599.57227 972.10156 C 597.8489 972.56459 596.14753 973.10664 594.48047 973.72656 C 592.81341 974.34647 591.17974 975.04446 589.58594 975.82031 C 587.99214 976.59616 586.43912 977.45002 584.93555 978.38086 C 583.43197 979.31169 581.97843 980.31944 580.58203 981.4043 C 579.18564 982.48917 577.84647 983.65073 576.57422 984.88867 C 575.30197 986.12661 574.096 987.44196 572.96484 988.83203 C 572.31797 989.30759 571.78997 990.114 571.31055 990.99414 C 570.83112 991.87427 570.39985 992.82838 569.94531 993.59766 C 569.49078 994.36695 569.01361 994.95074 568.44141 995.09375 C 568.1553 995.16525 567.84616 995.12705 567.50391 994.94531 C 567.16166 994.7636 566.78536 994.4388 566.36914 993.93945 C 564.5843 993.51523 562.74177 993.44448 560.90234 993.65625 C 559.06292 993.86802 557.22791 994.36141 555.46094 995.06641 C 553.69397 995.77142 551.99521 996.68865 550.42773 997.74414 C 548.86026 998.79962 547.42258 999.99462 546.18164 1001.2578 C 545.8016 1001.9836 545.61435 1002.6784 545.57812 1003.3457 C 545.54193 1004.013 545.65712 1004.6527 545.88672 1005.2637 C 546.11629 1005.8746 546.4596 1006.457 546.87695 1007.0137 C 547.29431 1007.5703 547.78538 1008.1011 548.3125 1008.6055 C 549.36673 1009.6143 550.56272 1010.5217 551.58789 1011.334 C 552.61306 1012.1463 553.46787 1012.8638 553.83984 1013.4961 C 552.64074 1013.95 551.2462 1014.6738 549.92188 1015.584 C 548.59754 1016.4942 547.344 1017.5907 546.42383 1018.7891 C 545.96374 1019.3883 545.58791 1020.0126 545.32812 1020.6523 C 545.06835 1021.2921 544.92495 1021.9463 544.93164 1022.6055 C 544.93864 1023.2647 545.09425 1023.9302 545.43359 1024.5879 C 545.77294 1025.2456 546.29503 1025.8961 547.0332 1026.5312 C 548.35295 1027.4866 549.86082 1028.6168 551.48047 1029.6953 C 553.10012 1030.7739 554.83218 1031.8017 556.59961 1032.5547 C 557.48333 1032.9312 558.37544 1033.2382 559.26758 1033.4492 C 560.15972 1033.6602 561.05204 1033.7742 561.93359 1033.7637 C 562.81514 1033.7527 563.68516 1033.6183 564.53711 1033.3301 C 565.38905 1033.0419 566.22207 1032.6005 567.02539 1031.9785 C 567.72762 1033.7201 568.53322 1035.39 569.43164 1036.9883 C 570.33006 1038.5866 571.32052 1040.1136 572.39648 1041.5664 C 573.47244 1043.0192 574.63429 1044.398 575.86914 1045.7031 C 577.10399 1047.0082 578.41202 1048.2393 579.78711 1049.3945 C 581.1622 1050.5498 582.60292 1051.6295 584.09961 1052.6328 C 585.5963 1053.6361 587.15037 1054.563 588.75 1055.4121 C 590.34963 1056.2613 591.99576 1057.0337 593.67969 1057.7266 C 595.36361 1058.4194 597.08441 1059.032 598.83398 1059.5664 C 602.33313 1060.6351 605.94585 1061.3847 609.5957 1061.8066 C 610.54353 1061.9162 611.49757 1061.8169 612.44922 1061.8789 L 612.86914 1033.3965 C 611.41626 1033.1616 609.99764 1032.7439 608.6582 1032.127 C 607.31877 1031.51 606.05852 1030.6939 604.91992 1029.6621 C 604.12986 1029.0739 603.42212 1028.4363 602.79492 1027.7578 C 602.16773 1027.0793 601.62019 1026.3595 601.14844 1025.6074 C 600.20494 1024.1033 599.5654 1022.4693 599.19922 1020.7715 C 598.83303 1019.0737 598.74075 1017.3121 598.89258 1015.5547 C 599.0444 1013.7973 599.44025 1012.0443 600.05078 1010.3613 C 600.66132 1008.6783 601.48616 1007.0663 602.49609 1005.5918 C 603.50603 1004.1173 604.70074 1002.7804 606.05078 1001.6484 C 607.40082 1000.5164 608.90627 999.58901 610.53711 998.93359 C 612.16795 998.27818 613.92501 997.89438 615.77734 997.84961 C 616.02503 997.83489 616.26995 997.82938 616.51367 997.83398 C 617.42764 997.85126 618.31455 997.99995 619.17578 998.24414 C 620.03701 998.48833 620.87221 998.82835 621.68555 999.22852 C 623.31222 1000.0288 624.84832 1001.0698 626.3125 1002.0684 C 627.09689 1002.2984 627.82015 1002.6036 628.48242 1002.9727 C 629.14469 1003.3417 629.74574 1003.7746 630.28711 1004.2617 C 631.36985 1005.2359 632.21181 1006.4255 632.81836 1007.7461 C 633.42491 1009.0666 633.79534 1010.5182 633.93555 1012.0176 C 634.07576 1013.5169 633.9862 1015.0637 633.66992 1016.5742 C 633.74859 1017.5313 633.73545 1018.4584 633.64062 1019.3535 C 633.5458 1020.2487 633.36992 1021.112 633.11914 1021.9395 C 632.61758 1023.5944 631.82092 1025.1092 630.80078 1026.459 C 629.78065 1027.8087 628.53707 1028.9938 627.13867 1029.9922 C 625.74027 1030.9906 624.18714 1031.8014 622.55078 1032.4023 L 624.54688 1060.623 C 625.77856 1060.7417 627.03287 1060.7529 628.23633 1060.9961 C 629.27837 1060.7848 630.32863 1060.6061 631.35352 1060.3359 C 633.10536 1059.8741 634.83062 1059.3268 636.51758 1058.6914 C 638.20453 1058.056 639.85362 1057.3326 641.45703 1056.5215 C 642.31358 1056.3241 644.12479 1054.9093 645.33984 1054.0801 C 645.94737 1053.6655 646.4054 1053.3984 646.52148 1053.502 C 645.173 1056.5638 641.80765 1059.442 638.98438 1061.4512 C 637.92923 1062.1985 636.72396 1062.7397 635.60156 1063.3945 C 641.70932 1066.2682 647.00964 1070.9345 650.9043 1076.5176 L 650.9043 1076.5215 C 652.52233 1075.8194 654.11339 1075.0404 655.60547 1074.041 C 657.31778 1072.8941 658.93561 1071.5441 660.43555 1069.9746 C 661.44352 1068.9866 662.42735 1067.8845 663.35742 1066.6953 C 664.2875 1065.5061 665.16466 1064.2286 665.96289 1062.8887 C 666.76112 1061.5487 667.47935 1060.1472 668.0918 1058.707 C 668.70424 1057.2669 669.21127 1055.7887 669.58398 1054.2988 C 669.9567 1052.8089 670.19439 1051.3056 670.27344 1049.8164 C 670.35244 1048.3272 670.27248 1046.852 670.00391 1045.4141 C 669.73534 1043.9761 669.27949 1042.5765 668.60938 1041.2402 C 667.93925 1039.904 667.05532 1038.6313 665.92969 1037.4473 C 665.48169 1036.9742 664.88207 1036.6344 664.28906 1036.3457 C 663.69606 1036.057 663.10836 1035.82 662.67969 1035.5508 C 662.25102 1035.2815 661.98233 1034.9792 662.02734 1034.5645 C 662.07234 1034.1498 662.43173 1033.6215 663.25977 1032.8965 C 663.35537 1032.2206 663.54459 1031.6953 663.80859 1031.291 C 664.0726 1030.8867 664.41122 1030.6047 664.80859 1030.4141 C 665.60334 1030.0328 666.63019 1030.0199 667.74805 1030.1465 C 668.86591 1030.2731 670.07387 1030.5391 671.23438 1030.7109 C 672.39487 1030.8828 673.50702 1030.9603 674.42969 1030.7109 C 676.33483 1030.8127 678.47769 1030.8705 680.65234 1030.7559 C 682.827 1030.6412 685.03413 1030.3539 687.06836 1029.7656 C 688.08548 1029.4715 689.0597 1029.1034 689.96484 1028.6426 C 690.86999 1028.1818 691.70533 1027.6283 692.44727 1026.9688 C 693.18921 1026.3092 693.83775 1025.5429 694.36523 1024.6523 C 694.89272 1023.7618 695.29875 1022.7473 695.56055 1021.5938 C 695.76799 1020.3434 695.77433 1019.187 695.60938 1018.1191 C 695.44444 1017.0513 695.10882 1016.0725 694.63477 1015.1797 C 694.16071 1014.2869 693.54804 1013.4791 692.82812 1012.7539 C 692.10822 1012.0287 691.28141 1011.3855 690.37891 1010.8203 C 689.4764 1010.2551 688.49841 1009.7681 687.47656 1009.3555 C 686.45472 1008.9429 685.38847 1008.6054 684.31055 1008.3379 C 682.1547 1007.8028 679.94981 1007.5505 677.94922 1007.5508 C 675.85935 1007.288 673.63538 1007.2347 671.45312 1007.1641 C 669.27088 1007.0931 667.13142 1007.0044 665.20703 1006.668 C 665.22663 1006.0054 664.98619 1005.3204 664.68359 1004.6641 C 664.381 1004.0077 664.01514 1003.3803 663.78711 1002.832 C 663.55908 1002.2838 663.46764 1001.8148 663.71094 1001.4766 C 663.95427 1001.1384 664.53305 1000.9306 665.64453 1000.9043 C 666.95057 1000.2262 668.05998 999.40236 668.99219 998.46289 C 669.92439 997.52341 670.67964 996.46821 671.27539 995.32812 C 671.87114 994.18804 672.30683 992.96351 672.60352 991.68359 C 672.9002 990.40367 673.0568 989.06991 673.0918 987.71094 C 673.1268 986.35197 673.0409 984.96708 672.85156 983.58984 C 672.66226 982.2126 672.37037 980.84254 671.99414 979.50781 C 671.61792 978.17308 671.15662 976.87403 670.63086 975.64258 C 670.1051 974.41114 669.51487 973.24707 668.87695 972.17969 C 667.6128 969.85094 666.06251 967.70451 664.28516 965.77539 C 662.5078 963.84626 660.50308 962.13528 658.32812 960.67773 C 656.15318 959.22018 653.80851 958.01558 651.35156 957.10156 C 648.89461 956.18753 646.32647 955.56222 643.70312 955.26367 C 643.00347 955.18507 642.29995 955.1297 641.59375 955.0957 z "
     id="path1523"
     transform="matrix(0.75000246,0,0,0.75000246,0,-0.00280435)" />
  <path
     style="fill:none;stroke:#fb0000;stroke-width:1px;stroke-linecap:butt;stroke-linejoin:miter;stroke-opacity:1"
     d="m 790.70508,992.58594 c -2.62052,0.0703 -5.23836,0.4509 -7.7832,1.15429 -0.67835,0.18855 -1.34984,0.39852 -2.01758,0.63086 -1.77655,0.56012 -3.4854,1.26699 -5.13868,2.08203 -1.65326,0.81506 -3.25191,1.73878 -4.81054,2.73243 -3.11726,1.98725 -6.07404,4.25445 -8.98438,6.49805 3.03064,0.78 6.26623,1.2686 9.56055,1.7051 3.29432,0.4364 6.64781,0.8221 9.91406,1.3984 1.63313,0.2882 3.245,0.6233 4.81641,1.0371 1.57141,0.4138 3.10295,0.9061 4.57617,1.5059 1.47322,0.5998 2.888,1.308 4.22656,2.1543 1.33857,0.8463 2.60015,1.8311 3.76758,2.9844 -1.68835,-0.5684 -3.40155,-1.0365 -5.13281,-1.4083 -1.73126,-0.3717 -3.48145,-0.6478 -5.24024,-0.83 -1.75878,-0.1823 -3.52593,-0.2715 -5.29687,-0.2715 -1.77094,0 -3.54479,0.089 -5.3125,0.2637 -1.76771,0.175 -3.53018,0.4365 -5.2793,0.7793 -1.74911,0.3427 -3.48408,0.7681 -5.19922,1.2714 -3.43027,1.0068 -6.77834,2.3259 -9.98047,3.9317 -3.20211,1.6057 -6.2584,3.4975 -9.10937,5.6445 -1.42549,1.0735 -2.8006,2.2102 -4.11523,3.4082 -1.31464,1.198 -2.56941,2.4563 -3.75782,3.7715 -1.18841,1.3152 -2.31061,2.688 -3.35742,4.1133 -1.04681,1.4252 -2.01837,2.9035 -2.9082,4.4316 -0.88983,1.5281 -1.69659,3.1068 -2.41406,4.7305 -0.71748,1.6237 -1.34526,3.2918 -1.875,5.0039 -0.42231,0.6828 -0.61077,1.6295 -0.72657,2.625 -0.11579,0.9955 -0.15884,2.0404 -0.29297,2.9238 -0.13413,0.8834 -0.35862,1.6047 -0.83593,1.9512 -0.23866,0.1732 -0.54043,0.2535 -0.92578,0.2129 -0.38536,-0.041 -0.85507,-0.2021 -1.42774,-0.5098 -1.81406,0.2735 -3.5507,0.8975 -5.17773,1.7813 -1.62703,0.8838 -3.14403,2.0275 -4.51953,3.3418 -1.37551,1.3142 -2.60848,2.7985 -3.66797,4.3632 -1.0595,1.5648 -1.94601,3.2103 -2.625,4.8458 -0.0813,0.8151 0.005,1.5315 0.2207,2.164 0.21577,0.6325 0.5607,1.1812 1.00195,1.6621 0.44125,0.4809 0.97909,0.8936 1.57422,1.2539 0.59514,0.3604 1.24836,0.6686 1.92578,0.9395 1.35485,0.5418 2.80219,0.9343 4.05664,1.3047 1.25446,0.3703 2.31517,0.7185 2.89649,1.166 -0.94261,0.8691 -1.96331,2.0612 -2.85156,3.4004 -0.88826,1.3391 -1.64314,2.8258 -2.04883,4.2812 -0.20285,0.7277 -0.31841,1.4463 -0.32031,2.1367 -0.002,0.6905 0.11073,1.352 0.36328,1.961 0.25254,0.6089 0.64454,1.1652 1.20507,1.6484 0.56054,0.4832 1.2889,0.8938 2.21094,1.2071 1.58117,0.3929 3.40129,0.8763 5.30664,1.2714 1.90536,0.3952 3.89562,0.7023 5.81641,0.7403 0.9604,0.019 1.90418,-0.03 2.81055,-0.168 0.90636,-0.1377 1.7761,-0.3639 2.58984,-0.7031 0.81374,-0.3392 1.57139,-0.7913 2.25391,-1.377 0.68251,-0.5857 1.29003,-1.3045 1.80273,-2.1816 1.30219,1.353 2.67292,2.6013 4.10352,3.748 1.43059,1.1468 2.92004,2.1913 4.46093,3.1367 1.5409,0.9455 3.13253,1.792 4.76563,2.5411 1.63309,0.7491 3.30843,1.4012 5.01562,1.9589 1.70719,0.5578 3.44581,1.0213 5.20899,1.3926 1.76317,0.3713 3.5505,0.65 5.35156,0.8399 1.80106,0.1898 3.61666,0.2893 5.4375,0.3027 1.82084,0.013 3.64624,-0.059 5.46875,-0.2168 3.64503,-0.3163 7.27527,-0.9708 10.81836,-1.9434 3.54309,-0.9725 6.9986,-2.2643 10.29492,-3.8535 11.74191,-6.6787 17.11803,-13.295 15.33789,-20.8418 -0.62079,-1.414 -1.48221,-2.7752 -2.54492,-4.0078 -1.06271,-1.2325 -2.32691,-2.3372 -3.75,-3.2383 -1.42309,-0.9011 -3.00508,-1.5977 -4.70703,-2.0175 -1.70195,-0.4198 -3.5226,-0.5611 -5.42188,-0.3496 -0.94963,0.1057 -1.91866,0.2982 -2.90234,0.5898 -0.98368,0.2916 -1.9827,0.6815 -2.99023,1.1777 -0.74773,0.7628 -1.56928,1.4617 -2.44727,2.0899 -0.87799,0.6281 -1.81156,1.1853 -2.78711,1.664 -0.97555,0.4788 -1.9928,0.8788 -3.0332,1.1934 -1.04041,0.3146 -2.10518,0.544 -3.17774,0.6797 -1.07256,0.1356 -2.1526,0.1791 -3.22461,0.1211 -1.07201,-0.058 -2.13507,-0.2179 -3.17382,-0.4844 -1.03876,-0.2665 -2.05259,-0.6411 -3.02539,-1.1309 -0.97281,-0.4897 -1.90516,-1.0944 -2.7793,-1.8222 -0.84007,-0.5438 -1.59584,-1.1443 -2.27149,-1.793 -0.67564,-0.6487 -1.27092,-1.3448 -1.78906,-2.0801 -1.03628,-1.4704 -1.76512,-3.0959 -2.21289,-4.8027 -0.44777,-1.7069 -0.61469,-3.4961 -0.5293,-5.293 0.0854,-1.7968 0.42313,-3.6013 0.98633,-5.3418 0.56321,-1.7404 1.35222,-3.4173 2.33789,-4.955 0.98567,-1.5378 2.1687,-2.9365 3.52149,-4.125 1.35278,-1.1886 2.87451,-2.1664 4.53906,-2.8594 0.83227,-0.3465 1.69977,-0.6213 2.59961,-0.8164 0.89984,-0.1952 1.83248,-0.3104 2.79297,-0.336 0.26096,-0.015 0.51902,-0.02 0.77539,-0.016 0.96138,0.018 1.89008,0.1751 2.79101,0.4336 0.90094,0.2585 1.77406,0.6192 2.6211,1.0449 1.69407,0.8515 3.28694,1.9641 4.80469,3.0469 1.01994,0.2974 1.93462,0.7419 2.74414,1.3027 0.80951,0.5609 1.513,1.2386 2.10937,2.002 0.59637,0.7634 1.08628,1.6125 1.4668,2.5176 0.38051,0.9051 0.6525,1.8656 0.81445,2.8515 0.52777,0.9778 1.12283,2.3874 1.83398,4.4532 0.77629,0.8845 1.72133,1.6644 2.77735,2.3847 1.05601,0.7203 2.22266,1.3805 3.44336,2.0254 2.4414,1.2898 5.09788,2.5181 7.50781,4.0391 1.20496,0.7605 2.34851,1.5933 3.37305,2.5449 1.02453,0.9516 1.92913,2.0224 2.6582,3.2539 0.72907,1.2315 1.283,2.6244 1.60156,4.2246 0.29284,1.471 0.32701,3.1689 0.17969,5.0234 6.2e-4,3e-4 0.003,0 0.004,0 0.002,9e-4 -0.006,0.028 -0.004,0.029 -0.0124,0.1538 0.0314,0.2594 0.0156,0.4161 0,0 -0.7894,6.3215 -4.97266,10.9414 -1.44875,2.0774 -2.99145,4.0963 -4.71875,5.998 -2.07139,2.2805 -4.26839,4.4792 -6.41016,6.707 -2.14176,2.2278 -4.22785,4.4855 -6.08008,6.8789 2.00782,0.1465 4.0572,0.1813 6.11915,0.1 2.06194,-0.082 4.13572,-0.2817 6.19335,-0.6036 2.05765,-0.3218 4.09884,-0.7657 6.09376,-1.3398 1.9949,-0.5741 3.9446,-1.2768 5.81835,-2.1152 1.87376,-0.8385 3.67108,-1.813 5.36524,-2.9278 1.69416,-1.1148 3.2841,-2.3702 4.74023,-3.7734 1.45613,-1.4032 2.77978,-2.9545 3.93946,-4.6582 1.15967,-1.7037 2.15615,-3.5599 2.96093,-5.5762 0.56574,-1.2931 1.06413,-2.6822 1.48243,-4.1328 0.41829,-1.4506 0.75641,-2.9627 0.99609,-4.5039 0.23968,-1.5412 0.38221,-3.1111 0.41211,-4.6758 0.0299,-1.5647 -0.0526,-3.1252 -0.26367,-4.6465 -0.21105,-1.5212 -0.55199,-3.0032 -1.03516,-4.414 -0.48317,-1.4109 -1.11003,-2.7491 -1.89648,-3.9825 -0.78646,-1.2334 -1.73065,-2.3625 -2.85157,-3.3515 -1.12091,-0.989 -2.41775,-1.838 -3.90429,-2.5156 -0.59232,-0.2714 -1.27371,-0.364 -1.93164,-0.4102 -0.65794,-0.046 -1.29279,-0.047 -1.79102,-0.1367 -0.49823,-0.09 -0.85944,-0.2665 -0.97266,-0.668 -0.11321,-0.4015 0.0224,-1.0259 0.51954,-2.0078 -0.1639,-0.6626 -0.18559,-1.2216 -0.0918,-1.6953 0.0938,-0.4737 0.30226,-0.8622 0.59961,-1.1875 0.5947,-0.6506 1.54276,-1.0454 2.62695,-1.3457 1.08419,-0.3003 2.30466,-0.507 3.44531,-0.7813 1.14066,-0.2742 2.20074,-0.617 2.96485,-1.1894 1.80513,-0.6176 3.8148,-1.3642 5.78906,-2.2832 1.97426,-0.919 3.91306,-2.0106 5.58008,-3.3164 0.83351,-0.653 1.6002,-1.3594 2.26758,-2.125 0.66737,-0.7657 1.23603,-1.5895 1.67773,-2.4785 0.4417,-0.8891 0.75563,-1.8421 0.91211,-2.8653 0.15648,-1.0231 0.15508,-2.1172 -0.0332,-3.2851 -0.27484,-1.2373 -0.70188,-2.3114 -1.25391,-3.2403 -0.55203,-0.9288 -1.22862,-1.7123 -2.00195,-2.3633 -0.77334,-0.6508 -1.64327,-1.1705 -2.58203,-1.5742 -0.93877,-0.4036 -1.94582,-0.6919 -2.99414,-0.8789 -1.04833,-0.1869 -2.13824,-0.2725 -3.24024,-0.2734 -1.102,-9e-4 -2.21661,0.084 -3.3164,0.2383 -2.19961,0.3093 -4.33977,0.8986 -6.19532,1.6465 -2.03668,0.5371 -4.11742,1.3203 -6.16797,2.0703 -2.05054,0.75 -4.06976,1.4679 -5.98047,1.875 -0.22939,-0.622 -0.70842,-1.1684 -1.23437,-1.6641 -0.52595,-0.4957 -1.09925,-0.9419 -1.51563,-1.3652 -0.41636,-0.4233 -0.67549,-0.8239 -0.57617,-1.2285 0.0993,-0.4047 0.55698,-0.8123 1.57813,-1.252 0.95803,-1.117 1.67976,-2.2959 2.19336,-3.5156 0.51359,-1.2198 0.81876,-2.4816 0.94531,-3.7617 0.12655,-1.2802 0.0742,-2.5789 -0.12891,-3.877 -0.2031,-1.2981 -0.55587,-2.5955 -1.03125,-3.8691 -0.47537,-1.2736 -1.07342,-2.5238 -1.76367,-3.7305 -0.69025,-1.2067 -1.47257,-2.3694 -2.32031,-3.4668 -0.84775,-1.0974 -1.76114,-2.1285 -2.70899,-3.0742 -0.94783,-0.9458 -1.9313,-1.8069 -2.92187,-2.5586 -2.0428,-1.68768 -4.28286,-3.09944 -6.65234,-4.22462 -2.36949,-1.1252 -4.86764,-1.96276 -7.42969,-2.50196 -2.56206,-0.5392 -5.18613,-0.77931 -7.80664,-0.70898 z"
     id="path1619"
     transform="matrix(0.75000246,0,0,0.75000246,0,-0.00280435)"
     inkscape:connector-curvature="0"
     sodipodi:nodetypes="ccccccccssccccsscccccscscccscccscccsscccccccccccscsccccccccscccccsscsccccccccccccccccccccccccsccccsccssccccccccccccsscccsscccccccccsssccscccccccccsccccscccccccsccccssc" />
  <path
     style="fill:none;stroke:#fb0000;stroke-width:1px;stroke-linecap:butt;stroke-linejoin:miter;stroke-opacity:1"
     d="M 686.56641 52.642578 C 684.97951 52.640278 683.39193 52.648476 681.80469 52.666016 C 576.00333 55.042638 467.6032 48.258373 364.92578 79.058594 C 264.58948 108.78787 181.9656 183.14182 129.01367 271.96094 C 78.138731 353.90628 46.678901 448.71805 44.451172 545.5 C 38.8493 650.88351 41.947178 756.47922 44.359375 861.9082 C 45.678913 908.55692 48.300069 956.08378 64.609375 1000.2949 C 82.329418 1051.4195 108.57349 1099.5167 140.3418 1143.2129 C 175.77033 1186.5218 221.55041 1221.3496 272.29492 1244.7734 C 308.61274 1260.1819 349.87426 1262.9833 387.93555 1252.6387 C 420.89087 1244.8799 453.14817 1231.5755 481.00586 1212.1191 C 478.45749 1207.1557 476.80295 1201.7775 476.33594 1196.3281 C 475.39596 1191.2186 475.58349 1185.8527 476.73438 1180.6641 C 474.48947 1180.4061 472.25537 1180.0174 470.04492 1179.457 C 465.74332 1182.4364 460.61883 1185.8077 455.01172 1186.6191 C 446.79733 1190.3029 435.82886 1186.2488 433.67188 1177.0527 C 434.15632 1172.019 427.03457 1173.9275 424.71094 1170.1348 C 416.69584 1160.1393 423.21127 1145.6661 431.44727 1137.9023 C 429.65154 1121.5295 434.80099 1103.9001 445.76367 1091.1211 C 450.91613 1086.4345 438.82726 1090.8265 436.3418 1090.0938 C 443.79531 1078.3593 449.02571 1064.6079 460.04688 1055.5723 C 460.60809 1055.0689 461.18963 1054.59 461.7832 1054.127 C 480.19752 1039.7879 513.31582 1044.5803 521.39844 1068.2246 C 529.62416 1059.3773 546.17915 1055.3467 554.91602 1065.5527 C 563.62847 1075.5368 556.89934 1090.0467 548.14062 1097.584 C 557.87058 1101.9849 563.7977 1111.6754 565.8457 1121.9746 C 571.6943 1117.3927 578.05492 1113.4149 585.11719 1110.2852 C 585.06799 1109.7037 585.02577 1109.1216 585.00586 1108.5391 C 583.09245 1093.8862 589.53578 1077.7944 600.96484 1068.3945 C 600.55334 1068.2983 600.13453 1068.2487 599.72461 1068.1445 C 597.60948 1067.607 595.51779 1066.9637 593.46094 1066.2188 C 591.40409 1065.4736 589.38153 1064.6274 587.41016 1063.6797 C 585.43878 1062.732 583.5169 1061.6844 581.6582 1060.5391 C 579.79951 1059.3938 578.00398 1058.1504 576.28516 1056.8125 C 574.56633 1055.4746 572.92479 1054.0411 571.37305 1052.5156 C 569.8213 1050.9902 568.35943 1049.372 567.00195 1047.6641 C 565.64448 1045.9561 564.39186 1044.1589 563.25586 1042.2734 C 560.67928 1041.8192 557.88713 1041.2899 555.16992 1040.4531 C 553.81132 1040.0348 552.47059 1039.5386 551.18555 1038.9375 C 549.90051 1038.3364 548.67219 1037.631 547.5332 1036.7891 C 546.47956 1036.394 545.4791 1035.8814 544.54688 1035.2734 C 543.61463 1034.6655 542.74876 1033.9615 541.96289 1033.1797 C 541.17702 1032.3978 540.47193 1031.5379 539.85742 1030.6211 C 539.24292 1029.7043 538.71895 1028.7313 538.30078 1027.7188 C 537.88262 1026.706 537.56989 1025.6537 537.37305 1024.584 C 537.17621 1023.5143 537.09702 1022.4275 537.14648 1021.3398 C 537.19595 1020.2522 537.37457 1019.1643 537.69531 1018.0977 C 538.01606 1017.031 538.47869 1015.9852 539.0957 1014.9785 C 539.58138 1014.5739 539.90478 1014.1623 540.10352 1013.7441 C 540.30225 1013.326 540.37645 1012.9013 540.35742 1012.4688 C 540.31936 1011.6033 539.91399 1010.7071 539.41992 1009.7773 C 538.92585 1008.8476 538.34198 1007.883 537.94531 1006.8809 C 537.74698 1006.3798 537.59561 1005.8703 537.52539 1005.3496 C 537.45517 1004.8289 537.46668 1004.2971 537.59375 1003.7559 C 537.76062 1002.1631 538.1385 1000.6815 538.69336 999.30664 C 539.24822 997.93177 539.97892 996.665 540.85547 995.50391 C 541.73202 994.34281 542.75283 993.2874 543.88477 992.33594 C 545.0167 991.38448 546.261 990.53699 547.58203 989.79102 C 548.90306 989.04504 550.30228 988.40011 551.74609 987.85547 C 553.18991 987.31083 554.67743 986.86503 556.17773 986.51758 C 557.67804 986.17013 559.19115 985.92003 560.68164 985.76562 C 562.17213 985.61124 563.6403 985.5534 565.05469 985.58789 C 566.33487 983.97541 567.70612 982.42415 569.1582 980.94336 C 570.61029 979.46257 572.14398 978.05206 573.74805 976.7168 C 575.35211 975.38153 577.02755 974.12315 578.76367 972.94727 C 580.4998 971.77138 582.29626 970.67845 584.14453 969.67578 C 585.9928 968.67312 587.89154 967.75896 589.83203 966.94336 C 591.77252 966.12776 593.75479 965.4096 595.76758 964.79492 C 597.78037 964.18024 599.8235 963.66945 601.88867 963.26953 C 603.95385 962.86961 606.04103 962.58147 608.13867 962.41016 C 609.00853 962.44687 609.58751 962.39497 609.93164 962.27148 C 610.27577 962.148 610.38445 961.95249 610.31641 961.70312 C 610.18033 961.20442 609.33387 960.48765 608.23047 959.69141 C 607.12706 958.89516 605.76774 958.02031 604.60547 957.20117 C 603.4432 956.38204 602.47869 955.62013 602.16602 955.05273 C 608.94215 953.50439 615.6766 951.20676 622.49219 949.46289 C 625.89998 948.59095 629.32843 947.85621 632.79102 947.42383 C 634.52231 947.20764 636.26306 947.06673 638.01367 947.02148 C 639.76428 946.97624 641.52516 947.02696 643.29883 947.19336 C 644.05187 947.2304 644.80314 947.29832 645.55078 947.38672 C 646.9992 947.55939 648.43545 947.8249 649.85352 948.17773 C 651.27158 948.53056 652.6709 948.96904 654.04492 949.48828 C 656.79296 950.52677 659.44 951.88615 661.92969 953.50781 C 664.41937 955.12948 666.75127 957.01451 668.87305 959.10938 C 670.99483 961.20422 672.90646 963.5087 674.55078 965.9668 C 676.1951 968.4249 677.57355 971.03669 678.63086 973.74805 C 679.15951 975.10373 679.60739 976.48444 679.96875 977.88281 C 680.33011 979.28119 680.60479 980.69768 680.78516 982.125 C 680.96553 983.55232 681.05142 984.98911 681.03711 986.43164 C 681.0228 987.87417 680.90824 989.32166 680.68555 990.76562 C 680.46286 992.20961 680.13226 993.65034 679.6875 995.08203 C 679.24274 996.51372 678.68248 997.93614 678.00195 999.3418 C 679.5107 999.27912 681.05879 999.36178 682.61133 999.58008 C 684.16386 999.79837 685.7205 1000.1518 687.24609 1000.6328 C 688.77169 1001.1139 690.26738 1001.7217 691.69531 1002.4473 C 693.12325 1003.1728 694.48459 1004.0169 695.74414 1004.9688 C 697.00369 1005.9204 698.16121 1006.9806 699.18164 1008.1406 C 700.20207 1009.3006 701.08433 1010.5603 701.79492 1011.9102 C 702.50552 1013.26 703.04497 1014.7011 703.375 1016.2227 C 703.70503 1017.7442 703.82633 1019.3465 703.70508 1021.0215 C 703.60116 1022.6746 703.27564 1024.2084 702.76367 1025.625 C 702.2517 1027.0416 701.55432 1028.3423 700.70312 1029.5273 C 699.85195 1030.7124 698.84813 1031.7818 697.72656 1032.7402 C 696.60499 1033.6987 695.36413 1034.5447 694.04102 1035.2812 C 692.7179 1036.018 691.31129 1036.646 689.85547 1037.166 C 688.39965 1037.6861 686.89469 1038.1 685.375 1038.4082 C 683.85531 1038.7164 682.32136 1038.9201 680.80664 1039.0215 C 679.29192 1039.1229 677.79638 1039.122 676.35547 1039.0215 C 676.97908 1040.6497 677.43192 1042.306 677.72852 1043.9785 C 678.02511 1045.651 678.16683 1047.3385 678.16406 1049.0254 C 678.16129 1050.7123 678.01471 1052.3989 677.74023 1054.0703 C 677.46576 1055.7417 677.06345 1057.3975 676.54492 1059.0234 C 676.0264 1060.6494 675.39117 1062.2461 674.65625 1063.7969 C 673.92133 1065.3476 673.08576 1066.8532 672.16211 1068.2988 C 671.23846 1069.7444 670.22731 1071.1289 669.14258 1072.4395 C 668.05785 1073.75 666.89979 1074.9871 665.68164 1076.1328 C 663.60403 1078.1729 661.36288 1079.9028 658.99609 1081.3477 C 657.6384 1082.1765 656.16198 1082.7105 654.72852 1083.3555 C 658.02459 1090.2282 659.50908 1097.9654 659.12695 1105.6875 C 670.84025 1109.5631 681.87356 1115.5002 691.40625 1123.2832 C 715.74106 1139.8312 740.431 1162.0989 771.58594 1162.248 C 770.11314 1146.9639 777.61625 1130.1705 790.58789 1122.1895 C 789.93932 1122.2044 789.2518 1122.234 788.77344 1122.1797 C 788.06078 1122.0988 787.52757 1121.9458 787.14648 1121.7305 C 786.7654 1121.5151 786.53642 1121.239 786.43164 1120.9121 C 786.32686 1120.5852 786.34663 1120.2066 786.46289 1119.791 C 786.69542 1118.9598 787.3145 1117.9745 788.09961 1116.9258 C 788.88472 1115.8771 789.8349 1114.7666 790.73047 1113.6836 C 788.61834 1114.1843 786.47526 1114.5812 784.3125 1114.873 C 782.14974 1115.1649 779.96753 1115.3502 777.78125 1115.4277 C 775.59497 1115.5052 773.40341 1115.4744 771.2207 1115.332 C 769.038 1115.1897 766.86492 1114.9361 764.71289 1114.5684 C 762.56086 1114.2006 760.43019 1113.7197 758.33594 1113.1211 C 756.24169 1112.5225 754.18319 1111.8057 752.17383 1110.9707 C 750.16446 1110.1357 748.20402 1109.1824 746.30664 1108.1055 C 744.40926 1107.0285 742.57471 1105.8283 740.81641 1104.5039 C 738.25673 1105.0454 735.46976 1105.5986 732.63672 1105.8379 C 731.2202 1105.9575 729.79157 1105.9973 728.375 1105.9199 C 726.95843 1105.8426 725.55469 1105.6483 724.18359 1105.293 C 723.05861 1105.3203 721.93957 1105.2194 720.84766 1105.0039 C 719.75574 1104.7884 718.68908 1104.4569 717.66797 1104.0254 C 716.64686 1103.5939 715.67233 1103.0621 714.75977 1102.4414 C 713.8472 1101.8207 712.99676 1101.1112 712.23047 1100.3281 C 711.46417 1099.545 710.78151 1098.6882 710.19922 1097.7695 C 709.61693 1096.8509 709.13594 1095.8711 708.77539 1094.8438 C 708.41484 1093.8164 708.17529 1092.7401 708.07422 1091.6309 C 707.97315 1090.5216 708.0109 1089.3791 708.20703 1088.2148 C 708.50633 1087.6581 708.65357 1087.1555 708.68164 1086.6934 C 708.70971 1086.2312 708.61881 1085.8103 708.43945 1085.416 C 708.08073 1084.6275 707.37018 1083.9473 706.56445 1083.2695 C 705.75873 1082.5917 704.85765 1081.9161 704.11523 1081.1348 C 703.74403 1080.7441 703.41204 1080.3258 703.15234 1079.8691 C 702.89264 1079.4124 702.70549 1078.9167 702.62109 1078.3672 C 702.18066 1076.8274 701.97568 1075.3107 701.97656 1073.8281 C 701.97745 1072.3455 702.18334 1070.8967 702.5625 1069.4922 C 702.94166 1068.0877 703.49507 1066.7274 704.18945 1065.4219 C 704.88384 1064.1164 705.71945 1062.8653 706.66602 1061.6797 C 707.61258 1060.4941 708.669 1059.3748 709.80469 1058.3301 C 710.94038 1057.2854 712.15424 1056.3165 713.41602 1055.4336 C 714.67779 1054.5507 715.98769 1053.7529 717.3125 1053.0527 C 718.63731 1052.3525 719.97793 1051.7485 721.30273 1051.252 C 721.88761 1049.2779 722.57952 1047.3283 723.37305 1045.4121 C 724.16658 1043.496 725.0619 1041.6133 726.05078 1039.7754 C 727.03966 1037.9374 728.12204 1036.1438 729.29297 1034.4043 C 730.4639 1032.6648 731.72282 1030.9801 733.0625 1029.3594 C 734.40218 1027.7387 735.82323 1026.1828 737.31836 1024.7012 C 738.81349 1023.2195 740.38226 1021.8125 742.01953 1020.4902 C 743.65681 1019.1679 745.36279 1017.9298 747.12891 1016.7871 C 748.89502 1015.6444 750.72186 1014.5971 752.60352 1013.6543 C 753.42407 1013.3633 753.94179 1013.0986 754.21484 1012.8555 C 754.4879 1012.6123 754.51567 1012.3895 754.35938 1012.1836 C 754.04679 1011.7719 752.99484 1011.4258 751.67383 1011.0996 C 750.35281 1010.7734 748.76307 1010.468 747.37891 1010.1426 C 745.99474 1009.8171 744.8165 1009.47 744.31445 1009.0605 C 750.02107 1005.0922 755.40992 1000.4457 761.08008 996.28125 C 763.91516 994.19903 766.82093 992.23601 769.87109 990.54102 C 771.39617 989.69352 772.95758 988.91295 774.56445 988.2168 C 776.17133 987.52064 777.8239 986.90885 779.53125 986.40039 C 780.24357 986.15335 780.96489 985.93563 781.69141 985.73828 C 783.09942 985.35718 784.53134 985.06788 785.97852 984.86523 C 787.4257 984.66259 788.88696 984.54745 790.35547 984.51562 C 793.29249 984.45197 796.25461 984.72111 799.16992 985.29492 C 802.08524 985.86873 804.95418 986.74627 807.70508 987.89648 C 810.45597 989.0467 813.08944 990.46921 815.5332 992.13477 C 817.97697 993.80032 820.23069 995.7083 822.22461 997.82812 C 823.22157 998.88804 824.15398 1000.002 825.01172 1001.1641 C 825.86946 1002.3261 826.65284 1003.5365 827.35352 1004.793 C 828.05419 1006.0495 828.67149 1007.3519 829.19727 1008.6953 C 829.72305 1010.0387 830.15719 1011.4231 830.49023 1012.8457 C 830.82328 1014.2683 831.05527 1015.7285 831.17773 1017.2227 C 831.3002 1018.7168 831.31298 1020.2446 831.20703 1021.8027 C 832.58306 1021.1808 834.05063 1020.6785 835.57227 1020.3008 C 837.0939 1019.9231 838.67079 1019.6708 840.26562 1019.5469 C 841.86046 1019.423 843.47273 1019.4289 845.06836 1019.5684 C 846.66399 1019.7078 848.24161 1019.9803 849.76562 1020.3926 C 851.28964 1020.8048 852.76064 1021.3561 854.14062 1022.0508 C 855.52061 1022.7454 856.81106 1023.5838 857.97461 1024.5703 C 859.13816 1025.5568 860.17413 1026.6925 861.04883 1027.9805 C 861.92353 1029.2684 862.63695 1030.7077 863.15039 1032.3066 C 863.67175 1033.8788 863.9416 1035.4244 863.99609 1036.9297 C 864.05059 1038.435 863.88964 1039.901 863.54297 1041.3184 C 863.1963 1042.7357 862.66457 1044.104 861.98242 1045.4121 C 861.30028 1046.7203 860.46755 1047.9686 859.51562 1049.1465 C 858.5637 1050.3243 857.49195 1051.4306 856.33594 1052.457 C 855.17992 1053.4834 853.93894 1054.4294 852.64453 1055.2832 C 851.35013 1056.137 850.00382 1056.8985 848.63672 1057.5586 C 847.26962 1058.2187 845.88192 1058.7775 844.50781 1059.2227 C 845.6947 1060.4999 846.73467 1061.8681 847.63477 1063.3086 C 848.53486 1064.7491 849.29604 1066.2624 849.92383 1067.8281 C 850.55162 1069.3938 851.04604 1071.0112 851.41602 1072.6641 C 851.78599 1074.3169 852.03155 1076.0051 852.1582 1077.707 C 852.28486 1079.409 852.29164 1081.1249 852.18945 1082.8379 C 852.08727 1084.5509 851.87512 1086.2612 851.55859 1087.9473 C 851.24206 1089.6333 850.82303 1091.295 850.30664 1092.916 C 849.79025 1094.537 849.17637 1096.1168 848.47461 1097.6348 C 847.30986 1100.3034 845.87806 1102.7461 844.22266 1104.9707 C 842.56726 1107.1953 840.68814 1109.2024 838.62891 1110.998 C 836.56967 1112.7937 834.33132 1114.378 831.95508 1115.7598 C 829.57884 1117.1415 827.06541 1118.3197 824.45898 1119.3027 C 823.1947 1119.7796 821.85405 1120.0655 820.55078 1120.4512 C 830.20287 1124.7568 838.02478 1133.29 842.20703 1143.0859 C 854.92091 1138.2245 867.72297 1133.6705 881.04883 1131.1758 C 956.10942 1109.6696 1033.4638 1084.0399 1092.5098 1030.7227 C 1140.2894 986.21989 1169.1633 926.37998 1201.2715 870.58398 C 1230.0408 816.28173 1244.2359 755.65448 1251.0938 694.94336 C 1263.5055 591.19471 1257.2194 486.19636 1245.5605 382.69727 C 1237.1005 326.73535 1220.5149 269.16852 1182.5586 225.72461 C 1141.5229 182.48189 1088.0241 153.62013 1034.1387 129.56836 C 945.964 92.603682 851.31391 75.136937 757.66797 58.361328 C 734.12883 54.913149 710.36991 52.676934 686.56641 52.642578 z "
     id="path1161"
     transform="matrix(0.75000246,0,0,0.75000246,0,-0.00280435)" />
  <path
     style="fill:none;stroke:#fb0000;stroke-width:0.75000244px;stroke-linecap:butt;stroke-linejoin:miter;stroke-opacity:1"
     d="m -750.52145,37.394441 c -1.19018,-0.002 -2.38087,0.004 -3.5713,0.0176 -79.35128,1.78247 -160.65164,-3.30574 -237.65996,19.7945 -75.25249,22.29703 -137.22059,78.062669 -176.93469,144.677229 -38.1563,61.45921 -61.7513,132.56827 -63.4221,205.15497 -4.2014,79.03789 -1.878,158.23493 -0.069,237.30696 0.9896,34.9866 2.9555,70.6318 15.1875,103.7903 13.2901,38.3436 32.9732,74.4166 56.7995,107.1889 26.5715,32.4818 60.9067,58.6027 98.9652,76.1706 27.2385,11.5564 58.1847,13.6575 86.73077,5.899 24.71657,-5.8191 48.90963,-15.7974 69.80296,-30.3898 -1.91128,-3.7226 -3.15219,-7.7562 -3.50245,-11.8433 -0.70499,-3.8321 -0.56434,-7.8566 0.29883,-11.748 -1.68369,-0.1935 -3.35927,-0.485 -5.01711,-0.9053 -3.22621,2.2345 -7.06959,4.763 -11.27494,5.3715 -6.16081,2.7629 -14.38716,-0.2777 -16.00493,-7.1748 0.36336,-3.7753 -4.978,-2.3439 -6.72073,-5.1884 -6.01134,-7.4967 -1.12475,-18.3516 5.05227,-24.1745 -1.3468,-12.2796 2.5153,-25.5017 10.73733,-35.086 3.86436,-3.5149 -5.20232,-0.2206 -7.06642,-0.7705 5.59015,-8.8009 9.51296,-19.1145 17.77887,-25.8912 0.42094,-0.3775 0.85706,-0.7367 1.30224,-1.084 v 0 c 13.81079,-10.7543 38.64959,-7.1599 44.71158,10.5734 6.16931,-6.6355 18.58559,-9.6585 25.13827,-2.004 6.53435,7.4881 1.48749,18.3705 -5.08157,24.0235 7.29749,3.3007 11.74285,10.5687 13.27885,18.2931 4.40723,-3.4527 9.20156,-6.4485 14.52837,-8.8008 25.42333,-13.0707 57.78074,-8.0669 79.64235,9.7822 18.40462,12.5153 37.07704,29.4027 60.72237,29.2325 28.80194,-0.9088 53.63493,-18.0946 81.51004,-23.3131 56.29562,-16.1297 114.3116,-35.352 158.59621,-75.34 35.83482,-33.3771 57.49032,-78.2573 81.57155,-120.1044 21.57704,-40.72686 32.2234,-86.19745 37.36684,-131.73094 9.30911,-77.81174 4.59422,-156.56077 -4.14999,-234.18534 -6.34502,-41.9716 -18.78426,-85.14685 -47.25158,-117.72989 -30.77687,-32.43215 -70.9011,-54.07854 -111.31526,-72.117429 -66.13115,-27.72359 -137.11904,-40.82373 -207.35372,-53.40548 -17.65442,-2.58614 -35.47366,-4.26331 -53.32635,-4.28908 z m -96.06902,806.813639 c -0.49724,-8.1992 -5.03097,-18.1669 -14.13886,-18.4439 -1.95357,-0.063 -4.06012,2.2769 -3.82472,-1.0165 -2.44502,-3.2855 3.35536,-4.5857 4.8047,-7.0562 4.27678,-3.8038 10.20569,-9.9847 6.45266,-16.0093 -4.39302,-6.2077 -12.53237,-2.4165 -16.79742,1.8061 -2.50533,1.9251 -4.85173,4.5815 -7.25833,6.2534 -1.35653,-1.4543 -5.1211,-0.903 -2.80664,-3.3047 2.70736,-8.4041 -6.20716,-15.158 -13.43267,-17.0172 -7.61002,-2.2974 -16.11981,-0.634 -22.34333,4.2657 -0.41443,0.3273 -0.8185,0.668 -1.21289,1.0225 -4.2644,3.6116 -7.08814,8.5261 -9.81156,13.3184 9.28922,-1.36 19.48533,-6.9091 28.62168,-3.2388 -21.32145,1.5495 -39.68108,22.7081 -37.59387,44.1125 -0.37564,2.3791 3.06228,6.5747 -0.82032,6.2021 -4.70088,2.8622 -6.91944,9.2395 -6.89944,14.5519 1.44275,4.699 8.41052,1.9196 10.53812,2.4828 -1.59877,3.4985 -2.57964,10.9484 3.24904,10.5411 4.83027,-0.748 12.73033,-1.6021 13.5308,-7.6451 3.36074,1.4498 6.84102,2.219 10.33744,2.5005 3.98802,-9.2608 12.19771,-16.6084 22.70076,-16.8179 6.45423,-0.2199 12.43889,2.1121 17.38775,5.9371 5.95823,-8.0009 12.14692,-15.7674 19.3171,-22.4445 z m -61.30552,39.2053 c 0.003,3e-4 0.006,0 0.009,0 0.009,-0.041 0.007,-0.082 0.0161,-0.123 -0.009,0.041 -0.016,0.081 -0.0249,0.1216 z"
     id="path1161-2"
     inkscape:connector-curvature="0"
     sodipodi:nodetypes="scccccccccccccccccccccccccccccccccccccscccccccccccccccccccccccccccc" />
  <g
     transform="rotate(-42.040588,628.40323,509.87943)"
     id="g1554-3-5" />
  <path
     sodipodi:type="star"
     style="fill:none;fill-opacity:1;stroke:#fb0000;stroke-width:0.75000244;stroke-miterlimit:4;stroke-dasharray:none;stroke-opacity:1"
     id="path1625"
     sodipodi:sides="6"
     sodipodi:cx="369.61592"
     sodipodi:cy="840.92728"
     sodipodi:r1="7.7499299"
     sodipodi:r2="6.7116356"
     sodipodi:arg1="-2.6179939"
     sodipodi:arg2="-2.0943951"
     inkscape:flatsided="true"
     inkscape:rounded="0"
     inkscape:randomized="0"
     d="m 362.90427,837.05234 6.71164,-3.87496 6.71163,3.87496 0,7.74993 -6.71163,3.87497 -6.71164,-3.87497 z" />
  <path
     sodipodi:type="star"
     style="fill:none;fill-opacity:1;stroke:#fb0000;stroke-width:0.75000244;stroke-miterlimit:4;stroke-dasharray:none;stroke-opacity:1"
     id="path1625-8"
     sodipodi:sides="6"
     sodipodi:cx="462.29502"
     sodipodi:cy="761.97616"
     sodipodi:r1="7.7499299"
     sodipodi:r2="6.7116356"
     sodipodi:arg1="-2.6179939"
     sodipodi:arg2="-2.0943951"
     inkscape:flatsided="true"
     inkscape:rounded="0"
     inkscape:randomized="0"
     d="m 455.58338,758.10117 6.71163,-3.87496 6.71164,3.87496 0,7.74993 -6.71164,3.87497 -6.71163,-3.87497 z" />
  <path
     sodipodi:type="star"
     style="fill:none;fill-opacity:1;stroke:#fb0000;stroke-width:0.75000244;stroke-miterlimit:4;stroke-dasharray:none;stroke-opacity:1"
     id="path1625-8-7"
     sodipodi:sides="6"
     sodipodi:cx="586.07751"
     sodipodi:cy="795.59285"
     sodipodi:r1="7.7499299"
     sodipodi:r2="6.7116356"
     sodipodi:arg1="-2.6179939"
     sodipodi:arg2="-2.0943951"
     inkscape:flatsided="true"
     inkscape:rounded="0"
     inkscape:randomized="0"
     d="m 579.36588,791.71787 6.71163,-3.87497 6.71164,3.87497 0,7.74993 -6.71164,3.87496 -6.71163,-3.87496 z" />
  <path
     style="fill:none;fill-opacity:1;stroke:#00ff00;stroke-width:1;stroke-miterlimit:4;stroke-dasharray:none;stroke-opacity:1"
     d="m 385.14062,2695.7031 c 18.56479,-4.6186 36.70716,-11.1696 53.96094,-18.6679 14.33002,-6.6759 28.60186,-14.0958 41.90235,-22.8614 9.37937,10.6109 23.36672,16.9105 37.63476,13.1192 22.39774,-6.4727 31.41725,-34.7124 22.92969,-55.0586 -1.74606,-4.9841 -4.4011,-9.7639 -7.75977,-13.9766 12.53692,-17.3394 26.51902,-33.5245 46.06641,-43.1758 0.49725,-0.2804 1.00144,-0.5475 1.50391,-0.8183 6.93807,16.4531 24.6051,29.0041 42.63867,23.7793 13.7345,-4.1215 22.87356,-15.6327 26.59765,-28.9004 3.49578,1.444 6.90707,3.1752 10.19727,5.2285 31.88208,17.5183 59.09769,47.2308 96.97656,51.4004 3.13665,0.3828 6.2372,0.5436 9.30664,0.5215 6.0558,18.6506 25.28287,33.9411 45.28321,28.7031 20.53613,-5.7757 30.45525,-29.3152 26.45898,-49.2793 3.94881,-1.298 7.91762,-2.4685 11.91992,-3.4199 39.31186,-11.5985 79.23087,-22.1783 117.33789,-37.3614 l 0.79292,-12.6671 c -30.89313,12.2843 -62.91411,22.0851 -94.5332,31.1446 -13.32586,2.4948 -26.12792,7.0488 -38.8418,11.9101 -4.18225,-9.7958 -12.00416,-18.3292 -21.65625,-22.6347 1.30328,-0.3858 2.64393,-0.6716 3.9082,-1.1485 2.60644,-0.983 5.11987,-2.1612 7.4961,-3.543 2.37624,-1.3818 4.61459,-2.9659 6.67383,-4.7617 2.05923,-1.7956 3.93834,-3.8027 5.59375,-6.0273 1.65539,-2.2245 3.08721,-4.6673 4.25195,-7.336 0.70176,-1.5179 1.31563,-3.0978 1.83203,-4.7187 0.51639,-1.6211 0.93544,-3.2828 1.25195,-4.9688 0.31654,-1.6861 0.52873,-3.3964 0.63086,-5.1093 0.10229,-1.7131 0.0955,-3.4289 -0.0312,-5.1309 -0.12665,-1.7018 -0.37221,-3.3902 -0.74218,-5.043 -0.36998,-1.6529 -0.86441,-3.2702 -1.49219,-4.8359 -0.6278,-1.5657 -1.38897,-3.0791 -2.28906,-4.5195 -0.90011,-1.4406 -1.94007,-2.8088 -3.12696,-4.086 1.37412,-0.4452 2.76181,-1.004 4.12891,-1.664 1.3671,-0.6602 2.71342,-1.4216 4.00781,-2.2754 1.29441,-0.8539 2.53539,-1.7998 3.69141,-2.8262 1.15601,-1.0264 2.22777,-2.1328 3.17969,-3.3105 0.95193,-1.178 1.78465,-2.4261 2.46679,-3.7344 0.68215,-1.308 1.21387,-2.6766 1.56055,-4.0938 0.34672,-1.4174 0.50762,-2.8833 0.45312,-4.3886 -0.0545,-1.5052 -0.32434,-3.0508 -0.8457,-4.6231 -0.51344,-1.5989 -1.22687,-3.0383 -2.10156,-4.3261 -0.87471,-1.288 -1.91066,-2.4238 -3.07422,-3.4102 -1.16354,-0.9865 -2.45399,-1.8249 -3.83398,-2.5195 -1.37999,-0.6947 -2.85098,-1.2461 -4.375,-1.6582 -1.52401,-0.4124 -3.10164,-0.6848 -4.69727,-0.8243 -1.59562,-0.1396 -3.2079,-0.145 -4.80273,-0.021 -1.59484,0.1238 -3.17173,0.3763 -4.69336,0.7539 -1.52164,0.3777 -2.9892,0.8799 -4.36524,1.5019 0.1059,-1.5581 0.0932,-3.0861 -0.0293,-4.5801 -0.12247,-1.4942 -0.35445,-2.9543 -0.6875,-4.3769 -0.33304,-1.4227 -0.7672,-2.8071 -1.29297,-4.1504 -0.52579,-1.3435 -1.14309,-2.646 -1.84375,-3.9024 -0.70068,-1.2565 -1.48406,-2.4669 -2.3418,-3.6289 -0.85773,-1.1621 -1.79014,-2.276 -2.78711,-3.3359 -1.99391,-2.1199 -4.24764,-4.0279 -6.69141,-5.6934 -2.44376,-1.6655 -5.07722,-3.088 -7.82812,-4.2382 -2.7509,-1.1502 -5.61983,-2.0277 -8.53516,-2.6016 -2.91531,-0.5737 -5.87743,-0.8433 -8.81445,-0.7793 -1.4685,0.032 -2.92977,0.1469 -4.37695,0.3496 -1.44719,0.2027 -2.87909,0.4919 -4.28711,0.8731 -0.72652,0.1973 -1.44784,0.415 -2.16016,0.6621 -1.70735,0.5084 -3.35992,1.1201 -4.9668,1.8164 -1.60687,0.6961 -3.16828,1.4767 -4.69336,2.3242 -3.05016,1.6951 -5.95594,3.6581 -8.79101,5.7402 -5.67017,4.1646 -11.059,8.8111 -16.76563,12.7793 0.50206,0.4095 1.68027,0.7565 3.06446,1.0821 1.38415,0.3253 2.9739,0.6309 4.29492,0.957 1.32101,0.3263 2.37295,0.6722 2.68555,1.084 0.15628,0.2058 0.12853,0.4287 -0.14454,0.6719 -0.27305,0.243 -0.79078,0.5077 -1.61132,0.7988 -1.88166,0.9428 -3.7085,1.99 -5.47461,3.1328 -1.76612,1.1427 -3.4721,2.3809 -5.10938,3.7031 -1.63727,1.3223 -3.20604,2.7292 -4.70117,4.211 -1.49513,1.4815 -2.91617,3.0375 -4.25586,4.6582 -1.33967,1.6206 -2.5986,3.3054 -3.76953,5.0449 -1.17093,1.7394 -2.25331,3.5331 -3.24219,5.3711 -0.98889,1.838 -1.8842,3.7206 -2.67773,5.6367 -0.79353,1.9161 -1.48544,3.8657 -2.07031,5.8398 -1.32481,0.4966 -2.66543,1.1007 -3.99024,1.8008 -1.32481,0.7003 -2.63471,1.4979 -3.89648,2.3809 -1.26177,0.8829 -2.47564,1.8518 -3.61133,2.8965 -1.13569,1.0446 -2.19212,2.164 -3.13867,3.3496 -0.94657,1.1856 -1.78217,2.4366 -2.47657,3.7422 -0.69437,1.3054 -1.24779,2.6657 -1.62695,4.0703 -0.37916,1.4045 -0.58504,2.8534 -0.58594,4.3359 -8.8e-4,1.4827 0.20411,2.9992 0.64453,4.5391 0.0844,0.5494 0.27155,1.0453 0.53125,1.5019 0.2597,0.4567 0.5917,0.875 0.9629,1.2656 0.74242,0.7814 1.6435,1.4571 2.44921,2.1348 0.80573,0.6779 1.51628,1.358 1.875,2.1465 0.17939,0.3943 0.27029,0.8151 0.24219,1.2773 -0.0281,0.462 -0.17532,0.9649 -0.47461,1.5215 -0.19611,1.1643 -0.23388,2.3067 -0.13281,3.416 0.10107,1.1092 0.34063,2.1855 0.70117,3.2129 0.36055,1.0272 0.84154,2.0071 1.42383,2.9258 0.58229,0.9187 1.26495,1.7755 2.03125,2.5586 0.76629,0.7831 1.61673,1.4926 2.5293,2.1133 0.91255,0.6207 1.88708,1.1525 2.9082,1.584 1.0211,0.4314 2.08777,0.7629 3.17969,0.9785 1.09191,0.216 2.21095,0.316 3.33593,0.289 1.37111,0.3554 2.77484,0.55 4.19141,0.627 1.41657,0.077 2.84519,0.038 4.26172,-0.082 2.83303,-0.2394 5.62002,-0.7925 8.17969,-1.334 1.7583,1.3244 3.59285,2.5245 5.49023,3.6016 1.89738,1.0769 3.85781,2.0301 5.86719,2.8652 2.00935,0.8349 4.06786,1.5517 6.16211,2.1504 2.09426,0.5985 4.22493,1.0794 6.37695,1.4472 2.15203,0.3676 4.32511,0.6213 6.50781,0.7637 2.1827,0.143 4.37426,0.175 6.56055,0.096 2.18627,-0.078 4.36848,-0.2627 6.53125,-0.5547 2.16275,-0.2917 4.30584,-0.6888 6.41797,-1.1894 -0.89557,1.0829 -1.84574,2.1935 -2.63086,3.2422 -0.7851,1.0488 -1.4042,2.034 -1.63672,2.8652 -0.1162,0.4156 -0.136,0.7942 -0.0312,1.1211 0.10477,0.3269 0.33377,0.6029 0.71484,0.8184 0.3811,0.2153 0.91431,0.3682 1.62696,0.4492 0.47836,0.058 1.16589,0.029 1.81445,0.014 -12.97164,7.9811 -20.47475,24.7744 -19.00195,40.0586 -31.15494,-0.1492 -55.84488,-22.4169 -80.17969,-38.9648 -9.53269,-7.7831 -20.566,-13.72 -32.2793,-17.5957 0.38212,-7.722 -1.10236,-15.4594 -4.39843,-22.332 1.43346,-0.6451 2.90989,-1.1791 4.26757,-2.0079 2.3668,-1.4448 4.60794,-3.1747 6.68555,-5.2148 1.21814,-1.1456 2.37621,-2.383 3.46094,-3.6934 1.08473,-1.3106 2.09588,-2.695 3.01953,-4.1406 0.92365,-1.4456 1.75922,-2.9513 2.49414,-4.5019 0.73492,-1.5508 1.37014,-3.1475 1.88867,-4.7735 0.51852,-1.626 0.92085,-3.2816 1.19532,-4.9531 0.27447,-1.6713 0.42082,-3.358 0.42382,-5.0449 0.003,-1.6868 -0.13896,-3.3744 -0.43554,-5.0469 -0.2966,-1.6724 -0.74944,-3.3289 -1.37305,-4.957 1.4409,0.1 2.93644,0.1013 4.45117,0 1.51472,-0.1015 3.04867,-0.305 4.56836,-0.6133 1.51969,-0.3081 3.02465,-0.7222 4.48047,-1.2422 1.45582,-0.52 2.86243,-1.148 4.18555,-1.8848 1.32311,-0.7365 2.56397,-1.5824 3.68554,-2.541 1.12157,-0.9584 2.1254,-2.0278 2.97657,-3.2129 0.85119,-1.1849 1.54857,-2.4858 2.06054,-3.9023 0.51197,-1.4167 0.83754,-2.9503 0.94141,-4.6035 0.12125,-1.675 -4e-5,-3.2773 -0.33008,-4.7989 -0.33002,-1.5216 -0.86948,-2.9626 -1.58008,-4.3125 -0.7106,-1.3498 -1.59284,-2.6095 -2.61328,-3.7695 -1.02042,-1.16 -2.17796,-2.2203 -3.4375,-3.1719 -1.25955,-0.9518 -2.6209,-1.796 -4.04883,-2.5214 -1.42794,-0.7258 -2.92362,-1.3334 -4.44922,-1.8145 -1.52559,-0.4811 -3.08223,-0.8345 -4.63476,-1.0527 -1.55254,-0.2183 -3.10062,-0.3013 -4.60938,-0.2383 0.68053,-1.4056 1.24079,-2.8281 1.68555,-4.2598 0.44476,-1.4317 0.77535,-2.8724 0.99805,-4.3164 0.22262,-1.444 0.33726,-2.8914 0.35156,-4.334 0.0143,-1.4425 -0.0716,-2.8793 -0.25195,-4.3066 -0.18038,-1.4273 -0.45505,-2.8438 -0.81641,-4.2422 -0.36136,-1.3984 -0.80924,-2.779 -1.33789,-4.1348 -1.05732,-2.7113 -2.43576,-5.3231 -4.08008,-7.7812 -1.64433,-2.4581 -3.55595,-4.7626 -5.67773,-6.8574 -2.12178,-2.095 -4.45369,-3.9799 -6.94336,-5.6016 -2.4897,-1.6216 -5.13672,-2.9811 -7.88477,-4.0195 -1.37402,-0.5194 -2.77334,-0.9576 -4.1914,-1.3106 -1.41808,-0.3528 -2.85432,-0.6183 -4.30274,-0.791 -0.74764,-0.088 -1.49891,-0.1564 -2.25195,-0.1934 -1.77368,-0.172 -3.53454,-0.2168 -5.28516,-0.1718 -1.75061,0.045 -3.49135,0.1862 -5.22265,0.4023 -3.46259,0.4324 -6.89104,1.1672 -10.29883,2.0391 -6.81559,1.7438 -13.55005,4.0414 -20.32617,5.5898 0.31266,0.5675 1.27719,1.3294 2.43945,2.1485 1.16228,0.8192 2.52159,1.6939 3.625,2.4902 1.1034,0.7963 1.94986,1.513 2.08594,2.0117 0.068,0.2493 -0.0406,0.4444 -0.38477,0.5684 -0.34413,0.1236 -0.9231,0.1746 -1.79297,0.1386 -2.09763,0.1714 -4.1848,0.4596 -6.25,0.8594 -2.06516,0.4 -4.1083,0.9107 -6.12109,1.5254 -2.01279,0.6147 -3.99506,1.3328 -5.93555,2.1484 -1.9405,0.8156 -3.83924,1.7298 -5.6875,2.7325 -1.84827,1.0026 -3.64473,2.0955 -5.38086,3.2715 -1.73613,1.1758 -3.41156,2.4343 -5.01562,3.7695 -1.60408,1.3353 -3.13776,2.7458 -4.58985,4.2265 -1.45207,1.4808 -2.82333,3.0321 -4.10351,4.6446 -1.4144,-0.035 -2.88256,0.023 -4.37305,0.1777 -1.49049,0.1545 -3.0036,0.4045 -4.5039,0.752 -1.50031,0.3474 -2.98782,0.7933 -4.43165,1.3379 -1.4438,0.5446 -2.84302,1.1895 -4.16406,1.9355 -1.32102,0.746 -2.56533,1.5935 -3.69726,2.5449 -1.13195,0.9515 -2.15274,2.0069 -3.0293,3.168 -0.87654,1.1611 -1.60726,2.4279 -2.16211,3.8027 -0.55486,1.375 -0.93274,2.8565 -1.09961,4.4492 -0.1271,0.5412 -0.1385,1.0731 -0.0684,1.5938 0.0702,0.5207 0.22159,1.03 0.41992,1.5312 0.39667,1.002 0.98055,1.9668 1.47461,2.8965 0.49407,0.9298 0.8994,1.826 0.9375,2.6914 0.019,0.4326 -0.0552,0.8573 -0.2539,1.2754 -0.19875,0.4182 -0.52214,0.8297 -1.00782,1.2344 -0.61701,1.0067 -1.07964,2.0525 -1.40039,3.1191 -0.32074,1.0666 -0.49933,2.1546 -0.54883,3.2422 -0.0494,1.0876 0.0297,2.1746 0.22657,3.2442 0.19684,1.0697 0.50957,2.1219 0.92773,3.1347 0.41817,1.0126 0.94215,1.9856 1.55664,2.9024 0.61452,0.9168 1.31961,1.7767 2.10547,2.5586 0.78588,0.7818 1.65174,1.4859 2.58399,2.0937 0.93222,0.608 1.93269,1.1206 2.98632,1.5156 1.13899,0.8419 2.36731,1.5474 3.65235,2.1485 1.28503,0.6011 2.62576,1.0973 3.98437,1.5156 2.71721,0.8368 5.50936,1.3662 8.08594,1.8203 1.13601,1.8855 2.38862,3.6825 3.74609,5.3906 1.35748,1.7079 2.81936,3.3262 4.3711,4.8516 1.55174,1.5255 3.19327,2.9589 4.91211,4.2969 1.71882,1.3378 3.51436,2.5814 5.37304,3.7265 1.8587,1.1454 3.78058,2.1929 5.75196,3.1407 1.97136,0.9477 3.99392,1.7938 6.05078,2.539 2.05684,0.745 4.14854,1.3884 6.26367,1.9258 0.40993,0.1043 0.82873,0.154 1.24023,0.25 -11.42905,9.4 -17.8724,25.4915 -15.95898,40.1445 0.02,0.5824 0.0621,1.1647 0.11133,1.7461 -7.06227,3.1298 -13.42289,7.1076 -19.27149,11.6895 -2.048,-10.2992 -7.97512,-19.9897 -17.70507,-24.3906 8.75871,-7.5373 15.48784,-22.0472 6.77539,-32.0313 -8.73687,-10.2059 -25.29186,-6.1754 -33.51758,2.6719 -8.08262,-23.6443 -41.20092,-28.4367 -59.61524,-14.0977 -0.59357,0.4631 -1.17511,0.942 -1.73632,1.4454 -11.02117,9.0355 -16.25157,22.7869 -23.70508,34.5214 2.48546,0.7328 14.57434,-3.6593 9.42187,1.0274 -10.96268,12.779 -16.11214,30.4085 -14.3164,46.7812 -8.236,7.7639 -14.75143,22.2369 -6.73633,32.2325 2.32363,3.7926 9.44537,1.8842 8.96094,6.9179 2.15698,9.1961 13.12545,13.2503 21.33984,9.5664 5.60711,-0.8113 10.7316,-4.1828 15.0332,-7.1621 2.21045,0.5604 4.44454,0.9491 6.68946,1.207 -1.15089,5.1886 -1.33843,10.5547 -0.39844,15.6641 0.46701,5.4495 2.12156,10.8276 4.66992,15.791 -26.82373,18.7343 -57.72891,31.7492 -89.40625,39.6172 z"
     transform="matrix(0.75000246,0,0,0.75000246,0,-0.00280435)"
     id="path1944" />
  <path
     style="fill:none;fill-opacity:1;stroke:#0000ff;stroke-width:1;stroke-miterlimit:4;stroke-dasharray:none;stroke-opacity:1"
     d="m 479.37808,2486.2276 c -7.20612,0.097 -14.35177,2.5497 -20.05665,7.041 -0.55253,0.4364 -1.09133,0.8907 -1.61718,1.3634 -5.68584,4.8154 -9.45081,11.3681 -13.08203,17.7578 12.38557,-1.8134 25.98036,-9.2121 38.16212,-4.3184 -13.92969,1.0122 -26.86156,8.3513 -36.15236,18.8809 l 28.31641,13.0351 c 1.43419,-1.3079 3.05731,-2.4028 4.82617,-3.2012 0.88444,-0.3992 1.80654,-0.7236 2.75782,-0.9648 0.95127,-0.2412 1.93255,-0.3982 2.93945,-0.461 1.59963,-0.079 3.06526,0.2068 4.44922,0.7168 1.38395,0.5102 2.68543,1.2438 3.95704,2.0606 1.27159,0.8167 2.51279,1.716 3.77538,2.5567 1.26259,0.8405 2.5474,1.6233 3.90428,2.205 0.72468,1.0418 1.21705,2.277 1.53127,3.629 0.31421,1.3519 0.45012,2.8201 0.45898,4.3261 0.009,1.506 -0.10946,3.0512 -0.30078,4.5548 -0.19138,1.5033 -0.45567,2.9658 -0.74219,4.3105 -0.43869,1.5757 -1.11535,2.9989 -1.97853,4.2636 -0.86315,1.2648 -1.9125,2.3708 -3.09764,3.3105 -1.18515,0.9398 -2.50548,1.7134 -3.91016,2.3145 -1.40467,0.6011 -2.8943,1.0291 -4.41601,1.2773 -1.52172,0.2484 -3.077,0.3174 -4.61329,0.1994 -1.53629,-0.1187 -3.05357,-0.4236 -4.50195,-0.922 -1.44838,-0.4984 -2.82598,-1.1894 -4.08398,-2.0822 -1.25801,-0.8925 -2.39618,-1.9863 -3.36133,-3.287 -1.16002,-1.2421 -2.05518,-2.5888 -2.71093,-4 -0.65578,-1.4111 -1.07241,-2.8859 -1.27149,-4.3846 -0.19908,-1.499 -0.18074,-3.0222 0.0293,-4.5275 0.21003,-1.5052 0.61204,-2.9935 1.1836,-4.4238 l -29.40625,-11.9727 c -5.72009,9.44 -8.78232,20.3753 -7.70703,31.4025 -0.50084,3.1721 4.08302,8.7662 -1.09376,8.2694 -6.26782,3.8162 -9.22589,12.3193 -9.19921,19.4025 1.92366,6.2653 11.21399,2.5594 14.05078,3.3104 -2.1317,4.6646 -3.43951,14.5978 4.33203,14.0547 6.44035,-0.9973 16.97373,-2.1361 18.04102,-10.1934 4.48093,1.933 9.12132,2.9586 13.78319,3.334 5.31736,-12.3477 16.26356,-22.1445 30.26758,-22.4238 8.60563,-0.2932 16.58515,2.8161 23.18359,7.9161 7.9443,-10.6679 16.19566,-21.0232 25.75587,-29.9259 -0.66299,-10.9321 -6.70775,-24.2225 -18.85157,-24.5918 -2.60474,-0.084 -5.41347,3.0358 -5.09961,-1.3553 -3.26001,-4.3807 4.47381,-6.1143 6.40626,-9.4083 5.70234,-5.0717 13.60754,-13.3129 8.60351,-21.3456 -5.85734,-8.2769 -16.70978,-3.222 -22.39648,2.4081 -3.34043,2.5668 -6.46896,6.1086 -9.67774,8.3378 -1.80871,-1.939 -6.82811,-1.204 -3.74219,-4.4062 3.60981,-11.2055 -8.27617,-20.2106 -17.91015,-22.6896 -3.17083,-0.9572 -6.45887,-1.3981 -9.73437,-1.3534 z"
     transform="matrix(0.75000246,0,0,0.75000246,0,-0.00280435)"
     id="path1942" />
  <path
     style="fill:none;fill-opacity:1;stroke:#fb0000;stroke-width:1;stroke-miterlimit:4;stroke-dasharray:none;stroke-opacity:1"
     d="m 470.04019,2612.9054 c 0.004,4e-4 0.008,0 0.012,0 0.012,-0.055 0.009,-0.1106 0.0215,-0.1641 -0.012,0.053 -0.0213,0.108 -0.0332,0.1621 z"
     transform="matrix(0.75000246,0,0,0.75000246,0,-0.00280435)"
     id="path1940" />
  <path
     style="fill:none;fill-opacity:1;stroke:#0000ff;stroke-width:1;stroke-miterlimit:4;stroke-dasharray:none;stroke-opacity:1"
     d="m 634.89956,2387.337 c -1.85714,-0.1443 -3.70488,-0.1267 -5.54297,0.013 -1.83807,0.1383 -3.66734,0.3972 -5.48437,0.7364 -3.63405,0.6784 -7.22384,1.6764 -10.76172,2.6699 2.51959,1.8561 5.33984,3.5185 8.23242,5.1543 2.89257,1.6359 5.85761,3.2448 8.67187,5 1.40714,0.8775 2.77713,1.7927 4.08008,2.7636 1.30295,0.9711 2.5393,1.9987 3.68164,3.1056 1.14235,1.1068 2.18991,2.2928 3.11524,3.5781 0.92533,1.2852 1.72896,2.6698 2.38086,4.1758 -1.35364,-1.1582 -2.7694,-2.233 -4.23633,-3.2247 -1.46693,-0.9917 -2.98557,-1.9003 -4.54883,-2.7265 -1.56326,-0.8263 -3.16987,-1.5707 -4.8125,-2.2324 -1.64262,-0.6619 -3.32035,-1.242 -5.02539,-1.7403 -1.70504,-0.4982 -3.43896,-0.9142 -5.18945,-1.25 -1.7505,-0.3356 -3.51789,-0.5896 -5.29688,-0.7636 -3.55798,-0.3481 -7.15637,-0.3749 -10.72656,-0.083 -3.57018,0.2928 -7.11185,0.904 -10.55859,1.83 -1.72337,0.463 -3.42473,1.005 -5.09179,1.625 -1.66707,0.6199 -3.30074,1.3179 -4.89454,2.0937 -1.5938,0.7759 -3.14682,1.6298 -4.65039,2.5606 -1.50359,0.9308 -2.95711,1.9385 -4.35352,3.0234 -1.39638,1.0848 -2.73555,2.2464 -4.0078,3.4844 -1.27227,1.2379 -2.47823,2.5533 -3.60939,3.9433 -0.64687,0.4756 -1.17486,1.282 -1.65429,2.1622 -0.47942,0.8801 -0.9107,1.8342 -1.36523,2.6034 -0.45454,0.7693 -0.93171,1.3532 -1.50391,1.4961 -0.28611,0.072 -0.59525,0.033 -0.9375,-0.1484 -0.34225,-0.1817 -0.71854,-0.5065 -1.13477,-1.0058 -1.78483,-0.4243 -3.62737,-0.495 -5.46679,-0.2832 -1.83943,0.2117 -3.67443,0.7052 -5.44141,1.4101 -1.76697,0.7051 -3.46573,1.6223 -5.03321,2.6777 -1.56746,1.0555 -3.00515,2.2506 -4.24608,3.5138 -0.38005,0.7257 -0.56729,1.4205 -0.60353,2.0878 -0.0363,0.6673 0.0789,1.3071 0.30859,1.918 0.22958,0.6109 0.5729,1.1933 0.99024,1.75 0.41736,0.5567 0.90843,1.0875 1.43556,1.5919 1.05422,1.0088 2.25022,1.9161 3.27539,2.7284 1.02517,0.8124 1.87998,1.5298 2.25194,2.1621 -1.19909,0.4538 -2.59364,1.1777 -3.91797,2.088 -1.32432,0.9101 -2.57787,2.0066 -3.49804,3.205 -0.46009,0.5992 -0.83591,1.2235 -1.09571,1.8632 -0.25976,0.6398 -0.40318,1.294 -0.39648,1.9532 0.007,0.6592 0.16261,1.3247 0.50196,1.9824 0.33934,0.6577 0.86143,1.3083 1.5996,1.9433 1.31975,0.9554 2.82762,2.0856 4.44727,3.1642 1.61965,1.0785 3.35171,2.1064 5.11914,2.8593 0.88372,0.3765 1.77584,0.6835 2.66797,0.8945 0.89214,0.211 1.78446,0.325 2.66602,0.3146 0.88154,-0.013 1.75156,-0.1455 2.60351,-0.4336 0.85194,-0.2883 1.68496,-0.7296 2.48828,-1.3516 0.70223,1.7416 1.50784,3.4114 2.40625,5.0097 0.89842,1.5984 1.88888,3.1253 2.96484,4.5781 1.07596,1.4528 2.23781,2.8316 3.47266,4.1366 1.23485,1.3052 2.54288,2.5363 3.91797,3.6915 1.37509,1.1553 2.8158,2.2349 4.31251,3.2383 1.49668,1.0033 3.05075,1.9302 4.65038,2.7793 1.59964,0.8492 3.24576,1.6216 4.92969,2.3145 1.68392,0.6928 3.40472,1.3053 5.15429,1.8397 3.49915,1.0688 7.11187,1.8184 10.76173,2.2403 0.94782,0.1093 1.90186,0.013 2.85351,0.072 l 0.41992,-28.4824 c -1.45288,-0.2348 -2.8715,-0.6526 -4.21094,-1.2695 -1.33943,-0.6169 -2.59968,-1.4331 -3.73828,-2.4649 -0.79006,-0.5882 -1.49779,-1.2258 -2.12501,-1.9043 -0.62718,-0.6785 -1.17472,-1.3983 -1.64647,-2.1504 -0.9435,-1.5041 -1.58303,-3.1381 -1.94922,-4.8358 -0.36619,-1.6979 -0.45847,-3.4595 -0.30664,-5.2168 0.15183,-1.7575 0.54767,-3.5105 1.1582,-5.1935 0.61054,-1.683 1.43538,-3.295 2.44531,-4.7694 1.00994,-1.4746 2.20465,-2.8115 3.55469,-3.9435 1.35004,-1.132 2.85549,-2.0594 4.48634,-2.7148 1.63083,-0.6554 3.38789,-1.0392 5.24022,-1.084 0.24769,-0.015 0.49261,-0.02 0.73633,-0.016 0.91397,0.017 1.80089,0.166 2.66211,0.4102 0.86122,0.2442 1.69644,0.5842 2.50977,0.9844 1.62667,0.8002 3.16277,1.8413 4.62695,2.8398 0.78439,0.23 1.50765,0.5352 2.16992,0.9043 0.66228,0.3691 1.26333,0.802 1.80468,1.289 1.08275,0.9742 1.9247,2.1639 2.53126,3.4844 0.60655,1.3206 0.97699,2.7722 1.11719,4.2715 0.14021,1.4993 0.0507,3.0461 -0.26563,4.5566 0.0787,0.9571 0.0655,1.8843 -0.0293,2.7794 -0.0948,0.8952 -0.27071,1.7585 -0.52149,2.586 -0.50156,1.6549 -1.29821,3.1697 -2.31836,4.5194 -1.02013,1.3497 -2.26371,2.5348 -3.66211,3.5332 -1.3984,0.9984 -2.95153,1.8092 -4.58789,2.4101 l 1.9961,28.2207 c 1.23168,0.1187 2.486,0.1294 3.68944,0.3732 1.04205,-0.2113 2.0923,-0.39 3.11719,-0.6602 1.75185,-0.4618 3.47711,-1.0091 5.16407,-1.6446 1.68695,-0.6353 3.33604,-1.3588 4.93945,-2.1698 0.85656,-0.1974 2.66776,-1.6122 3.88281,-2.4415 0.60753,-0.4145 1.06556,-0.6816 1.18164,-0.578 -1.34848,3.0617 -4.71383,5.94 -7.5371,7.9492 -1.05515,0.7473 -2.26042,1.2885 -3.38281,1.9433 6.10775,2.8737 11.40807,7.54 15.30273,13.123 v 0 c 1.61803,-0.702 3.20909,-1.481 4.70117,-2.4805 1.71231,-1.1468 3.33014,-2.4968 4.83008,-4.0664 1.00797,-0.988 1.9918,-2.09 2.92187,-3.2792 0.93008,-1.1892 1.80724,-2.4667 2.60547,-3.8066 0.79823,-1.34 1.51647,-2.7415 2.12892,-4.1817 0.61244,-1.4402 1.11946,-2.9183 1.49217,-4.4082 0.37271,-1.4899 0.61041,-2.9933 0.68946,-4.4825 0.0789,-1.4892 -9.6e-4,-2.9644 -0.26953,-4.4022 -0.26857,-1.438 -0.72441,-2.8376 -1.39453,-4.1739 -0.67013,-1.3362 -1.55406,-2.6089 -2.67969,-3.7929 -0.44799,-0.4732 -1.04762,-0.8129 -1.64063,-1.1016 -0.593,-0.2888 -1.1807,-0.5257 -1.60937,-0.7949 -0.42866,-0.2694 -0.69736,-0.5716 -0.65234,-0.9864 0.0449,-0.4147 0.40438,-0.9429 1.23242,-1.668 0.0956,-0.6759 0.28483,-1.2012 0.54882,-1.6055 0.26402,-0.4042 0.60263,-0.6862 1,-0.8769 0.79475,-0.3812 1.8216,-0.3941 2.93946,-0.2676 1.11786,0.1267 2.32582,0.3927 3.48633,0.5644 1.16049,0.172 2.27264,0.2495 3.19531,0 1.90514,0.1013 4.048,0.1596 6.22265,0.045 2.17466,-0.1146 4.38179,-0.402 6.41602,-0.9902 1.01712,-0.2942 1.99134,-0.6622 2.89648,-1.123 0.90515,-0.4608 1.74049,-1.0144 2.48243,-1.6738 0.74193,-0.6596 1.39048,-1.4259 1.91796,-2.3166 0.52749,-0.8905 0.93351,-1.9049 1.19533,-3.0585 0.20744,-1.2504 0.21377,-2.4068 0.0488,-3.4746 -0.16495,-1.0678 -0.50057,-2.0466 -0.97461,-2.9395 -0.47407,-0.8928 -1.08673,-1.7005 -1.80666,-2.4257 -0.71989,-0.7252 -1.54671,-1.3684 -2.44921,-1.9336 -0.9025,-0.5652 -1.8805,-1.0523 -2.90235,-1.4648 -1.02184,-0.4127 -2.08809,-0.7501 -3.166,-1.0176 -2.15586,-0.5351 -4.36075,-0.7875 -6.36134,-0.7871 -2.08987,-0.2628 -4.31384,-0.3161 -6.4961,-0.3868 -2.18223,-0.071 -4.32169,-0.1596 -6.24609,-0.496 0.0196,-0.6626 -0.22084,-1.3477 -0.52343,-2.004 -0.3026,-0.6564 -0.66846,-1.2837 -0.8965,-1.8321 -0.22802,-0.5481 -0.31946,-1.0172 -0.0761,-1.3553 0.24333,-0.3383 0.82212,-0.546 1.9336,-0.5723 1.30604,-0.6781 2.41545,-1.502 3.34766,-2.4414 0.9322,-0.9395 1.68745,-1.9947 2.2832,-3.1348 0.59574,-1.14 1.03143,-2.3645 1.32813,-3.6445 0.29667,-1.2799 0.45327,-2.6138 0.48827,-3.9727 0.0351,-1.3589 -0.0509,-2.7439 -0.24023,-4.1211 -0.1893,-1.3773 -0.48119,-2.7473 -0.85743,-4.0821 -0.37621,-1.3346 -0.83752,-2.6337 -1.36327,-3.8652 -0.52576,-1.2314 -1.11599,-2.3954 -1.75392,-3.4629 -1.26414,-2.3286 -2.81443,-4.4752 -4.59178,-6.4042 -1.77736,-1.9292 -3.78208,-3.6401 -5.95704,-5.0977 -2.17494,-1.4575 -4.51961,-2.6622 -6.97656,-3.5762 -2.45695,-0.914 -5.02509,-1.5393 -7.64844,-1.8378 -0.69965,-0.079 -1.40317,-0.134 -2.10937,-0.168 z"
     transform="matrix(0.75000246,0,0,0.75000246,0,-0.00280435)"
     id="path1938" />
  <path
     style="fill:none;fill-opacity:1;stroke:#0000ff;stroke-width:1;stroke-miterlimit:4;stroke-dasharray:none;stroke-opacity:1"
     d="m 784.0109,2424.8273 c -2.62053,0.071 -5.23837,0.4509 -7.78321,1.1542 -0.67835,0.1885 -1.34984,0.3985 -2.01758,0.6309 -1.77655,0.5602 -3.4854,1.267 -5.13867,2.082 -1.65326,0.8151 -3.25193,1.7388 -4.81055,2.7324 -3.11725,1.9874 -6.07404,4.2546 -8.98438,6.4981 3.03064,0.78 6.26623,1.2686 9.56055,1.7051 3.29433,0.4364 6.64781,0.8221 9.91407,1.3984 1.63312,0.2883 3.24498,0.6233 4.81641,1.0371 1.5714,0.4138 3.10295,0.9061 4.57615,1.506 1.47323,0.5997 2.88801,1.308 4.22658,2.1542 1.33857,0.8463 2.60014,1.8311 3.76757,2.9844 -1.68835,-0.5684 -3.40155,-1.0365 -5.13281,-1.4083 -1.73126,-0.3717 -3.48145,-0.6478 -5.24023,-0.83 -1.75879,-0.1822 -3.52594,-0.2714 -5.29688,-0.2714 -1.77094,0 -3.54479,0.089 -5.3125,0.2636 -1.7677,0.175 -3.53018,0.4365 -5.27931,0.7793 -1.7491,0.3427 -3.48406,0.7681 -5.19921,1.2715 -3.43026,1.0068 -6.77833,2.3258 -9.98047,3.9316 -3.20211,1.6057 -6.25841,3.4976 -9.10937,5.6445 -1.42549,1.0736 -2.8006,2.2102 -4.11523,3.4082 -1.31464,1.198 -2.56941,2.4563 -3.75782,3.7715 -1.18841,1.3152 -2.31061,2.688 -3.35742,4.1133 -1.04681,1.4252 -2.01837,2.9035 -2.9082,4.4316 -0.88983,1.5281 -1.69658,3.1068 -2.41406,4.7305 -0.71748,1.6237 -1.34526,3.2919 -1.875,5.0039 -0.42231,0.6828 -0.61077,1.6296 -0.72657,2.625 -0.11573,0.9955 -0.15884,2.0404 -0.29297,2.9239 -0.13413,0.8833 -0.35862,1.6046 -0.83593,1.9512 -0.23867,0.1732 -0.54042,0.2534 -0.92578,0.2128 -0.38536,-0.041 -0.85507,-0.202 -1.42774,-0.5098 -1.81407,0.2735 -3.5507,0.8975 -5.17773,1.7814 -1.62703,0.8837 -3.14403,2.0274 -4.51952,3.3417 -1.37552,1.3142 -2.60849,2.7985 -3.66798,4.3632 -1.0595,1.5648 -1.946,3.2104 -2.625,4.8458 -0.0813,0.8151 0.005,1.5315 0.2207,2.164 0.21578,0.6325 0.5607,1.1812 1.00195,1.6621 0.44125,0.481 0.97909,0.8936 1.57422,1.2539 0.59514,0.3604 1.24837,0.6687 1.92578,0.9395 1.35485,0.5418 2.80219,0.9344 4.05664,1.3048 1.25446,0.3702 2.31516,0.7184 2.8965,1.166 -0.94261,0.869 -1.96332,2.0612 -2.85157,3.4004 -0.88826,1.339 -1.64314,2.8257 -2.04883,4.2811 -0.20285,0.7278 -0.31841,1.4463 -0.32031,2.1367 -0.001,0.6905 0.1108,1.352 0.36328,1.9611 0.25253,0.6088 0.64455,1.1652 1.20506,1.6484 0.56055,0.4831 1.28891,0.8937 2.21096,1.207 1.58117,0.3929 3.40128,0.8763 5.30663,1.2715 1.90536,0.3952 3.89562,0.7022 5.81641,0.7402 0.9604,0.019 1.90418,-0.031 2.81055,-0.168 0.90636,-0.1377 1.7761,-0.3638 2.58985,-0.703 0.81373,-0.3392 1.57138,-0.7914 2.2539,-1.3771 0.68251,-0.5857 1.29003,-1.3045 1.80274,-2.1816 1.30218,1.353 2.67291,2.6013 4.10352,3.748 1.43058,1.1468 2.92003,2.1913 4.46092,3.1367 1.5409,0.9456 3.13253,1.792 4.76563,2.5412 1.63309,0.749 3.30843,1.4012 5.01563,1.9588 1.70718,0.5578 3.4458,1.0213 5.20898,1.3926 1.76317,0.3713 3.55051,0.65 5.35156,0.8399 1.80106,0.1898 3.61666,0.2893 5.4375,0.3028 1.82084,0.013 3.64624,-0.059 5.46875,-0.2168 3.64503,-0.3164 7.27527,-0.971 10.81837,-1.9435 3.54308,-0.9725 6.99859,-2.2642 10.29491,-3.8534 11.74191,-6.6788 17.11804,-13.2951 15.3379,-20.8418 -0.6208,-1.414 -1.48223,-2.7752 -2.54493,-4.0079 -1.06272,-1.2325 -2.32691,-2.3372 -3.75,-3.2382 -1.42309,-0.9012 -3.00508,-1.5978 -4.70702,-2.0176 -1.70196,-0.4198 -3.52261,-0.5611 -5.42189,-0.3496 -0.94963,0.1053 -1.91866,0.2982 -2.90234,0.5898 -0.98368,0.2916 -1.9827,0.6815 -2.99023,1.1778 -0.74773,0.7628 -1.56928,1.4616 -2.44727,2.0898 -0.87799,0.6281 -1.81156,1.1853 -2.78711,1.664 -0.97555,0.4788 -1.9928,0.8788 -3.03319,1.1935 -1.04041,0.3145 -2.10518,0.544 -3.17775,0.6796 -1.07256,0.1356 -2.1526,0.1792 -3.22461,0.1213 -1.07201,-0.057 -2.13507,-0.2179 -3.17383,-0.4844 -1.03875,-0.2665 -2.05258,-0.6411 -3.02539,-1.1309 -0.97281,-0.4896 -1.90515,-1.0944 -2.77929,-1.8222 -0.84007,-0.5438 -1.59584,-1.1442 -2.27149,-1.793 -0.67564,-0.6487 -1.27091,-1.3448 -1.78906,-2.08 -1.03628,-1.4704 -1.76511,-3.096 -2.21289,-4.8028 -0.44777,-1.7069 -0.61469,-3.4961 -0.5293,-5.2929 0.0855,-1.7968 0.42313,-3.6013 0.98633,-5.3419 0.56321,-1.7403 1.35222,-3.4173 2.33789,-4.955 0.98567,-1.5377 2.16869,-2.9365 3.52149,-4.1249 1.35278,-1.1887 2.87451,-2.1664 4.53907,-2.8595 0.83226,-0.3465 1.69976,-0.6213 2.5996,-0.8164 0.89984,-0.1952 1.83249,-0.3104 2.79298,-0.336 0.26096,-0.015 0.51901,-0.02 0.77538,-0.016 0.96139,0.019 1.89008,0.1751 2.79101,0.4336 0.90094,0.2586 1.77406,0.6192 2.62111,1.0449 1.69406,0.8515 3.28693,1.9642 4.80468,3.047 1.01994,0.2973 1.93462,0.7418 2.74415,1.3026 0.8095,0.561 1.51299,1.2387 2.10936,2.002 0.59637,0.7635 1.08628,1.6126 1.4668,2.5176 0.38052,0.9051 0.6525,1.8656 0.81445,2.8515 0.52777,0.9778 1.12283,2.3874 1.83398,4.4533 0.77629,0.8844 1.72133,1.6644 2.77735,2.3847 1.05601,0.7202 2.22266,1.3805 3.44336,2.0253 2.44141,1.2898 5.09788,2.5181 7.50782,4.0392 1.20495,0.7605 2.3485,1.5933 3.37304,2.5449 1.02453,0.9516 1.92913,2.0224 2.6582,3.2539 0.72907,1.2314 1.283,2.6243 1.60156,4.2246 0.29284,1.4709 0.32701,3.1688 0.17969,5.0233 6.1e-4,3e-4 0.003,0 0.004,0 0.003,0 -0.007,0.028 -0.004,0.029 -0.012,0.1538 0.0315,0.2594 0.0156,0.4161 0,0 -0.7894,6.3214 -4.97266,10.9414 -1.44874,2.0773 -2.99145,4.0963 -4.71875,5.998 -2.07139,2.2805 -4.26838,4.4792 -6.41016,6.7069 -2.14176,2.2279 -4.22786,4.4856 -6.08008,6.8789 2.00782,0.1466 4.0572,0.1814 6.11916,0.1 2.06194,-0.081 4.13572,-0.2816 6.19334,-0.6036 2.05766,-0.3217 4.09884,-0.7656 6.09376,-1.3397 1.9949,-0.5741 3.9446,-1.2768 5.81834,-2.1152 1.87377,-0.8385 3.67109,-1.8131 5.36525,-2.9279 1.69416,-1.1148 3.2841,-2.3701 4.74023,-3.7733 1.45613,-1.4032 2.77978,-2.9545 3.93947,-4.6582 1.15966,-1.7038 2.15614,-3.5599 2.96092,-5.5763 0.56574,-1.293 1.06413,-2.6821 1.48243,-4.1328 0.4183,-1.4505 0.75642,-2.9626 0.99609,-4.5038 0.23968,-1.5412 0.38222,-3.1111 0.41211,-4.6759 0.0299,-1.5646 -0.0525,-3.1252 -0.26367,-4.6465 -0.21105,-1.5212 -0.55199,-3.0032 -1.03515,-4.414 -0.48317,-1.4108 -1.11004,-2.749 -1.89649,-3.9825 -0.78646,-1.2333 -1.73065,-2.3624 -2.85156,-3.3514 -1.12092,-0.989 -2.41776,-1.838 -3.9043,-2.5156 -0.59232,-0.2714 -1.27371,-0.364 -1.93164,-0.4102 -0.65794,-0.045 -1.29279,-0.047 -1.79101,-0.1368 -0.49824,-0.091 -0.85945,-0.2664 -0.97267,-0.668 -0.1132,-0.4014 0.0224,-1.0258 0.51954,-2.0077 -0.1639,-0.6627 -0.18559,-1.2216 -0.0917,-1.6953 0.0937,-0.4738 0.30227,-0.8623 0.59961,-1.1875 0.59471,-0.6507 1.54277,-1.0455 2.62696,-1.3457 1.08419,-0.3003 2.30465,-0.5071 3.4453,-0.7813 1.14067,-0.2742 2.20074,-0.617 2.96486,-1.1894 1.80513,-0.6176 3.8148,-1.3642 5.78906,-2.2832 1.97426,-0.919 3.91306,-2.0106 5.58008,-3.3165 0.8335,-0.6529 1.60019,-1.3593 2.26758,-2.1249 0.66737,-0.7657 1.23603,-1.5895 1.67772,-2.4785 0.44171,-0.8891 0.75564,-1.8422 0.91212,-2.8654 0.15648,-1.023 0.15508,-2.1172 -0.0332,-3.285 -0.27484,-1.2374 -0.70188,-2.3115 -1.25391,-3.2403 -0.55203,-0.9288 -1.22863,-1.7124 -2.00196,-2.3633 -0.77333,-0.6508 -1.64326,-1.1705 -2.58202,-1.5743 -0.93877,-0.4036 -1.94582,-0.6918 -2.99415,-0.8788 -1.04833,-0.1869 -2.13823,-0.2725 -3.24023,-0.2734 -1.10201,0 -2.21661,0.084 -3.3164,0.2382 -2.19962,0.3094 -4.33977,0.8987 -6.19532,1.6466 -2.03668,0.537 -4.11742,1.3202 -6.16797,2.0702 -2.05054,0.75 -4.06976,1.468 -5.98047,1.8751 -0.22939,-0.622 -0.70843,-1.1684 -1.23437,-1.6641 -0.52595,-0.4958 -1.09925,-0.9419 -1.51564,-1.3652 -0.41636,-0.4234 -0.67548,-0.8239 -0.57616,-1.2286 0.0993,-0.4046 0.55697,-0.8122 1.57813,-1.252 0.95802,-1.1169 1.67976,-2.2958 2.19335,-3.5156 0.5136,-1.2197 0.81876,-2.4815 0.94532,-3.7617 0.12653,-1.2801 0.0743,-2.5788 -0.12893,-3.8769 -0.20309,-1.2981 -0.55587,-2.5956 -1.03125,-3.8692 -0.47536,-1.2736 -1.07341,-2.5237 -1.76366,-3.7304 -0.69025,-1.2068 -1.47257,-2.3694 -2.32032,-3.4668 -0.84774,-1.0974 -1.76114,-2.1285 -2.70899,-3.0742 -0.94782,-0.9459 -1.9313,-1.8069 -2.92187,-2.5587 -2.04279,-1.6876 -4.28285,-3.0993 -6.65233,-4.2245 -2.36949,-1.1252 -4.86764,-1.9628 -7.4297,-2.502 -2.56206,-0.5392 -5.18613,-0.7793 -7.80664,-0.7089 z"
     transform="matrix(0.75000246,0,0,0.75000246,0,-0.00280435)"
     id="path1936" />
  <path
     style="fill:none;fill-opacity:1;stroke:#ff0000;stroke-width:1;stroke-miterlimit:4;stroke-dasharray:none;stroke-opacity:1"
     d="m 477.17662,2548.311 8.94883,-5.1665 8.94881,5.1665 v 10.3333 l -8.94881,5.1665 -8.94883,-5.1665 z"
     transform="matrix(0.75000246,0,0,0.75000246,0,-0.00280435)"
     id="path1934" />
  <path
     style="fill:none;fill-opacity:1;stroke:#ff0000;stroke-width:1;stroke-miterlimit:4;stroke-dasharray:none;stroke-opacity:1"
     d="m 600.74836,2443.0433 8.94881,-5.1666 8.94883,5.1666 v 10.3332 l -8.94883,5.1666 -8.94881,-5.1666 z"
     transform="matrix(0.75000246,0,0,0.75000246,0,-0.00280435)"
     id="path1932" />
  <path
     style="fill:none;fill-opacity:1;stroke:#ff0000;stroke-width:1;stroke-miterlimit:4;stroke-dasharray:none;stroke-opacity:1"
     d="m 765.79123,2487.8654 8.94883,-5.1666 8.94881,5.1666 v 10.3332 l -8.94881,5.1667 -8.94883,-5.1667 z"
     transform="matrix(0.75000246,0,0,0.75000246,0,-0.00280435)"
     id="path1625-8-7-4" />
</svg>
