<?xml version="1.0" encoding="UTF-8" standalone="no"?>
<!DOCTYPE svg PUBLIC "-//W3C//DTD SVG 20010904//EN"
              "http://www.w3.org/TR/2001/REC-SVG-20010904/DTD/svg10.dtd">

<svg xmlns="http://www.w3.org/2000/svg"
     width="13.6944in" height="13.6667in"
     viewBox="0 0 986 984">
  <path id="Unnamed #1"
        fill="none" stroke="black" stroke-width="1"
        d="M 466.00,827.50
           C 466.00,827.50 607.00,871.50 607.00,871.50
             607.00,871.50 739.00,826.00 739.00,826.00
             739.00,826.00 854.50,735.00 854.50,735.00
             854.50,735.00 926.00,607.00 926.00,607.00
             926.00,607.00 946.50,454.50 946.50,454.00
             946.50,453.50 944.00,323.00 944.00,323.00
             944.00,323.00 897.00,176.00 897.00,176.00
             897.00,176.00 768.50,94.00 768.50,94.00
             768.50,94.00 632.00,53.00 632.00,53.00
             632.00,53.00 491.50,37.00 491.50,37.00
             491.50,37.00 354.50,40.00 354.50,40.00
             354.50,40.00 223.00,76.50 223.00,76.50
             223.00,76.50 111.00,174.00 111.00,174.00
             111.00,174.00 44.50,303.50 44.50,303.50
             44.50,303.50 28.50,432.00 28.50,432.00
             28.50,432.00 28.00,575.00 28.00,575.00
             28.00,575.00 39.00,734.50 39.00,734.50
             39.00,734.50 102.00,862.50 102.00,862.50
             102.00,862.50 253.50,948.50 253.50,948.50
             253.50,948.50 387.00,894.00 387.00,894.00
             387.00,894.00 466.00,827.50 466.00,827.50 Z
           M 642.00,876.50
           C 642.00,876.50 794.50,840.50 794.50,840.50
             794.50,840.50 824.00,962.50 824.00,962.50
             824.00,962.50 743.50,982.50 743.50,982.50
             743.50,982.50 667.00,982.00 667.00,982.00
             667.00,982.00 642.00,876.50 642.00,876.50 Z
           M 418.33,762.00
           C 418.33,762.00 516.67,763.67 516.67,763.67M 544.00,811.00
           C 544.00,810.67 633.67,778.67 633.67,778.67M 662.33,779.67
           C 662.33,779.67 743.33,727.00 743.33,727.00M 767.33,707.33
           C 767.33,707.33 827.33,630.33 827.33,630.33M 309.00,546.67
           C 309.00,546.67 446.33,511.00 446.33,511.00
             446.33,511.00 500.67,686.00 500.67,685.67
             500.67,685.33 354.00,732.67 354.00,732.67
             354.00,732.67 309.00,546.67 309.00,546.67 Z
           M 847.33,608.00
           C 847.33,608.00 873.33,517.33 873.33,517.33M 884.67,489.33
           C 884.67,489.33 891.00,391.00 891.00,391.00M 886.67,364.33
           C 886.67,364.33 877.33,267.67 877.33,267.67M 867.33,246.67
           C 867.33,246.67 809.33,167.67 809.33,167.67M 776.67,166.67
           C 776.67,166.67 689.33,124.00 689.33,124.00M 654.67,118.67
           C 654.67,118.67 559.67,97.67 559.67,97.67M 530.33,96.00
           C 530.33,96.00 433.33,96.67 433.33,96.67M 405.33,97.33
           C 405.33,97.33 308.33,107.67 308.33,107.67M 283.00,106.67
           C 283.00,106.67 198.67,152.33 198.67,152.33M 184.67,177.00
           C 184.67,177.00 128.33,256.00 128.33,256.00M 116.33,278.67
           C 116.33,278.67 103.33,377.33 103.33,377.33M 94.00,405.00
           C 94.33,405.00 90.00,502.67 90.00,502.67M 84.00,538.33
           C 84.00,538.33 90.33,636.00 90.33,636.00M 92.33,671.33
           C 92.33,671.33 118.00,766.67 118.00,766.67M 122.33,792.33
           C 122.33,792.33 187.00,866.67 187.00,866.67M 207.00,894.00
           C 207.00,894.00 307.00,888.67 307.00,888.67M 335.33,873.00
           C 335.33,873.00 407.00,807.67 407.00,807.67M 493.67,979.33
           C 493.67,979.33 986.50,984.00 986.50,984.00
             986.50,984.00 985.00,490.50 985.00,490.50
             985.00,490.50 493.00,492.00 493.00,492.00
             493.00,492.00 493.67,979.33 493.67,979.33 Z
           M 0.73,0.91
           C 0.73,0.91 0.55,491.27 0.55,491.27
             0.55,491.27 493.27,491.82 493.09,491.82
             492.91,491.82 490.18,2.36 490.18,2.36
             490.18,2.36 0.73,0.91 0.73,0.91 Z
           M 463.00,805.50
           C 441.00,808.00 439.00,858.50 472.00,851.00
             500.36,837.64 482.50,803.40 463.00,805.50 Z" />
</svg>
