<?xml version="1.0" encoding="UTF-8" standalone="no"?>
<!-- Created with Inkscape (http://www.inkscape.org/) -->

<svg
   xmlns:dc="http://purl.org/dc/elements/1.1/"
   xmlns:cc="http://creativecommons.org/ns#"
   xmlns:rdf="http://www.w3.org/1999/02/22-rdf-syntax-ns#"
   xmlns:svg="http://www.w3.org/2000/svg"
   xmlns="http://www.w3.org/2000/svg"
   xmlns:sodipodi="http://sodipodi.sourceforge.net/DTD/sodipodi-0.dtd"
   xmlns:inkscape="http://www.inkscape.org/namespaces/inkscape"
   width="210mm"
   height="297mm"
   viewBox="0 0 210 297"
   version="1.1"
   id="svg1968"
   inkscape:version="0.92.2 5c3e80d, 2017-08-06"
   sodipodi:docname="proto.svg">
  <defs
     id="defs1962" />
  <sodipodi:namedview
     id="base"
     pagecolor="#ffffff"
     bordercolor="#666666"
     borderopacity="1.0"
     inkscape:pageopacity="0.0"
     inkscape:pageshadow="2"
     inkscape:zoom="0.35"
     inkscape:cx="-180"
     inkscape:cy="560"
     inkscape:document-units="mm"
     inkscape:current-layer="layer1"
     showgrid="false"
     inkscape:window-width="1920"
     inkscape:window-height="1016"
     inkscape:window-x="0"
     inkscape:window-y="27"
     inkscape:window-maximized="1" />
  <metadata
     id="metadata1965">
    <rdf:RDF>
      <cc:Work
         rdf:about="">
        <dc:format>image/svg+xml</dc:format>
        <dc:type
           rdf:resource="http://purl.org/dc/dcmitype/StillImage" />
        <dc:title></dc:title>
      </cc:Work>
    </rdf:RDF>
  </metadata>
  <g
     inkscape:label="Layer 1"
     inkscape:groupmode="layer"
     id="layer1">
    <path
       inkscape:connector-curvature="0"
       style="fill:none;fill-opacity:1;stroke:#00ff00;stroke-width:0.26458332;stroke-miterlimit:4;stroke-dasharray:none;stroke-opacity:1"
       d="m 24.098276,125.66783 c 4.91193,-1.222 9.7121,-2.95529 14.27717,-4.93922 3.79148,-1.76633 7.56757,-3.72951 11.08666,-6.04874 2.48163,2.80747 6.18244,4.47424 9.95753,3.47112 5.92607,-1.71257 8.31248,-9.18432 6.06681,-14.56759 -0.46197,-1.31871 -1.16445,-2.58336 -2.0531,-3.697966 3.31706,-4.58772 7.01649,-8.87003 12.1884,-11.4236 0.13157,-0.0742 0.26497,-0.14486 0.39791,-0.21651 1.8357,4.35322 6.5101,7.674 11.28148,6.29161 3.63392,-1.09048 6.05197,-4.13615 7.0373,-7.64657 0.92492,0.38206 1.82749,0.84011 2.69803,1.38338 8.435464,4.63505 15.636264,12.496476 25.658384,13.599686 0.8299,0.10128 1.65025,0.14382 2.46238,0.13798 1.60226,4.93464 6.68942,8.98025 11.98118,7.59436 5.43352,-1.52815 8.05795,-7.75631 7.0006,-13.038476 1.04479,-0.34343 2.09487,-0.65313 3.15382,-0.90485 10.40126,-3.06877 20.96316,-5.86801 31.04565,-9.8852 l 0.20979,-3.35151 c -8.17381,3.25022 -16.64603,5.84335 -25.01191,8.24034 -3.5258,0.66009 -6.91301,1.865 -10.27689,3.15122 -1.10656,-2.59181 -3.1761,-4.8496 -5.72989,-5.98877 0.34483,-0.10207 0.69954,-0.17769 1.03405,-0.30387 0.68962,-0.26009 1.35463,-0.57182 1.98334,-0.93742 0.62871,-0.3656 1.22095,-0.78473 1.76579,-1.25987 0.54483,-0.47508 1.04201,-1.00613 1.48001,-1.59472 0.43799,-0.58856 0.81682,-1.23489 1.12499,-1.94098 0.18568,-0.40161 0.3481,-0.81963 0.48473,-1.24849 0.13663,-0.42892 0.2475,-0.86858 0.33124,-1.31466 0.0837,-0.44612 0.1399,-0.89863 0.16692,-1.35184 0.0271,-0.45326 0.0253,-0.90723 -0.008,-1.35755 -0.0335,-0.45027 -0.0985,-0.89699 -0.19636,-1.33429 -0.0979,-0.43733 -0.22871,-0.86524 -0.39481,-1.2795 -0.16611,-0.41426 -0.3675,-0.81468 -0.60565,-1.19579 -0.23815,-0.38115 -0.51331,-0.74316 -0.82734,-1.08108 0.36357,-0.1178 0.73073,-0.26565 1.09244,-0.44027 0.36171,-0.17468 0.71792,-0.37613 1.0604,-0.60203 0.34248,-0.22593 0.67082,-0.4762 0.97668,-0.74777 0.30586,-0.27157 0.58943,-0.5643 0.8413,-0.8759 0.25186,-0.31168 0.47219,-0.64191 0.65267,-0.98806 0.18048,-0.34608 0.32117,-0.70819 0.41289,-1.08315 0.0917,-0.37502 0.13431,-0.76288 0.11989,-1.16115 -0.0144,-0.39826 -0.0858,-0.8072 -0.22376,-1.2232 -0.13584,-0.42304 -0.32461,-0.80388 -0.55603,-1.14461 -0.23144,-0.34079 -0.50553,-0.6413 -0.81339,-0.90229 -0.30785,-0.26101 -0.64929,-0.48283 -1.01441,-0.66661 -0.36512,-0.18381 -0.75432,-0.3297 -1.15755,-0.43874 -0.40323,-0.10911 -0.82064,-0.18118 -1.24282,-0.21809 -0.42217,-0.0369 -0.84876,-0.0384 -1.27072,-0.006 -0.42197,0.0327 -0.83919,0.0996 -1.24179,0.19947 -0.4026,0.0999 -0.79089,0.2328 -1.15497,0.39738 0.028,-0.41225 0.0247,-0.81654 -0.008,-1.21182 -0.0324,-0.39534 -0.0938,-0.78166 -0.1819,-1.15806 -0.0881,-0.37642 -0.20299,-0.74271 -0.3421,-1.09812 -0.13911,-0.35547 -0.30244,-0.70009 -0.48782,-1.03251 -0.18539,-0.33245 -0.39266,-0.6527 -0.61961,-0.96015 -0.22694,-0.30747 -0.47364,-0.60219 -0.73742,-0.88262 -0.52755,-0.56089 -1.12385,-1.06572 -1.77043,-1.50638 -0.64658,-0.44067 -1.34335,-0.81704 -2.07119,-1.12136 -0.72785,-0.30432 -1.48692,-0.5365 -2.25826,-0.68834 -0.77135,-0.15179 -1.55507,-0.22312 -2.33216,-0.20619 -0.38854,0.008 -0.77517,0.0389 -1.15807,0.0925 -0.3829,0.0536 -0.76176,0.13015 -1.1343,0.23101 -0.19222,0.0522 -0.38307,0.1098 -0.57154,0.17518 -0.45174,0.13451 -0.88898,0.29636 -1.31413,0.48059 -0.42515,0.18417 -0.83828,0.39071 -1.24179,0.61494 -0.80701,0.4485 -1.57583,0.96787 -2.32595,1.51876 -1.50023,1.10189 -2.92602,2.33127 -4.4359,3.38119 0.13283,0.10835 0.44457,0.20016 0.8108,0.28631 0.36622,0.0861 0.78685,0.16692 1.13637,0.25321 0.34951,0.0863 0.62784,0.17785 0.71055,0.2868 0.0414,0.0545 0.034,0.11343 -0.0382,0.17778 -0.0722,0.0643 -0.20923,0.13433 -0.42633,0.21135 -0.49786,0.24945 -0.98121,0.52652 -1.44849,0.82888 -0.46729,0.30234 -0.91866,0.62995 -1.35186,0.97978 -0.43319,0.34986 -0.84826,0.7221 -1.24385,1.11416 -0.39559,0.39198 -0.77157,0.80367 -1.12603,1.23248 -0.35445,0.42879 -0.68755,0.87456 -0.99735,1.3348 -0.30981,0.46022 -0.59619,0.9348 -0.85783,1.4211 -0.26165,0.48631 -0.49853,0.98441 -0.70849,1.49138 -0.20995,0.50697 -0.39302,1.0228 -0.54777,1.54512 -0.35052,0.13139 -0.70522,0.29122 -1.05575,0.47646 -0.35052,0.18529 -0.6971,0.39632 -1.03094,0.62994 -0.33384,0.2336 -0.65501,0.48996 -0.9555,0.76637 -0.30048,0.27638 -0.58,0.57256 -0.83044,0.88625 -0.25044,0.31369 -0.47153,0.64468 -0.65526,0.99012 -0.18372,0.34539 -0.33014,0.7053 -0.43046,1.07694 -0.10032,0.3716 -0.15479,0.75496 -0.15503,1.1472 -2.3e-4,0.3923 0.054,0.79354 0.17053,1.20097 0.0223,0.14536 0.0719,0.27657 0.14056,0.39738 0.0687,0.12084 0.15656,0.23151 0.25477,0.33486 0.19643,0.20674 0.43484,0.38552 0.64802,0.56483 0.21318,0.17936 0.40118,0.3593 0.49609,0.56793 0.0475,0.10432 0.0715,0.21566 0.0641,0.33795 -0.007,0.12224 -0.0464,0.2553 -0.12557,0.40256 -0.0519,0.30806 -0.0619,0.61032 -0.0351,0.90382 0.0267,0.29348 0.0901,0.57825 0.18552,0.85008 0.0954,0.27178 0.22265,0.53104 0.37672,0.77412 0.15406,0.24307 0.33468,0.46977 0.53743,0.67696 0.20275,0.2072 0.42776,0.39492 0.66921,0.55914 0.24145,0.16423 0.49929,0.30494 0.76947,0.4191 0.27016,0.11415 0.55238,0.20186 0.84129,0.2589 0.2889,0.0572 0.58498,0.0836 0.88263,0.0765 0.36277,0.094 0.73418,0.14552 1.10898,0.16589 0.3748,0.0204 0.75279,0.0101 1.12758,-0.0217 0.74957,-0.0633 1.48696,-0.20968 2.16421,-0.35295 0.46521,0.35041 0.9506,0.66794 1.45262,0.95292 0.50201,0.28493 1.02071,0.53713 1.55236,0.75809 0.53164,0.2209 1.07629,0.41055 1.63039,0.56896 0.55411,0.15835 1.11785,0.28559 1.68724,0.3829 0.56939,0.0973 1.14435,0.16439 1.72185,0.20206 0.5775,0.0378 1.15735,0.0463 1.73581,0.0254 0.57845,-0.0206 1.15583,-0.0695 1.72806,-0.14676 0.57223,-0.0772 1.13925,-0.18224 1.69809,-0.3147 -0.23696,0.28652 -0.48835,0.58037 -0.69608,0.85784 -0.20773,0.27749 -0.37153,0.53816 -0.43305,0.75808 -0.0307,0.10996 -0.036,0.21013 -0.008,0.29663 0.0277,0.0865 0.0883,0.15951 0.18914,0.21653 0.10083,0.057 0.24191,0.0974 0.43046,0.11885 0.12657,0.0153 0.30848,0.008 0.48008,0.004 -3.43208,2.11167 -5.41728,6.55489 -5.0276,10.59884 -8.24307,-0.0395 -14.77562,-5.93114 -21.21421,-10.30944 -2.52219,-2.05928 -5.441424,-3.63008 -8.540564,-4.65553 0.1011,-2.04311 -0.29167,-4.0903 -1.16375,-5.90867 0.37927,-0.17068 0.76991,-0.31197 1.12913,-0.53126 0.62621,-0.38227 1.21918,-0.83997 1.76888,-1.37975 0.3223,-0.3031 0.62871,-0.6305 0.91571,-0.97721 0.287,-0.34676 0.55453,-0.71305 0.79892,-1.09553 0.24438,-0.38248 0.46546,-0.78087 0.6599,-1.19113 0.19445,-0.41032 0.36252,-0.83278 0.49971,-1.26299 0.1372,-0.43021 0.24365,-0.86826 0.31627,-1.31051 0.0726,-0.4422 0.11134,-0.88847 0.11213,-1.33479 8e-4,-0.4463 -0.0368,-0.89281 -0.11523,-1.33533 -0.0785,-0.44249 -0.19829,-0.88077 -0.36329,-1.31154 0.38124,0.0265 0.776934,0.0268 1.177704,0 0.40077,-0.0269 0.80663,-0.0807 1.20872,-0.16227 0.40208,-0.0815 0.80027,-0.19108 1.18545,-0.32866 0.38519,-0.13759 0.75736,-0.30375 1.10743,-0.49869 0.35007,-0.19487 0.67838,-0.41868 0.97513,-0.67231 0.29675,-0.25357 0.56235,-0.53652 0.78755,-0.85008 0.22522,-0.3135 0.40973,-0.6577 0.54519,-1.03248 0.13546,-0.37484 0.2216,-0.7806 0.24908,-1.21801 0.0321,-0.44318 -1e-5,-0.86712 -0.0873,-1.26971 -0.0873,-0.40259 -0.23005,-0.78385 -0.41806,-1.14101 -0.18802,-0.35714 -0.42144,-0.69043 -0.69143,-0.99735 -0.26999,-0.30692 -0.57625,-0.58746 -0.90951,-0.83923 -0.33325,-0.25183 -0.69344,-0.47519 -1.07125,-0.66712 -0.37781,-0.19204 -0.77354,-0.3528 -1.17719,-0.48009 -0.40365,-0.12729 -0.81551,-0.22079 -1.22628,-0.27853 -0.41078,-0.0578 -0.82037,-0.0797 -1.219574,-0.0631 0.18006,-0.3719 0.328304,-0.74827 0.445974,-1.12707 0.11768,-0.3788 0.20515,-0.75999 0.26407,-1.14205 0.0589,-0.38206 0.0892,-0.76501 0.093,-1.1467 0.004,-0.38166 -0.0189,-0.76182 -0.0667,-1.13946 -0.048,-0.37758 -0.12068,-0.75236 -0.21629,-1.12236 -0.0956,-0.36999 -0.21411,-0.73527 -0.353984,-1.094 -0.27975,-0.71736 -0.64446,-1.4084 -1.07952,-2.05877 -0.43507,-0.65037 -0.94085,-1.26011 -1.50224,-1.81436 -0.56138,-0.5543 -1.17837,-1.05301 -1.83709,-1.48209 -0.65874,-0.42904 -1.3591,-0.78875 -2.08618,-1.06349 -0.36355,-0.13742 -0.73378,-0.25336 -1.10898,-0.34676 -0.3752,-0.0933 -0.7552,-0.16359 -1.13843,-0.20929 -0.19781,-0.0233 -0.39659,-0.0414 -0.59583,-0.0512 -0.46929,-0.0455 -0.93518,-0.0574 -1.39836,-0.0454 -0.46319,0.0119 -0.92376,0.0493 -1.38183,0.10644 -0.91614,0.1144 -1.82326,0.30882 -2.7249,0.53951 -1.80329,0.46138 -3.58512,1.06929 -5.37797,1.47897 0.0827,0.15015 0.33793,0.35174 0.64544,0.56846 0.30752,0.21674 0.66717,0.44817 0.95912,0.65886 0.29194,0.21069 0.5159,0.40032 0.5519,0.53226 0.018,0.066 -0.0107,0.11758 -0.1018,0.15039 -0.091,0.0327 -0.24424,0.0462 -0.47439,0.0367 -0.555,0.0454 -1.10723,0.12161 -1.65365,0.22739 -0.5464,0.10583 -1.08699,0.24095 -1.61954,0.40359 -0.53255,0.16264 -1.05702,0.35264 -1.57044,0.56843 -0.51343,0.2158 -1.0158,0.45768 -1.50482,0.72298 -0.48902,0.26527 -0.96434,0.55443 -1.42369,0.86558 -0.45935,0.3111 -0.90264,0.64408 -1.32705,0.99735 -0.42441,0.3533 -0.8302,0.72649 -1.21439,1.11826 -0.3842,0.39179 -0.74701,0.80224 -1.08573,1.22888 -0.37422,-0.009 -0.76267,0.006 -1.15703,0.047 -0.39436,0.0409 -0.7947,0.10703 -1.19166,0.19897 -0.39696,0.0919 -0.79053,0.2099 -1.17254,0.35399 -0.382,0.14409 -0.75221,0.31472 -1.10174,0.5121 -0.34952,0.19738 -0.67874,0.42161 -0.97823,0.67334 -0.2995,0.25175 -0.56958,0.53099 -0.80151,0.8382 -0.23191,0.3072 -0.42525,0.64238 -0.57205,1.00613 -0.14681,0.3638 -0.24679,0.75578 -0.29094,1.17718 -0.0336,0.14319 -0.0366,0.28393 -0.0181,0.42169 0.0186,0.13777 0.0586,0.27253 0.1111,0.40513 0.10495,0.26512 0.25944,0.52039 0.39016,0.76637 0.13072,0.24601 0.23796,0.48313 0.24805,0.7121 0.005,0.11446 -0.0146,0.22683 -0.0672,0.33745 -0.0526,0.11065 -0.13815,0.21952 -0.26666,0.3266 -0.16325,0.26636 -0.28565,0.54306 -0.37052,0.82526 -0.0849,0.28221 -0.13211,0.57007 -0.14521,0.85783 -0.0131,0.28777 0.008,0.57537 0.0599,0.85837 0.0521,0.28302 0.13483,0.56142 0.24546,0.82939 0.11065,0.26791 0.24928,0.52535 0.41187,0.76792 0.16259,0.24257 0.34914,0.47009 0.55707,0.67697 0.20793,0.20685 0.43702,0.39314 0.68368,0.55395 0.24665,0.16087 0.51136,0.2965 0.79013,0.40101 0.30136,0.22275 0.62635,0.40941 0.96635,0.56845 0.34,0.15904 0.69473,0.29033 1.0542,0.40101 0.71893,0.2214 1.45768,0.36147 2.1394,0.48162 0.30057,0.49887 0.63199,0.97432 0.99116,1.42626 0.35916,0.45188 0.74595,0.88006 1.15652,1.28365 0.41056,0.40362 0.84488,0.78288 1.29966,1.13689 0.45477,0.35396 0.92984,0.683 1.42162,0.98597 0.49178,0.30305 1.00027,0.58021 1.52187,0.83098 0.52159,0.25074 1.05672,0.47461 1.60093,0.67177 0.54421,0.19712 1.09764,0.36735 1.65727,0.50954 0.10846,0.0276 0.21926,0.0408 0.32814,0.0662 -3.02394,2.48708 -4.72874,6.74463 -4.22248,10.62156 0.005,0.1541 0.0164,0.30817 0.0295,0.46199 -1.86856,0.8281 -3.55147,1.88056 -5.09891,3.09285 -0.54187,-2.725 -2.11009,-5.28894 -4.68447,-6.45335 2.31741,-1.99424 4.09782,-5.83332 1.79265,-8.47494 -2.31163,-2.70031 -6.6918,-1.63391 -8.86819,0.70694 -2.13853,-6.25589 -10.90108,-7.52388 -15.7732,-3.73002 -0.15705,0.12253 -0.31091,0.24924 -0.4594,0.38243 -2.91602,2.39064 -4.29989,6.02903 -6.27197,9.13379 0.65761,0.19388 3.85613,-0.96819 2.49287,0.27183 -2.90054,3.38111 -4.263,8.04558 -3.78788,12.37752 -2.17911,2.0542 -3.90298,5.88352 -1.78232,8.528186 0.61479,1.00346 2.49909,0.49852 2.37091,1.83036 0.57071,2.43313 3.47278,3.50581 5.64617,2.53111 1.48355,-0.21466 2.8394,-1.1067 3.97753,-1.89497 0.58485,0.14827 1.17596,0.25111 1.76992,0.31935 -0.3045,1.37281 -0.35412,2.7926 -0.10542,4.14446 0.12357,1.44184 0.56133,2.8648 1.23559,4.17803 -7.09711,4.95679 -15.27411,8.40031 -23.65541,10.48205 z"
       id="path1944" />
    <path
       inkscape:connector-curvature="0"
       style="fill:none;fill-opacity:1;stroke:#0000ff;stroke-width:0.26458332;stroke-miterlimit:4;stroke-dasharray:none;stroke-opacity:1"
       d="m 49.031936,70.244104 c -1.90662,0.0257 -3.79724,0.67461 -5.30665,1.86293 -0.14619,0.11547 -0.28875,0.23567 -0.42788,0.36074 -1.50438,1.27407 -2.50053,3.00781 -3.46129,4.69842 3.27702,-0.4798 6.87397,-2.43737 10.09706,-1.14258 -3.68556,0.26781 -7.10712,2.20961 -9.56531,4.99557 l 7.49205,3.44887 c 0.37946,-0.34605 0.80891,-0.63574 1.27692,-0.84698 0.23401,-0.10563 0.47798,-0.19146 0.72968,-0.25527 0.25169,-0.0638 0.51132,-0.10536 0.77773,-0.12198 0.42323,-0.0209 0.81101,0.0547 1.17719,0.18966 0.36617,0.13499 0.71052,0.32909 1.04696,0.5452 0.33645,0.21608 0.66485,0.45402 0.99891,0.67646 0.33406,0.22238 0.674,0.4295 1.033,0.5834 0.19174,0.27565 0.32201,0.60246 0.40515,0.96018 0.0831,0.35769 0.1191,0.74615 0.12144,1.14461 0.002,0.39846 -0.029,0.8073 -0.0796,1.20512 -0.0506,0.39775 -0.12056,0.78471 -0.19637,1.14049 -0.11607,0.41691 -0.2951,0.79346 -0.52349,1.12808 -0.22837,0.33464 -0.50601,0.62727 -0.81958,0.8759 -0.31357,0.24866 -0.66291,0.45334 -1.03456,0.61238 -0.37166,0.15904 -0.76579,0.27228 -1.16841,0.33795 -0.40262,0.0657 -0.81412,0.084 -1.2206,0.0528 -0.40647,-0.0314 -0.80792,-0.11208 -1.19114,-0.24394 -0.38322,-0.13187 -0.74771,-0.3147 -1.08055,-0.55092 -0.33285,-0.23614 -0.63399,-0.52554 -0.88935,-0.86968 -0.30692,-0.32864 -0.54377,-0.68496 -0.71727,-1.05834 -0.17351,-0.37335 -0.28374,-0.76356 -0.33641,-1.16009 -0.0527,-0.39661 -0.0478,-0.79962 0.008,-1.1979 0.0556,-0.39825 0.16193,-0.79203 0.31316,-1.17046 l -7.78041,-3.16778 c -1.51344,2.49767 -2.32365,5.39096 -2.03915,8.30858 -0.13251,0.83928 1.0803,2.31939 -0.28939,2.18794 -1.65836,1.0097 -2.44102,3.25948 -2.43396,5.13358 0.50897,1.657686 2.96704,0.67717 3.7176,0.87588 -0.56401,1.234166 -0.91003,3.862326 1.14619,3.718636 1.70401,-0.26387 4.49096,-0.56518 4.77335,-2.69701 1.18558,0.51144 2.41335,0.7828 3.6468,0.88212 1.40689,-3.266986 4.30307,-5.859056 8.0083,-5.932956 2.27691,-0.0776 4.38816,0.74509 6.13399,2.09447 2.10193,-2.82255 4.2851,-5.56239 6.81458,-7.9179 -0.17542,-2.89245 -1.77476,-6.40887 -4.98781,-6.50658 -0.68918,-0.0222 -1.43232,0.80322 -1.34928,-0.35859 -0.86254,-1.15906 1.1837,-1.61774 1.69499,-2.48928 1.50875,-1.34188 3.60033,-3.52237 2.27635,-5.64769 -1.54976,-2.18993 -4.42113,-0.85248 -5.92574,0.63715 -0.88382,0.67913 -1.71158,1.61623 -2.56057,2.20604 -0.47855,-0.51303 -1.8066,-0.31856 -0.99012,-1.16581 0.9551,-2.96479 -2.18973,-5.34739 -4.73872,-6.00329 -0.83895,-0.25326 -1.70891,-0.36991 -2.57556,-0.35808 z"
       id="path1942" />
    <path
       inkscape:connector-curvature="0"
       style="fill:none;fill-opacity:1;stroke:#fb0000;stroke-width:0.26458332;stroke-miterlimit:4;stroke-dasharray:none;stroke-opacity:1"
       d="m 46.561286,103.76094 c 10e-4,10e-5 0.002,0 0.003,0 0.003,-0.0146 0.002,-0.0293 0.006,-0.0434 -0.003,0.014 -0.006,0.0286 -0.009,0.0429 z"
       id="path1940" />
    <path
       inkscape:connector-curvature="0"
       style="fill:none;fill-opacity:1;stroke:#0000ff;stroke-width:0.26458332;stroke-miterlimit:4;stroke-dasharray:none;stroke-opacity:1"
       d="m 90.180326,44.079304 c -0.49136,-0.0382 -0.98025,-0.0335 -1.46657,0.003 -0.48633,0.0366 -0.97032,0.10509 -1.45108,0.19484 -0.96151,0.17949 -1.9113,0.44354 -2.84737,0.70641 0.66664,0.49109 1.41283,0.93093 2.17816,1.36374 0.76533,0.43283 1.54983,0.85852 2.29444,1.32292 0.3723,0.23217 0.73478,0.47431 1.07952,0.7312 0.34474,0.25694 0.67185,0.52882 0.9741,0.82169 0.30224,0.29284 0.57941,0.60664 0.82424,0.9467 0.24482,0.34005 0.45745,0.70639 0.62993,1.10485 -0.35815,-0.30644 -0.73273,-0.59081 -1.12086,-0.8532 -0.38812,-0.26239 -0.78993,-0.50279 -1.20354,-0.72139 -0.41362,-0.21862 -0.8387,-0.41558 -1.27331,-0.59065 -0.43461,-0.17513 -0.87851,-0.32862 -1.32963,-0.46046 -0.45113,-0.13181 -0.9099,-0.24188 -1.37305,-0.33073 -0.46315,-0.0888 -0.93077,-0.15599 -1.40146,-0.20203 -0.94139,-0.0921 -1.89346,-0.0992 -2.83807,-0.022 -0.94461,0.0775 -1.88168,0.23918 -2.79363,0.48418 -0.45597,0.12251 -0.90613,0.26591 -1.3472,0.42995 -0.44108,0.16402 -0.87332,0.3487 -1.29502,0.55396 -0.42169,0.20529 -0.83259,0.43122 -1.23041,0.67749 -0.39783,0.24628 -0.7824,0.5129 -1.15187,0.79994 -0.36946,0.28702 -0.72378,0.59436 -1.0604,0.92192 -0.33662,0.32753 -0.6557,0.67556 -0.95498,1.04333 -0.17115,0.12584 -0.31085,0.3392 -0.4377,0.57208 -0.12685,0.23286 -0.24096,0.4853 -0.36122,0.68882 -0.12026,0.20354 -0.24651,0.35803 -0.39791,0.39584 -0.0757,0.0191 -0.15749,0.009 -0.24804,-0.0393 -0.0906,-0.0481 -0.19012,-0.13401 -0.30024,-0.26612 -0.47224,-0.11226 -0.95975,-0.13097 -1.44643,-0.0749 -0.48668,0.056 -0.97219,0.18659 -1.4397,0.37309 -0.46751,0.18656 -0.91698,0.42924 -1.33171,0.70848 -0.41472,0.27926 -0.79511,0.59547 -1.12344,0.92969 -0.10055,0.19201 -0.15009,0.37584 -0.15968,0.5524 -0.01,0.17655 0.0209,0.34583 0.0816,0.50747 0.0607,0.16163 0.15158,0.31573 0.262,0.46302 0.11043,0.14729 0.24036,0.28773 0.37982,0.42119 0.27893,0.26691 0.59538,0.50697 0.86662,0.72189 0.27124,0.21495 0.49741,0.40476 0.59582,0.57205 -0.31725,0.12007 -0.68623,0.3116 -1.03663,0.55245 -0.35039,0.2408 -0.68206,0.53092 -0.92552,0.84799 -0.12173,0.15854 -0.22117,0.32372 -0.2899,0.49298 -0.0687,0.16928 -0.10668,0.34237 -0.10491,0.51678 0.002,0.17441 0.043,0.35049 0.13281,0.52451 0.0898,0.17402 0.22792,0.34615 0.42323,0.51416 0.34918,0.25279 0.74814,0.55182 1.17667,0.8372 0.42854,0.28535 0.88681,0.55732 1.35444,0.75652 0.23382,0.0996 0.46986,0.18084 0.7059,0.23667 0.23605,0.0558 0.47214,0.086 0.70539,0.0832 0.23324,-0.003 0.46343,-0.0385 0.68884,-0.11472 0.22541,-0.0763 0.44582,-0.19304 0.65836,-0.35761 0.1858,0.4608 0.39895,0.9026 0.63665,1.32548 0.23771,0.42291 0.49977,0.8269 0.78445,1.21129 0.28468,0.38439 0.59209,0.74919 0.91881,1.09447 0.32672,0.34534 0.6728,0.67107 1.03663,0.97672 0.36383,0.30567 0.74501,0.59131 1.14102,0.8568 0.39599,0.26545 0.80718,0.51069 1.23041,0.73535 0.42324,0.22469 0.85877,0.42905 1.30431,0.61238 0.44554,0.1833 0.90084,0.34536 1.36374,0.48675 0.92582,0.28279 1.88169,0.48112 2.84738,0.59275 0.25078,0.0289 0.5032,0.003 0.75499,0.019 l 0.1111,-7.53597 c -0.3844,-0.0621 -0.75975,-0.17267 -1.11414,-0.33589 -0.35439,-0.16322 -0.68783,-0.37917 -0.98909,-0.65217 -0.20903,-0.15563 -0.39629,-0.32433 -0.56224,-0.50385 -0.16594,-0.17952 -0.31081,-0.36996 -0.43563,-0.56896 -0.24963,-0.39796 -0.41884,-0.83028 -0.51573,-1.27947 -0.0969,-0.44923 -0.1213,-0.91532 -0.0811,-1.38028 0.0402,-0.465 0.1449,-0.92882 0.30644,-1.37411 0.16154,-0.44529 0.37978,-0.8718 0.64699,-1.2619 0.26721,-0.39016 0.58331,-0.74388 0.94051,-1.04339 0.3572,-0.29951 0.75552,-0.54488 1.18701,-0.71829 0.43149,-0.17341 0.89638,-0.27495 1.38648,-0.28681 0.0655,-0.004 0.13033,-0.005 0.19482,-0.004 0.24182,0.005 0.47648,0.0439 0.70435,0.10854 0.22786,0.0646 0.44885,0.15456 0.66404,0.26045 0.43039,0.21172 0.83682,0.48718 1.22421,0.75136 0.20754,0.0608 0.3989,0.14161 0.57413,0.23927 0.17523,0.0977 0.33426,0.21219 0.47749,0.34105 0.28647,0.25775 0.50924,0.57253 0.66973,0.92191 0.16048,0.34941 0.25849,0.73348 0.29559,1.13017 0.0371,0.39669 0.0134,0.80594 -0.0703,1.2056 0.0208,0.25323 0.0173,0.49855 -0.008,0.73538 -0.0251,0.23686 -0.0716,0.46527 -0.13798,0.68421 -0.13271,0.43786 -0.34349,0.83865 -0.6134,1.19576 -0.26991,0.35711 -0.59894,0.67067 -0.96893,0.93483 -0.37,0.26416 -0.78093,0.47868 -1.21388,0.63767 l 0.52813,7.46673 c 0.32588,0.0314 0.65776,0.0342 0.97617,0.0987 0.27571,-0.0559 0.55358,-0.10319 0.82475,-0.17468 0.46351,-0.12219 0.91999,-0.26699 1.36633,-0.43514 0.44634,-0.16808 0.88266,-0.35951 1.3069,-0.57409 0.22663,-0.0522 0.70584,-0.42656 1.02732,-0.64598 0.16074,-0.10967 0.28193,-0.18034 0.31264,-0.15293 -0.35678,0.81008 -1.2472,1.57163 -1.99419,2.10323 -0.27917,0.19772 -0.59807,0.34091 -0.89503,0.51416 1.61601,0.76034 3.01838,1.99496 4.04885,3.47213 v 0 c 0.4281,-0.18574 0.84907,-0.39185 1.24385,-0.6563 0.45305,-0.30342 0.8811,-0.66061 1.27796,-1.0759 0.26669,-0.26141 0.52699,-0.55298 0.77307,-0.86762 0.24609,-0.31464 0.47817,-0.65265 0.68937,-1.00716 0.2112,-0.35455 0.40123,-0.72536 0.56327,-1.10641 0.16205,-0.38106 0.2962,-0.77214 0.39481,-1.16634 0.0986,-0.3942 0.1615,-0.79198 0.18242,-1.18599 0.0209,-0.39402 -2.6e-4,-0.78433 -0.0713,-1.16475 -0.0711,-0.38047 -0.19167,-0.75079 -0.36897,-1.10435 -0.17731,-0.35353 -0.41118,-0.69027 -0.709,-1.00354 -0.11853,-0.1252 -0.27719,-0.21508 -0.43409,-0.29146 -0.15689,-0.0764 -0.31239,-0.13909 -0.42581,-0.21032 -0.11342,-0.0713 -0.18451,-0.15123 -0.1726,-0.26098 0.0119,-0.10973 0.10699,-0.24948 0.32608,-0.44133 0.0253,-0.17883 0.0754,-0.31782 0.14521,-0.42479 0.0699,-0.10694 0.15944,-0.18155 0.26458,-0.23201 0.21028,-0.10086 0.48197,-0.10427 0.77773,-0.0708 0.29577,0.0335 0.61538,0.1039 0.92243,0.14933 0.30705,0.0455 0.6013,0.066 0.84543,0 0.50406,0.0268 1.07103,0.0422 1.646404,0.0119 0.57538,-0.0303 1.15935,-0.10636 1.69758,-0.26199 0.26911,-0.0778 0.52687,-0.17521 0.76636,-0.29713 0.23948,-0.12192 0.4605,-0.26839 0.65681,-0.44286 0.1963,-0.17452 0.36789,-0.37727 0.50746,-0.61293 0.13956,-0.23561 0.24699,-0.50401 0.31626,-0.80923 0.0549,-0.33083 0.0566,-0.6368 0.0129,-0.91932 -0.0436,-0.28252 -0.13244,-0.5415 -0.25786,-0.77774 -0.12543,-0.23622 -0.28753,-0.44993 -0.47802,-0.6418 -0.19047,-0.19188 -0.40923,-0.36206 -0.64802,-0.5116 -0.23878,-0.14954 -0.49754,-0.27842 -0.76791,-0.38756 -0.27036,-0.1092 -0.55247,-0.19847 -0.83767,-0.26924 -0.5704,-0.14158 -1.15378,-0.20836 -1.683104,-0.20826 -0.55295,-0.0695 -1.14137,-0.0836 -1.71876,-0.10234 -0.57739,-0.0188 -1.14345,-0.0422 -1.65262,-0.13123 0.005,-0.17531 -0.0584,-0.35658 -0.13849,-0.53023 -0.0801,-0.17367 -0.17686,-0.33964 -0.2372,-0.48474 -0.0603,-0.14502 -0.0845,-0.26913 -0.0201,-0.35859 0.0644,-0.0895 0.21752,-0.14446 0.5116,-0.15142 0.34556,-0.17941 0.63909,-0.3974 0.88574,-0.64595 0.24664,-0.24858 0.44647,-0.52777 0.60409,-0.82942 0.15763,-0.30162 0.2729,-0.62561 0.35141,-0.96427 0.0785,-0.33864 0.11992,-0.69157 0.12918,-1.05111 0.009,-0.35955 -0.0135,-0.72599 -0.0636,-1.09038 -0.05,-0.36445 -0.12728,-0.72693 -0.22682,-1.0801 -0.0995,-0.35311 -0.2216,-0.69683 -0.3607,-1.02266 -0.13911,-0.32581 -0.29527,-0.63379 -0.46406,-0.91623 -0.33447,-0.61611 -0.74465,-1.18406 -1.21491,-1.69444 -0.47026,-0.51044 -1.00067,-0.96311 -1.57613,-1.34877 -0.57546,-0.38563 -1.19582,-0.70437 -1.84588,-0.9462 -0.65007,-0.24183 -1.32956,-0.40728 -2.02365,-0.48625 -0.18512,-0.0209 -0.37126,-0.0355 -0.55811,-0.0445 z"
       id="path1938" />
    <path
       inkscape:connector-curvature="0"
       style="fill:none;fill-opacity:1;stroke:#0000ff;stroke-width:0.26458332;stroke-miterlimit:4;stroke-dasharray:none;stroke-opacity:1"
       d="m 129.63271,53.998614 c -0.69335,0.0188 -1.38599,0.1193 -2.05931,0.30538 -0.17948,0.0499 -0.35715,0.10544 -0.53382,0.16692 -0.47005,0.14822 -0.92218,0.33523 -1.35961,0.55087 -0.43742,0.21566 -0.8604,0.46005 -1.27279,0.72294 -0.82477,0.52584 -1.60708,1.1257 -2.37711,1.71929 0.80186,0.20638 1.65794,0.33565 2.52956,0.45114 0.87162,0.11547 1.7589,0.21752 2.62309,0.37 0.4321,0.0763 0.85857,0.16491 1.27435,0.2744 0.41576,0.10948 0.82099,0.23974 1.21077,0.39846 0.38979,0.15867 0.76412,0.34607 1.11828,0.56996 0.35417,0.22392 0.68796,0.48448 0.99684,0.78963 -0.44671,-0.15039 -0.9,-0.27424 -1.35806,-0.37262 -0.45806,-0.0983 -0.92113,-0.17139 -1.38648,-0.2196 -0.46534,-0.0482 -0.9329,-0.0718 -1.40146,-0.0718 -0.46856,0 -0.93789,0.0236 -1.4056,0.0697 -0.4677,0.0463 -0.93403,0.11549 -1.39682,0.20619 -0.46278,0.0907 -0.92182,0.20323 -1.37562,0.33642 -0.90759,0.26638 -1.79343,0.61537 -2.64066,1.04023 -0.84723,0.42485 -1.65587,0.92541 -2.41019,1.49344 -0.37716,0.28406 -0.74099,0.58479 -1.08882,0.90176 -0.34783,0.31697 -0.67983,0.64989 -0.99426,0.99787 -0.31443,0.34798 -0.61135,0.7112 -0.88832,1.08831 -0.27696,0.37709 -0.53402,0.76822 -0.76946,1.17253 -0.23543,0.40431 -0.44888,0.82201 -0.63872,1.25161 -0.18983,0.42961 -0.35593,0.87099 -0.49609,1.32395 -0.11174,0.18066 -0.1616,0.43117 -0.19224,0.69453 -0.0306,0.2634 -0.042,0.53986 -0.0775,0.77362 -0.0355,0.23371 -0.0949,0.42455 -0.22117,0.51625 -0.0632,0.0458 -0.14299,0.067 -0.24495,0.0563 -0.10196,-0.0108 -0.22624,-0.0534 -0.37776,-0.13488 -0.47997,0.0724 -0.93945,0.23746 -1.36994,0.47133 -0.43048,0.23381 -0.83185,0.53642 -1.19579,0.88416 -0.36394,0.34771 -0.69016,0.74043 -0.97048,1.15443 -0.28033,0.41402 -0.51488,0.84942 -0.69453,1.28211 -0.0215,0.21567 0.001,0.40521 0.0584,0.57256 0.0571,0.16735 0.14835,0.31253 0.2651,0.43977 0.11674,0.12726 0.25905,0.23643 0.41651,0.33176 0.15746,0.0953 0.3303,0.17693 0.50953,0.24857 0.35847,0.14336 0.74141,0.24723 1.07332,0.34523 0.33191,0.0979 0.61255,0.19008 0.76636,0.30851 -0.2494,0.22992 -0.51946,0.54536 -0.75448,0.89969 -0.23501,0.35427 -0.43474,0.74763 -0.54208,1.1327 -0.0537,0.19257 -0.0842,0.38267 -0.0847,0.56534 -2.7e-4,0.18269 0.0293,0.35772 0.0961,0.51887 0.0668,0.16108 0.17054,0.3083 0.31884,0.43614 0.14831,0.12782 0.34102,0.23646 0.58498,0.31935 0.41835,0.10396 0.89992,0.23186 1.40405,0.33642 0.50412,0.10457 1.03071,0.18579 1.53892,0.19585 0.25411,0.005 0.50382,-0.008 0.74363,-0.0445 0.2398,-0.0364 0.46992,-0.0962 0.68523,-0.18601 0.2153,-0.0897 0.41576,-0.20939 0.59634,-0.36435 0.18058,-0.15497 0.34132,-0.34515 0.47698,-0.57722 0.34453,0.35798 0.7072,0.68826 1.08572,0.99166 0.37851,0.30342 0.77259,0.57978 1.18028,0.82992 0.4077,0.25019 0.82882,0.47413 1.26091,0.67236 0.43209,0.19817 0.87536,0.37073 1.32705,0.51826 0.45169,0.14759 0.9117,0.27022 1.37821,0.36846 0.46651,0.0982 0.93941,0.17198 1.41593,0.22223 0.47653,0.0502 0.95691,0.0765 1.43867,0.0801 0.48176,0.003 0.96474,-0.0156 1.44694,-0.0574 0.96442,-0.0837 1.92492,-0.25691 2.86236,-0.51422 0.93744,-0.25731 1.85171,-0.59907 2.72386,-1.01955 3.10672,-1.7671 4.52915,-3.51766 4.05816,-5.51439 -0.16426,-0.37412 -0.39218,-0.73427 -0.67335,-1.06042 -0.28118,-0.3261 -0.61566,-0.61839 -0.99219,-0.85678 -0.37652,-0.23844 -0.79509,-0.42275 -1.2454,-0.53382 -0.45031,-0.11107 -0.93202,-0.14846 -1.43454,-0.0925 -0.25126,0.0279 -0.50764,0.0789 -0.76791,0.15605 -0.26026,0.0771 -0.52459,0.18031 -0.79116,0.31163 -0.19784,0.20182 -0.41521,0.38671 -0.64751,0.55292 -0.2323,0.16619 -0.47931,0.31361 -0.73742,0.44027 -0.25812,0.12668 -0.52727,0.23252 -0.80254,0.31578 -0.27527,0.0832 -0.55699,0.14393 -0.84078,0.17981 -0.28378,0.0359 -0.56954,0.0474 -0.85317,0.0321 -0.28364,-0.0151 -0.56491,-0.0576 -0.83975,-0.12816 -0.27483,-0.0705 -0.54307,-0.16963 -0.80046,-0.29922 -0.25739,-0.12954 -0.50407,-0.28956 -0.73536,-0.48212 -0.22227,-0.14388 -0.42223,-0.30274 -0.60099,-0.4744 -0.17876,-0.17164 -0.33626,-0.35581 -0.47335,-0.55034 -0.27419,-0.38904 -0.46702,-0.81915 -0.5855,-1.27074 -0.11847,-0.45161 -0.16264,-0.92501 -0.14004,-1.40041 0.0226,-0.4754 0.11195,-0.95284 0.26096,-1.41338 0.14902,-0.46045 0.35778,-0.90416 0.61857,-1.31101 0.26079,-0.40685 0.57379,-0.77695 0.93172,-1.09138 0.35792,-0.31451 0.76055,-0.57319 1.20096,-0.75657 0.22021,-0.0917 0.44973,-0.16439 0.68781,-0.21601 0.23809,-0.0516 0.48485,-0.0821 0.73898,-0.0889 0.069,-0.004 0.13732,-0.005 0.20515,-0.004 0.25437,0.005 0.50009,0.0463 0.73846,0.11472 0.23837,0.0684 0.46938,0.16383 0.6935,0.27647 0.44822,0.22529 0.86967,0.51969 1.27124,0.80618 0.26986,0.0787 0.51187,0.19627 0.72605,0.34465 0.21418,0.14843 0.40032,0.32774 0.55811,0.52969 0.15779,0.20201 0.28741,0.42667 0.38809,0.66612 0.10068,0.23947 0.17264,0.49361 0.21549,0.75446 0.13964,0.25871 0.29708,0.63166 0.48524,1.17827 0.20539,0.23399 0.45543,0.44037 0.73484,0.63095 0.2794,0.19055 0.58808,0.36526 0.91105,0.53586 0.64596,0.34126 1.34882,0.66625 1.98645,1.0687 0.31881,0.20122 0.62137,0.42157 0.89245,0.67334 0.27107,0.25178 0.51041,0.5351 0.70331,0.86093 0.1929,0.32581 0.33946,0.69435 0.42375,1.11776 0.0775,0.38918 0.0865,0.83841 0.0475,1.32908 1.6e-4,8e-5 8e-4,0 0.001,0 7.9e-4,0 -0.002,0.007 -0.001,0.008 -0.003,0.0407 0.008,0.0686 0.004,0.11009 0,0 -0.20886,1.67254 -1.31568,2.89492 -0.38332,0.54962 -0.79149,1.08381 -1.24851,1.58697 -0.54805,0.60338 -1.12934,1.18512 -1.69602,1.77453 -0.56667,0.58947 -1.11862,1.18682 -1.60869,1.82004 0.53124,0.0388 1.07347,0.048 1.61903,0.0265 0.54556,-0.0214 1.09425,-0.0745 1.63866,-0.1597 0.54442,-0.0851 1.08448,-0.20256 1.6123,-0.35446 0.52782,-0.1519 1.04368,-0.33782 1.53944,-0.55965 0.49577,-0.22185 0.97131,-0.47971 1.41956,-0.77467 0.44824,-0.29496 0.86891,-0.62709 1.25418,-0.99835 0.38527,-0.37127 0.73549,-0.78172 1.04232,-1.23249 0.30683,-0.45079 0.57048,-0.94189 0.78341,-1.47539 0.14969,-0.34211 0.28155,-0.70964 0.39223,-1.09347 0.11067,-0.38378 0.20013,-0.78386 0.26355,-1.19163 0.0634,-0.40778 0.10112,-0.82315 0.10903,-1.23717 0.008,-0.41396 -0.0139,-0.82687 -0.0698,-1.22938 -0.0558,-0.40249 -0.14605,-0.7946 -0.27388,-1.16787 -0.12784,-0.37328 -0.2937,-0.72734 -0.50178,-1.05371 -0.20809,-0.32631 -0.4579,-0.62505 -0.75448,-0.88672 -0.29658,-0.26168 -0.6397,-0.48631 -1.03301,-0.66559 -0.15672,-0.0718 -0.337,-0.0963 -0.51108,-0.10853 -0.17408,-0.0119 -0.34205,-0.0124 -0.47387,-0.0362 -0.13183,-0.0241 -0.2274,-0.0705 -0.25735,-0.17674 -0.03,-0.10621 0.006,-0.27141 0.13746,-0.53121 -0.0434,-0.17534 -0.0491,-0.32321 -0.0243,-0.44854 0.0248,-0.12536 0.08,-0.22815 0.15865,-0.3142 0.15735,-0.17216 0.40819,-0.27662 0.69505,-0.35605 0.28686,-0.0795 0.60977,-0.13417 0.91157,-0.20672 0.3018,-0.0726 0.58228,-0.16324 0.78445,-0.31469 0.47761,-0.16341 1.00934,-0.36095 1.53169,-0.6041 0.52236,-0.24315 1.03533,-0.53197 1.4764,-0.87749 0.22053,-0.17275 0.42338,-0.35965 0.59996,-0.56221 0.17658,-0.20259 0.32703,-0.42056 0.4439,-0.65577 0.11687,-0.23524 0.19993,-0.48742 0.24133,-0.75814 0.0414,-0.27067 0.041,-0.56018 -0.009,-0.86916 -0.0727,-0.32739 -0.18571,-0.61158 -0.33177,-0.85733 -0.14606,-0.24574 -0.32507,-0.45307 -0.52968,-0.62528 -0.20461,-0.1722 -0.43478,-0.3097 -0.68316,-0.41654 -0.24839,-0.10678 -0.51483,-0.18304 -0.7922,-0.23251 -0.27738,-0.0495 -0.56574,-0.0721 -0.85732,-0.0723 -0.29157,0 -0.58647,0.0222 -0.87746,0.063 -0.58198,0.0819 -1.14823,0.23778 -1.63918,0.43566 -0.53887,0.14208 -1.0894,0.3493 -1.63194,0.54774 -0.54254,0.19844 -1.07679,0.38841 -1.58233,0.49612 -0.0607,-0.16457 -0.18744,-0.30914 -0.3266,-0.44029 -0.13915,-0.13118 -0.29084,-0.24922 -0.40101,-0.36121 -0.11016,-0.11203 -0.17872,-0.21799 -0.15244,-0.32507 0.0263,-0.10705 0.14736,-0.21489 0.41754,-0.33126 0.25348,-0.29551 0.44444,-0.60743 0.58033,-0.93017 0.13589,-0.32271 0.21663,-0.65656 0.25011,-0.99528 0.0335,-0.33869 0.0197,-0.68231 -0.0341,-1.02576 -0.0537,-0.34346 -0.14707,-0.68676 -0.27285,-1.02373 -0.12577,-0.33697 -0.28401,-0.66773 -0.46663,-0.987 -0.18263,-0.3193 -0.38962,-0.62691 -0.61392,-0.91726 -0.2243,-0.29035 -0.46597,-0.56316 -0.71676,-0.81338 -0.25077,-0.25027 -0.51099,-0.47808 -0.77307,-0.67699 -0.54049,-0.44651 -1.13318,-0.82002 -1.7601,-1.11773 -0.62693,-0.29771 -1.2879,-0.51933 -1.96577,-0.66199 -0.67788,-0.14266 -1.37217,-0.20619 -2.06551,-0.18756 z"
       id="path1936" />
    <path
       inkscape:connector-curvature="0"
       style="fill:none;fill-opacity:1;stroke:#ff0000;stroke-width:0.26458332;stroke-miterlimit:4;stroke-dasharray:none;stroke-opacity:1"
       d="m 48.449466,86.670344 2.36771,-1.36697 2.36771,1.36697 v 2.73402 l -2.36771,1.36697 -2.36771,-1.36697 z"
       id="path1934" />
    <path
       inkscape:connector-curvature="0"
       style="fill:none;fill-opacity:1;stroke:#ff0000;stroke-width:0.26458332;stroke-miterlimit:4;stroke-dasharray:none;stroke-opacity:1"
       d="m 81.144496,58.818264 2.3677,-1.367 2.36771,1.367 v 2.73399 l -2.36771,1.367 -2.3677,-1.367 z"
       id="path1932" />
    <path
       inkscape:connector-curvature="0"
       style="fill:none;fill-opacity:1;stroke:#ff0000;stroke-width:0.26458332;stroke-miterlimit:4;stroke-dasharray:none;stroke-opacity:1"
       d="m 124.81208,70.677444 2.36772,-1.367 2.3677,1.367 v 2.73399 l -2.3677,1.36702 -2.36772,-1.36702 z"
       id="path1625-8-7-4" />
  </g>
</svg>
