<?xml version="1.0" encoding="UTF-8" standalone="no"?>
<svg
   xmlns:dc="http://purl.org/dc/elements/1.1/"
   xmlns:cc="http://creativecommons.org/ns#"
   xmlns:rdf="http://www.w3.org/1999/02/22-rdf-syntax-ns#"
   xmlns:svg="http://www.w3.org/2000/svg"
   xmlns="http://www.w3.org/2000/svg"
   xmlns:sodipodi="http://sodipodi.sourceforge.net/DTD/sodipodi-0.dtd"
   xmlns:inkscape="http://www.inkscape.org/namespaces/inkscape"
   width="192.3716mm"
   height="104.43079mm"
   viewBox="0 0 438.78035 238.1962"
   version="1.1"
   id="svg3"
   sodipodi:docname="proto.svg"
   inkscape:version="0.92.2 5c3e80d, 2017-08-06">
  <metadata
     id="metadata9">
    <rdf:RDF>
      <cc:Work
         rdf:about="">
        <dc:format>image/svg+xml</dc:format>
        <dc:type
           rdf:resource="http://purl.org/dc/dcmitype/StillImage" />
        <dc:title></dc:title>
      </cc:Work>
    </rdf:RDF>
  </metadata>
  <defs
     id="defs7" />
  <sodipodi:namedview
     pagecolor="#ffffff"
     bordercolor="#666666"
     borderopacity="1"
     objecttolerance="10"
     gridtolerance="10"
     guidetolerance="10"
     inkscape:pageopacity="0"
     inkscape:pageshadow="2"
     inkscape:window-width="1920"
     inkscape:window-height="1016"
     id="namedview5"
     showgrid="false"
     inkscape:zoom="0.50877068"
     inkscape:cx="734.02289"
     inkscape:cy="779.96837"
     inkscape:window-x="0"
     inkscape:window-y="27"
     inkscape:window-maximized="1"
     inkscape:current-layer="svg3"
     inkscape:document-units="mm"
     scale-x="2.2809"
     units="mm"
     fit-margin-top="0"
     fit-margin-left="0"
     fit-margin-right="0"
     fit-margin-bottom="0" />
  <g
     transform="rotate(-42.040588,-91.899512,233.08836)"
     id="g1554-3-5" />
  <g
     id="g1835"
     transform="translate(-292.46923,-1274.6771)">
    <path
       inkscape:connector-curvature="0"
       id="path1944"
       d="m 293.02593,1512.3959 c 13.92364,-3.464 27.53046,-8.3772 40.47084,-14.001 10.74755,-5.0069 21.45146,-10.5719 31.42686,-17.1461 7.03455,7.9582 17.5251,12.6829 28.22616,9.8394 16.79836,-4.8545 23.56302,-26.0343 17.19733,-41.294 -1.30955,-3.7381 -3.30084,-7.323 -5.81985,-10.4825 9.40272,-13.0046 19.88933,-25.1435 34.54992,-32.382 0.37294,-0.2103 0.75108,-0.4106 1.12794,-0.6137 5.20357,12.3399 18.45388,21.7531 31.97911,17.8345 10.3009,-3.0911 17.15522,-11.7245 19.9483,-21.6753 2.62184,1.083 5.18032,2.3814 7.64798,3.9213 23.91163,13.1388 44.32341,35.4233 72.73265,38.5505 2.3525,0.2871 4.67792,0.4077 6.98001,0.3911 4.54186,13.988 18.96221,25.4559 33.96252,21.5274 15.40214,-4.3318 22.84151,-21.9865 19.8443,-36.9596 2.96161,-0.9735 5.93823,-1.8514 8.93997,-2.5649 29.48399,-8.6989 59.42334,-16.6338 88.0037,-28.0212 l 0.59469,-9.5003 c -23.16992,9.2132 -47.18573,16.5638 -70.90013,23.3585 -9.99443,1.8711 -19.596,5.2866 -29.13144,8.9326 -3.1367,-7.3469 -9.00315,-13.747 -16.24224,-16.9761 0.97746,-0.2893 1.98295,-0.5037 2.93115,-0.8614 1.95484,-0.7372 3.83992,-1.6209 5.6221,-2.6572 1.78218,-1.0364 3.46095,-2.2245 5.00539,-3.5713 1.54442,-1.3467 2.95376,-2.852 4.19532,-4.5205 1.24155,-1.6684 2.31542,-3.5005 3.18898,-5.502 0.52632,-1.1384 0.98672,-2.3234 1.37402,-3.5391 0.3873,-1.2158 0.70159,-2.4621 0.93897,-3.7266 0.2374,-1.2645 0.39655,-2.5473 0.47315,-3.832 0.0767,-1.2848 0.0716,-2.5716 -0.0234,-3.8481 -0.095,-1.2764 -0.27916,-2.5427 -0.55664,-3.7823 -0.27749,-1.2397 -0.64831,-2.4527 -1.11915,-3.6269 -0.47085,-1.1743 -1.04173,-2.3094 -1.7168,-3.3897 -0.67508,-1.0804 -1.45506,-2.1066 -2.34523,-3.0645 1.0306,-0.3339 2.07137,-0.753 3.0967,-1.248 1.02533,-0.4951 2.03507,-1.0662 3.00586,-1.7065 0.97081,-0.6405 1.90155,-1.3499 2.76857,-2.1197 0.86701,-0.7698 1.67083,-1.5996 2.38478,-2.4829 0.71395,-0.8835 1.33849,-1.8196 1.85009,-2.8008 0.51162,-0.981 0.91041,-2.0075 1.17042,-3.0704 0.26004,-1.063 0.38072,-2.1624 0.33984,-3.2914 -0.0409,-1.1289 -0.24325,-2.2881 -0.63428,-3.4674 -0.38508,-1.1991 -0.92015,-2.2787 -1.57617,-3.2445 -0.65603,-0.966 -1.433,-1.8179 -2.30567,-2.5577 -0.87266,-0.7399 -1.8405,-1.3687 -2.8755,-1.8896 -1.03499,-0.5211 -2.13824,-0.9346 -3.28126,-1.2437 -1.14301,-0.3093 -2.32624,-0.5136 -3.52296,-0.6182 -1.19672,-0.1047 -2.40593,-0.1088 -3.60206,-0.016 -1.19614,0.093 -2.37881,0.2823 -3.52003,0.5655 -1.14124,0.2832 -2.24191,0.6599 -3.27394,1.1264 0.0794,-1.1686 0.0699,-2.3146 -0.022,-3.4351 -0.0919,-1.1206 -0.26584,-2.2157 -0.51563,-3.2827 -0.24978,-1.067 -0.5754,-2.1053 -0.96973,-3.1128 -0.39434,-1.0076 -0.85732,-1.9845 -1.38281,-2.9268 -0.52551,-0.9424 -1.11305,-1.8502 -1.75636,-2.7217 -0.6433,-0.8716 -1.34261,-1.707 -2.09034,-2.5019 -1.49544,-1.5899 -3.18574,-3.0209 -5.01857,-4.2701 -1.83283,-1.2491 -3.80793,-2.316 -5.87111,-3.1786 -2.06318,-0.8627 -4.21489,-1.5208 -6.40139,-1.9512 -2.18649,-0.4303 -4.40809,-0.6325 -6.61086,-0.5845 -1.10138,0.024 -2.19734,0.1102 -3.28272,0.2622 -1.0854,0.152 -2.15933,0.3689 -3.21535,0.6548 -0.54489,0.148 -1.08588,0.3113 -1.62012,0.4966 -1.28052,0.3813 -2.51995,0.8401 -3.72512,1.3623 -1.20515,0.5221 -2.37621,1.1075 -3.52003,1.7431 -2.28762,1.2714 -4.46697,2.7436 -6.59328,4.3052 -4.25264,3.1235 -8.29427,6.6084 -12.57426,9.5845 0.37655,0.3071 1.26021,0.5674 2.29835,0.8116 1.03812,0.244 2.23044,0.4732 3.2212,0.7177 0.99076,0.2448 1.77972,0.5042 2.01417,0.813 0.11721,0.1544 0.0964,0.3216 -0.1084,0.504 -0.20479,0.1822 -0.59309,0.3807 -1.2085,0.5991 -1.41125,0.7071 -2.78138,1.4925 -4.10597,2.3496 -1.32459,0.857 -2.60408,1.7857 -3.83205,2.7773 -1.22795,0.9917 -2.40453,2.0469 -3.52588,3.1583 -1.12136,1.1111 -2.18714,2.2781 -3.19191,3.4936 -1.00476,1.2155 -1.94896,2.4791 -2.82716,3.7837 -0.8782,1.3046 -1.68998,2.6499 -2.43165,4.0284 -0.74167,1.3785 -1.41315,2.7904 -2.0083,4.2275 -0.59515,1.4371 -1.11409,2.8993 -1.55274,4.3799 -0.99361,0.3724 -1.99908,0.8255 -2.99269,1.3506 -0.99361,0.5252 -1.97604,1.1234 -2.92237,1.7857 -0.94633,0.6621 -1.85673,1.3888 -2.7085,2.1723 -0.85178,0.7835 -1.6441,1.623 -2.35401,2.5122 -0.70993,0.8892 -1.33664,1.8275 -1.85744,2.8067 -0.52078,0.9791 -0.93584,1.9993 -1.22022,3.0527 -0.28437,1.0534 -0.43878,2.1401 -0.43945,3.252 -6.6e-4,1.112 0.15308,2.2494 0.4834,3.4043 0.0633,0.4121 0.20366,0.784 0.39844,1.1264 0.19477,0.3426 0.44377,0.6563 0.72217,0.9492 0.55682,0.5861 1.23263,1.0929 1.83692,1.6011 0.6043,0.5085 1.13721,1.0185 1.40625,1.6099 0.13454,0.2958 0.20272,0.6114 0.18164,0.958 -0.0211,0.3465 -0.13149,0.7237 -0.35595,1.1411 -0.14709,0.8733 -0.17541,1.7301 -0.0996,2.562 0.0758,0.8319 0.25547,1.6392 0.52588,2.4097 0.27041,0.7704 0.63115,1.5054 1.06787,2.1944 0.43672,0.689 0.94872,1.3316 1.52345,1.9189 0.57472,0.5874 1.21255,1.1195 1.89698,1.585 0.68441,0.4655 1.41531,0.8644 2.18115,1.188 0.76583,0.3236 1.56584,0.5722 2.38478,0.7339 0.81894,0.162 1.65822,0.237 2.50196,0.2167 1.02833,0.2666 2.08113,0.4126 3.14356,0.4703 1.06243,0.058 2.1339,0.029 3.1963,-0.062 2.12478,-0.1795 4.21503,-0.5944 6.13479,-1.0005 1.31873,0.9933 2.69465,1.8934 4.11769,2.7012 1.42304,0.8077 2.89336,1.5226 4.4004,2.1489 1.50702,0.6262 3.05091,1.1638 4.6216,1.6128 1.5707,0.4489 3.16871,0.8096 4.78273,1.0854 1.61403,0.2757 3.24384,0.466 4.88087,0.5728 1.63703,0.1072 3.28071,0.1312 4.92043,0.072 1.63971,-0.058 3.27637,-0.197 4.89846,-0.416 1.62206,-0.2188 3.22939,-0.5166 4.81349,-0.8921 -0.67168,0.8122 -1.38431,1.6452 -1.97315,2.4317 -0.58883,0.7866 -1.05316,1.5255 -1.22755,2.1489 -0.0871,0.3117 -0.102,0.5956 -0.0234,0.8408 0.0786,0.2452 0.25033,0.4522 0.53614,0.6138 0.28582,0.1615 0.68573,0.2762 1.22022,0.3369 0.35877,0.043 0.87442,0.022 1.36084,0.01 -9.72876,5.9859 -15.35611,18.5809 -14.25151,30.0441 -23.36628,-0.1119 -41.8838,-16.8128 -60.13496,-29.2237 -7.14954,-5.8374 -15.42455,-10.2901 -24.20956,-13.1968 0.28659,-5.7916 -0.82677,-11.5946 -3.29883,-16.7491 1.0751,-0.4838 2.18242,-0.8843 3.20069,-1.5059 1.7751,-1.0836 3.45596,-2.3811 5.01418,-3.9111 0.9136,-0.8593 1.78216,-1.7873 2.59571,-2.7701 0.81355,-0.983 1.57192,-2.0213 2.26466,-3.1055 0.69273,-1.0842 1.31941,-2.2134 1.87061,-3.3764 0.55119,-1.1631 1.0276,-2.3606 1.4165,-3.5801 0.38889,-1.2195 0.69064,-2.4612 0.8965,-3.7149 0.20585,-1.2535 0.31561,-2.5185 0.31786,-3.7837 0.002,-1.2651 -0.10422,-2.5308 -0.32665,-3.7852 -0.22245,-1.2543 -0.56209,-2.4966 -1.02979,-3.7177 1.08067,0.075 2.20233,0.076 3.33838,0 1.13605,-0.076 2.28651,-0.2288 3.42629,-0.46 1.13977,-0.2311 2.26849,-0.5416 3.36036,-0.9316 1.09187,-0.39 2.14683,-0.861 3.13917,-1.4136 0.99234,-0.5524 1.92299,-1.1869 2.76417,-1.9058 0.84118,-0.7188 1.59405,-1.5209 2.23243,-2.4097 0.63839,-0.8887 1.16143,-1.8643 1.54541,-2.9267 0.38398,-1.0625 0.62816,-2.2128 0.70606,-3.4527 0.0909,-1.2562 -3e-5,-2.4579 -0.24756,-3.5991 -0.24752,-1.1412 -0.65211,-2.222 -1.18506,-3.2344 -0.53296,-1.0124 -1.19464,-1.9572 -1.95997,-2.8272 -0.76532,-0.87 -1.63348,-1.6652 -2.57813,-2.3789 -0.94467,-0.7138 -1.96569,-1.347 -3.03664,-1.8911 -1.07096,-0.5443 -2.19272,-1 -3.33692,-1.3608 -1.1442,-0.3609 -2.31168,-0.6259 -3.47608,-0.7896 -1.16441,-0.1637 -2.32548,-0.2259 -3.45705,-0.1787 0.5104,-1.0542 0.9306,-2.1211 1.26417,-3.1948 0.33357,-1.0738 0.58151,-2.1544 0.74854,-3.2374 0.16696,-1.083 0.25294,-2.1685 0.26367,-3.2505 0.0107,-1.0818 -0.0537,-2.1594 -0.18897,-3.2299 -0.13528,-1.0705 -0.34128,-2.1329 -0.61231,-3.1817 -0.27102,-1.0488 -0.60693,-2.0842 -1.00342,-3.1011 -0.79299,-2.0335 -1.82682,-3.9923 -3.06007,-5.8359 -1.23325,-1.8436 -2.66697,-3.572 -4.25831,-5.1431 -1.59134,-1.5712 -3.34028,-2.9849 -5.20754,-4.2012 -1.86728,-1.2162 -3.85255,-2.2358 -5.91359,-3.0146 -1.03052,-0.3896 -2.08001,-0.7182 -3.14356,-0.983 -1.06357,-0.2646 -2.14075,-0.4637 -3.22707,-0.5932 -0.56073,-0.066 -1.12418,-0.1173 -1.68897,-0.1451 -1.33026,-0.129 -2.65091,-0.1626 -3.96388,-0.1288 -1.31296,0.034 -2.61852,0.1396 -3.917,0.3017 -2.59695,0.3243 -5.1683,0.8754 -7.72415,1.5293 -5.11171,1.3079 -10.16257,3.0311 -15.24467,4.1924 0.23449,0.4256 0.95789,0.997 1.82959,1.6114 0.87171,0.6144 1.8912,1.2704 2.71876,1.8676 0.82755,0.5972 1.4624,1.1348 1.56446,1.5088 0.051,0.187 -0.0305,0.3333 -0.28858,0.4263 -0.2581,0.093 -0.69233,0.1309 -1.34473,0.1039 -1.57323,0.1286 -3.13861,0.3447 -4.68752,0.6446 -1.54887,0.3 -3.08123,0.683 -4.59083,1.1441 -1.5096,0.461 -2.99631,0.9996 -4.45168,1.6113 -1.45538,0.6117 -2.87944,1.2973 -4.26564,2.0493 -1.3862,0.752 -2.73355,1.5717 -4.03565,2.4537 -1.30211,0.8818 -2.55868,1.8257 -3.76173,2.8271 -1.20307,1.0015 -2.35333,2.0594 -3.4424,3.1699 -1.08906,1.1106 -2.11751,2.2741 -3.07764,3.4835 -1.06081,-0.026 -2.16193,0.017 -3.2798,0.1332 -1.11787,0.1159 -2.25271,0.3034 -3.37794,0.564 -1.12523,0.2606 -2.24087,0.595 -3.32375,1.0035 -1.08285,0.4084 -2.13227,0.8921 -3.12305,1.4516 -0.99077,0.5595 -1.92401,1.1951 -2.77296,1.9087 -0.84896,0.7136 -1.61456,1.5052 -2.27198,2.376 -0.65741,0.8708 -1.20545,1.8209 -1.62159,2.852 -0.41614,1.0313 -0.69955,2.1424 -0.82471,3.3369 -0.0953,0.4059 -0.10387,0.8049 -0.0513,1.1954 0.0526,0.3905 0.1662,0.7725 0.31494,1.1484 0.29751,0.7515 0.73542,1.4751 1.10597,2.1724 0.37055,0.6973 0.67455,1.3695 0.70312,2.0185 0.0142,0.3245 -0.0414,0.643 -0.19042,0.9566 -0.14907,0.3136 -0.39161,0.6223 -0.75587,0.9258 -0.46276,0.755 -0.80973,1.5394 -1.0503,2.3393 -0.24055,0.8 -0.37449,1.616 -0.41162,2.4317 -0.037,0.8157 0.0223,1.6309 0.16993,2.4331 0.14763,0.8023 0.38218,1.5915 0.6958,2.3511 0.31363,0.7594 0.70661,1.4892 1.16748,2.1768 0.46089,0.6876 0.98971,1.3325 1.57911,1.9189 0.58941,0.5864 1.23881,1.1145 1.938,1.5703 0.69917,0.456 1.44952,0.8405 2.23975,1.1367 0.85424,0.6314 1.77548,1.1606 2.73927,1.6114 0.96377,0.4508 1.96932,0.823 2.98828,1.1367 2.03792,0.6276 4.13204,1.0246 6.06448,1.3652 0.85201,1.4141 1.79147,2.7619 2.80958,4.043 1.01811,1.2809 2.11452,2.4946 3.27833,3.6387 1.16381,1.1441 2.39496,2.2192 3.6841,3.2227 1.28912,1.0033 2.63578,1.936 4.02979,2.7949 1.39403,0.859 2.83544,1.6446 4.31398,2.3555 1.47853,0.7108 2.99545,1.3454 4.5381,1.9043 1.54264,0.5587 3.11142,1.0413 4.69777,1.4443 0.30745,0.078 0.62155,0.1155 0.93018,0.1875 -8.57182,7.05 -13.40435,19.1187 -11.96928,30.1085 0.015,0.4368 0.0466,0.8735 0.0835,1.3096 -5.29672,2.3473 -10.0672,5.3307 -14.45366,8.7671 -1.53601,-7.7244 -5.98136,-14.9923 -13.27885,-18.293 6.56905,-5.653 11.61592,-16.5354 5.08156,-24.0235 -6.55267,-7.6545 -18.96896,-4.6316 -25.13827,2.0039 -6.06198,-17.7333 -30.90079,-21.3276 -44.71157,-10.5733 -0.44518,0.3473 -0.88134,0.7065 -1.30225,1.084 -8.2659,6.7767 -12.18872,17.0903 -17.77887,25.8912 1.8641,0.5496 10.93079,-2.7445 7.06643,0.7705 -8.22204,9.5843 -12.08415,22.8065 -10.73734,35.086 -6.17702,5.823 -11.06361,16.6778 -5.05226,24.1745 1.74273,2.8444 7.08405,1.4131 6.72073,5.1884 1.61774,6.8971 9.84412,9.9378 16.00493,7.1748 4.20534,-0.6084 8.04872,-3.1371 11.27494,-5.3715 1.65784,0.4203 3.33341,0.7118 5.01711,0.9052 -0.86317,3.8915 -1.00383,7.9161 -0.29883,11.7481 0.35025,4.0872 1.59117,8.1208 3.50245,11.8433 -20.11787,14.0508 -43.29683,23.812 -67.05491,29.713 z"
       style="fill:none;fill-opacity:1;stroke:#00ff00;stroke-width:0.75000244;stroke-miterlimit:4;stroke-dasharray:none;stroke-opacity:1" />
    <path
       inkscape:connector-curvature="0"
       id="path1942"
       d="m 363.70425,1355.2887 c -5.4046,0.073 -10.76386,1.9123 -15.04253,5.2808 -0.4144,0.3273 -0.8185,0.668 -1.21289,1.0226 -4.26439,3.6115 -7.08813,8.5261 -9.81156,13.3184 9.28921,-1.3601 19.48534,-6.9091 28.62169,-3.2388 -10.4473,0.7591 -20.14624,6.2634 -27.11436,14.1607 l 21.23738,9.7763 c 1.07564,-0.9809 2.29299,-1.8021 3.61964,-2.4009 0.66333,-0.2994 1.35491,-0.5427 2.06837,-0.7236 0.71345,-0.1809 1.44941,-0.2986 2.20459,-0.3457 1.19973,-0.059 2.29895,0.1551 3.33693,0.5376 1.03796,0.3826 2.01408,0.9328 2.96779,1.5454 0.95369,0.6126 1.8846,1.287 2.83154,1.9176 0.94695,0.6303 1.91056,1.2174 2.92822,1.6537 0.54351,0.7814 0.91279,1.7078 1.14846,2.7218 0.23566,1.0139 0.33759,2.1151 0.34423,3.2446 0.007,1.1295 -0.0821,2.2884 -0.22558,3.4161 -0.14354,1.1274 -0.34176,2.2243 -0.55665,3.2329 -0.32901,1.1817 -0.83651,2.2491 -1.4839,3.1977 -0.64736,0.9486 -1.43438,1.7781 -2.32324,2.4828 -0.88886,0.7049 -1.87911,1.2851 -2.93263,1.7359 -1.0535,0.4509 -2.17073,0.7719 -3.31201,0.958 -1.1413,0.1863 -2.30776,0.2381 -3.45998,0.1496 -1.15222,-0.089 -2.29019,-0.3177 -3.37648,-0.6915 -1.08628,-0.3738 -2.11949,-0.8921 -3.06299,-1.5617 -0.94351,-0.6694 -1.79714,-1.4897 -2.52101,-2.4653 -0.87001,-0.9315 -1.54139,-1.9416 -2.0332,-3 -0.49184,-1.0583 -0.80431,-2.1644 -0.95362,-3.2884 -0.14931,-1.1243 -0.13556,-2.2667 0.022,-3.3957 0.15753,-1.1289 0.45903,-2.2451 0.88771,-3.3178 l -22.05476,-8.9796 c -4.29009,7.08 -6.58677,15.2815 -5.7803,23.552 -0.37563,2.3791 3.06228,6.5746 -0.82032,6.202 -4.70088,2.8622 -6.91944,9.2395 -6.89943,14.552 1.44275,4.699 8.41052,1.9195 10.53812,2.4828 -1.59878,3.4984 -2.57964,10.9484 3.24903,10.541 4.83028,-0.7479 12.73034,-1.602 13.53081,-7.645 3.36071,1.4497 6.84102,2.2189 10.33743,2.5005 3.98803,-9.2608 12.19771,-16.6085 22.70076,-16.8179 6.45424,-0.2199 12.4389,2.112 17.38775,5.9371 5.95824,-8.001 12.14678,-15.7675 19.31697,-22.4445 -0.49725,-8.1991 -5.03083,-18.167 -14.13873,-18.444 -1.95356,-0.063 -4.06011,2.2769 -3.82472,-1.0164 -2.44501,-3.2856 3.35537,-4.5858 4.80471,-7.0563 4.27677,-3.8038 10.20569,-9.9847 6.45266,-16.0092 -4.39302,-6.2077 -12.53238,-2.4165 -16.79742,1.806 -2.50533,1.9252 -4.85174,4.5815 -7.25833,6.2534 -1.35653,-1.4542 -5.1211,-0.903 -2.80665,-3.3046 2.70737,-8.4042 -6.20715,-15.158 -13.43266,-17.0173 -2.37813,-0.7179 -4.84416,-1.0486 -7.3008,-1.0151 z"
       style="fill:none;fill-opacity:1;stroke:#0000ff;stroke-width:0.75000244;stroke-miterlimit:4;stroke-dasharray:none;stroke-opacity:1" />
    <path
       inkscape:connector-curvature="0"
       id="path1940"
       d="m 356.70081,1450.2974 c 0.003,3e-4 0.006,0 0.009,0 0.009,-0.041 0.007,-0.083 0.0161,-0.1231 -0.009,0.04 -0.016,0.081 -0.0249,0.1216 z"
       style="fill:none;fill-opacity:1;stroke:#fb0000;stroke-width:0.75000244;stroke-miterlimit:4;stroke-dasharray:none;stroke-opacity:1" />
    <path
       inkscape:connector-curvature="0"
       id="path1938"
       d="m 480.34575,1281.1206 c -1.39286,-0.1083 -2.77867,-0.095 -4.15724,0.01 -1.37856,0.1037 -2.75052,0.2979 -4.11329,0.5523 -2.72555,0.5088 -5.4179,1.2573 -8.07132,2.0024 1.8897,1.3921 4.00489,2.6389 6.17433,3.8658 2.16944,1.2269 4.39323,2.4336 6.50393,3.75 1.05536,0.6581 2.08285,1.3445 3.06007,2.0727 0.97721,0.7283 1.90448,1.499 2.76124,2.3292 0.85676,0.8301 1.64243,1.7196 2.33643,2.6836 0.694,0.9639 1.29673,2.0023 1.78566,3.1318 -1.01524,-0.8686 -2.07706,-1.6747 -3.17726,-2.4185 -1.1002,-0.7438 -2.23919,-1.4252 -3.41164,-2.0449 -1.17244,-0.6197 -2.37741,-1.178 -3.60938,-1.6743 -1.23197,-0.4964 -2.49027,-0.9315 -3.76906,-1.3052 -1.27878,-0.3737 -2.57923,-0.6857 -3.8921,-0.9375 -1.31288,-0.2517 -2.63842,-0.4422 -3.97267,-0.5727 -2.66849,-0.2611 -5.3673,-0.2812 -8.04495,-0.062 -2.67764,0.2196 -5.3339,0.678 -7.91897,1.3725 -1.29253,0.3473 -2.56855,0.7538 -3.81885,1.2188 -1.25031,0.4649 -2.47556,0.9884 -3.67092,1.5703 -1.19535,0.5819 -2.36012,1.2223 -3.4878,1.9204 -1.1277,0.6981 -2.21784,1.4539 -3.26515,2.2676 -1.04729,0.8136 -2.05167,1.6848 -3.00586,2.6133 -0.95421,0.9284 -1.85868,1.915 -2.70705,2.9575 -0.48516,0.3567 -0.88115,0.9615 -1.24073,1.6216 -0.35956,0.6601 -0.68302,1.3757 -1.02392,1.9526 -0.34091,0.577 -0.69879,1.0149 -1.12794,1.1221 -0.21458,0.054 -0.44644,0.025 -0.70312,-0.1113 -0.25669,-0.1363 -0.53891,-0.3799 -0.85109,-0.7544 -1.33862,-0.3182 -2.72053,-0.3712 -4.1001,-0.2124 -1.37958,0.1588 -2.75583,0.5289 -4.08107,1.0576 -1.32523,0.5288 -2.59931,1.2167 -3.77492,2.0083 -1.1756,0.7916 -2.25387,1.6879 -3.18457,2.6353 -0.28504,0.5443 -0.42547,1.0654 -0.45265,1.5659 -0.0272,0.5005 0.0592,0.9803 0.23144,1.4385 0.17219,0.4582 0.42968,0.895 0.74268,1.3125 0.31303,0.4175 0.68133,0.8156 1.07668,1.1939 0.79067,0.7566 1.68767,1.4371 2.45655,2.0463 0.76888,0.6093 1.40999,1.1474 1.68896,1.6216 -0.89932,0.3404 -1.94524,0.8833 -2.93849,1.566 -0.99324,0.6826 -1.93341,1.505 -2.62354,2.4038 -0.34507,0.4494 -0.62693,0.9176 -0.82178,1.3974 -0.19482,0.4798 -0.30239,0.9705 -0.29736,1.4649 0.005,0.4944 0.12196,0.9935 0.37647,1.4868 0.2545,0.4933 0.64607,0.9812 1.1997,1.4575 0.98982,0.7165 2.12072,1.5642 3.33547,2.3731 1.21474,0.8089 2.51379,1.5798 3.83936,2.1445 0.6628,0.2824 1.33189,0.5126 2.00099,0.6709 0.6691,0.1582 1.33835,0.2437 1.99952,0.2359 0.66116,-0.01 1.31367,-0.1091 1.95264,-0.3252 0.63895,-0.2162 1.26372,-0.5472 1.86621,-1.0137 0.52668,1.3062 1.13089,2.5586 1.8047,3.7573 0.67381,1.1988 1.41666,2.344 2.22363,3.4336 0.80698,1.0896 1.67837,2.1237 2.60451,3.1025 0.92614,0.9789 1.90716,1.9022 2.93849,2.7686 1.03132,0.8665 2.11185,1.6762 3.23439,2.4287 1.12251,0.7525 2.28807,1.4477 3.48779,2.0845 1.19974,0.6369 2.43433,1.2162 3.69728,1.7359 1.26295,0.5196 2.55355,0.979 3.86573,1.3798 2.62438,0.8016 5.33392,1.3638 8.07133,1.6802 0.71087,0.082 1.4264,0.01 2.14014,0.054 l 0.31494,-21.3619 c -1.08966,-0.1761 -2.15363,-0.4894 -3.15822,-0.9521 -1.00457,-0.4627 -1.94976,-1.0748 -2.80372,-1.8487 -0.59254,-0.4411 -1.12334,-0.9193 -1.59376,-1.4282 -0.47038,-0.5089 -0.88104,-1.0487 -1.23485,-1.6128 -0.70763,-1.1281 -1.18728,-2.3536 -1.46192,-3.6269 -0.27465,-1.2734 -0.34386,-2.5946 -0.22999,-3.9126 0.11388,-1.3181 0.41076,-2.6329 0.86866,-3.8951 0.4579,-1.2623 1.07654,-2.4713 1.83399,-3.5771 0.75745,-1.1059 1.65349,-2.1086 2.66602,-2.9576 1.01254,-0.849 2.14163,-1.5446 3.36477,-2.0361 1.22313,-0.4916 2.54092,-0.7794 3.93018,-0.813 0.18576,-0.011 0.36946,-0.015 0.55225,-0.012 0.68548,0.013 1.35067,0.1245 1.99658,0.3076 0.64592,0.1832 1.27234,0.4382 1.88234,0.7383 1.22,0.6002 2.37208,1.381 3.47022,2.1299 0.5883,0.1725 1.13074,0.4014 1.62745,0.6782 0.49671,0.2768 0.9475,0.6015 1.35351,0.9668 0.81207,0.7306 1.44353,1.6229 1.89845,2.6133 0.45492,0.9904 0.73275,2.0791 0.8379,3.2036 0.10516,1.1245 0.038,2.2846 -0.19922,3.4175 0.059,0.7178 0.0491,1.4132 -0.022,2.0845 -0.0711,0.6714 -0.20303,1.3189 -0.39112,1.9395 -0.37617,1.2412 -0.97366,2.3773 -1.73877,3.3896 -0.7651,1.0123 -1.69779,1.9011 -2.7466,2.6499 -1.0488,0.7488 -2.21365,1.3569 -3.44092,1.8076 l 1.49708,21.1656 c 0.92376,0.089 1.8645,0.097 2.76708,0.2799 0.78154,-0.1585 1.56923,-0.2925 2.3379,-0.4952 1.3139,-0.3463 2.60785,-0.7568 3.87307,-1.2334 1.26522,-0.4765 2.50204,-1.0191 3.7046,-1.6274 0.64242,-0.148 2.00083,-1.2091 2.91212,-1.8311 0.45565,-0.3109 0.79917,-0.5112 0.88623,-0.4335 -1.01136,2.2963 -3.53538,4.455 -5.65284,5.9619 -0.79137,0.5605 -1.69532,0.9664 -2.53712,1.4575 4.58083,2.1553 8.55608,5.655 11.47709,9.8423 v 0 c 1.21352,-0.5265 2.40682,-1.1108 3.52588,-1.8604 1.28424,-0.8601 2.49762,-1.8726 3.62258,-3.0498 0.75598,-0.741 1.49385,-1.5675 2.19141,-2.4594 0.69756,-0.8919 1.35543,-1.8501 1.9541,-2.855 0.59868,-1.005 1.13736,-2.0561 1.5967,-3.1363 0.45933,-1.0801 0.8396,-2.1887 1.11913,-3.3061 0.27953,-1.1175 0.45781,-2.245 0.5171,-3.3619 0.0592,-1.1169 -7.2e-4,-2.2233 -0.20215,-3.3017 -0.20143,-1.0785 -0.54331,-2.1282 -1.0459,-3.1304 -0.5026,-1.0022 -1.16555,-1.9567 -2.00978,-2.8447 -0.33599,-0.3549 -0.78571,-0.6097 -1.23047,-0.8262 -0.44475,-0.2166 -0.88553,-0.3943 -1.20703,-0.5962 -0.3215,-0.202 -0.52302,-0.4287 -0.48926,-0.7398 0.0337,-0.311 0.30329,-0.7072 0.92432,-1.251 0.0717,-0.5069 0.21362,-0.9009 0.41161,-1.2041 0.19802,-0.3032 0.45198,-0.5147 0.75001,-0.6577 0.59606,-0.2859 1.3662,-0.2956 2.2046,-0.2007 0.8384,0.095 1.74437,0.2945 2.61476,0.4233 0.87037,0.129 1.70448,0.1871 2.39649,0 1.42886,0.076 3.03601,0.1197 4.667,0.034 1.631,-0.086 3.28635,-0.3015 4.81203,-0.7427 0.76284,-0.2206 1.49351,-0.4966 2.17237,-0.8422 0.67886,-0.3456 1.30537,-0.7608 1.86183,-1.2554 0.55644,-0.4947 1.04286,-1.0694 1.43847,-1.7374 0.39562,-0.6679 0.70013,-1.4287 0.8965,-2.2939 0.15558,-0.9378 0.16033,-1.8051 0.0366,-2.606 -0.12371,-0.8008 -0.37543,-1.5349 -0.73096,-2.2046 -0.35555,-0.6696 -0.81505,-1.2754 -1.355,-1.8193 -0.53992,-0.5439 -1.16004,-1.0263 -1.83691,-1.4502 -0.67688,-0.4239 -1.41038,-0.7892 -2.17677,-1.0986 -0.76638,-0.3095 -1.56607,-0.5626 -2.37451,-0.7632 -1.6169,-0.4013 -3.27057,-0.5906 -4.77102,-0.5903 -1.56741,-0.1971 -3.23539,-0.2371 -4.87209,-0.2901 -1.63668,-0.053 -3.24128,-0.1197 -4.68458,-0.372 0.0147,-0.497 -0.16563,-1.0108 -0.39258,-1.503 -0.22695,-0.4923 -0.50134,-0.9628 -0.67238,-1.3741 -0.17101,-0.4111 -0.23959,-0.7629 -0.0571,-1.0165 0.1825,-0.2537 0.61659,-0.4095 1.4502,-0.4292 0.97954,-0.5086 1.8116,-1.1265 2.51076,-1.8311 0.69915,-0.7046 1.26559,-1.496 1.7124,-2.3511 0.44681,-0.855 0.77358,-1.7734 0.9961,-2.7334 0.22251,-0.9599 0.33996,-1.9603 0.36621,-2.9795 0.0263,-1.0192 -0.0382,-2.0579 -0.18018,-3.0908 -0.14197,-1.033 -0.36089,-2.0605 -0.64307,-3.0616 -0.28216,-1.001 -0.62814,-1.9753 -1.02246,-2.8989 -0.39432,-0.9236 -0.83699,-1.7966 -1.31544,-2.5972 -0.94811,-1.7465 -2.11083,-3.3564 -3.44385,-4.8032 -1.33302,-1.4469 -2.83657,-2.7301 -4.46779,-3.8233 -1.63121,-1.0931 -3.38972,-1.9966 -5.23244,-2.6821 -1.84272,-0.6855 -3.76883,-1.1545 -5.73635,-1.3784 -0.52474,-0.059 -1.05238,-0.1005 -1.58203,-0.126 z"
       style="fill:none;fill-opacity:1;stroke:#0000ff;stroke-width:0.75000244;stroke-miterlimit:4;stroke-dasharray:none;stroke-opacity:1" />
    <path
       inkscape:connector-curvature="0"
       id="path1936"
       d="m 592.17962,1309.2384 c -1.9654,0.053 -3.92879,0.3381 -5.83743,0.8656 -0.50876,0.1414 -1.01238,0.2989 -1.51319,0.4732 -1.33241,0.4202 -2.61406,0.9503 -3.85401,1.5615 -1.23995,0.6113 -2.43896,1.3041 -3.60793,2.0493 -2.33794,1.4906 -4.55554,3.191 -6.7383,4.8736 2.27298,0.585 4.69968,0.9515 7.17043,1.2788 2.47076,0.3273 4.98588,0.6166 7.43558,1.0488 1.22484,0.2163 2.43374,0.4675 3.61232,0.7779 1.17855,0.3103 2.32722,0.6795 3.43212,1.1295 1.10493,0.4497 2.16602,0.981 3.16995,1.6156 1.00393,0.6348 1.95011,1.3734 2.82568,2.2383 -1.26626,-0.4263 -2.55117,-0.7773 -3.84962,-1.0562 -1.29845,-0.2788 -2.61109,-0.4858 -3.93018,-0.6225 -1.3191,-0.1366 -2.64446,-0.2036 -3.97267,-0.2036 -1.32821,0 -2.65861,0.067 -3.98439,0.1978 -1.32578,0.1312 -2.64765,0.3273 -3.9595,0.5844 -1.31183,0.2571 -2.61305,0.5761 -3.89942,0.9537 -2.5727,0.7551 -5.08376,1.7443 -7.48538,2.9487 -2.40159,1.2042 -4.69382,2.6232 -6.83205,4.2334 -1.06912,0.8052 -2.10045,1.6576 -3.08643,2.5561 -0.98598,0.8985 -1.92706,1.8422 -2.81837,2.8286 -0.89131,0.9864 -1.73297,2.0161 -2.51808,3.085 -0.78511,1.0689 -1.51378,2.1777 -2.18115,3.3237 -0.66738,1.1461 -1.27244,2.3302 -1.81055,3.5479 -0.53812,1.2178 -1.00895,2.469 -1.40626,3.753 -0.31673,0.5121 -0.45808,1.2222 -0.54493,1.9687 -0.0868,0.7467 -0.11913,1.5303 -0.21973,2.193 -0.10059,0.6624 -0.26896,1.2034 -0.62694,1.4634 -0.17901,0.1299 -0.40532,0.19 -0.69434,0.1596 -0.28902,-0.031 -0.64131,-0.1515 -1.07081,-0.3824 -1.36056,0.2051 -2.66303,0.6731 -3.88331,1.3361 -1.22028,0.6627 -2.35803,1.5205 -3.38965,2.5062 -1.03165,0.9857 -1.95638,2.0989 -2.751,3.2725 -0.79462,1.1736 -1.4595,2.4078 -1.96875,3.6343 -0.061,0.6113 0.004,1.1486 0.16552,1.623 0.16184,0.4744 0.42053,0.8859 0.75147,1.2466 0.33094,0.3608 0.73432,0.6702 1.18067,0.9404 0.44635,0.2703 0.93628,0.5016 1.44434,0.7047 1.01614,0.4063 2.10165,0.7008 3.04249,0.9786 0.94084,0.2776 1.73637,0.5388 2.17238,0.8745 -0.70696,0.6517 -1.4725,1.5459 -2.13869,2.5503 -0.66619,1.0042 -1.23235,2.1193 -1.53662,3.2108 -0.15214,0.5459 -0.23881,1.0847 -0.24024,1.6025 -7.5e-4,0.5179 0.0831,1.014 0.27246,1.4709 0.1894,0.4566 0.48342,0.8739 0.9038,1.2363 0.42042,0.3623 0.96669,0.6703 1.65823,0.9052 1.18588,0.2947 2.55097,0.6573 3.97998,0.9537 1.42903,0.2964 2.92173,0.5266 4.36232,0.5551 0.72031,0.014 1.42814,-0.023 2.10792,-0.126 0.67978,-0.1033 1.33208,-0.2728 1.9424,-0.5272 0.6103,-0.2544 1.17854,-0.5936 1.69043,-1.0329 0.51188,-0.4393 0.96752,-0.9784 1.35206,-1.6362 0.97664,1.0148 2.00469,1.951 3.07765,2.811 1.07294,0.8601 2.19003,1.6435 3.3457,2.3526 1.15568,0.7092 2.3494,1.344 3.57423,1.9059 1.22482,0.5617 2.48133,1.0509 3.76174,1.4691 1.28039,0.4183 2.58436,0.766 3.90675,1.0444 1.32238,0.2785 2.66289,0.4875 4.01368,0.63 1.3508,0.1423 2.7125,0.2169 4.07814,0.2271 1.36563,0.01 2.73469,-0.044 4.10157,-0.1626 2.73379,-0.2373 5.45647,-0.7283 8.11381,-1.4577 2.65732,-0.7294 5.24896,-1.6981 7.72121,-2.89 8.80646,-5.0092 12.83857,-9.9714 11.50346,-15.6314 -0.4656,-1.0605 -1.11168,-2.0814 -1.90871,-3.006 -0.79704,-0.9243 -1.74518,-1.7529 -2.8125,-2.4286 -1.06733,-0.6759 -2.25382,-1.1984 -3.53028,-1.5132 -1.27648,-0.3149 -2.64197,-0.4209 -4.06643,-0.2622 -0.71223,0.079 -1.439,0.2236 -2.17676,0.4423 -0.73777,0.2187 -1.48703,0.5111 -2.24268,0.8834 -0.5608,0.5721 -1.17697,1.0962 -1.83546,1.5673 -0.6585,0.4711 -1.35868,0.889 -2.09034,1.248 -0.73167,0.3591 -1.49461,0.6591 -2.2749,0.8952 -0.78031,0.2358 -1.57889,0.408 -2.38332,0.5097 -0.80442,0.1017 -1.61446,0.1344 -2.41847,0.091 -0.80401,-0.043 -1.60131,-0.1634 -2.38038,-0.3633 -0.77906,-0.1998 -1.53944,-0.4808 -2.26905,-0.8481 -0.72961,-0.3672 -1.42887,-0.8208 -2.08447,-1.3667 -0.63006,-0.4079 -1.19689,-0.8582 -1.70363,-1.3448 -0.50673,-0.4865 -0.95318,-1.0086 -1.34179,-1.56 -0.77722,-1.1028 -1.32384,-2.322 -1.65968,-3.6021 -0.33583,-1.2802 -0.46102,-2.6221 -0.39697,-3.9697 0.0641,-1.3476 0.31734,-2.7009 0.73975,-4.0064 0.4224,-1.3052 1.01416,-2.563 1.75342,-3.7163 0.73925,-1.1532 1.62652,-2.2023 2.64113,-3.0936 1.01458,-0.8916 2.15588,-1.6248 3.40431,-2.1447 0.6242,-0.2599 1.27482,-0.466 1.94971,-0.6123 0.67488,-0.1464 1.37437,-0.2328 2.09474,-0.252 0.19572,-0.011 0.38926,-0.015 0.58153,-0.012 0.72105,0.014 1.41757,0.1313 2.09327,0.3252 0.67571,0.194 1.33055,0.4644 1.96584,0.7837 1.27055,0.6386 2.4652,1.4732 3.60352,2.2853 0.76496,0.2229 1.45097,0.5563 2.05812,0.9769 0.60713,0.4208 1.13474,0.929 1.58202,1.5015 0.44728,0.5726 0.81472,1.2095 1.10011,1.8882 0.28539,0.6788 0.48937,1.3992 0.61084,2.1387 0.39583,0.7333 0.84212,1.7905 1.37549,3.3399 0.58222,0.6633 1.291,1.2483 2.08302,1.7886 0.79201,0.5401 1.667,1.0353 2.58252,1.5189 1.83107,0.9674 3.82343,1.8886 5.63089,3.0295 0.90371,0.5703 1.76138,1.1949 2.52979,1.9086 0.7684,0.7137 1.44685,1.5168 1.99365,2.4405 0.54681,0.9235 0.96226,1.9682 1.20118,3.1684 0.21963,1.1032 0.24525,2.3766 0.13476,3.7675 4.6e-4,2e-4 0.002,0 0.003,0 0.002,0 -0.005,0.021 -0.003,0.022 -0.009,0.1153 0.0236,0.1945 0.0117,0.312 0,0 -0.59205,4.7411 -3.7295,8.2061 -1.08656,1.558 -2.2436,3.0723 -3.53908,4.4985 -1.55354,1.7104 -3.20129,3.3595 -4.80763,5.0302 -1.60633,1.671 -3.17091,3.3642 -4.56008,5.1592 1.50587,0.11 3.04291,0.1361 4.58939,0.075 1.54646,-0.061 3.1018,-0.2112 4.64502,-0.4527 1.54325,-0.2413 3.07414,-0.5742 4.57033,-1.0048 1.49618,-0.4305 2.95846,-0.9576 4.36377,-1.5864 1.40533,-0.6288 2.75333,-1.3598 4.02395,-2.1959 1.27063,-0.8361 2.46309,-1.7776 3.55519,-2.83 1.0921,-1.0524 2.08484,-2.2159 2.95461,-3.4936 0.86975,-1.2779 1.61711,-2.67 2.2207,-4.1823 0.4243,-0.9697 0.7981,-2.0116 1.11182,-3.0996 0.31373,-1.0879 0.56732,-2.2219 0.74707,-3.3778 0.17976,-1.156 0.28667,-2.3334 0.30909,-3.507 0.0224,-1.1734 -0.0394,-2.3439 -0.19776,-3.4849 -0.15829,-1.1409 -0.41399,-2.2524 -0.77636,-3.3105 -0.36238,-1.0581 -0.83254,-2.0617 -1.42237,-2.9869 -0.58985,-0.9249 -1.298,-1.7718 -2.13868,-2.5135 -0.84069,-0.7418 -1.81333,-1.3785 -2.92824,-1.8867 -0.44424,-0.2036 -0.95528,-0.273 -1.44873,-0.3077 -0.49346,-0.034 -0.9696,-0.035 -1.34326,-0.1026 -0.37368,-0.068 -0.64459,-0.1998 -0.72951,-0.501 -0.0849,-0.301 0.0168,-0.7693 0.38966,-1.5058 -0.12293,-0.497 -0.13919,-0.9162 -0.0688,-1.2714 0.0703,-0.3554 0.22671,-0.6468 0.44971,-0.8907 0.44604,-0.488 1.15708,-0.7841 1.97023,-1.0093 0.81314,-0.2252 1.72849,-0.3803 2.58398,-0.5859 0.85551,-0.2057 1.65056,-0.4628 2.22365,-0.8921 1.35386,-0.4632 2.86111,-1.0231 4.34181,-1.7124 1.4807,-0.6892 2.93481,-1.5079 4.18508,-2.4874 0.62512,-0.4896 1.20014,-1.0194 1.70069,-1.5937 0.50053,-0.5742 0.92702,-1.1921 1.25829,-1.8588 0.33129,-0.6669 0.56673,-1.3817 0.68409,-2.1491 0.11736,-0.7672 0.11631,-1.5879 -0.0249,-2.4637 -0.20613,-0.9281 -0.52641,-1.7337 -0.94043,-2.4303 -0.41403,-0.6966 -0.92148,-1.2843 -1.50148,-1.7725 -0.58,-0.4881 -1.23245,-0.8778 -1.93652,-1.1807 -0.70408,-0.3027 -1.45937,-0.5188 -2.24562,-0.6591 -0.78625,-0.1402 -1.60368,-0.2044 -2.43018,-0.205 -0.82651,0 -1.66246,0.063 -2.48731,0.1786 -1.64972,0.2321 -3.25483,0.674 -4.6465,1.235 -1.52752,0.4027 -3.08808,0.9901 -4.62599,1.5526 -1.53791,0.5625 -3.05233,1.101 -4.48537,1.4063 -0.17204,-0.4665 -0.53133,-0.8763 -0.92578,-1.248 -0.39447,-0.3719 -0.82444,-0.7065 -1.13674,-1.0239 -0.31227,-0.3176 -0.50661,-0.618 -0.43212,-0.9215 0.0745,-0.3034 0.41773,-0.6091 1.1836,-0.939 0.71852,-0.8377 1.25983,-1.7218 1.64502,-2.6367 0.3852,-0.9148 0.61407,-1.8611 0.70899,-2.8213 0.0949,-0.9601 0.0557,-1.9341 -0.0967,-2.9077 -0.15232,-0.9735 -0.41691,-1.9467 -0.77344,-2.9019 -0.35652,-0.9552 -0.80506,-1.8928 -1.32275,-2.7978 -0.51769,-0.9051 -1.10443,-1.777 -1.74025,-2.6001 -0.63581,-0.823 -1.32086,-1.5964 -2.03175,-2.3057 -0.71086,-0.7094 -1.44848,-1.3551 -2.19141,-1.919 -1.53209,-1.2657 -3.21214,-2.3245 -4.98926,-3.1684 -1.77712,-0.8439 -3.65074,-1.4721 -5.57229,-1.8765 -1.92156,-0.4044 -3.88961,-0.5845 -5.855,-0.5317 z"
       style="fill:none;fill-opacity:1;stroke:#0000ff;stroke-width:0.75000244;stroke-miterlimit:4;stroke-dasharray:none;stroke-opacity:1" />
    <path
       inkscape:connector-curvature="0"
       id="path1934"
       d="m 362.05315,1401.8515 6.71165,-3.8749 6.71163,3.8749 v 7.75 l -6.71163,3.8748 -6.71165,-3.8748 z"
       style="fill:none;fill-opacity:1;stroke:#ff0000;stroke-width:0.75000244;stroke-miterlimit:4;stroke-dasharray:none;stroke-opacity:1" />
    <path
       inkscape:connector-curvature="0"
       id="path1932"
       d="m 454.73226,1322.9004 6.71163,-3.8749 6.71165,3.8749 v 7.7499 l -6.71165,3.875 -6.71163,-3.875 z"
       style="fill:none;fill-opacity:1;stroke:#ff0000;stroke-width:0.75000244;stroke-miterlimit:4;stroke-dasharray:none;stroke-opacity:1" />
    <path
       inkscape:connector-curvature="0"
       id="path1625-8-7-4"
       d="m 578.51482,1356.5171 6.71165,-3.875 6.71163,3.875 v 7.7499 l -6.71163,3.8751 -6.71165,-3.8751 z"
       style="fill:none;fill-opacity:1;stroke:#ff0000;stroke-width:0.75000244;stroke-miterlimit:4;stroke-dasharray:none;stroke-opacity:1" />
  </g>
</svg>
