  0
SECTION
  2
HEADER
  9
$ACADVER
  1
AC1014
  9
$HANDSEED
  5
FFFF
  9
$MEASUREMENT
 70
     1
  0
ENDSEC
  0
SECTION
  2
TABLES
  0
TABLE
  2
VPORT
  5
8
330
0
100
AcDbSymbolTable
 70
     4
  0
VPORT
  5
2E
330
8
100
AcDbSymbolTableRecord
100
AcDbViewportTableRecord
  2
*ACTIVE
 70
     0
 10
0.0
 20
0.0
 11
1.0
 21
1.0
 12
210.0
 22
148.5
 13
0.0
 23
0.0
 14
10.0
 24
10.0
 15
10.0
 25
10.0
 16
0.0
 26
0.0
 36
1.0
 17
0.0
 27
0.0
 37
0.0
 40
341.0
 41
1.24
 42
50.0
 43
0.0
 44
0.0
 50
0.0
 51
0.0
 71
     0
 72
   100
 73
     1
 74
     3
 75
     0
 76
     0
 77
     0
 78
     0
  0
ENDTAB
  0
TABLE
  2
LTYPE
  5
5
330
0
100
AcDbSymbolTable
 70
     1
  0
LTYPE
  5
14
330
5
100
AcDbSymbolTableRecord
100
AcDbLinetypeTableRecord
  2
BYBLOCK
 70
     0
  3

 72
    65
 73
     0
 40
0.0
  0
LTYPE
  5
15
330
5
100
AcDbSymbolTableRecord
100
AcDbLinetypeTableRecord
  2
BYLAYER
 70
     0
  3

 72
    65
 73
     0
 40
0.0
  0
LTYPE
  5
16
330
5
100
AcDbSymbolTableRecord
100
AcDbLinetypeTableRecord
  2
CONTINUOUS
 70
     0
  3
Solid line
 72
    65
 73
     0
 40
0.0
  0
ENDTAB
  0
TABLE
  2
LAYER
  5
2
100
AcDbSymbolTable
 70
1
  0
LAYER
  5
50
100
AcDbSymbolTableRecord
100
AcDbLayerTableRecord
  2
0
 70
0
  6
CONTINUOUS
  0
ENDTAB
  0
TABLE
  2
STYLE
  5
3
330
0
100
AcDbSymbolTable
 70
     1
  0
STYLE
  5
11
330
3
100
AcDbSymbolTableRecord
100
AcDbTextStyleTableRecord
  2
STANDARD
 70
     0
 40
0.0
 41
1.0
 50
0.0
 71
     0
 42
2.5
  3
txt
  4

  0
ENDTAB
  0
TABLE
  2
VIEW
  5
6
330
0
100
AcDbSymbolTable
 70
     0
  0
ENDTAB
  0
TABLE
  2
UCS
  5
7
330
0
100
AcDbSymbolTable
 70
     0
  0
ENDTAB
  0
TABLE
  2
APPID
  5
9
330
0
100
AcDbSymbolTable
 70
     2
  0
APPID
  5
12
330
9
100
AcDbSymbolTableRecord
100
AcDbRegAppTableRecord
  2
ACAD
 70
     0
  0
ENDTAB
  0
TABLE
  2
DIMSTYLE
  5
A
330
0
100
AcDbSymbolTable
 70
     1
  0
DIMSTYLE
105
27
330
A
100
AcDbSymbolTableRecord
100
AcDbDimStyleTableRecord
  2
ISO-25
 70
     0
  3

  4

  5

  6

  7

 40
1.0
 41
2.5
 42
0.625
 43
3.75
 44
1.25
 45
0.0
 46
0.0
 47
0.0
 48
0.0
140
2.5
141
2.5
142
0.0
143
0.03937007874016
144
1.0
145
0.0
146
1.0
147
0.625
 71
     0
 72
     0
 73
     0
 74
     0
 75
     0
 76
     0
 77
     1
 78
     8
170
     0
171
     3
172
     1
173
     0
174
     0
175
     0
176
     0
177
     0
178
     0
270
     2
271
     2
272
     2
273
     2
274
     3
340
11
275
     0
280
     0
281
     0
282
     0
283
     0
284
     8
285
     0
286
     0
287
     3
288
     0
  0
ENDTAB
  0
TABLE
  2
BLOCK_RECORD
  5
1
330
0
100
AcDbSymbolTable
 70
     1
  0
BLOCK_RECORD
  5
1F
330
1
100
AcDbSymbolTableRecord
100
AcDbBlockTableRecord
  2
*MODEL_SPACE
  0
BLOCK_RECORD
  5
1B
330
1
100
AcDbSymbolTableRecord
100
AcDbBlockTableRecord
  2
*PAPER_SPACE
  0
ENDTAB
  0
ENDSEC
  0
SECTION
  2
BLOCKS
  0
BLOCK
  5
20
330
1F
100
AcDbEntity
  8
0
100
AcDbBlockBegin
  2
*MODEL_SPACE
 70
     0
 10
0.0
 20
0.0
 30
0.0
  3
*MODEL_SPACE
  1

  0
ENDBLK
  5
21
330
1F
100
AcDbEntity
  8
0
100
AcDbBlockEnd
  0
BLOCK
  5
1C
330
1B
100
AcDbEntity
 67
     1
  8
0
100
AcDbBlockBegin
  2
*PAPER_SPACE
  1

  0
ENDBLK
  5
1D
330
1B
100
AcDbEntity
 67
     1
  8
0
100
AcDbBlockEnd
  0
ENDSEC
  0
SECTION
  2
ENTITIES
  0
SPLINE
  5
100
100
AcDbEntity
  8
0
 62
3
100
AcDbSpline
 70
8
 71
3
 72
8
 73
4
 74
0
 40
0
 40
0
 40
0
 40
0
 40
1
 40
1
 40
1
 40
1
 10
0.147294
 20
41.534358
 30
0.0
 10
3.831257
 20
42.450874
 30
0.0
 10
7.431394
 20
43.750825
 30
0.0
 10
10.855203
 20
45.238789
 30
0.0
  0
SPLINE
  5
101
100
AcDbEntity
  8
0
 62
3
100
AcDbSpline
 70
8
 71
3
 72
8
 73
4
 74
0
 40
0
 40
0
 40
0
 40
0
 40
1
 40
1
 40
1
 40
1
 10
10.855203
 20
45.238789
 30
0.0
 10
13.698826
 20
46.563531
 30
0.0
 10
16.530902
 20
48.035937
 30
0.0
 10
19.170227
 20
49.775361
 30
0.0
  0
SPLINE
  5
102
100
AcDbEntity
  8
0
 62
3
100
AcDbSpline
 70
8
 71
3
 72
8
 73
4
 74
0
 40
0
 40
0
 40
0
 40
0
 40
1
 40
1
 40
1
 40
1
 10
19.170227
 20
49.775361
 30
0.0
 10
21.031451
 20
47.669754
 30
0.0
 10
23.807076
 20
46.419677
 30
0.0
 10
26.638398
 20
47.172020
 30
0.0
  0
SPLINE
  5
103
100
AcDbEntity
  8
0
 62
3
100
AcDbSpline
 70
8
 71
3
 72
8
 73
4
 74
0
 40
0
 40
0
 40
0
 40
0
 40
1
 40
1
 40
1
 40
1
 10
26.638398
 20
47.172020
 30
0.0
 10
31.082964
 20
48.456440
 30
0.0
 10
32.872781
 20
54.060262
 30
0.0
 10
31.188525
 20
58.097724
 30
0.0
  0
SPLINE
  5
104
100
AcDbEntity
  8
0
 62
3
100
AcDbSpline
 70
8
 71
3
 72
8
 73
4
 74
0
 40
0
 40
0
 40
0
 40
0
 40
1
 40
1
 40
1
 40
1
 10
31.188525
 20
58.097724
 30
0.0
 10
30.842040
 20
59.086763
 30
0.0
 10
30.315178
 20
60.035268
 30
0.0
 10
29.648690
 20
60.871219
 30
0.0
  0
SPLINE
  5
105
100
AcDbEntity
  8
0
 62
3
100
AcDbSpline
 70
8
 71
3
 72
8
 73
4
 74
0
 40
0
 40
0
 40
0
 40
0
 40
1
 40
1
 40
1
 40
1
 10
29.648690
 20
60.871219
 30
0.0
 10
32.136493
 20
64.312019
 30
0.0
 10
34.911075
 20
67.523770
 30
0.0
 10
38.790023
 20
69.438956
 30
0.0
  0
SPLINE
  5
106
100
AcDbEntity
  8
0
 62
3
100
AcDbSpline
 70
8
 71
3
 72
8
 73
4
 74
0
 40
0
 40
0
 40
0
 40
0
 40
1
 40
1
 40
1
 40
1
 10
38.790023
 20
69.438956
 30
0.0
 10
38.888696
 20
69.494598
 30
0.0
 10
38.988746
 20
69.547594
 30
0.0
 10
39.088457
 20
69.601331
 30
0.0
  0
SPLINE
  5
107
100
AcDbEntity
  8
0
 62
3
100
AcDbSpline
 70
8
 71
3
 72
8
 73
4
 74
0
 40
0
 40
0
 40
0
 40
0
 40
1
 40
1
 40
1
 40
1
 10
39.088457
 20
69.601331
 30
0.0
 10
40.465235
 20
66.336399
 30
0.0
 10
43.971046
 20
63.845823
 30
0.0
 10
47.549596
 20
64.882620
 30
0.0
  0
SPLINE
  5
108
100
AcDbEntity
  8
0
 62
3
100
AcDbSpline
 70
8
 71
3
 72
8
 73
4
 74
0
 40
0
 40
0
 40
0
 40
0
 40
1
 40
1
 40
1
 40
1
 10
47.549596
 20
64.882620
 30
0.0
 10
50.275043
 20
65.700473
 30
0.0
 10
52.088582
 20
67.984727
 30
0.0
 10
52.827584
 20
70.617543
 30
0.0
  0
SPLINE
  5
109
100
AcDbEntity
  8
0
 62
3
100
AcDbSpline
 70
8
 71
3
 72
8
 73
4
 74
0
 40
0
 40
0
 40
0
 40
0
 40
1
 40
1
 40
1
 40
1
 10
52.827584
 20
70.617543
 30
0.0
 10
53.521279
 20
70.330999
 30
0.0
 10
54.198210
 20
69.987464
 30
0.0
 10
54.851112
 20
69.580032
 30
0.0
  0
SPLINE
  5
10a
100
AcDbEntity
  8
0
 62
3
100
AcDbSpline
 70
8
 71
3
 72
8
 73
4
 74
0
 40
0
 40
0
 40
0
 40
0
 40
1
 40
1
 40
1
 40
1
 10
54.851112
 20
69.580032
 30
0.0
 10
61.177731
 20
66.103725
 30
0.0
 10
66.578348
 20
60.207617
 30
0.0
 10
74.094959
 20
59.380212
 30
0.0
  0
SPLINE
  5
10b
100
AcDbEntity
  8
0
 62
3
100
AcDbSpline
 70
8
 71
3
 72
8
 73
4
 74
0
 40
0
 40
0
 40
0
 40
0
 40
1
 40
1
 40
1
 40
1
 10
74.094959
 20
59.380212
 30
0.0
 10
74.717391
 20
59.304250
 30
0.0
 10
75.332659
 20
59.272342
 30
0.0
 10
75.941753
 20
59.276734
 30
0.0
  0
SPLINE
  5
10c
100
AcDbEntity
  8
0
 62
3
100
AcDbSpline
 70
8
 71
3
 72
8
 73
4
 74
0
 40
0
 40
0
 40
0
 40
0
 40
1
 40
1
 40
1
 40
1
 10
75.941753
 20
59.276734
 30
0.0
 10
77.143454
 20
55.575742
 30
0.0
 10
80.958838
 20
52.541527
 30
0.0
 10
84.927670
 20
53.580943
 30
0.0
  0
SPLINE
  5
10d
100
AcDbEntity
  8
0
 62
3
100
AcDbSpline
 70
8
 71
3
 72
8
 73
4
 74
0
 40
0
 40
0
 40
0
 40
0
 40
1
 40
1
 40
1
 40
1
 10
84.927670
 20
53.580943
 30
0.0
 10
89.002820
 20
54.727065
 30
0.0
 10
90.971153
 20
59.398204
 30
0.0
 10
90.178141
 20
63.359837
 30
0.0
  0
SPLINE
  5
10e
100
AcDbEntity
  8
0
 62
3
100
AcDbSpline
 70
8
 71
3
 72
8
 73
4
 74
0
 40
0
 40
0
 40
0
 40
0
 40
1
 40
1
 40
1
 40
1
 10
90.178141
 20
63.359837
 30
0.0
 10
90.961734
 20
63.617409
 30
0.0
 10
91.749298
 20
63.849686
 30
0.0
 10
92.543508
 20
64.038466
 30
0.0
  0
SPLINE
  5
10f
100
AcDbEntity
  8
0
 62
3
100
AcDbSpline
 70
8
 71
3
 72
8
 73
4
 74
0
 40
0
 40
0
 40
0
 40
0
 40
1
 40
1
 40
1
 40
1
 10
92.543508
 20
64.038466
 30
0.0
 10
100.344481
 20
66.340050
 30
0.0
 10
108.265934
 20
68.439493
 30
0.0
 10
115.827821
 20
71.452409
 30
0.0
  0
SPLINE
  5
110
100
AcDbEntity
  8
0
 62
3
100
AcDbSpline
 70
8
 71
3
 72
8
 73
4
 74
0
 40
0
 40
0
 40
0
 40
0
 40
1
 40
1
 40
1
 40
1
 10
115.985166
 20
73.966030
 30
0.0
 10
109.854791
 20
71.528371
 30
0.0
 10
103.500608
 20
69.583525
 30
0.0
 10
97.226173
 20
67.785760
 30
0.0
  0
SPLINE
  5
111
100
AcDbEntity
  8
0
 62
3
100
AcDbSpline
 70
8
 71
3
 72
8
 73
4
 74
0
 40
0
 40
0
 40
0
 40
0
 40
1
 40
1
 40
1
 40
1
 10
97.226173
 20
67.785760
 30
0.0
 10
94.581813
 20
67.290698
 30
0.0
 10
92.041398
 20
66.387014
 30
0.0
 10
89.518479
 20
65.422343
 30
0.0
  0
SPLINE
  5
112
100
AcDbEntity
  8
0
 62
3
100
AcDbSpline
 70
8
 71
3
 72
8
 73
4
 74
0
 40
0
 40
0
 40
0
 40
0
 40
1
 40
1
 40
1
 40
1
 10
89.518479
 20
65.422343
 30
0.0
 10
88.688561
 20
67.366210
 30
0.0
 10
87.136396
 20
69.059570
 30
0.0
 10
85.221053
 20
69.913936
 30
0.0
  0
SPLINE
  5
113
100
AcDbEntity
  8
0
 62
3
100
AcDbSpline
 70
8
 71
3
 72
8
 73
4
 74
0
 40
0
 40
0
 40
0
 40
0
 40
1
 40
1
 40
1
 40
1
 10
85.221053
 20
69.913936
 30
0.0
 10
85.479673
 20
69.990480
 30
0.0
 10
85.745709
 20
70.047207
 30
0.0
 10
85.996587
 20
70.141848
 30
0.0
  0
SPLINE
  5
114
100
AcDbEntity
  8
0
 62
3
100
AcDbSpline
 70
8
 71
3
 72
8
 73
4
 74
0
 40
0
 40
0
 40
0
 40
0
 40
1
 40
1
 40
1
 40
1
 10
85.996587
 20
70.141848
 30
0.0
 10
86.513805
 20
70.336899
 30
0.0
 10
87.012566
 20
70.570711
 30
0.0
 10
87.484101
 20
70.844899
 30
0.0
  0
SPLINE
  5
115
100
AcDbEntity
  8
0
 62
3
100
AcDbSpline
 70
8
 71
3
 72
8
 73
4
 74
0
 40
0
 40
0
 40
0
 40
0
 40
1
 40
1
 40
1
 40
1
 10
87.484101
 20
70.844899
 30
0.0
 10
87.955636
 20
71.119113
 30
0.0
 10
88.399811
 20
71.433465
 30
0.0
 10
88.808444
 20
71.789806
 30
0.0
  0
SPLINE
  5
116
100
AcDbEntity
  8
0
 62
3
100
AcDbSpline
 70
8
 71
3
 72
8
 73
4
 74
0
 40
0
 40
0
 40
0
 40
0
 40
1
 40
1
 40
1
 40
1
 10
88.808444
 20
71.789806
 30
0.0
 10
89.217071
 20
72.146120
 30
0.0
 10
89.589959
 20
72.544397
 30
0.0
 10
89.918455
 20
72.985855
 30
0.0
  0
SPLINE
  5
117
100
AcDbEntity
  8
0
 62
3
100
AcDbSpline
 70
8
 71
3
 72
8
 73
4
 74
0
 40
0
 40
0
 40
0
 40
0
 40
1
 40
1
 40
1
 40
1
 10
89.918455
 20
72.985855
 30
0.0
 10
90.246949
 20
73.427285
 30
0.0
 10
90.531077
 20
73.912029
 30
0.0
 10
90.762206
 20
74.441592
 30
0.0
  0
SPLINE
  5
118
100
AcDbEntity
  8
0
 62
3
100
AcDbSpline
 70
8
 71
3
 72
8
 73
4
 74
0
 40
0
 40
0
 40
0
 40
0
 40
1
 40
1
 40
1
 40
1
 10
90.762206
 20
74.441592
 30
0.0
 10
90.901462
 20
74.742794
 30
0.0
 10
91.023276
 20
75.056325
 30
0.0
 10
91.125749
 20
75.377979
 30
0.0
  0
SPLINE
  5
119
100
AcDbEntity
  8
0
 62
3
100
AcDbSpline
 70
8
 71
3
 72
8
 73
4
 74
0
 40
0
 40
0
 40
0
 40
0
 40
1
 40
1
 40
1
 40
1
 10
91.125749
 20
75.377979
 30
0.0
 10
91.228222
 20
75.699659
 30
0.0
 10
91.311378
 20
76.029410
 30
0.0
 10
91.374185
 20
76.363975
 30
0.0
  0
SPLINE
  5
11a
100
AcDbEntity
  8
0
 62
3
100
AcDbSpline
 70
8
 71
3
 72
8
 73
4
 74
0
 40
0
 40
0
 40
0
 40
0
 40
1
 40
1
 40
1
 40
1
 10
91.374185
 20
76.363975
 30
0.0
 10
91.436997
 20
76.698541
 30
0.0
 10
91.479105
 20
77.037948
 30
0.0
 10
91.499373
 20
77.377859
 30
0.0
  0
SPLINE
  5
11b
100
AcDbEntity
  8
0
 62
3
100
AcDbSpline
 70
8
 71
3
 72
8
 73
4
 74
0
 40
0
 40
0
 40
0
 40
0
 40
1
 40
1
 40
1
 40
1
 10
91.499373
 20
77.377859
 30
0.0
 10
91.519666
 20
77.717795
 30
0.0
 10
91.518317
 20
78.058261
 30
0.0
 10
91.493181
 20
78.396002
 30
0.0
  0
SPLINE
  5
11c
100
AcDbEntity
  8
0
 62
3
100
AcDbSpline
 70
8
 71
3
 72
8
 73
4
 74
0
 40
0
 40
0
 40
0
 40
0
 40
1
 40
1
 40
1
 40
1
 10
91.493181
 20
78.396002
 30
0.0
 10
91.468046
 20
78.733716
 30
0.0
 10
91.419320
 20
79.068758
 30
0.0
 10
91.345904
 20
79.396735
 30
0.0
  0
SPLINE
  5
11d
100
AcDbEntity
  8
0
 62
3
100
AcDbSpline
 70
8
 71
3
 72
8
 73
4
 74
0
 40
0
 40
0
 40
0
 40
0
 40
1
 40
1
 40
1
 40
1
 10
91.345904
 20
79.396735
 30
0.0
 10
91.272484
 20
79.724739
 30
0.0
 10
91.174372
 20
80.045679
 30
0.0
 10
91.049795
 20
80.356353
 30
0.0
  0
SPLINE
  5
11e
100
AcDbEntity
  8
0
 62
3
100
AcDbSpline
 70
8
 71
3
 72
8
 73
4
 74
0
 40
0
 40
0
 40
0
 40
0
 40
1
 40
1
 40
1
 40
1
 10
91.049795
 20
80.356353
 30
0.0
 10
90.925216
 20
80.667053
 30
0.0
 10
90.774171
 20
80.967381
 30
0.0
 10
90.595558
 20
81.253211
 30
0.0
  0
SPLINE
  5
11f
100
AcDbEntity
  8
0
 62
3
100
AcDbSpline
 70
8
 71
3
 72
8
 73
4
 74
0
 40
0
 40
0
 40
0
 40
0
 40
1
 40
1
 40
1
 40
1
 10
90.595558
 20
81.253211
 30
0.0
 10
90.416944
 20
81.539066
 30
0.0
 10
90.210574
 20
81.810582
 30
0.0
 10
89.975050
 20
82.064026
 30
0.0
  0
SPLINE
  5
120
100
AcDbEntity
  8
0
 62
3
100
AcDbSpline
 70
8
 71
3
 72
8
 73
4
 74
0
 40
0
 40
0
 40
0
 40
0
 40
1
 40
1
 40
1
 40
1
 10
89.975050
 20
82.064026
 30
0.0
 10
90.247729
 20
82.152371
 30
0.0
 10
90.523100
 20
82.263258
 30
0.0
 10
90.794385
 20
82.394226
 30
0.0
  0
SPLINE
  5
121
100
AcDbEntity
  8
0
 62
3
100
AcDbSpline
 70
8
 71
3
 72
8
 73
4
 74
0
 40
0
 40
0
 40
0
 40
0
 40
1
 40
1
 40
1
 40
1
 10
90.794385
 20
82.394226
 30
0.0
 10
91.065670
 20
82.525221
 30
0.0
 10
91.332831
 20
82.676325
 30
0.0
 10
91.589685
 20
82.845738
 30
0.0
  0
SPLINE
  5
122
100
AcDbEntity
  8
0
 62
3
100
AcDbSpline
 70
8
 71
3
 72
8
 73
4
 74
0
 40
0
 40
0
 40
0
 40
0
 40
1
 40
1
 40
1
 40
1
 10
91.589685
 20
82.845738
 30
0.0
 10
91.846546
 20
83.015203
 30
0.0
 10
92.092804
 20
83.202899
 30
0.0
 10
92.322203
 20
83.406575
 30
0.0
  0
SPLINE
  5
123
100
AcDbEntity
  8
0
 62
3
100
AcDbSpline
 70
8
 71
3
 72
8
 73
4
 74
0
 40
0
 40
0
 40
0
 40
0
 40
1
 40
1
 40
1
 40
1
 10
92.322203
 20
83.406575
 30
0.0
 10
92.551599
 20
83.610251
 30
0.0
 10
92.764277
 20
83.829803
 30
0.0
 10
92.953176
 20
84.063509
 30
0.0
  0
SPLINE
  5
124
100
AcDbEntity
  8
0
 62
3
100
AcDbSpline
 70
8
 71
3
 72
8
 73
4
 74
0
 40
0
 40
0
 40
0
 40
0
 40
1
 40
1
 40
1
 40
1
 10
92.953176
 20
84.063509
 30
0.0
 10
93.142075
 20
84.297268
 30
0.0
 10
93.307318
 20
84.544945
 30
0.0
 10
93.442679
 20
84.804554
 30
0.0
  0
SPLINE
  5
125
100
AcDbEntity
  8
0
 62
3
100
AcDbSpline
 70
8
 71
3
 72
8
 73
4
 74
0
 40
0
 40
0
 40
0
 40
0
 40
1
 40
1
 40
1
 40
1
 10
93.442679
 20
84.804554
 30
0.0
 10
93.578045
 20
85.064110
 30
0.0
 10
93.683558
 20
85.335705
 30
0.0
 10
93.752353
 20
85.616931
 30
0.0
  0
SPLINE
  5
126
100
AcDbEntity
  8
0
 62
3
100
AcDbSpline
 70
8
 71
3
 72
8
 73
4
 74
0
 40
0
 40
0
 40
0
 40
0
 40
1
 40
1
 40
1
 40
1
 10
93.752353
 20
85.616931
 30
0.0
 10
93.821155
 20
85.898183
 30
0.0
 10
93.853085
 20
86.189066
 30
0.0
 10
93.842269
 20
86.487780
 30
0.0
  0
SPLINE
  5
127
100
AcDbEntity
  8
0
 62
3
100
AcDbSpline
 70
8
 71
3
 72
8
 73
4
 74
0
 40
0
 40
0
 40
0
 40
0
 40
1
 40
1
 40
1
 40
1
 10
93.842269
 20
86.487780
 30
0.0
 10
93.831447
 20
86.786468
 30
0.0
 10
93.777909
 20
87.093173
 30
0.0
 10
93.674449
 20
87.405196
 30
0.0
  0
SPLINE
  5
128
100
AcDbEntity
  8
0
 62
3
100
AcDbSpline
 70
8
 71
3
 72
8
 73
4
 74
0
 40
0
 40
0
 40
0
 40
0
 40
1
 40
1
 40
1
 40
1
 10
93.674449
 20
87.405196
 30
0.0
 10
93.572563
 20
87.722458
 30
0.0
 10
93.430992
 20
88.008103
 30
0.0
 10
93.257420
 20
88.263637
 30
0.0
  0
SPLINE
  5
129
100
AcDbEntity
  8
0
 62
3
100
AcDbSpline
 70
8
 71
3
 72
8
 73
4
 74
0
 40
0
 40
0
 40
0
 40
0
 40
1
 40
1
 40
1
 40
1
 10
93.257420
 20
88.263637
 30
0.0
 10
93.083846
 20
88.519225
 30
0.0
 10
92.878272
 20
88.744623
 30
0.0
 10
92.647378
 20
88.940362
 30
0.0
  0
SPLINE
  5
12a
100
AcDbEntity
  8
0
 62
3
100
AcDbSpline
 70
8
 71
3
 72
8
 73
4
 74
0
 40
0
 40
0
 40
0
 40
0
 40
1
 40
1
 40
1
 40
1
 10
92.647378
 20
88.940362
 30
0.0
 10
92.416487
 20
89.136127
 30
0.0
 10
92.160413
 20
89.302497
 30
0.0
 10
91.886569
 20
89.440319
 30
0.0
  0
SPLINE
  5
12b
100
AcDbEntity
  8
0
 62
3
100
AcDbSpline
 70
8
 71
3
 72
8
 73
4
 74
0
 40
0
 40
0
 40
0
 40
0
 40
1
 40
1
 40
1
 40
1
 10
91.886569
 20
89.440319
 30
0.0
 10
91.612728
 20
89.578193
 30
0.0
 10
91.320826
 20
89.687598
 30
0.0
 10
91.018402
 20
89.769381
 30
0.0
  0
SPLINE
  5
12c
100
AcDbEntity
  8
0
 62
3
100
AcDbSpline
 70
8
 71
3
 72
8
 73
4
 74
0
 40
0
 40
0
 40
0
 40
0
 40
1
 40
1
 40
1
 40
1
 10
91.018402
 20
89.769381
 30
0.0
 10
90.715981
 20
89.851216
 30
0.0
 10
90.402918
 20
89.905271
 30
0.0
 10
90.086286
 20
89.932946
 30
0.0
  0
SPLINE
  5
12d
100
AcDbEntity
  8
0
 62
3
100
AcDbSpline
 70
8
 71
3
 72
8
 73
4
 74
0
 40
0
 40
0
 40
0
 40
0
 40
1
 40
1
 40
1
 40
1
 10
90.086286
 20
89.932946
 30
0.0
 10
89.769654
 20
89.960648
 30
0.0
 10
89.449717
 20
89.961733
 30
0.0
 10
89.133241
 20
89.937180
 30
0.0
  0
SPLINE
  5
12e
100
AcDbEntity
  8
0
 62
3
100
AcDbSpline
 70
8
 71
3
 72
8
 73
4
 74
0
 40
0
 40
0
 40
0
 40
0
 40
1
 40
1
 40
1
 40
1
 10
89.133241
 20
89.937180
 30
0.0
 10
88.816762
 20
89.912573
 30
0.0
 10
88.503847
 20
89.862488
 30
0.0
 10
88.201900
 20
89.787558
 30
0.0
  0
SPLINE
  5
12f
100
AcDbEntity
  8
0
 62
3
100
AcDbSpline
 70
8
 71
3
 72
8
 73
4
 74
0
 40
0
 40
0
 40
0
 40
0
 40
1
 40
1
 40
1
 40
1
 10
88.201900
 20
89.787558
 30
0.0
 10
87.899946
 20
89.712628
 30
0.0
 10
87.608728
 20
89.612959
 30
0.0
 10
87.335670
 20
89.489531
 30
0.0
  0
SPLINE
  5
130
100
AcDbEntity
  8
0
 62
3
100
AcDbSpline
 70
8
 71
3
 72
8
 73
4
 74
0
 40
0
 40
0
 40
0
 40
0
 40
1
 40
1
 40
1
 40
1
 10
87.335670
 20
89.489531
 30
0.0
 10
87.356677
 20
89.798723
 30
0.0
 10
87.354164
 20
90.101936
 30
0.0
 10
87.329849
 20
90.398401
 30
0.0
  0
SPLINE
  5
131
100
AcDbEntity
  8
0
 62
3
100
AcDbSpline
 70
8
 71
3
 72
8
 73
4
 74
0
 40
0
 40
0
 40
0
 40
0
 40
1
 40
1
 40
1
 40
1
 10
87.329849
 20
90.398401
 30
0.0
 10
87.305534
 20
90.694893
 30
0.0
 10
87.259512
 20
90.984639
 30
0.0
 10
87.193422
 20
91.266949
 30
0.0
  0
SPLINE
  5
132
100
AcDbEntity
  8
0
 62
3
100
AcDbSpline
 70
8
 71
3
 72
8
 73
4
 74
0
 40
0
 40
0
 40
0
 40
0
 40
1
 40
1
 40
1
 40
1
 10
87.193422
 20
91.266949
 30
0.0
 10
87.127334
 20
91.549259
 30
0.0
 10
87.041180
 20
91.823976
 30
0.0
 10
86.936847
 20
92.090544
 30
0.0
  0
SPLINE
  5
133
100
AcDbEntity
  8
0
 62
3
100
AcDbSpline
 70
8
 71
3
 72
8
 73
4
 74
0
 40
0
 40
0
 40
0
 40
0
 40
1
 40
1
 40
1
 40
1
 10
86.936847
 20
92.090544
 30
0.0
 10
86.832511
 20
92.357138
 30
0.0
 10
86.710015
 20
92.615610
 30
0.0
 10
86.570979
 20
92.864926
 30
0.0
  0
SPLINE
  5
134
100
AcDbEntity
  8
0
 62
3
100
AcDbSpline
 70
8
 71
3
 72
8
 73
4
 74
0
 40
0
 40
0
 40
0
 40
0
 40
1
 40
1
 40
1
 40
1
 10
86.570979
 20
92.864926
 30
0.0
 10
86.431938
 20
93.114270
 30
0.0
 10
86.276484
 20
93.354459
 30
0.0
 10
86.106275
 20
93.585043
 30
0.0
  0
SPLINE
  5
135
100
AcDbEntity
  8
0
 62
3
100
AcDbSpline
 70
8
 71
3
 72
8
 73
4
 74
0
 40
0
 40
0
 40
0
 40
0
 40
1
 40
1
 40
1
 40
1
 10
86.106275
 20
93.585043
 30
0.0
 10
85.936069
 20
93.815654
 30
0.0
 10
85.751043
 20
94.036687
 30
0.0
 10
85.553206
 20
94.247004
 30
0.0
  0
SPLINE
  5
136
100
AcDbEntity
  8
0
 62
3
100
AcDbSpline
 70
8
 71
3
 72
8
 73
4
 74
0
 40
0
 40
0
 40
0
 40
0
 40
1
 40
1
 40
1
 40
1
 10
85.553206
 20
94.247004
 30
0.0
 10
85.157538
 20
94.667665
 30
0.0
 10
84.710312
 20
95.046284
 30
0.0
 10
84.225376
 20
95.376801
 30
0.0
  0
SPLINE
  5
137
100
AcDbEntity
  8
0
 62
3
100
AcDbSpline
 70
8
 71
3
 72
8
 73
4
 74
0
 40
0
 40
0
 40
0
 40
0
 40
1
 40
1
 40
1
 40
1
 10
84.225376
 20
95.376801
 30
0.0
 10
83.740440
 20
95.707292
 30
0.0
 10
83.217861
 20
95.989576
 30
0.0
 10
82.671978
 20
96.217806
 30
0.0
  0
SPLINE
  5
138
100
AcDbEntity
  8
0
 62
3
100
AcDbSpline
 70
8
 71
3
 72
8
 73
4
 74
0
 40
0
 40
0
 40
0
 40
0
 40
1
 40
1
 40
1
 40
1
 10
82.671978
 20
96.217806
 30
0.0
 10
82.126095
 20
96.446062
 30
0.0
 10
81.556789
 20
96.620184
 30
0.0
 10
80.978277
 20
96.734061
 30
0.0
  0
SPLINE
  5
139
100
AcDbEntity
  8
0
 62
3
100
AcDbSpline
 70
8
 71
3
 72
8
 73
4
 74
0
 40
0
 40
0
 40
0
 40
0
 40
1
 40
1
 40
1
 40
1
 10
80.978277
 20
96.734061
 30
0.0
 10
80.399768
 20
96.847911
 30
0.0
 10
79.811970
 20
96.901410
 30
0.0
 10
79.229154
 20
96.888710
 30
0.0
  0
SPLINE
  5
13a
100
AcDbEntity
  8
0
 62
3
100
AcDbSpline
 70
8
 71
3
 72
8
 73
4
 74
0
 40
0
 40
0
 40
0
 40
0
 40
1
 40
1
 40
1
 40
1
 10
79.229154
 20
96.888710
 30
0.0
 10
78.937747
 20
96.882360
 30
0.0
 10
78.647774
 20
96.859553
 30
0.0
 10
78.360601
 20
96.819336
 30
0.0
  0
SPLINE
  5
13b
100
AcDbEntity
  8
0
 62
3
100
AcDbSpline
 70
8
 71
3
 72
8
 73
4
 74
0
 40
0
 40
0
 40
0
 40
0
 40
1
 40
1
 40
1
 40
1
 10
78.360601
 20
96.819336
 30
0.0
 10
78.073422
 20
96.779119
 30
0.0
 10
77.789278
 20
96.721731
 30
0.0
 10
77.509873
 20
96.646087
 30
0.0
  0
SPLINE
  5
13c
100
AcDbEntity
  8
0
 62
3
100
AcDbSpline
 70
8
 71
3
 72
8
 73
4
 74
0
 40
0
 40
0
 40
0
 40
0
 40
1
 40
1
 40
1
 40
1
 10
77.509873
 20
96.646087
 30
0.0
 10
77.365704
 20
96.606929
 30
0.0
 10
77.222567
 20
96.563722
 30
0.0
 10
77.081216
 20
96.514695
 30
0.0
  0
SPLINE
  5
13d
100
AcDbEntity
  8
0
 62
3
100
AcDbSpline
 70
8
 71
3
 72
8
 73
4
 74
0
 40
0
 40
0
 40
0
 40
0
 40
1
 40
1
 40
1
 40
1
 10
77.081216
 20
96.514695
 30
0.0
 10
76.742412
 20
96.413809
 30
0.0
 10
76.414479
 20
96.292418
 30
0.0
 10
76.095611
 20
96.154253
 30
0.0
  0
SPLINE
  5
13e
100
AcDbEntity
  8
0
 62
3
100
AcDbSpline
 70
8
 71
3
 72
8
 73
4
 74
0
 40
0
 40
0
 40
0
 40
0
 40
1
 40
1
 40
1
 40
1
 10
76.095611
 20
96.154253
 30
0.0
 10
75.776749
 20
96.016114
 30
0.0
 10
75.466906
 20
95.861227
 30
0.0
 10
75.164270
 20
95.693058
 30
0.0
  0
SPLINE
  5
13f
100
AcDbEntity
  8
0
 62
3
100
AcDbSpline
 70
8
 71
3
 72
8
 73
4
 74
0
 40
0
 40
0
 40
0
 40
0
 40
1
 40
1
 40
1
 40
1
 10
75.164270
 20
95.693058
 30
0.0
 10
74.559004
 20
95.356666
 30
0.0
 10
73.982384
 20
94.967147
 30
0.0
 10
73.419798
 20
94.553974
 30
0.0
  0
SPLINE
  5
140
100
AcDbEntity
  8
0
 62
3
100
AcDbSpline
 70
8
 71
3
 72
8
 73
4
 74
0
 40
0
 40
0
 40
0
 40
0
 40
1
 40
1
 40
1
 40
1
 10
73.419798
 20
94.553974
 30
0.0
 10
72.294620
 20
93.727548
 30
0.0
 10
71.225272
 20
92.805501
 30
0.0
 10
70.092858
 20
92.018075
 30
0.0
  0
SPLINE
  5
141
100
AcDbEntity
  8
0
 62
3
100
AcDbSpline
 70
8
 71
3
 72
8
 73
4
 74
0
 40
0
 40
0
 40
0
 40
0
 40
1
 40
1
 40
1
 40
1
 10
70.092858
 20
92.018075
 30
0.0
 10
70.192487
 20
91.936821
 30
0.0
 10
70.426289
 20
91.867950
 30
0.0
 10
70.700964
 20
91.803339
 30
0.0
  0
SPLINE
  5
142
100
AcDbEntity
  8
0
 62
3
100
AcDbSpline
 70
8
 71
3
 72
8
 73
4
 74
0
 40
0
 40
0
 40
0
 40
0
 40
1
 40
1
 40
1
 40
1
 10
70.700964
 20
91.803339
 30
0.0
 10
70.975633
 20
91.738780
 30
0.0
 10
71.291101
 20
91.678138
 30
0.0
 10
71.553239
 20
91.613447
 30
0.0
  0
SPLINE
  5
143
100
AcDbEntity
  8
0
 62
3
100
AcDbSpline
 70
8
 71
3
 72
8
 73
4
 74
0
 40
0
 40
0
 40
0
 40
0
 40
1
 40
1
 40
1
 40
1
 10
71.553239
 20
91.613447
 30
0.0
 10
71.815378
 20
91.548677
 30
0.0
 10
72.024124
 20
91.480044
 30
0.0
 10
72.086155
 20
91.398341
 30
0.0
  0
SPLINE
  5
144
100
AcDbEntity
  8
0
 62
3
100
AcDbSpline
 70
8
 71
3
 72
8
 73
4
 74
0
 40
0
 40
0
 40
0
 40
0
 40
1
 40
1
 40
1
 40
1
 10
72.086155
 20
91.398341
 30
0.0
 10
72.117167
 20
91.357489
 30
0.0
 10
72.111661
 20
91.313251
 30
0.0
 10
72.057474
 20
91.264991
 30
0.0
  0
SPLINE
  5
145
100
AcDbEntity
  8
0
 62
3
100
AcDbSpline
 70
8
 71
3
 72
8
 73
4
 74
0
 40
0
 40
0
 40
0
 40
0
 40
1
 40
1
 40
1
 40
1
 10
72.057474
 20
91.264991
 30
0.0
 10
72.003290
 20
91.216784
 30
0.0
 10
71.900553
 20
91.164264
 30
0.0
 10
71.737725
 20
91.106479
 30
0.0
  0
SPLINE
  5
146
100
AcDbEntity
  8
0
 62
3
100
AcDbSpline
 70
8
 71
3
 72
8
 73
4
 74
0
 40
0
 40
0
 40
0
 40
0
 40
1
 40
1
 40
1
 40
1
 10
71.737725
 20
91.106479
 30
0.0
 10
71.364332
 20
90.919392
 30
0.0
 10
71.001819
 20
90.711589
 30
0.0
 10
70.651354
 20
90.484814
 30
0.0
  0
SPLINE
  5
147
100
AcDbEntity
  8
0
 62
3
100
AcDbSpline
 70
8
 71
3
 72
8
 73
4
 74
0
 40
0
 40
0
 40
0
 40
0
 40
1
 40
1
 40
1
 40
1
 10
70.651354
 20
90.484814
 30
0.0
 10
70.300890
 20
90.258066
 30
0.0
 10
69.962358
 20
90.012348
 30
0.0
 10
69.637458
 20
89.749987
 30
0.0
  0
SPLINE
  5
148
100
AcDbEntity
  8
0
 62
3
100
AcDbSpline
 70
8
 71
3
 72
8
 73
4
 74
0
 40
0
 40
0
 40
0
 40
0
 40
1
 40
1
 40
1
 40
1
 10
69.637458
 20
89.749987
 30
0.0
 10
69.312562
 20
89.487600
 30
0.0
 10
69.001259
 20
89.208411
 30
0.0
 10
68.704568
 20
88.914353
 30
0.0
  0
SPLINE
  5
149
100
AcDbEntity
  8
0
 62
3
100
AcDbSpline
 70
8
 71
3
 72
8
 73
4
 74
0
 40
0
 40
0
 40
0
 40
0
 40
1
 40
1
 40
1
 40
1
 10
68.704568
 20
88.914353
 30
0.0
 10
68.407875
 20
88.620375
 30
0.0
 10
68.125888
 20
88.311606
 30
0.0
 10
67.860042
 20
87.990005
 30
0.0
  0
SPLINE
  5
14a
100
AcDbEntity
  8
0
 62
3
100
AcDbSpline
 70
8
 71
3
 72
8
 73
4
 74
0
 40
0
 40
0
 40
0
 40
0
 40
1
 40
1
 40
1
 40
1
 10
67.860042
 20
87.990005
 30
0.0
 10
67.594200
 20
87.668404
 30
0.0
 10
67.344380
 20
87.334076
 30
0.0
 10
67.112023
 20
86.988901
 30
0.0
  0
SPLINE
  5
14b
100
AcDbEntity
  8
0
 62
3
100
AcDbSpline
 70
8
 71
3
 72
8
 73
4
 74
0
 40
0
 40
0
 40
0
 40
0
 40
1
 40
1
 40
1
 40
1
 10
67.112023
 20
86.988901
 30
0.0
 10
66.879666
 20
86.643726
 30
0.0
 10
66.664882
 20
86.287782
 30
0.0
 10
66.468649
 20
85.923054
 30
0.0
  0
SPLINE
  5
14c
100
AcDbEntity
  8
0
 62
3
100
AcDbSpline
 70
8
 71
3
 72
8
 73
4
 74
0
 40
0
 40
0
 40
0
 40
0
 40
1
 40
1
 40
1
 40
1
 10
66.468649
 20
85.923054
 30
0.0
 10
66.272415
 20
85.558325
 30
0.0
 10
66.094753
 20
85.184760
 30
0.0
 10
65.937286
 20
84.804528
 30
0.0
  0
SPLINE
  5
14d
100
AcDbEntity
  8
0
 62
3
100
AcDbSpline
 70
8
 71
3
 72
8
 73
4
 74
0
 40
0
 40
0
 40
0
 40
0
 40
1
 40
1
 40
1
 40
1
 10
65.937286
 20
84.804528
 30
0.0
 10
65.779819
 20
84.424295
 30
0.0
 10
65.642516
 20
84.037421
 30
0.0
 10
65.526457
 20
83.645679
 30
0.0
  0
SPLINE
  5
14e
100
AcDbEntity
  8
0
 62
3
100
AcDbSpline
 70
8
 71
3
 72
8
 73
4
 74
0
 40
0
 40
0
 40
0
 40
0
 40
1
 40
1
 40
1
 40
1
 10
65.526457
 20
83.645679
 30
0.0
 10
65.263564
 20
83.547148
 30
0.0
 10
64.997534
 20
83.427265
 30
0.0
 10
64.734641
 20
83.288333
 30
0.0
  0
SPLINE
  5
14f
100
AcDbEntity
  8
0
 62
3
100
AcDbSpline
 70
8
 71
3
 72
8
 73
4
 74
0
 40
0
 40
0
 40
0
 40
0
 40
1
 40
1
 40
1
 40
1
 10
64.734641
 20
83.288333
 30
0.0
 10
64.471748
 20
83.149374
 30
0.0
 10
64.211814
 20
82.991100
 30
0.0
 10
63.961431
 20
82.815866
 30
0.0
  0
SPLINE
  5
150
100
AcDbEntity
  8
0
 62
3
100
AcDbSpline
 70
8
 71
3
 72
8
 73
4
 74
0
 40
0
 40
0
 40
0
 40
0
 40
1
 40
1
 40
1
 40
1
 10
63.961431
 20
82.815866
 30
0.0
 10
63.711048
 20
82.640686
 30
0.0
 10
63.470171
 20
82.448413
 30
0.0
 10
63.244807
 20
82.241112
 30
0.0
  0
SPLINE
  5
151
100
AcDbEntity
  8
0
 62
3
100
AcDbSpline
 70
8
 71
3
 72
8
 73
4
 74
0
 40
0
 40
0
 40
0
 40
0
 40
1
 40
1
 40
1
 40
1
 10
63.244807
 20
82.241112
 30
0.0
 10
63.019440
 20
82.033811
 30
0.0
 10
62.809805
 20
81.811693
 30
0.0
 10
62.621975
 20
81.576426
 30
0.0
  0
SPLINE
  5
152
100
AcDbEntity
  8
0
 62
3
100
AcDbSpline
 70
8
 71
3
 72
8
 73
4
 74
0
 40
0
 40
0
 40
0
 40
0
 40
1
 40
1
 40
1
 40
1
 10
62.621975
 20
81.576426
 30
0.0
 10
62.434139
 20
81.341158
 30
0.0
 10
62.268322
 20
81.092900
 30
0.0
 10
62.130527
 20
80.833820
 30
0.0
  0
SPLINE
  5
153
100
AcDbEntity
  8
0
 62
3
100
AcDbSpline
 70
8
 71
3
 72
8
 73
4
 74
0
 40
0
 40
0
 40
0
 40
0
 40
1
 40
1
 40
1
 40
1
 10
62.130527
 20
80.833820
 30
0.0
 10
61.992738
 20
80.574766
 30
0.0
 10
61.882920
 20
80.304838
 30
0.0
 10
61.807677
 20
80.026126
 30
0.0
  0
SPLINE
  5
154
100
AcDbEntity
  8
0
 62
3
100
AcDbSpline
 70
8
 71
3
 72
8
 73
4
 74
0
 40
0
 40
0
 40
0
 40
0
 40
1
 40
1
 40
1
 40
1
 10
61.807677
 20
80.026126
 30
0.0
 10
61.732438
 20
79.747414
 30
0.0
 10
61.691584
 20
79.459891
 30
0.0
 10
61.691406
 20
79.165701
 30
0.0
  0
SPLINE
  5
155
100
AcDbEntity
  8
0
 62
3
100
AcDbSpline
 70
8
 71
3
 72
8
 73
4
 74
0
 40
0
 40
0
 40
0
 40
0
 40
1
 40
1
 40
1
 40
1
 10
61.691406
 20
79.165701
 30
0.0
 10
61.691232
 20
78.871484
 30
0.0
 10
61.731909
 20
78.570547
 30
0.0
 10
61.819306
 20
78.264980
 30
0.0
  0
SPLINE
  5
156
100
AcDbEntity
  8
0
 62
3
100
AcDbSpline
 70
8
 71
3
 72
8
 73
4
 74
0
 40
0
 40
0
 40
0
 40
0
 40
1
 40
1
 40
1
 40
1
 10
61.819306
 20
78.264980
 30
0.0
 10
61.836054
 20
78.155945
 30
0.0
 10
61.873191
 20
78.057547
 30
0.0
 10
61.924726
 20
77.966953
 30
0.0
  0
SPLINE
  5
157
100
AcDbEntity
  8
0
 62
3
100
AcDbSpline
 70
8
 71
3
 72
8
 73
4
 74
0
 40
0
 40
0
 40
0
 40
0
 40
1
 40
1
 40
1
 40
1
 10
61.924726
 20
77.966953
 30
0.0
 10
61.976259
 20
77.876307
 30
0.0
 10
62.042141
 20
77.793307
 30
0.0
 10
62.115801
 20
77.715811
 30
0.0
  0
SPLINE
  5
158
100
AcDbEntity
  8
0
 62
3
100
AcDbSpline
 70
8
 71
3
 72
8
 73
4
 74
0
 40
0
 40
0
 40
0
 40
0
 40
1
 40
1
 40
1
 40
1
 10
62.115801
 20
77.715811
 30
0.0
 10
62.263126
 20
77.560739
 30
0.0
 10
62.441934
 20
77.426648
 30
0.0
 10
62.601819
 20
77.292186
 30
0.0
  0
SPLINE
  5
159
100
AcDbEntity
  8
0
 62
3
100
AcDbSpline
 70
8
 71
3
 72
8
 73
4
 74
0
 40
0
 40
0
 40
0
 40
0
 40
1
 40
1
 40
1
 40
1
 10
62.601819
 20
77.292186
 30
0.0
 10
62.761707
 20
77.157646
 30
0.0
 10
62.902706
 20
77.022708
 30
0.0
 10
62.973889
 20
76.866234
 30
0.0
  0
SPLINE
  5
15a
100
AcDbEntity
  8
0
 62
3
100
AcDbSpline
 70
8
 71
3
 72
8
 73
4
 74
0
 40
0
 40
0
 40
0
 40
0
 40
1
 40
1
 40
1
 40
1
 10
62.973889
 20
76.866234
 30
0.0
 10
63.009486
 20
76.787970
 30
0.0
 10
63.027526
 20
76.704468
 30
0.0
 10
63.021948
 20
76.612763
 30
0.0
  0
SPLINE
  5
15b
100
AcDbEntity
  8
0
 62
3
100
AcDbSpline
 70
8
 71
3
 72
8
 73
4
 74
0
 40
0
 40
0
 40
0
 40
0
 40
1
 40
1
 40
1
 40
1
 10
63.021948
 20
76.612763
 30
0.0
 10
63.016365
 20
76.521085
 30
0.0
 10
62.987158
 20
76.421284
 30
0.0
 10
62.927770
 20
76.310847
 30
0.0
  0
SPLINE
  5
15c
100
AcDbEntity
  8
0
 62
3
100
AcDbSpline
 70
8
 71
3
 72
8
 73
4
 74
0
 40
0
 40
0
 40
0
 40
0
 40
1
 40
1
 40
1
 40
1
 10
62.927770
 20
76.310847
 30
0.0
 10
62.888852
 20
76.079786
 30
0.0
 10
62.881359
 20
75.853091
 30
0.0
 10
62.901417
 20
75.632984
 30
0.0
  0
SPLINE
  5
15d
100
AcDbEntity
  8
0
 62
3
100
AcDbSpline
 70
8
 71
3
 72
8
 73
4
 74
0
 40
0
 40
0
 40
0
 40
0
 40
1
 40
1
 40
1
 40
1
 10
62.901417
 20
75.632984
 30
0.0
 10
62.921473
 20
75.412878
 30
0.0
 10
62.969010
 20
75.199279
 30
0.0
 10
63.040556
 20
74.995418
 30
0.0
  0
SPLINE
  5
15e
100
AcDbEntity
  8
0
 62
3
100
AcDbSpline
 70
8
 71
3
 72
8
 73
4
 74
0
 40
0
 40
0
 40
0
 40
0
 40
1
 40
1
 40
1
 40
1
 10
63.040556
 20
74.995418
 30
0.0
 10
63.112102
 20
74.791583
 30
0.0
 10
63.207548
 20
74.597114
 30
0.0
 10
63.323097
 20
74.414816
 30
0.0
  0
SPLINE
  5
15f
100
AcDbEntity
  8
0
 62
3
100
AcDbSpline
 70
8
 71
3
 72
8
 73
4
 74
0
 40
0
 40
0
 40
0
 40
0
 40
1
 40
1
 40
1
 40
1
 10
63.323097
 20
74.414816
 30
0.0
 10
63.438646
 20
74.232518
 30
0.0
 10
63.574112
 20
74.062497
 30
0.0
 10
63.726176
 20
73.907107
 30
0.0
  0
SPLINE
  5
160
100
AcDbEntity
  8
0
 62
3
100
AcDbSpline
 70
8
 71
3
 72
8
 73
4
 74
0
 40
0
 40
0
 40
0
 40
0
 40
1
 40
1
 40
1
 40
1
 10
63.726176
 20
73.907107
 30
0.0
 10
63.878238
 20
73.751691
 30
0.0
 10
64.046997
 20
73.610906
 30
0.0
 10
64.228086
 20
73.487743
 30
0.0
  0
SPLINE
  5
161
100
AcDbEntity
  8
0
 62
3
100
AcDbSpline
 70
8
 71
3
 72
8
 73
4
 74
0
 40
0
 40
0
 40
0
 40
0
 40
1
 40
1
 40
1
 40
1
 10
64.228086
 20
73.487743
 30
0.0
 10
64.409169
 20
73.364579
 30
0.0
 10
64.602553
 20
73.259037
 30
0.0
 10
64.805182
 20
73.173418
 30
0.0
  0
SPLINE
  5
162
100
AcDbEntity
  8
0
 62
3
100
AcDbSpline
 70
8
 71
3
 72
8
 73
4
 74
0
 40
0
 40
0
 40
0
 40
0
 40
1
 40
1
 40
1
 40
1
 10
64.805182
 20
73.173418
 30
0.0
 10
65.007808
 20
73.087799
 30
0.0
 10
65.219477
 20
73.022023
 30
0.0
 10
65.436155
 20
72.979240
 30
0.0
  0
SPLINE
  5
163
100
AcDbEntity
  8
0
 62
3
100
AcDbSpline
 70
8
 71
3
 72
8
 73
4
 74
0
 40
0
 40
0
 40
0
 40
0
 40
1
 40
1
 40
1
 40
1
 10
65.436155
 20
72.979240
 30
0.0
 10
65.652833
 20
72.936378
 30
0.0
 10
65.874892
 20
72.916534
 30
0.0
 10
66.098132
 20
72.921905
 30
0.0
  0
SPLINE
  5
164
100
AcDbEntity
  8
0
 62
3
100
AcDbSpline
 70
8
 71
3
 72
8
 73
4
 74
0
 40
0
 40
0
 40
0
 40
0
 40
1
 40
1
 40
1
 40
1
 10
66.098132
 20
72.921905
 30
0.0
 10
66.370211
 20
72.851367
 30
0.0
 10
66.648764
 20
72.812738
 30
0.0
 10
66.929865
 20
72.797471
 30
0.0
  0
SPLINE
  5
165
100
AcDbEntity
  8
0
 62
3
100
AcDbSpline
 70
8
 71
3
 72
8
 73
4
 74
0
 40
0
 40
0
 40
0
 40
0
 40
1
 40
1
 40
1
 40
1
 10
66.929865
 20
72.797471
 30
0.0
 10
67.210966
 20
72.782125
 30
0.0
 10
67.494460
 20
72.789798
 30
0.0
 10
67.775553
 20
72.813875
 30
0.0
  0
SPLINE
  5
166
100
AcDbEntity
  8
0
 62
3
100
AcDbSpline
 70
8
 71
3
 72
8
 73
4
 74
0
 40
0
 40
0
 40
0
 40
0
 40
1
 40
1
 40
1
 40
1
 10
67.775553
 20
72.813875
 30
0.0
 10
68.337734
 20
72.861368
 30
0.0
 10
68.890780
 20
72.971144
 30
0.0
 10
69.398716
 20
73.078591
 30
0.0
  0
SPLINE
  5
167
100
AcDbEntity
  8
0
 62
3
100
AcDbSpline
 70
8
 71
3
 72
8
 73
4
 74
0
 40
0
 40
0
 40
0
 40
0
 40
1
 40
1
 40
1
 40
1
 10
69.398716
 20
73.078591
 30
0.0
 10
69.747630
 20
72.815780
 30
0.0
 10
70.111676
 20
72.577629
 30
0.0
 10
70.488188
 20
72.363899
 30
0.0
  0
SPLINE
  5
168
100
AcDbEntity
  8
0
 62
3
100
AcDbSpline
 70
8
 71
3
 72
8
 73
4
 74
0
 40
0
 40
0
 40
0
 40
0
 40
1
 40
1
 40
1
 40
1
 10
70.488188
 20
72.363899
 30
0.0
 10
70.864701
 20
72.150195
 30
0.0
 10
71.253723
 20
71.961044
 30
0.0
 10
71.652461
 20
71.795335
 30
0.0
  0
SPLINE
  5
169
100
AcDbEntity
  8
0
 62
3
100
AcDbSpline
 70
8
 71
3
 72
8
 73
4
 74
0
 40
0
 40
0
 40
0
 40
0
 40
1
 40
1
 40
1
 40
1
 10
71.652461
 20
71.795335
 30
0.0
 10
72.051193
 20
71.629653
 30
0.0
 10
72.459681
 20
71.487413
 30
0.0
 10
72.875259
 20
71.368615
 30
0.0
  0
SPLINE
  5
16a
100
AcDbEntity
  8
0
 62
3
100
AcDbSpline
 70
8
 71
3
 72
8
 73
4
 74
0
 40
0
 40
0
 40
0
 40
0
 40
1
 40
1
 40
1
 40
1
 10
72.875259
 20
71.368615
 30
0.0
 10
73.290840
 20
71.249844
 30
0.0
 10
73.713647
 20
71.154409
 30
0.0
 10
74.140690
 20
71.081437
 30
0.0
  0
SPLINE
  5
16b
100
AcDbEntity
  8
0
 62
3
100
AcDbSpline
 70
8
 71
3
 72
8
 73
4
 74
0
 40
0
 40
0
 40
0
 40
0
 40
1
 40
1
 40
1
 40
1
 10
74.140690
 20
71.081437
 30
0.0
 10
74.567735
 20
71.008491
 30
0.0
 10
74.998956
 20
70.958141
 30
0.0
 10
75.432087
 20
70.929883
 30
0.0
  0
SPLINE
  5
16c
100
AcDbEntity
  8
0
 62
3
100
AcDbSpline
 70
8
 71
3
 72
8
 73
4
 74
0
 40
0
 40
0
 40
0
 40
0
 40
1
 40
1
 40
1
 40
1
 10
75.432087
 20
70.929883
 30
0.0
 10
75.865217
 20
70.901520
 30
0.0
 10
76.300108
 20
70.895170
 30
0.0
 10
76.733950
 20
70.910833
 30
0.0
  0
SPLINE
  5
16d
100
AcDbEntity
  8
0
 62
3
100
AcDbSpline
 70
8
 71
3
 72
8
 73
4
 74
0
 40
0
 40
0
 40
0
 40
0
 40
1
 40
1
 40
1
 40
1
 10
76.733950
 20
70.910833
 30
0.0
 10
77.167790
 20
70.926179
 30
0.0
 10
77.600823
 20
70.962956
 30
0.0
 10
78.030001
 20
71.020900
 30
0.0
  0
SPLINE
  5
16e
100
AcDbEntity
  8
0
 62
3
100
AcDbSpline
 70
8
 71
3
 72
8
 73
4
 74
0
 40
0
 40
0
 40
0
 40
0
 40
1
 40
1
 40
1
 40
1
 10
78.030001
 20
71.020900
 30
0.0
 10
78.459171
 20
71.078791
 30
0.0
 10
78.884444
 20
71.157584
 30
0.0
 10
79.303570
 20
71.256935
 30
0.0
  0
SPLINE
  5
16f
100
AcDbEntity
  8
0
 62
3
100
AcDbSpline
 70
8
 71
3
 72
8
 73
4
 74
0
 40
0
 40
0
 40
0
 40
0
 40
1
 40
1
 40
1
 40
1
 10
79.303570
 20
71.256935
 30
0.0
 10
79.125855
 20
71.042040
 30
0.0
 10
78.937305
 20
70.821642
 30
0.0
 10
78.781508
 20
70.613548
 30
0.0
  0
SPLINE
  5
170
100
AcDbEntity
  8
0
 62
3
100
AcDbSpline
 70
8
 71
3
 72
8
 73
4
 74
0
 40
0
 40
0
 40
0
 40
0
 40
1
 40
1
 40
1
 40
1
 10
78.781508
 20
70.613548
 30
0.0
 10
78.625713
 20
70.405426
 30
0.0
 10
78.502859
 20
70.209926
 30
0.0
 10
78.456719
 20
70.044984
 30
0.0
  0
SPLINE
  5
171
100
AcDbEntity
  8
0
 62
3
100
AcDbSpline
 70
8
 71
3
 72
8
 73
4
 74
0
 40
0
 40
0
 40
0
 40
0
 40
1
 40
1
 40
1
 40
1
 10
78.456719
 20
70.044984
 30
0.0
 10
78.433673
 20
69.962514
 30
0.0
 10
78.429731
 20
69.887399
 30
0.0
 10
78.450527
 20
69.822523
 30
0.0
  0
SPLINE
  5
172
100
AcDbEntity
  8
0
 62
3
100
AcDbSpline
 70
8
 71
3
 72
8
 73
4
 74
0
 40
0
 40
0
 40
0
 40
0
 40
1
 40
1
 40
1
 40
1
 10
78.450527
 20
69.822523
 30
0.0
 10
78.471324
 20
69.757647
 30
0.0
 10
78.516760
 20
69.702878
 30
0.0
 10
78.592381
 20
69.660121
 30
0.0
  0
SPLINE
  5
173
100
AcDbEntity
  8
0
 62
3
100
AcDbSpline
 70
8
 71
3
 72
8
 73
4
 74
0
 40
0
 40
0
 40
0
 40
0
 40
1
 40
1
 40
1
 40
1
 10
78.592381
 20
69.660121
 30
0.0
 10
78.668004
 20
69.617391
 30
0.0
 10
78.773814
 20
69.587044
 30
0.0
 10
78.915231
 20
69.570983
 30
0.0
  0
SPLINE
  5
174
100
AcDbEntity
  8
0
 62
3
100
AcDbSpline
 70
8
 71
3
 72
8
 73
4
 74
0
 40
0
 40
0
 40
0
 40
0
 40
1
 40
1
 40
1
 40
1
 10
78.915231
 20
69.570983
 30
0.0
 10
79.010155
 20
69.559606
 30
0.0
 10
79.146588
 20
69.565163
 30
0.0
 10
79.275286
 20
69.568338
 30
0.0
  0
SPLINE
  5
175
100
AcDbEntity
  8
0
 62
3
100
AcDbSpline
 70
8
 71
3
 72
8
 73
4
 74
0
 40
0
 40
0
 40
0
 40
0
 40
1
 40
1
 40
1
 40
1
 10
79.275286
 20
69.568338
 30
0.0
 10
76.701219
 20
67.984568
 30
0.0
 10
75.212316
 20
64.652141
 30
0.0
 10
75.504574
 20
61.619169
 30
0.0
  0
SPLINE
  5
176
100
AcDbEntity
  8
0
 62
3
100
AcDbSpline
 70
8
 71
3
 72
8
 73
4
 74
0
 40
0
 40
0
 40
0
 40
0
 40
1
 40
1
 40
1
 40
1
 10
75.504574
 20
61.619169
 30
0.0
 10
69.322246
 20
61.648776
 30
0.0
 10
64.422819
 20
66.067556
 30
0.0
 10
59.593866
 20
69.351273
 30
0.0
  0
SPLINE
  5
177
100
AcDbEntity
  8
0
 62
3
100
AcDbSpline
 70
8
 71
3
 72
8
 73
4
 74
0
 40
0
 40
0
 40
0
 40
0
 40
1
 40
1
 40
1
 40
1
 10
59.593866
 20
69.351273
 30
0.0
 10
57.702217
 20
70.895752
 30
0.0
 10
55.512787
 20
72.073862
 30
0.0
 10
53.188420
 20
72.842927
 30
0.0
  0
SPLINE
  5
178
100
AcDbEntity
  8
0
 62
3
100
AcDbSpline
 70
8
 71
3
 72
8
 73
4
 74
0
 40
0
 40
0
 40
0
 40
0
 40
1
 40
1
 40
1
 40
1
 10
53.188420
 20
72.842927
 30
0.0
 10
53.264247
 20
74.375288
 30
0.0
 10
52.969671
 20
75.910665
 30
0.0
 10
52.315605
 20
77.274459
 30
0.0
  0
SPLINE
  5
179
100
AcDbEntity
  8
0
 62
3
100
AcDbSpline
 70
8
 71
3
 72
8
 73
4
 74
0
 40
0
 40
0
 40
0
 40
0
 40
1
 40
1
 40
1
 40
1
 10
52.315605
 20
77.274459
 30
0.0
 10
52.600058
 20
77.402465
 30
0.0
 10
52.893037
 20
77.508430
 30
0.0
 10
53.162454
 20
77.672895
 30
0.0
  0
SPLINE
  5
17a
100
AcDbEntity
  8
0
 62
3
100
AcDbSpline
 70
8
 71
3
 72
8
 73
4
 74
0
 40
0
 40
0
 40
0
 40
0
 40
1
 40
1
 40
1
 40
1
 10
53.162454
 20
77.672895
 30
0.0
 10
53.632116
 20
77.959598
 30
0.0
 10
54.076843
 20
78.302895
 30
0.0
 10
54.489122
 20
78.707707
 30
0.0
  0
SPLINE
  5
17b
100
AcDbEntity
  8
0
 62
3
100
AcDbSpline
 70
8
 71
3
 72
8
 73
4
 74
0
 40
0
 40
0
 40
0
 40
0
 40
1
 40
1
 40
1
 40
1
 10
54.489122
 20
78.707707
 30
0.0
 10
54.730846
 20
78.935064
 30
0.0
 10
54.960652
 20
79.180597
 30
0.0
 10
55.175904
 20
79.440630
 30
0.0
  0
SPLINE
  5
17c
100
AcDbEntity
  8
0
 62
3
100
AcDbSpline
 70
8
 71
3
 72
8
 73
4
 74
0
 40
0
 40
0
 40
0
 40
0
 40
1
 40
1
 40
1
 40
1
 10
55.175904
 20
79.440630
 30
0.0
 10
55.391156
 20
79.700715
 30
0.0
 10
55.591808
 20
79.975432
 30
0.0
 10
55.775095
 20
80.262293
 30
0.0
  0
SPLINE
  5
17d
100
AcDbEntity
  8
0
 62
3
100
AcDbSpline
 70
8
 71
3
 72
8
 73
4
 74
0
 40
0
 40
0
 40
0
 40
0
 40
1
 40
1
 40
1
 40
1
 10
55.775095
 20
80.262293
 30
0.0
 10
55.958380
 20
80.549154
 30
0.0
 10
56.124189
 20
80.847922
 30
0.0
 10
56.270028
 20
81.155632
 30
0.0
  0
SPLINE
  5
17e
100
AcDbEntity
  8
0
 62
3
100
AcDbSpline
 70
8
 71
3
 72
8
 73
4
 74
0
 40
0
 40
0
 40
0
 40
0
 40
1
 40
1
 40
1
 40
1
 10
56.270028
 20
81.155632
 30
0.0
 10
56.415863
 20
81.463369
 30
0.0
 10
56.541913
 20
81.780208
 30
0.0
 10
56.644810
 20
82.102867
 30
0.0
  0
SPLINE
  5
17f
100
AcDbEntity
  8
0
 62
3
100
AcDbSpline
 70
8
 71
3
 72
8
 73
4
 74
0
 40
0
 40
0
 40
0
 40
0
 40
1
 40
1
 40
1
 40
1
 10
56.644810
 20
82.102867
 30
0.0
 10
56.747704
 20
82.425526
 30
0.0
 10
56.827542
 20
82.754060
 30
0.0
 10
56.882009
 20
83.085768
 30
0.0
  0
SPLINE
  5
180
100
AcDbEntity
  8
0
 62
3
100
AcDbSpline
 70
8
 71
3
 72
8
 73
4
 74
0
 40
0
 40
0
 40
0
 40
0
 40
1
 40
1
 40
1
 40
1
 10
56.882009
 20
83.085768
 30
0.0
 10
56.936473
 20
83.417423
 30
0.0
 10
56.965514
 20
83.752121
 30
0.0
 10
56.966109
 20
84.086872
 30
0.0
  0
SPLINE
  5
181
100
AcDbEntity
  8
0
 62
3
100
AcDbSpline
 70
8
 71
3
 72
8
 73
4
 74
0
 40
0
 40
0
 40
0
 40
0
 40
1
 40
1
 40
1
 40
1
 10
56.966109
 20
84.086872
 30
0.0
 10
56.966638
 20
84.421596
 30
0.0
 10
56.938534
 20
84.756479
 30
0.0
 10
56.879683
 20
85.088373
 30
0.0
  0
SPLINE
  5
182
100
AcDbEntity
  8
0
 62
3
100
AcDbSpline
 70
8
 71
3
 72
8
 73
4
 74
0
 40
0
 40
0
 40
0
 40
0
 40
1
 40
1
 40
1
 40
1
 10
56.879683
 20
85.088373
 30
0.0
 10
56.820827
 20
85.420239
 30
0.0
 10
56.730964
 20
85.748931
 30
0.0
 10
56.607218
 20
86.072014
 30
0.0
  0
SPLINE
  5
183
100
AcDbEntity
  8
0
 62
3
100
AcDbSpline
 70
8
 71
3
 72
8
 73
4
 74
0
 40
0
 40
0
 40
0
 40
0
 40
1
 40
1
 40
1
 40
1
 10
56.607218
 20
86.072014
 30
0.0
 10
56.893145
 20
86.052170
 30
0.0
 10
57.189918
 20
86.051906
 30
0.0
 10
57.490498
 20
86.072014
 30
0.0
  0
SPLINE
  5
184
100
AcDbEntity
  8
0
 62
3
100
AcDbSpline
 70
8
 71
3
 72
8
 73
4
 74
0
 40
0
 40
0
 40
0
 40
0
 40
1
 40
1
 40
1
 40
1
 10
57.490498
 20
86.072014
 30
0.0
 10
57.791077
 20
86.092122
 30
0.0
 10
58.095470
 20
86.132551
 30
0.0
 10
58.397037
 20
86.193722
 30
0.0
  0
SPLINE
  5
185
100
AcDbEntity
  8
0
 62
3
100
AcDbSpline
 70
8
 71
3
 72
8
 73
4
 74
0
 40
0
 40
0
 40
0
 40
0
 40
1
 40
1
 40
1
 40
1
 10
58.397037
 20
86.193722
 30
0.0
 10
58.698601
 20
86.254868
 30
0.0
 10
58.997241
 20
86.337021
 30
0.0
 10
59.286132
 20
86.440208
 30
0.0
  0
SPLINE
  5
186
100
AcDbEntity
  8
0
 62
3
100
AcDbSpline
 70
8
 71
3
 72
8
 73
4
 74
0
 40
0
 40
0
 40
0
 40
0
 40
1
 40
1
 40
1
 40
1
 10
59.286132
 20
86.440208
 30
0.0
 10
59.575023
 20
86.543396
 30
0.0
 10
59.854148
 20
86.668014
 30
0.0
 10
60.116704
 20
86.814223
 30
0.0
  0
SPLINE
  5
187
100
AcDbEntity
  8
0
 62
3
100
AcDbSpline
 70
8
 71
3
 72
8
 73
4
 74
0
 40
0
 40
0
 40
0
 40
0
 40
1
 40
1
 40
1
 40
1
 10
60.116704
 20
86.814223
 30
0.0
 10
60.379261
 20
86.960379
 30
0.0
 10
60.625495
 20
87.128257
 30
0.0
 10
60.848057
 20
87.318466
 30
0.0
  0
SPLINE
  5
188
100
AcDbEntity
  8
0
 62
3
100
AcDbSpline
 70
8
 71
3
 72
8
 73
4
 74
0
 40
0
 40
0
 40
0
 40
0
 40
1
 40
1
 40
1
 40
1
 10
60.848057
 20
87.318466
 30
0.0
 10
61.070620
 20
87.508649
 30
0.0
 10
61.269817
 20
87.720871
 30
0.0
 10
61.438721
 20
87.956033
 30
0.0
  0
SPLINE
  5
189
100
AcDbEntity
  8
0
 62
3
100
AcDbSpline
 70
8
 71
3
 72
8
 73
4
 74
0
 40
0
 40
0
 40
0
 40
0
 40
1
 40
1
 40
1
 40
1
 10
61.438721
 20
87.956033
 30
0.0
 10
61.607629
 20
88.191168
 30
0.0
 10
61.746016
 20
88.449295
 30
0.0
 10
61.847611
 20
88.730389
 30
0.0
  0
SPLINE
  5
18a
100
AcDbEntity
  8
0
 62
3
100
AcDbSpline
 70
8
 71
3
 72
8
 73
4
 74
0
 40
0
 40
0
 40
0
 40
0
 40
1
 40
1
 40
1
 40
1
 10
61.847611
 20
88.730389
 30
0.0
 10
61.949206
 20
89.011508
 30
0.0
 10
62.013812
 20
89.315859
 30
0.0
 10
62.034423
 20
89.643915
 30
0.0
  0
SPLINE
  5
18b
100
AcDbEntity
  8
0
 62
3
100
AcDbSpline
 70
8
 71
3
 72
8
 73
4
 74
0
 40
0
 40
0
 40
0
 40
0
 40
1
 40
1
 40
1
 40
1
 10
62.034423
 20
89.643915
 30
0.0
 10
62.058473
 20
89.976285
 30
0.0
 10
62.034415
 20
90.294235
 30
0.0
 10
61.968922
 20
90.596177
 30
0.0
  0
SPLINE
  5
18c
100
AcDbEntity
  8
0
 62
3
100
AcDbSpline
 70
8
 71
3
 72
8
 73
4
 74
0
 40
0
 40
0
 40
0
 40
0
 40
1
 40
1
 40
1
 40
1
 10
61.968922
 20
90.596177
 30
0.0
 10
61.903433
 20
90.898120
 30
0.0
 10
61.796385
 20
91.184081
 30
0.0
 10
61.655375
 20
91.451946
 30
0.0
  0
SPLINE
  5
18d
100
AcDbEntity
  8
0
 62
3
100
AcDbSpline
 70
8
 71
3
 72
8
 73
4
 74
0
 40
0
 40
0
 40
0
 40
0
 40
1
 40
1
 40
1
 40
1
 10
61.655375
 20
91.451946
 30
0.0
 10
61.514363
 20
91.719810
 30
0.0
 10
61.339293
 20
91.969788
 30
0.0
 10
61.136800
 20
92.199976
 30
0.0
  0
SPLINE
  5
18e
100
AcDbEntity
  8
0
 62
3
100
AcDbSpline
 70
8
 71
3
 72
8
 73
4
 74
0
 40
0
 40
0
 40
0
 40
0
 40
1
 40
1
 40
1
 40
1
 10
61.136800
 20
92.199976
 30
0.0
 10
60.934309
 20
92.430163
 30
0.0
 10
60.704608
 20
92.640560
 30
0.0
 10
60.454670
 20
92.829393
 30
0.0
  0
SPLINE
  5
18f
100
AcDbEntity
  8
0
 62
3
100
AcDbSpline
 70
8
 71
3
 72
8
 73
4
 74
0
 40
0
 40
0
 40
0
 40
0
 40
1
 40
1
 40
1
 40
1
 10
60.454670
 20
92.829393
 30
0.0
 10
60.204726
 20
93.018253
 30
0.0
 10
59.934581
 20
93.185787
 30
0.0
 10
59.651225
 20
93.329746
 30
0.0
  0
SPLINE
  5
190
100
AcDbEntity
  8
0
 62
3
100
AcDbSpline
 70
8
 71
3
 72
8
 73
4
 74
0
 40
0
 40
0
 40
0
 40
0
 40
1
 40
1
 40
1
 40
1
 10
59.651225
 20
93.329746
 30
0.0
 10
59.367867
 20
93.473759
 30
0.0
 10
59.071068
 20
93.594330
 30
0.0
 10
58.768332
 20
93.689791
 30
0.0
  0
SPLINE
  5
191
100
AcDbEntity
  8
0
 62
3
100
AcDbSpline
 70
8
 71
3
 72
8
 73
4
 74
0
 40
0
 40
0
 40
0
 40
0
 40
1
 40
1
 40
1
 40
1
 10
58.768332
 20
93.689791
 30
0.0
 10
58.465596
 20
93.785280
 30
0.0
 10
58.156700
 20
93.855394
 30
0.0
 10
57.848619
 20
93.898706
 30
0.0
  0
SPLINE
  5
192
100
AcDbEntity
  8
0
 62
3
100
AcDbSpline
 70
8
 71
3
 72
8
 73
4
 74
0
 40
0
 40
0
 40
0
 40
0
 40
1
 40
1
 40
1
 40
1
 10
57.848619
 20
93.898706
 30
0.0
 10
57.540536
 20
93.942019
 30
0.0
 10
57.233336
 20
93.958476
 30
0.0
 10
56.933941
 20
93.945988
 30
0.0
  0
SPLINE
  5
193
100
AcDbEntity
  8
0
 62
3
100
AcDbSpline
 70
8
 71
3
 72
8
 73
4
 74
0
 40
0
 40
0
 40
0
 40
0
 40
1
 40
1
 40
1
 40
1
 10
56.933941
 20
93.945988
 30
0.0
 10
57.068985
 20
94.224911
 30
0.0
 10
57.180163
 20
94.507195
 30
0.0
 10
57.268420
 20
94.791278
 30
0.0
  0
SPLINE
  5
194
100
AcDbEntity
  8
0
 62
3
100
AcDbSpline
 70
8
 71
3
 72
8
 73
4
 74
0
 40
0
 40
0
 40
0
 40
0
 40
1
 40
1
 40
1
 40
1
 10
57.268420
 20
94.791278
 30
0.0
 10
57.356677
 20
95.075388
 30
0.0
 10
57.422277
 20
95.361297
 30
0.0
 10
57.466471
 20
95.647840
 30
0.0
  0
SPLINE
  5
195
100
AcDbEntity
  8
0
 62
3
100
AcDbSpline
 70
8
 71
3
 72
8
 73
4
 74
0
 40
0
 40
0
 40
0
 40
0
 40
1
 40
1
 40
1
 40
1
 10
57.466471
 20
95.647840
 30
0.0
 10
57.510646
 20
95.934384
 30
0.0
 10
57.533394
 20
96.221589
 30
0.0
 10
57.536233
 20
96.507869
 30
0.0
  0
SPLINE
  5
196
100
AcDbEntity
  8
0
 62
3
100
AcDbSpline
 70
8
 71
3
 72
8
 73
4
 74
0
 40
0
 40
0
 40
0
 40
0
 40
1
 40
1
 40
1
 40
1
 10
57.536233
 20
96.507869
 30
0.0
 10
57.539065
 20
96.794095
 30
0.0
 10
57.522025
 20
97.079210
 30
0.0
 10
57.486235
 20
97.362446
 30
0.0
  0
SPLINE
  5
197
100
AcDbEntity
  8
0
 62
3
100
AcDbSpline
 70
8
 71
3
 72
8
 73
4
 74
0
 40
0
 40
0
 40
0
 40
0
 40
1
 40
1
 40
1
 40
1
 10
57.486235
 20
97.362446
 30
0.0
 10
57.450442
 20
97.645683
 30
0.0
 10
57.395938
 20
97.926776
 30
0.0
 10
57.324228
 20
98.204271
 30
0.0
  0
SPLINE
  5
198
100
AcDbEntity
  8
0
 62
3
100
AcDbSpline
 70
8
 71
3
 72
8
 73
4
 74
0
 40
0
 40
0
 40
0
 40
0
 40
1
 40
1
 40
1
 40
1
 10
57.324228
 20
98.204271
 30
0.0
 10
57.252521
 20
98.481766
 30
0.0
 10
57.163645
 20
98.755716
 30
0.0
 10
57.058740
 20
99.024770
 30
0.0
  0
SPLINE
  5
199
100
AcDbEntity
  8
0
 62
3
100
AcDbSpline
 70
8
 71
3
 72
8
 73
4
 74
0
 40
0
 40
0
 40
0
 40
0
 40
1
 40
1
 40
1
 40
1
 10
57.058740
 20
99.024770
 30
0.0
 10
56.848928
 20
99.562801
 30
0.0
 10
56.575394
 20
100.081066
 30
0.0
 10
56.249096
 20
100.568852
 30
0.0
  0
SPLINE
  5
19a
100
AcDbEntity
  8
0
 62
3
100
AcDbSpline
 70
8
 71
3
 72
8
 73
4
 74
0
 40
0
 40
0
 40
0
 40
0
 40
1
 40
1
 40
1
 40
1
 10
56.249096
 20
100.568852
 30
0.0
 10
55.922799
 20
101.056638
 30
0.0
 10
55.543461
 20
101.513944
 30
0.0
 10
55.122419
 20
101.929631
 30
0.0
  0
SPLINE
  5
19b
100
AcDbEntity
  8
0
 62
3
100
AcDbSpline
 70
8
 71
3
 72
8
 73
4
 74
0
 40
0
 40
0
 40
0
 40
0
 40
1
 40
1
 40
1
 40
1
 10
55.122419
 20
101.929631
 30
0.0
 10
54.701377
 20
102.345344
 30
0.0
 10
54.238636
 20
102.719386
 30
0.0
 10
53.744590
 20
103.041198
 30
0.0
  0
SPLINE
  5
19c
100
AcDbEntity
  8
0
 62
3
100
AcDbSpline
 70
8
 71
3
 72
8
 73
4
 74
0
 40
0
 40
0
 40
0
 40
0
 40
1
 40
1
 40
1
 40
1
 10
53.744590
 20
103.041198
 30
0.0
 10
53.250539
 20
103.362985
 30
0.0
 10
52.725270
 20
103.632754
 30
0.0
 10
52.179953
 20
103.838811
 30
0.0
  0
SPLINE
  5
19d
100
AcDbEntity
  8
0
 62
3
100
AcDbSpline
 70
8
 71
3
 72
8
 73
4
 74
0
 40
0
 40
0
 40
0
 40
0
 40
1
 40
1
 40
1
 40
1
 10
52.179953
 20
103.838811
 30
0.0
 10
51.907294
 20
103.941893
 30
0.0
 10
51.629617
 20
104.028835
 30
0.0
 10
51.348219
 20
104.098897
 30
0.0
  0
SPLINE
  5
19e
100
AcDbEntity
  8
0
 62
3
100
AcDbSpline
 70
8
 71
3
 72
8
 73
4
 74
0
 40
0
 40
0
 40
0
 40
0
 40
1
 40
1
 40
1
 40
1
 10
51.348219
 20
104.098897
 30
0.0
 10
51.066816
 20
104.168905
 30
0.0
 10
50.781813
 20
104.221584
 30
0.0
 10
50.494390
 20
104.255848
 30
0.0
  0
SPLINE
  5
19f
100
AcDbEntity
  8
0
 62
3
100
AcDbSpline
 70
8
 71
3
 72
8
 73
4
 74
0
 40
0
 40
0
 40
0
 40
0
 40
1
 40
1
 40
1
 40
1
 10
50.494390
 20
104.255848
 30
0.0
 10
50.346031
 20
104.273310
 30
0.0
 10
50.196951
 20
104.286883
 30
0.0
 10
50.047517
 20
104.294239
 30
0.0
  0
SPLINE
  5
1a0
100
AcDbEntity
  8
0
 62
3
100
AcDbSpline
 70
8
 71
3
 72
8
 73
4
 74
0
 40
0
 40
0
 40
0
 40
0
 40
1
 40
1
 40
1
 40
1
 10
50.047517
 20
104.294239
 30
0.0
 10
49.695552
 20
104.328370
 30
0.0
 10
49.346130
 20
104.337260
 30
0.0
 10
48.998740
 20
104.328317
 30
0.0
  0
SPLINE
  5
1a1
100
AcDbEntity
  8
0
 62
3
100
AcDbSpline
 70
8
 71
3
 72
8
 73
4
 74
0
 40
0
 40
0
 40
0
 40
0
 40
1
 40
1
 40
1
 40
1
 10
48.998740
 20
104.328317
 30
0.0
 10
48.651353
 20
104.319321
 30
0.0
 10
48.305924
 20
104.291381
 30
0.0
 10
47.962368
 20
104.248492
 30
0.0
  0
SPLINE
  5
1a2
100
AcDbEntity
  8
0
 62
3
100
AcDbSpline
 70
8
 71
3
 72
8
 73
4
 74
0
 40
0
 40
0
 40
0
 40
0
 40
1
 40
1
 40
1
 40
1
 10
47.962368
 20
104.248492
 30
0.0
 10
47.275258
 20
104.162688
 30
0.0
 10
46.594922
 20
104.016876
 30
0.0
 10
45.918686
 20
103.843865
 30
0.0
  0
SPLINE
  5
1a3
100
AcDbEntity
  8
0
 62
3
100
AcDbSpline
 70
8
 71
3
 72
8
 73
4
 74
0
 40
0
 40
0
 40
0
 40
0
 40
1
 40
1
 40
1
 40
1
 10
45.918686
 20
103.843865
 30
0.0
 10
44.566213
 20
103.497816
 30
0.0
 10
43.229840
 20
103.041886
 30
0.0
 10
41.885201
 20
102.734626
 30
0.0
  0
SPLINE
  5
1a4
100
AcDbEntity
  8
0
 62
3
100
AcDbSpline
 70
8
 71
3
 72
8
 73
4
 74
0
 40
0
 40
0
 40
0
 40
0
 40
1
 40
1
 40
1
 40
1
 10
41.885201
 20
102.734626
 30
0.0
 10
41.947243
 20
102.622019
 30
0.0
 10
42.138642
 20
102.470836
 30
0.0
 10
42.369280
 20
102.308276
 30
0.0
  0
SPLINE
  5
1a5
100
AcDbEntity
  8
0
 62
3
100
AcDbSpline
 70
8
 71
3
 72
8
 73
4
 74
0
 40
0
 40
0
 40
0
 40
0
 40
1
 40
1
 40
1
 40
1
 10
42.369280
 20
102.308276
 30
0.0
 10
42.599920
 20
102.145716
 30
0.0
 10
42.869660
 20
101.972149
 30
0.0
 10
43.088618
 20
101.814140
 30
0.0
  0
SPLINE
  5
1a6
100
AcDbEntity
  8
0
 62
3
100
AcDbSpline
 70
8
 71
3
 72
8
 73
4
 74
0
 40
0
 40
0
 40
0
 40
0
 40
1
 40
1
 40
1
 40
1
 10
43.088618
 20
101.814140
 30
0.0
 10
43.307574
 20
101.656131
 30
0.0
 10
43.475545
 20
101.513891
 30
0.0
 10
43.502548
 20
101.414937
 30
0.0
  0
SPLINE
  5
1a7
100
AcDbEntity
  8
0
 62
3
100
AcDbSpline
 70
8
 71
3
 72
8
 73
4
 74
0
 40
0
 40
0
 40
0
 40
0
 40
1
 40
1
 40
1
 40
1
 10
43.502548
 20
101.414937
 30
0.0
 10
43.516042
 20
101.365460
 30
0.0
 10
43.494478
 20
101.326751
 30
0.0
 10
43.426195
 20
101.302145
 30
0.0
  0
SPLINE
  5
1a8
100
AcDbEntity
  8
0
 62
3
100
AcDbSpline
 70
8
 71
3
 72
8
 73
4
 74
0
 40
0
 40
0
 40
0
 40
0
 40
1
 40
1
 40
1
 40
1
 10
43.426195
 20
101.302145
 30
0.0
 10
43.357906
 20
101.277539
 30
0.0
 10
43.243016
 20
101.267511
 30
0.0
 10
43.070402
 20
101.274655
 30
0.0
  0
SPLINE
  5
1a9
100
AcDbEntity
  8
0
 62
3
100
AcDbSpline
 70
8
 71
3
 72
8
 73
4
 74
0
 40
0
 40
0
 40
0
 40
0
 40
1
 40
1
 40
1
 40
1
 10
43.070402
 20
101.274655
 30
0.0
 10
42.654151
 20
101.240629
 30
0.0
 10
42.239978
 20
101.183453
 30
0.0
 10
41.830162
 20
101.104104
 30
0.0
  0
SPLINE
  5
1aa
100
AcDbEntity
  8
0
 62
3
100
AcDbSpline
 70
8
 71
3
 72
8
 73
4
 74
0
 40
0
 40
0
 40
0
 40
0
 40
1
 40
1
 40
1
 40
1
 10
41.830162
 20
101.104104
 30
0.0
 10
41.420357
 20
101.024729
 30
0.0
 10
41.014920
 20
100.923394
 30
0.0
 10
40.615505
 20
100.801395
 30
0.0
  0
SPLINE
  5
1ab
100
AcDbEntity
  8
0
 62
3
100
AcDbSpline
 70
8
 71
3
 72
8
 73
4
 74
0
 40
0
 40
0
 40
0
 40
0
 40
1
 40
1
 40
1
 40
1
 10
40.615505
 20
100.801395
 30
0.0
 10
40.216090
 20
100.679422
 30
0.0
 10
39.822731
 20
100.536917
 30
0.0
 10
39.437665
 20
100.375071
 30
0.0
  0
SPLINE
  5
1ac
100
AcDbEntity
  8
0
 62
3
100
AcDbSpline
 70
8
 71
3
 72
8
 73
4
 74
0
 40
0
 40
0
 40
0
 40
0
 40
1
 40
1
 40
1
 40
1
 10
39.437665
 20
100.375071
 30
0.0
 10
39.052595
 20
100.213226
 30
0.0
 10
38.675813
 20
100.031828
 30
0.0
 10
38.309047
 20
99.832861
 30
0.0
  0
SPLINE
  5
1ad
100
AcDbEntity
  8
0
 62
3
100
AcDbSpline
 70
8
 71
3
 72
8
 73
4
 74
0
 40
0
 40
0
 40
0
 40
0
 40
1
 40
1
 40
1
 40
1
 10
38.309047
 20
99.832861
 30
0.0
 10
37.942282
 20
99.633894
 30
0.0
 10
37.585796
 20
99.417015
 30
0.0
 10
37.241282
 20
99.183653
 30
0.0
  0
SPLINE
  5
1ae
100
AcDbEntity
  8
0
 62
3
100
AcDbSpline
 70
8
 71
3
 72
8
 73
4
 74
0
 40
0
 40
0
 40
0
 40
0
 40
1
 40
1
 40
1
 40
1
 10
37.241282
 20
99.183653
 30
0.0
 10
36.896765
 20
98.950343
 30
0.0
 10
36.564297
 20
98.700603
 30
0.0
 10
36.245991
 20
98.435649
 30
0.0
  0
SPLINE
  5
1af
100
AcDbEntity
  8
0
 62
3
100
AcDbSpline
 70
8
 71
3
 72
8
 73
4
 74
0
 40
0
 40
0
 40
0
 40
0
 40
1
 40
1
 40
1
 40
1
 10
36.245991
 20
98.435649
 30
0.0
 10
35.927678
 20
98.170669
 30
0.0
 10
35.623339
 20
97.890766
 30
0.0
 10
35.335189
 20
97.596946
 30
0.0
  0
SPLINE
  5
1b0
100
AcDbEntity
  8
0
 62
3
100
AcDbSpline
 70
8
 71
3
 72
8
 73
4
 74
0
 40
0
 40
0
 40
0
 40
0
 40
1
 40
1
 40
1
 40
1
 10
35.335189
 20
97.596946
 30
0.0
 10
35.047042
 20
97.303100
 30
0.0
 10
34.774931
 20
96.995258
 30
0.0
 10
34.520897
 20
96.675270
 30
0.0
  0
SPLINE
  5
1b1
100
AcDbEntity
  8
0
 62
3
100
AcDbSpline
 70
8
 71
3
 72
8
 73
4
 74
0
 40
0
 40
0
 40
0
 40
0
 40
1
 40
1
 40
1
 40
1
 10
34.520897
 20
96.675270
 30
0.0
 10
34.240224
 20
96.682150
 30
0.0
 10
33.948886
 20
96.670773
 30
0.0
 10
33.653116
 20
96.640028
 30
0.0
  0
SPLINE
  5
1b2
100
AcDbEntity
  8
0
 62
3
100
AcDbSpline
 70
8
 71
3
 72
8
 73
4
 74
0
 40
0
 40
0
 40
0
 40
0
 40
1
 40
1
 40
1
 40
1
 10
33.653116
 20
96.640028
 30
0.0
 10
33.357346
 20
96.609363
 30
0.0
 10
33.057087
 20
96.559753
 30
0.0
 10
32.759370
 20
96.490803
 30
0.0
  0
SPLINE
  5
1b3
100
AcDbEntity
  8
0
 62
3
100
AcDbSpline
 70
8
 71
3
 72
8
 73
4
 74
0
 40
0
 40
0
 40
0
 40
0
 40
1
 40
1
 40
1
 40
1
 10
32.759370
 20
96.490803
 30
0.0
 10
32.461652
 20
96.421853
 30
0.0
 10
32.166473
 20
96.333376
 30
0.0
 10
31.879961
 20
96.225294
 30
0.0
  0
SPLINE
  5
1b4
100
AcDbEntity
  8
0
 62
3
100
AcDbSpline
 70
8
 71
3
 72
8
 73
4
 74
0
 40
0
 40
0
 40
0
 40
0
 40
1
 40
1
 40
1
 40
1
 10
31.879961
 20
96.225294
 30
0.0
 10
31.593457
 20
96.117238
 30
0.0
 10
31.315798
 20
95.989259
 30
0.0
 10
31.053654
 20
95.841224
 30
0.0
  0
SPLINE
  5
1b5
100
AcDbEntity
  8
0
 62
3
100
AcDbSpline
 70
8
 71
3
 72
8
 73
4
 74
0
 40
0
 40
0
 40
0
 40
0
 40
1
 40
1
 40
1
 40
1
 10
31.053654
 20
95.841224
 30
0.0
 10
30.791512
 20
95.693190
 30
0.0
 10
30.544593
 20
95.525021
 30
0.0
 10
30.319975
 20
95.336214
 30
0.0
  0
SPLINE
  5
1b6
100
AcDbEntity
  8
0
 62
3
100
AcDbSpline
 70
8
 71
3
 72
8
 73
4
 74
0
 40
0
 40
0
 40
0
 40
0
 40
1
 40
1
 40
1
 40
1
 10
30.319975
 20
95.336214
 30
0.0
 10
30.095354
 20
95.147408
 30
0.0
 10
29.892789
 20
94.937963
 30
0.0
 10
29.718847
 20
94.707564
 30
0.0
  0
SPLINE
  5
1b7
100
AcDbEntity
  8
0
 62
3
100
AcDbSpline
 70
8
 71
3
 72
8
 73
4
 74
0
 40
0
 40
0
 40
0
 40
0
 40
1
 40
1
 40
1
 40
1
 10
29.718847
 20
94.707564
 30
0.0
 10
29.544907
 20
94.477165
 30
0.0
 10
29.399905
 20
94.225784
 30
0.0
 10
29.289801
 20
93.952973
 30
0.0
  0
SPLINE
  5
1b8
100
AcDbEntity
  8
0
 62
3
100
AcDbSpline
 70
8
 71
3
 72
8
 73
4
 74
0
 40
0
 40
0
 40
0
 40
0
 40
1
 40
1
 40
1
 40
1
 10
29.289801
 20
93.952973
 30
0.0
 10
29.179697
 20
93.680108
 30
0.0
 10
29.104712
 20
93.386129
 30
0.0
 10
29.071596
 20
93.070084
 30
0.0
  0
SPLINE
  5
1b9
100
AcDbEntity
  8
0
 62
3
100
AcDbSpline
 70
8
 71
3
 72
8
 73
4
 74
0
 40
0
 40
0
 40
0
 40
0
 40
1
 40
1
 40
1
 40
1
 10
29.071596
 20
93.070084
 30
0.0
 10
29.046382
 20
92.962690
 30
0.0
 10
29.044114
 20
92.857121
 30
0.0
 10
29.058023
 20
92.753801
 30
0.0
  0
SPLINE
  5
1ba
100
AcDbEntity
  8
0
 62
3
100
AcDbSpline
 70
8
 71
3
 72
8
 73
4
 74
0
 40
0
 40
0
 40
0
 40
0
 40
1
 40
1
 40
1
 40
1
 10
29.058023
 20
92.753801
 30
0.0
 10
29.071940
 20
92.650482
 30
0.0
 10
29.101997
 20
92.549411
 30
0.0
 10
29.141351
 20
92.449954
 30
0.0
  0
SPLINE
  5
1bb
100
AcDbEntity
  8
0
 62
3
100
AcDbSpline
 70
8
 71
3
 72
8
 73
4
 74
0
 40
0
 40
0
 40
0
 40
0
 40
1
 40
1
 40
1
 40
1
 10
29.141351
 20
92.449954
 30
0.0
 10
29.220067
 20
92.251120
 30
0.0
 10
29.335931
 20
92.059667
 30
0.0
 10
29.433972
 20
91.875173
 30
0.0
  0
SPLINE
  5
1bc
100
AcDbEntity
  8
0
 62
3
100
AcDbSpline
 70
8
 71
3
 72
8
 73
4
 74
0
 40
0
 40
0
 40
0
 40
0
 40
1
 40
1
 40
1
 40
1
 10
29.433972
 20
91.875173
 30
0.0
 10
29.532014
 20
91.690679
 30
0.0
 10
29.612447
 20
91.512826
 30
0.0
 10
29.620006
 20
91.341112
 30
0.0
  0
SPLINE
  5
1bd
100
AcDbEntity
  8
0
 62
3
100
AcDbSpline
 70
8
 71
3
 72
8
 73
4
 74
0
 40
0
 40
0
 40
0
 40
0
 40
1
 40
1
 40
1
 40
1
 10
29.620006
 20
91.341112
 30
0.0
 10
29.623763
 20
91.255254
 30
0.0
 10
29.609053
 20
91.170985
 30
0.0
 10
29.569624
 20
91.088011
 30
0.0
  0
SPLINE
  5
1be
100
AcDbEntity
  8
0
 62
3
100
AcDbSpline
 70
8
 71
3
 72
8
 73
4
 74
0
 40
0
 40
0
 40
0
 40
0
 40
1
 40
1
 40
1
 40
1
 10
29.569624
 20
91.088011
 30
0.0
 10
29.530183
 20
91.005038
 30
0.0
 10
29.466011
 20
90.923361
 30
0.0
 10
29.369634
 20
90.843060
 30
0.0
  0
SPLINE
  5
1bf
100
AcDbEntity
  8
0
 62
3
100
AcDbSpline
 70
8
 71
3
 72
8
 73
4
 74
0
 40
0
 40
0
 40
0
 40
0
 40
1
 40
1
 40
1
 40
1
 10
29.369634
 20
90.843060
 30
0.0
 10
29.247195
 20
90.643300
 30
0.0
 10
29.155393
 20
90.435760
 30
0.0
 10
29.091742
 20
90.224120
 30
0.0
  0
SPLINE
  5
1c0
100
AcDbEntity
  8
0
 62
3
100
AcDbSpline
 70
8
 71
3
 72
8
 73
4
 74
0
 40
0
 40
0
 40
0
 40
0
 40
1
 40
1
 40
1
 40
1
 10
29.091742
 20
90.224120
 30
0.0
 10
29.028096
 20
90.012454
 30
0.0
 10
28.992658
 20
89.796554
 30
0.0
 10
28.982834
 20
89.580733
 30
0.0
  0
SPLINE
  5
1c1
100
AcDbEntity
  8
0
 62
3
100
AcDbSpline
 70
8
 71
3
 72
8
 73
4
 74
0
 40
0
 40
0
 40
0
 40
0
 40
1
 40
1
 40
1
 40
1
 10
28.982834
 20
89.580733
 30
0.0
 10
28.973044
 20
89.364912
 30
0.0
 10
28.988734
 20
89.149224
 30
0.0
 10
29.027795
 20
88.936975
 30
0.0
  0
SPLINE
  5
1c2
100
AcDbEntity
  8
0
 62
3
100
AcDbSpline
 70
8
 71
3
 72
8
 73
4
 74
0
 40
0
 40
0
 40
0
 40
0
 40
1
 40
1
 40
1
 40
1
 10
29.027795
 20
88.936975
 30
0.0
 10
29.066855
 20
88.724700
 30
0.0
 10
29.128913
 20
88.515891
 30
0.0
 10
29.211892
 20
88.314913
 30
0.0
  0
SPLINE
  5
1c3
100
AcDbEntity
  8
0
 62
3
100
AcDbSpline
 70
8
 71
3
 72
8
 73
4
 74
0
 40
0
 40
0
 40
0
 40
0
 40
1
 40
1
 40
1
 40
1
 10
29.211892
 20
88.314913
 30
0.0
 10
29.294873
 20
88.113989
 30
0.0
 10
29.398849
 20
87.920896
 30
0.0
 10
29.520788
 20
87.738968
 30
0.0
  0
SPLINE
  5
1c4
100
AcDbEntity
  8
0
 62
3
100
AcDbSpline
 70
8
 71
3
 72
8
 73
4
 74
0
 40
0
 40
0
 40
0
 40
0
 40
1
 40
1
 40
1
 40
1
 10
29.520788
 20
87.738968
 30
0.0
 10
29.642731
 20
87.557041
 30
0.0
 10
29.782648
 20
87.386411
 30
0.0
 10
29.938594
 20
87.231259
 30
0.0
  0
SPLINE
  5
1c5
100
AcDbEntity
  8
0
 62
3
100
AcDbSpline
 70
8
 71
3
 72
8
 73
4
 74
0
 40
0
 40
0
 40
0
 40
0
 40
1
 40
1
 40
1
 40
1
 10
29.938594
 20
87.231259
 30
0.0
 10
30.094542
 20
87.076108
 30
0.0
 10
30.266362
 20
86.936381
 30
0.0
 10
30.451356
 20
86.815784
 30
0.0
  0
SPLINE
  5
1c6
100
AcDbEntity
  8
0
 62
3
100
AcDbSpline
 70
8
 71
3
 72
8
 73
4
 74
0
 40
0
 40
0
 40
0
 40
0
 40
1
 40
1
 40
1
 40
1
 10
30.451356
 20
86.815784
 30
0.0
 10
30.636345
 20
86.695134
 30
0.0
 10
30.834875
 20
86.593402
 30
0.0
 10
31.043957
 20
86.515032
 30
0.0
  0
SPLINE
  5
1c7
100
AcDbEntity
  8
0
 62
3
100
AcDbSpline
 70
8
 71
3
 72
8
 73
4
 74
0
 40
0
 40
0
 40
0
 40
0
 40
1
 40
1
 40
1
 40
1
 10
31.043957
 20
86.515032
 30
0.0
 10
31.269974
 20
86.347974
 30
0.0
 10
31.513719
 20
86.207957
 30
0.0
 10
31.768722
 20
86.088683
 30
0.0
  0
SPLINE
  5
1c8
100
AcDbEntity
  8
0
 62
3
100
AcDbSpline
 70
8
 71
3
 72
8
 73
4
 74
0
 40
0
 40
0
 40
0
 40
0
 40
1
 40
1
 40
1
 40
1
 10
31.768722
 20
86.088683
 30
0.0
 10
32.023719
 20
85.969409
 30
0.0
 10
32.289771
 20
85.870931
 30
0.0
 10
32.559371
 20
85.787931
 30
0.0
  0
SPLINE
  5
1c9
100
AcDbEntity
  8
0
 62
3
100
AcDbSpline
 70
8
 71
3
 72
8
 73
4
 74
0
 40
0
 40
0
 40
0
 40
0
 40
1
 40
1
 40
1
 40
1
 10
32.559371
 20
85.787931
 30
0.0
 10
33.098571
 20
85.621878
 30
0.0
 10
33.652640
 20
85.516839
 30
0.0
 10
34.163931
 20
85.426722
 30
0.0
  0
SPLINE
  5
1ca
100
AcDbEntity
  8
0
 62
3
100
AcDbSpline
 70
8
 71
3
 72
8
 73
4
 74
0
 40
0
 40
0
 40
0
 40
0
 40
1
 40
1
 40
1
 40
1
 10
34.163931
 20
85.426722
 30
0.0
 10
34.389359
 20
85.052574
 30
0.0
 10
34.637924
 20
84.695969
 30
0.0
 10
34.907299
 20
84.357011
 30
0.0
  0
SPLINE
  5
1cb
100
AcDbEntity
  8
0
 62
3
100
AcDbSpline
 70
8
 71
3
 72
8
 73
4
 74
0
 40
0
 40
0
 40
0
 40
0
 40
1
 40
1
 40
1
 40
1
 10
34.907299
 20
84.357011
 30
0.0
 10
35.176674
 20
84.018106
 30
0.0
 10
35.466766
 20
83.696982
 30
0.0
 10
35.774691
 20
83.394272
 30
0.0
  0
SPLINE
  5
1cc
100
AcDbEntity
  8
0
 62
3
100
AcDbSpline
 70
8
 71
3
 72
8
 73
4
 74
0
 40
0
 40
0
 40
0
 40
0
 40
1
 40
1
 40
1
 40
1
 10
35.774691
 20
83.394272
 30
0.0
 10
36.082616
 20
83.091562
 30
0.0
 10
36.408357
 20
82.807109
 30
0.0
 10
36.749442
 20
82.541599
 30
0.0
  0
SPLINE
  5
1cd
100
AcDbEntity
  8
0
 62
3
100
AcDbSpline
 70
8
 71
3
 72
8
 73
4
 74
0
 40
0
 40
0
 40
0
 40
0
 40
1
 40
1
 40
1
 40
1
 10
36.749442
 20
82.541599
 30
0.0
 10
37.090522
 20
82.276143
 30
0.0
 10
37.446826
 20
82.029366
 30
0.0
 10
37.815658
 20
81.802115
 30
0.0
  0
SPLINE
  5
1ce
100
AcDbEntity
  8
0
 62
3
100
AcDbSpline
 70
8
 71
3
 72
8
 73
4
 74
0
 40
0
 40
0
 40
0
 40
0
 40
1
 40
1
 40
1
 40
1
 10
37.815658
 20
81.802115
 30
0.0
 10
38.184495
 20
81.574838
 30
0.0
 10
38.565868
 20
81.366981
 30
0.0
 10
38.957065
 20
81.178889
 30
0.0
  0
SPLINE
  5
1cf
100
AcDbEntity
  8
0
 62
3
100
AcDbSpline
 70
8
 71
3
 72
8
 73
4
 74
0
 40
0
 40
0
 40
0
 40
0
 40
1
 40
1
 40
1
 40
1
 10
38.957065
 20
81.178889
 30
0.0
 10
39.348259
 20
80.990823
 30
0.0
 10
39.749611
 20
80.822919
 30
0.0
 10
40.157770
 20
80.675043
 30
0.0
  0
SPLINE
  5
1d0
100
AcDbEntity
  8
0
 62
3
100
AcDbSpline
 70
8
 71
3
 72
8
 73
4
 74
0
 40
0
 40
0
 40
0
 40
0
 40
1
 40
1
 40
1
 40
1
 10
40.157770
 20
80.675043
 30
0.0
 10
40.565927
 20
80.527220
 30
0.0
 10
40.981000
 20
80.399533
 30
0.0
 10
41.400722
 20
80.292905
 30
0.0
  0
SPLINE
  5
1d1
100
AcDbEntity
  8
0
 62
3
100
AcDbSpline
 70
8
 71
3
 72
8
 73
4
 74
0
 40
0
 40
0
 40
0
 40
0
 40
1
 40
1
 40
1
 40
1
 10
41.400722
 20
80.292905
 30
0.0
 10
41.482068
 20
80.272268
 30
0.0
 10
41.565174
 20
80.262346
 30
0.0
 10
41.646832
 20
80.243296
 30
0.0
  0
SPLINE
  5
1d2
100
AcDbEntity
  8
0
 62
3
100
AcDbSpline
 70
8
 71
3
 72
8
 73
4
 74
0
 40
0
 40
0
 40
0
 40
0
 40
1
 40
1
 40
1
 40
1
 10
41.646832
 20
80.243296
 30
0.0
 10
39.378871
 20
78.377984
 30
0.0
 10
38.100265
 20
75.184807
 30
0.0
 10
38.479960
 20
72.277089
 30
0.0
  0
SPLINE
  5
1d3
100
AcDbEntity
  8
0
 62
3
100
AcDbSpline
 70
8
 71
3
 72
8
 73
4
 74
0
 40
0
 40
0
 40
0
 40
0
 40
1
 40
1
 40
1
 40
1
 10
38.479960
 20
72.277089
 30
0.0
 10
38.483929
 20
72.161519
 30
0.0
 10
38.492290
 20
72.045975
 30
0.0
 10
38.502053
 20
71.930590
 30
0.0
  0
SPLINE
  5
1d4
100
AcDbEntity
  8
0
 62
3
100
AcDbSpline
 70
8
 71
3
 72
8
 73
4
 74
0
 40
0
 40
0
 40
0
 40
0
 40
1
 40
1
 40
1
 40
1
 10
38.502053
 20
71.930590
 30
0.0
 10
37.100629
 20
71.309534
 30
0.0
 10
35.838440
 20
70.520176
 30
0.0
 10
34.677855
 20
69.610962
 30
0.0
  0
SPLINE
  5
1d5
100
AcDbEntity
  8
0
 62
3
100
AcDbSpline
 70
8
 71
3
 72
8
 73
4
 74
0
 40
0
 40
0
 40
0
 40
0
 40
1
 40
1
 40
1
 40
1
 10
34.677855
 20
69.610962
 30
0.0
 10
34.271453
 20
71.654709
 30
0.0
 10
33.095287
 20
73.577675
 30
0.0
 10
31.164493
 20
74.450985
 30
0.0
  0
SPLINE
  5
1d6
100
AcDbEntity
  8
0
 62
3
100
AcDbSpline
 70
8
 71
3
 72
8
 73
4
 74
0
 40
0
 40
0
 40
0
 40
0
 40
1
 40
1
 40
1
 40
1
 10
31.164493
 20
74.450985
 30
0.0
 10
32.902554
 20
75.946674
 30
0.0
 10
34.237872
 20
78.825976
 30
0.0
 10
32.508989
 20
80.807203
 30
0.0
  0
SPLINE
  5
1d7
100
AcDbEntity
  8
0
 62
3
100
AcDbSpline
 70
8
 71
3
 72
8
 73
4
 74
0
 40
0
 40
0
 40
0
 40
0
 40
1
 40
1
 40
1
 40
1
 10
32.508989
 20
80.807203
 30
0.0
 10
30.775262
 20
82.832456
 30
0.0
 10
27.490118
 20
82.032647
 30
0.0
 10
25.857822
 20
80.277004
 30
0.0
  0
SPLINE
  5
1d8
100
AcDbEntity
  8
0
 62
3
100
AcDbSpline
 70
8
 71
3
 72
8
 73
4
 74
0
 40
0
 40
0
 40
0
 40
0
 40
1
 40
1
 40
1
 40
1
 10
25.857822
 20
80.277004
 30
0.0
 10
24.253923
 20
84.968940
 30
0.0
 10
17.681988
 20
85.919931
 30
0.0
 10
14.027886
 20
83.074523
 30
0.0
  0
SPLINE
  5
1d9
100
AcDbEntity
  8
0
 62
3
100
AcDbSpline
 70
8
 71
3
 72
8
 73
4
 74
0
 40
0
 40
0
 40
0
 40
0
 40
1
 40
1
 40
1
 40
1
 10
14.027886
 20
83.074523
 30
0.0
 10
13.910098
 20
82.982633
 30
0.0
 10
13.794698
 20
82.887595
 30
0.0
 10
13.683332
 20
82.787715
 30
0.0
  0
SPLINE
  5
1da
100
AcDbEntity
  8
0
 62
3
100
AcDbSpline
 70
8
 71
3
 72
8
 73
4
 74
0
 40
0
 40
0
 40
0
 40
0
 40
1
 40
1
 40
1
 40
1
 10
13.683332
 20
82.787715
 30
0.0
 10
11.496313
 20
80.994713
 30
0.0
 10
10.458400
 20
78.265906
 30
0.0
 10
8.979339
 20
75.937335
 30
0.0
  0
SPLINE
  5
1db
100
AcDbEntity
  8
0
 62
3
100
AcDbSpline
 70
8
 71
3
 72
8
 73
4
 74
0
 40
0
 40
0
 40
0
 40
0
 40
1
 40
1
 40
1
 40
1
 10
8.979339
 20
75.937335
 30
0.0
 10
9.472549
 20
75.791920
 30
0.0
 10
11.871444
 20
76.663484
 30
0.0
 10
10.848999
 20
75.733473
 30
0.0
  0
SPLINE
  5
1dc
100
AcDbEntity
  8
0
 62
3
100
AcDbSpline
 70
8
 71
3
 72
8
 73
4
 74
0
 40
0
 40
0
 40
0
 40
0
 40
1
 40
1
 40
1
 40
1
 10
10.848999
 20
75.733473
 30
0.0
 10
8.673584
 20
73.197627
 30
0.0
 10
7.651734
 20
69.699253
 30
0.0
 10
8.008078
 20
66.450302
 30
0.0
  0
SPLINE
  5
1dd
100
AcDbEntity
  8
0
 62
3
100
AcDbSpline
 70
8
 71
3
 72
8
 73
4
 74
0
 40
0
 40
0
 40
0
 40
0
 40
1
 40
1
 40
1
 40
1
 10
8.008078
 20
66.450302
 30
0.0
 10
6.373741
 20
64.909634
 30
0.0
 10
5.080831
 20
62.037634
 30
0.0
 10
6.671334
 20
60.054133
 30
0.0
  0
SPLINE
  5
1de
100
AcDbEntity
  8
0
 62
3
100
AcDbSpline
 70
8
 71
3
 72
8
 73
4
 74
0
 40
0
 40
0
 40
0
 40
0
 40
1
 40
1
 40
1
 40
1
 10
6.671334
 20
60.054133
 30
0.0
 10
7.132431
 20
59.301552
 30
0.0
 10
8.545655
 20
59.680250
 30
0.0
 10
8.449527
 20
58.681368
 30
0.0
  0
SPLINE
  5
1df
100
AcDbEntity
  8
0
 62
3
100
AcDbSpline
 70
8
 71
3
 72
8
 73
4
 74
0
 40
0
 40
0
 40
0
 40
0
 40
1
 40
1
 40
1
 40
1
 10
8.449527
 20
58.681368
 30
0.0
 10
8.877554
 20
56.856511
 30
0.0
 10
11.054117
 20
56.051992
 30
0.0
 10
12.684165
 20
56.783036
 30
0.0
  0
SPLINE
  5
1e0
100
AcDbEntity
  8
0
 62
3
100
AcDbSpline
 70
8
 71
3
 72
8
 73
4
 74
0
 40
0
 40
0
 40
0
 40
0
 40
1
 40
1
 40
1
 40
1
 10
12.684165
 20
56.783036
 30
0.0
 10
13.796828
 20
56.944008
 30
0.0
 10
14.813722
 20
57.613060
 30
0.0
 10
15.667326
 20
58.204245
 30
0.0
  0
SPLINE
  5
1e1
100
AcDbEntity
  8
0
 62
3
100
AcDbSpline
 70
8
 71
3
 72
8
 73
4
 74
0
 40
0
 40
0
 40
0
 40
0
 40
1
 40
1
 40
1
 40
1
 10
15.667326
 20
58.204245
 30
0.0
 10
16.105963
 20
58.093041
 30
0.0
 10
16.549291
 20
58.015915
 30
0.0
 10
16.994770
 20
57.964744
 30
0.0
  0
SPLINE
  5
1e2
100
AcDbEntity
  8
0
 62
3
100
AcDbSpline
 70
8
 71
3
 72
8
 73
4
 74
0
 40
0
 40
0
 40
0
 40
0
 40
1
 40
1
 40
1
 40
1
 10
16.994770
 20
57.964744
 30
0.0
 10
16.766389
 20
56.935118
 30
0.0
 10
16.729173
 20
55.870276
 30
0.0
 10
16.915704
 20
54.856393
 30
0.0
  0
SPLINE
  5
1e3
100
AcDbEntity
  8
0
 62
3
100
AcDbSpline
 70
8
 71
3
 72
8
 73
4
 74
0
 40
0
 40
0
 40
0
 40
0
 40
1
 40
1
 40
1
 40
1
 10
16.915704
 20
54.856393
 30
0.0
 10
17.008374
 20
53.774988
 30
0.0
 10
17.336701
 20
52.707765
 30
0.0
 10
17.842394
 20
51.722853
 30
0.0
  0
SPLINE
  5
1e4
100
AcDbEntity
  8
0
 62
3
100
AcDbSpline
 70
8
 71
3
 72
8
 73
4
 74
0
 40
0
 40
0
 40
0
 40
0
 40
1
 40
1
 40
1
 40
1
 10
17.842394
 20
51.722853
 30
0.0
 10
12.519541
 20
48.005246
 30
0.0
 10
6.386774
 20
45.422595
 30
0.0
 10
0.100782
 20
43.861289
 30
0.0
  0
LWPOLYLINE
  5
1e5
100
AcDbEntity
  8
0
 62
3
100
AcDbPolyline
 90
2
 70
0
 10
115.827821
 20
71.452409
 30
0.0
 10
115.985166
 20
73.966030
 30
0.0
  0
SPLINE
  5
1e6
100
AcDbEntity
  8
0
 62
5
100
AcDbSpline
 70
8
 71
3
 72
8
 73
4
 74
0
 40
0
 40
0
 40
0
 40
0
 40
1
 40
1
 40
1
 40
1
 10
18.847599
 20
83.102304
 30
0.0
 10
17.417632
 20
83.082990
 30
0.0
 10
15.999661
 20
82.596341
 30
0.0
 10
14.867596
 20
81.705093
 30
0.0
  0
SPLINE
  5
1e7
100
AcDbEntity
  8
0
 62
5
100
AcDbSpline
 70
8
 71
3
 72
8
 73
4
 74
0
 40
0
 40
0
 40
0
 40
0
 40
1
 40
1
 40
1
 40
1
 10
14.867596
 20
81.705093
 30
0.0
 10
14.757953
 20
81.618494
 30
0.0
 10
14.651035
 20
81.528351
 30
0.0
 10
14.546686
 20
81.434530
 30
0.0
  0
SPLINE
  5
1e8
100
AcDbEntity
  8
0
 62
5
100
AcDbSpline
 70
8
 71
3
 72
8
 73
4
 74
0
 40
0
 40
0
 40
0
 40
0
 40
1
 40
1
 40
1
 40
1
 10
14.546686
 20
81.434530
 30
0.0
 10
13.418399
 20
80.478987
 30
0.0
 10
12.671285
 20
79.178666
 30
0.0
 10
11.950711
 20
77.910703
 30
0.0
  0
SPLINE
  5
1e9
100
AcDbEntity
  8
0
 62
5
100
AcDbSpline
 70
8
 71
3
 72
8
 73
4
 74
0
 40
0
 40
0
 40
0
 40
0
 40
1
 40
1
 40
1
 40
1
 10
11.950711
 20
77.910703
 30
0.0
 10
14.408481
 20
78.270563
 30
0.0
 10
17.106207
 20
79.738736
 30
0.0
 10
19.523533
 20
78.767635
 30
0.0
  0
SPLINE
  5
1ea
100
AcDbEntity
  8
0
 62
5
100
AcDbSpline
 70
8
 71
3
 72
8
 73
4
 74
0
 40
0
 40
0
 40
0
 40
0
 40
1
 40
1
 40
1
 40
1
 10
19.523533
 20
78.767635
 30
0.0
 10
16.759351
 20
78.566790
 30
0.0
 10
14.193173
 20
77.110444
 30
0.0
 10
12.349525
 20
75.020950
 30
0.0
  0
LWPOLYLINE
  5
1eb
100
AcDbEntity
  8
0
 62
3
100
AcDbPolyline
 90
2
 70
0
 10
0.100782
 20
43.861289
 30
0.0
 10
0.147294
 20
41.534358
 30
0.0
  0
SPLINE
  5
1ec
100
AcDbEntity
  8
0
 62
5
100
AcDbSpline
 70
8
 71
3
 72
8
 73
4
 74
0
 40
0
 40
0
 40
0
 40
0
 40
1
 40
1
 40
1
 40
1
 10
17.968582
 20
72.434304
 30
0.0
 10
18.253178
 20
72.693834
 30
0.0
 10
18.575269
 20
72.911110
 30
0.0
 10
18.926278
 20
73.069542
 30
0.0
  0
SPLINE
  5
1ed
100
AcDbEntity
  8
0
 62
5
100
AcDbSpline
 70
8
 71
3
 72
8
 73
4
 74
0
 40
0
 40
0
 40
0
 40
0
 40
1
 40
1
 40
1
 40
1
 10
18.926278
 20
73.069542
 30
0.0
 10
19.101784
 20
73.148759
 30
0.0
 10
19.284765
 20
73.213132
 30
0.0
 10
19.473534
 20
73.260995
 30
0.0
  0
SPLINE
  5
1ee
100
AcDbEntity
  8
0
 62
5
100
AcDbSpline
 70
8
 71
3
 72
8
 73
4
 74
0
 40
0
 40
0
 40
0
 40
0
 40
1
 40
1
 40
1
 40
1
 10
19.473534
 20
73.260995
 30
0.0
 10
19.662301
 20
73.308858
 30
0.0
 10
19.857024
 20
73.339999
 30
0.0
 10
20.056832
 20
73.352461
 30
0.0
  0
SPLINE
  5
1ef
100
AcDbEntity
  8
0
 62
5
100
AcDbSpline
 70
8
 71
3
 72
8
 73
4
 74
0
 40
0
 40
0
 40
0
 40
0
 40
1
 40
1
 40
1
 40
1
 10
20.056832
 20
73.352461
 30
0.0
 10
20.374261
 20
73.368072
 30
0.0
 10
20.665096
 20
73.311424
 30
0.0
 10
20.939728
 20
73.210221
 30
0.0
  0
SPLINE
  5
1f0
100
AcDbEntity
  8
0
 62
5
100
AcDbSpline
 70
8
 71
3
 72
8
 73
4
 74
0
 40
0
 40
0
 40
0
 40
0
 40
1
 40
1
 40
1
 40
1
 10
20.939728
 20
73.210221
 30
0.0
 10
21.214355
 20
73.108992
 30
0.0
 10
21.472620
 20
72.963418
 30
0.0
 10
21.724956
 20
72.801334
 30
0.0
  0
SPLINE
  5
1f1
100
AcDbEntity
  8
0
 62
5
100
AcDbSpline
 70
8
 71
3
 72
8
 73
4
 74
0
 40
0
 40
0
 40
0
 40
0
 40
1
 40
1
 40
1
 40
1
 10
21.724956
 20
72.801334
 30
0.0
 10
21.977287
 20
72.639250
 30
0.0
 10
22.223590
 20
72.460815
 30
0.0
 10
22.474134
 20
72.293969
 30
0.0
  0
SPLINE
  5
1f2
100
AcDbEntity
  8
0
 62
5
100
AcDbSpline
 70
8
 71
3
 72
8
 73
4
 74
0
 40
0
 40
0
 40
0
 40
0
 40
1
 40
1
 40
1
 40
1
 10
22.474134
 20
72.293969
 30
0.0
 10
22.724682
 20
72.127202
 30
0.0
 10
22.979637
 20
71.971865
 30
0.0
 10
23.248893
 20
71.856428
 30
0.0
  0
SPLINE
  5
1f3
100
AcDbEntity
  8
0
 62
5
100
AcDbSpline
 70
8
 71
3
 72
8
 73
4
 74
0
 40
0
 40
0
 40
0
 40
0
 40
1
 40
1
 40
1
 40
1
 10
23.248893
 20
71.856428
 30
0.0
 10
23.392696
 20
71.649682
 30
0.0
 10
23.490402
 20
71.404572
 30
0.0
 10
23.552756
 20
71.136285
 30
0.0
  0
SPLINE
  5
1f4
100
AcDbEntity
  8
0
 62
5
100
AcDbSpline
 70
8
 71
3
 72
8
 73
4
 74
0
 40
0
 40
0
 40
0
 40
0
 40
1
 40
1
 40
1
 40
1
 10
23.552756
 20
71.136285
 30
0.0
 10
23.615108
 20
70.868024
 30
0.0
 10
23.642077
 20
70.576665
 30
0.0
 10
23.643833
 20
70.277818
 30
0.0
  0
SPLINE
  5
1f5
100
AcDbEntity
  8
0
 62
5
100
AcDbSpline
 70
8
 71
3
 72
8
 73
4
 74
0
 40
0
 40
0
 40
0
 40
0
 40
1
 40
1
 40
1
 40
1
 10
23.643833
 20
70.277818
 30
0.0
 10
23.645685
 20
69.978971
 30
0.0
 10
23.622111
 20
69.672345
 30
0.0
 10
23.584149
 20
69.373975
 30
0.0
  0
SPLINE
  5
1f6
100
AcDbEntity
  8
0
 62
5
100
AcDbSpline
 70
8
 71
3
 72
8
 73
4
 74
0
 40
0
 40
0
 40
0
 40
0
 40
1
 40
1
 40
1
 40
1
 10
23.584149
 20
69.373975
 30
0.0
 10
23.546170
 20
69.075683
 30
0.0
 10
23.493725
 20
68.785462
 30
0.0
 10
23.436868
 20
68.518603
 30
0.0
  0
SPLINE
  5
1f7
100
AcDbEntity
  8
0
 62
5
100
AcDbSpline
 70
8
 71
3
 72
8
 73
4
 74
0
 40
0
 40
0
 40
0
 40
0
 40
1
 40
1
 40
1
 40
1
 10
23.436868
 20
68.518603
 30
0.0
 10
23.349818
 20
68.205945
 30
0.0
 10
23.215542
 20
67.923529
 30
0.0
 10
23.044253
 20
67.672545
 30
0.0
  0
SPLINE
  5
1f8
100
AcDbEntity
  8
0
 62
5
100
AcDbSpline
 70
8
 71
3
 72
8
 73
4
 74
0
 40
0
 40
0
 40
0
 40
0
 40
1
 40
1
 40
1
 40
1
 10
23.044253
 20
67.672545
 30
0.0
 10
22.872973
 20
67.421561
 30
0.0
 10
22.664740
 20
67.202089
 30
0.0
 10
22.429563
 20
67.015638
 30
0.0
  0
SPLINE
  5
1f9
100
AcDbEntity
  8
0
 62
5
100
AcDbSpline
 70
8
 71
3
 72
8
 73
4
 74
0
 40
0
 40
0
 40
0
 40
0
 40
1
 40
1
 40
1
 40
1
 10
22.429563
 20
67.015638
 30
0.0
 10
22.194385
 20
66.829133
 30
0.0
 10
21.932381
 20
66.675621
 30
0.0
 10
21.653638
 20
66.556347
 30
0.0
  0
SPLINE
  5
1fa
100
AcDbEntity
  8
0
 62
5
100
AcDbSpline
 70
8
 71
3
 72
8
 73
4
 74
0
 40
0
 40
0
 40
0
 40
0
 40
1
 40
1
 40
1
 40
1
 10
21.653638
 20
66.556347
 30
0.0
 10
21.374899
 20
66.437047
 30
0.0
 10
21.079299
 20
66.352115
 30
0.0
 10
20.777335
 20
66.302876
 30
0.0
  0
SPLINE
  5
1fb
100
AcDbEntity
  8
0
 62
5
100
AcDbSpline
 70
8
 71
3
 72
8
 73
4
 74
0
 40
0
 40
0
 40
0
 40
0
 40
1
 40
1
 40
1
 40
1
 10
20.777335
 20
66.302876
 30
0.0
 10
20.475366
 20
66.253585
 30
0.0
 10
20.166740
 20
66.239879
 30
0.0
 10
19.861882
 20
66.263295
 30
0.0
  0
SPLINE
  5
1fc
100
AcDbEntity
  8
0
 62
5
100
AcDbSpline
 70
8
 71
3
 72
8
 73
4
 74
0
 40
0
 40
0
 40
0
 40
0
 40
1
 40
1
 40
1
 40
1
 10
19.861882
 20
66.263295
 30
0.0
 10
19.557024
 20
66.286843
 30
0.0
 10
19.255936
 20
66.347353
 30
0.0
 10
18.968522
 20
66.446254
 30
0.0
  0
SPLINE
  5
1fd
100
AcDbEntity
  8
0
 62
5
100
AcDbSpline
 70
8
 71
3
 72
8
 73
4
 74
0
 40
0
 40
0
 40
0
 40
0
 40
1
 40
1
 40
1
 40
1
 10
18.968522
 20
66.446254
 30
0.0
 10
18.681110
 20
66.545155
 30
0.0
 10
18.407740
 20
66.682289
 30
0.0
 10
18.158105
 20
66.859454
 30
0.0
  0
SPLINE
  5
1fe
100
AcDbEntity
  8
0
 62
5
100
AcDbSpline
 70
8
 71
3
 72
8
 73
4
 74
0
 40
0
 40
0
 40
0
 40
0
 40
1
 40
1
 40
1
 40
1
 10
18.158105
 20
66.859454
 30
0.0
 10
17.908468
 20
67.036566
 30
0.0
 10
17.682612
 20
67.253604
 30
0.0
 10
17.491088
 20
67.511731
 30
0.0
  0
SPLINE
  5
1ff
100
AcDbEntity
  8
0
 62
5
100
AcDbSpline
 70
8
 71
3
 72
8
 73
4
 74
0
 40
0
 40
0
 40
0
 40
0
 40
1
 40
1
 40
1
 40
1
 10
17.491088
 20
67.511731
 30
0.0
 10
17.260898
 20
67.758191
 30
0.0
 10
17.083262
 20
68.025446
 30
0.0
 10
16.953137
 20
68.305481
 30
0.0
  0
SPLINE
  5
200
100
AcDbEntity
  8
0
 62
5
100
AcDbSpline
 70
8
 71
3
 72
8
 73
4
 74
0
 40
0
 40
0
 40
0
 40
0
 40
1
 40
1
 40
1
 40
1
 10
16.953137
 20
68.305481
 30
0.0
 10
16.823005
 20
68.585490
 30
0.0
 10
16.740330
 20
68.878145
 30
0.0
 10
16.700825
 20
69.175537
 30
0.0
  0
SPLINE
  5
201
100
AcDbEntity
  8
0
 62
5
100
AcDbSpline
 70
8
 71
3
 72
8
 73
4
 74
0
 40
0
 40
0
 40
0
 40
0
 40
1
 40
1
 40
1
 40
1
 10
16.700825
 20
69.175537
 30
0.0
 10
16.661321
 20
69.473008
 30
0.0
 10
16.664959
 20
69.775268
 30
0.0
 10
16.706646
 20
70.073983
 30
0.0
  0
SPLINE
  5
202
100
AcDbEntity
  8
0
 62
5
100
AcDbSpline
 70
8
 71
3
 72
8
 73
4
 74
0
 40
0
 40
0
 40
0
 40
0
 40
1
 40
1
 40
1
 40
1
 10
16.706646
 20
70.073983
 30
0.0
 10
16.748326
 20
70.372671
 30
0.0
 10
16.828098
 20
70.667999
 30
0.0
 10
16.941520
 20
70.951817
 30
0.0
  0
LWPOLYLINE
  5
203
100
AcDbEntity
  8
0
 62
5
100
AcDbPolyline
 90
2
 70
0
 10
12.349525
 20
75.020950
 30
0.0
 10
17.968582
 20
72.434304
 30
0.0
  0
SPLINE
  5
204
100
AcDbEntity
  8
0
 62
5
100
AcDbSpline
 70
8
 71
3
 72
8
 73
4
 74
0
 40
0
 40
0
 40
0
 40
0
 40
1
 40
1
 40
1
 40
1
 10
11.106198
 20
73.327670
 30
0.0
 10
9.971111
 20
71.454420
 30
0.0
 10
9.363448
 20
69.284440
 30
0.0
 10
9.576827
 20
67.096203
 30
0.0
  0
SPLINE
  5
205
100
AcDbEntity
  8
0
 62
5
100
AcDbSpline
 70
8
 71
3
 72
8
 73
4
 74
0
 40
0
 40
0
 40
0
 40
0
 40
1
 40
1
 40
1
 40
1
 10
9.576827
 20
67.096203
 30
0.0
 10
9.477441
 20
66.466733
 30
0.0
 10
10.387055
 20
65.356674
 30
0.0
 10
9.359784
 20
65.455257
 30
0.0
  0
SPLINE
  5
206
100
AcDbEntity
  8
0
 62
5
100
AcDbSpline
 70
8
 71
3
 72
8
 73
4
 74
0
 40
0
 40
0
 40
0
 40
0
 40
1
 40
1
 40
1
 40
1
 10
9.359784
 20
65.455257
 30
0.0
 10
8.116009
 20
64.697967
 30
0.0
 10
7.529015
 20
63.010640
 30
0.0
 10
7.534309
 20
61.605041
 30
0.0
  0
SPLINE
  5
207
100
AcDbEntity
  8
0
 62
5
100
AcDbSpline
 70
8
 71
3
 72
8
 73
4
 74
0
 40
0
 40
0
 40
0
 40
0
 40
1
 40
1
 40
1
 40
1
 10
7.534309
 20
61.605041
 30
0.0
 10
7.916037
 20
60.361764
 30
0.0
 10
9.759593
 20
61.097173
 30
0.0
 10
10.322520
 20
60.948133
 30
0.0
  0
SPLINE
  5
208
100
AcDbEntity
  8
0
 62
5
100
AcDbSpline
 70
8
 71
3
 72
8
 73
4
 74
0
 40
0
 40
0
 40
0
 40
0
 40
1
 40
1
 40
1
 40
1
 10
10.322520
 20
60.948133
 30
0.0
 10
9.899510
 20
60.022515
 30
0.0
 10
9.639991
 20
58.051369
 30
0.0
 10
11.182160
 20
58.159160
 30
0.0
  0
SPLINE
  5
209
100
AcDbEntity
  8
0
 62
5
100
AcDbSpline
 70
8
 71
3
 72
8
 73
4
 74
0
 40
0
 40
0
 40
0
 40
0
 40
1
 40
1
 40
1
 40
1
 10
11.182160
 20
58.159160
 30
0.0
 10
12.460171
 20
58.357042
 30
0.0
 10
14.550395
 20
58.583023
 30
0.0
 10
14.762186
 20
60.181900
 30
0.0
  0
SPLINE
  5
20a
100
AcDbEntity
  8
0
 62
5
100
AcDbSpline
 70
8
 71
3
 72
8
 73
4
 74
0
 40
0
 40
0
 40
0
 40
0
 40
1
 40
1
 40
1
 40
1
 10
14.762186
 20
60.181900
 30
0.0
 10
15.651374
 20
59.798333
 30
0.0
 10
16.572206
 20
59.594816
 30
0.0
 10
17.497298
 20
59.520309
 30
0.0
  0
SPLINE
  5
20b
100
AcDbEntity
  8
0
 62
5
100
AcDbSpline
 70
8
 71
3
 72
8
 73
4
 74
0
 40
0
 40
0
 40
0
 40
0
 40
1
 40
1
 40
1
 40
1
 10
17.497298
 20
59.520309
 30
0.0
 10
18.552464
 20
61.970563
 30
0.0
 10
20.724609
 20
63.914641
 30
0.0
 10
23.503541
 20
63.970045
 30
0.0
  0
SPLINE
  5
20c
100
AcDbEntity
  8
0
 62
5
100
AcDbSpline
 70
8
 71
3
 72
8
 73
4
 74
0
 40
0
 40
0
 40
0
 40
0
 40
1
 40
1
 40
1
 40
1
 10
23.503541
 20
63.970045
 30
0.0
 10
25.211225
 20
64.028227
 30
0.0
 10
26.794666
 20
63.411245
 30
0.0
 10
28.104050
 20
62.399188
 30
0.0
  0
SPLINE
  5
20d
100
AcDbEntity
  8
0
 62
5
100
AcDbSpline
 70
8
 71
3
 72
8
 73
4
 74
0
 40
0
 40
0
 40
0
 40
0
 40
1
 40
1
 40
1
 40
1
 10
28.104050
 20
62.399188
 30
0.0
 10
29.680501
 20
64.516119
 30
0.0
 10
31.317885
 20
66.571005
 30
0.0
 10
33.214998
 20
68.337628
 30
0.0
  0
SPLINE
  5
20e
100
AcDbEntity
  8
0
 62
5
100
AcDbSpline
 70
8
 71
3
 72
8
 73
4
 74
0
 40
0
 40
0
 40
0
 40
0
 40
1
 40
1
 40
1
 40
1
 10
33.214998
 20
68.337628
 30
0.0
 10
33.083434
 20
70.506973
 30
0.0
 10
31.883924
 20
73.144314
 30
0.0
 10
29.474126
 20
73.217603
 30
0.0
  0
SPLINE
  5
20f
100
AcDbEntity
  8
0
 62
5
100
AcDbSpline
 70
8
 71
3
 72
8
 73
4
 74
0
 40
0
 40
0
 40
0
 40
0
 40
1
 40
1
 40
1
 40
1
 10
29.474126
 20
73.217603
 30
0.0
 10
28.957246
 20
73.234272
 30
0.0
 10
28.399888
 20
72.615173
 30
0.0
 10
28.462168
 20
73.486526
 30
0.0
  0
SPLINE
  5
210
100
AcDbEntity
  8
0
 62
5
100
AcDbSpline
 70
8
 71
3
 72
8
 73
4
 74
0
 40
0
 40
0
 40
0
 40
0
 40
1
 40
1
 40
1
 40
1
 10
28.462168
 20
73.486526
 30
0.0
 10
27.815260
 20
74.355841
 30
0.0
 10
29.349943
 20
74.699852
 30
0.0
 10
29.733415
 20
75.353505
 30
0.0
  0
SPLINE
  5
211
100
AcDbEntity
  8
0
 62
5
100
AcDbSpline
 70
8
 71
3
 72
8
 73
4
 74
0
 40
0
 40
0
 40
0
 40
0
 40
1
 40
1
 40
1
 40
1
 10
29.733415
 20
75.353505
 30
0.0
 10
30.864977
 20
76.359927
 30
0.0
 10
32.433670
 20
77.995290
 30
0.0
 10
31.440681
 20
79.589273
 30
0.0
  0
SPLINE
  5
212
100
AcDbEntity
  8
0
 62
5
100
AcDbSpline
 70
8
 71
3
 72
8
 73
4
 74
0
 40
0
 40
0
 40
0
 40
0
 40
1
 40
1
 40
1
 40
1
 10
31.440681
 20
79.589273
 30
0.0
 10
30.278361
 20
81.231726
 30
0.0
 10
28.124822
 20
80.228638
 30
0.0
 10
26.996364
 20
79.111435
 30
0.0
  0
SPLINE
  5
213
100
AcDbEntity
  8
0
 62
5
100
AcDbSpline
 70
8
 71
3
 72
8
 73
4
 74
0
 40
0
 40
0
 40
0
 40
0
 40
1
 40
1
 40
1
 40
1
 10
26.996364
 20
79.111435
 30
0.0
 10
26.333495
 20
78.602059
 30
0.0
 10
25.712674
 20
77.899246
 30
0.0
 10
25.075930
 20
77.456890
 30
0.0
  0
SPLINE
  5
214
100
AcDbEntity
  8
0
 62
5
100
AcDbSpline
 70
8
 71
3
 72
8
 73
4
 74
0
 40
0
 40
0
 40
0
 40
0
 40
1
 40
1
 40
1
 40
1
 10
25.075930
 20
77.456890
 30
0.0
 10
24.717015
 20
77.841647
 30
0.0
 10
23.720973
 20
77.695808
 30
0.0
 10
24.333338
 20
78.331232
 30
0.0
  0
SPLINE
  5
215
100
AcDbEntity
  8
0
 62
5
100
AcDbSpline
 70
8
 71
3
 72
8
 73
4
 74
0
 40
0
 40
0
 40
0
 40
0
 40
1
 40
1
 40
1
 40
1
 10
24.333338
 20
78.331232
 30
0.0
 10
25.049663
 20
80.554843
 30
0.0
 10
22.691029
 20
82.341786
 30
0.0
 10
20.779280
 20
82.833726
 30
0.0
  0
SPLINE
  5
216
100
AcDbEntity
  8
0
 62
5
100
AcDbSpline
 70
8
 71
3
 72
8
 73
4
 74
0
 40
0
 40
0
 40
0
 40
0
 40
1
 40
1
 40
1
 40
1
 10
20.779280
 20
82.833726
 30
0.0
 10
20.150066
 20
83.023670
 30
0.0
 10
19.497596
 20
83.111168
 30
0.0
 10
18.847610
 20
83.102304
 30
0.0
  0
LWPOLYLINE
  5
217
100
AcDbEntity
  8
0
 62
5
100
AcDbPolyline
 90
2
 70
0
 10
16.941520
 20
70.951817
 30
0.0
 10
11.106198
 20
73.327670
 30
0.0
  0
SPLINE
  5
218
100
AcDbEntity
  8
0
 62
1
100
AcDbSpline
 70
8
 71
3
 72
8
 73
4
 74
0
 40
0
 40
0
 40
0
 40
0
 40
1
 40
1
 40
1
 40
1
 10
16.994606
 20
57.964586
 30
0.0
 10
16.995399
 20
57.964506
 30
0.0
 10
16.996193
 20
57.964586
 30
0.0
 10
16.996987
 20
57.964586
 30
0.0
  0
SPLINE
  5
219
100
AcDbEntity
  8
0
 62
1
100
AcDbSpline
 70
8
 71
3
 72
8
 73
4
 74
0
 40
0
 40
0
 40
0
 40
0
 40
1
 40
1
 40
1
 40
1
 10
16.996987
 20
57.964586
 30
0.0
 10
16.999368
 20
57.975434
 30
0.0
 10
16.998839
 20
57.986546
 30
0.0
 10
17.001247
 20
57.997156
 30
0.0
  0
SPLINE
  5
21a
100
AcDbEntity
  8
0
 62
1
100
AcDbSpline
 70
8
 71
3
 72
8
 73
4
 74
0
 40
0
 40
0
 40
0
 40
0
 40
1
 40
1
 40
1
 40
1
 10
17.001247
 20
57.997156
 30
0.0
 10
16.998865
 20
57.986573
 30
0.0
 10
16.997013
 20
57.975725
 30
0.0
 10
16.994658
 20
57.964983
 30
0.0
  0
LWPOLYLINE
  5
21b
100
AcDbEntity
  8
0
 62
5
100
AcDbPolyline
 90
1
 70
1
 10
18.847610
 20
83.102304
 30
0.0
  0
SPLINE
  5
21c
100
AcDbEntity
  8
0
 62
5
100
AcDbSpline
 70
8
 71
3
 72
8
 73
4
 74
0
 40
0
 40
0
 40
0
 40
0
 40
1
 40
1
 40
1
 40
1
 10
49.708996
 20
102.725947
 30
0.0
 10
49.340468
 20
102.754602
 30
0.0
 10
48.973806
 20
102.751083
 30
0.0
 10
48.609060
 20
102.723301
 30
0.0
  0
SPLINE
  5
21d
100
AcDbEntity
  8
0
 62
5
100
AcDbSpline
 70
8
 71
3
 72
8
 73
4
 74
0
 40
0
 40
0
 40
0
 40
0
 40
1
 40
1
 40
1
 40
1
 10
48.609060
 20
102.723301
 30
0.0
 10
48.244316
 20
102.695864
 30
0.0
 10
47.881318
 20
102.644482
 30
0.0
 10
47.520752
 20
102.577172
 30
0.0
  0
SPLINE
  5
21e
100
AcDbEntity
  8
0
 62
5
100
AcDbSpline
 70
8
 71
3
 72
8
 73
4
 74
0
 40
0
 40
0
 40
0
 40
0
 40
1
 40
1
 40
1
 40
1
 10
47.520752
 20
102.577172
 30
0.0
 10
46.799616
 20
102.442552
 30
0.0
 10
46.087265
 20
102.244511
 30
0.0
 10
45.385215
 20
102.047370
 30
0.0
  0
SPLINE
  5
21f
100
AcDbEntity
  8
0
 62
5
100
AcDbSpline
 70
8
 71
3
 72
8
 73
4
 74
0
 40
0
 40
0
 40
0
 40
0
 40
1
 40
1
 40
1
 40
1
 10
45.385215
 20
102.047370
 30
0.0
 10
45.885198
 20
101.679044
 30
0.0
 10
46.444842
 20
101.349161
 30
0.0
 10
47.018840
 20
101.024544
 30
0.0
  0
SPLINE
  5
220
100
AcDbEntity
  8
0
 62
5
100
AcDbSpline
 70
8
 71
3
 72
8
 73
4
 74
0
 40
0
 40
0
 40
0
 40
0
 40
1
 40
1
 40
1
 40
1
 10
47.018840
 20
101.024544
 30
0.0
 10
47.592837
 20
100.699927
 30
0.0
 10
48.181215
 20
100.380654
 30
0.0
 10
48.739671
 20
100.032357
 30
0.0
  0
SPLINE
  5
221
100
AcDbEntity
  8
0
 62
5
100
AcDbSpline
 70
8
 71
3
 72
8
 73
4
 74
0
 40
0
 40
0
 40
0
 40
0
 40
1
 40
1
 40
1
 40
1
 10
48.739671
 20
100.032357
 30
0.0
 10
49.018902
 20
99.858234
 30
0.0
 10
49.290758
 20
99.676624
 30
0.0
 10
49.549315
 20
99.483955
 30
0.0
  0
SPLINE
  5
222
100
AcDbEntity
  8
0
 62
5
100
AcDbSpline
 70
8
 71
3
 72
8
 73
4
 74
0
 40
0
 40
0
 40
0
 40
0
 40
1
 40
1
 40
1
 40
1
 10
49.549315
 20
99.483955
 30
0.0
 10
49.807868
 20
99.291259
 30
0.0
 10
50.053208
 20
99.087344
 30
0.0
 10
50.279893
 20
98.867687
 30
0.0
  0
SPLINE
  5
223
100
AcDbEntity
  8
0
 62
5
100
AcDbSpline
 70
8
 71
3
 72
8
 73
4
 74
0
 40
0
 40
0
 40
0
 40
0
 40
1
 40
1
 40
1
 40
1
 10
50.279893
 20
98.867687
 30
0.0
 10
50.506577
 20
98.648057
 30
0.0
 10
50.714452
 20
98.412710
 30
0.0
 10
50.898073
 20
98.157651
 30
0.0
  0
SPLINE
  5
224
100
AcDbEntity
  8
0
 62
5
100
AcDbSpline
 70
8
 71
3
 72
8
 73
4
 74
0
 40
0
 40
0
 40
0
 40
0
 40
1
 40
1
 40
1
 40
1
 10
50.898073
 20
98.157651
 30
0.0
 10
51.081694
 20
97.902620
 30
0.0
 10
51.241166
 20
97.627876
 30
0.0
 10
51.370529
 20
97.329029
 30
0.0
  0
SPLINE
  5
225
100
AcDbEntity
  8
0
 62
5
100
AcDbSpline
 70
8
 71
3
 72
8
 73
4
 74
0
 40
0
 40
0
 40
0
 40
0
 40
1
 40
1
 40
1
 40
1
 10
51.370529
 20
97.329029
 30
0.0
 10
51.101913
 20
97.558846
 30
0.0
 10
50.820974
 20
97.772127
 30
0.0
 10
50.529879
 20
97.968924
 30
0.0
  0
SPLINE
  5
226
100
AcDbEntity
  8
0
 62
5
100
AcDbSpline
 70
8
 71
3
 72
8
 73
4
 74
0
 40
0
 40
0
 40
0
 40
0
 40
1
 40
1
 40
1
 40
1
 10
50.529879
 20
97.968924
 30
0.0
 10
50.238784
 20
98.165721
 30
0.0
 10
49.937427
 20
98.346008
 30
0.0
 10
49.627216
 20
98.509971
 30
0.0
  0
SPLINE
  5
227
100
AcDbEntity
  8
0
 62
5
100
AcDbSpline
 70
8
 71
3
 72
8
 73
4
 74
0
 40
0
 40
0
 40
0
 40
0
 40
1
 40
1
 40
1
 40
1
 10
49.627216
 20
98.509971
 30
0.0
 10
49.317008
 20
98.673933
 30
0.0
 10
48.998193
 20
98.821650
 30
0.0
 10
48.672234
 20
98.952963
 30
0.0
  0
SPLINE
  5
228
100
AcDbEntity
  8
0
 62
5
100
AcDbSpline
 70
8
 71
3
 72
8
 73
4
 74
0
 40
0
 40
0
 40
0
 40
0
 40
1
 40
1
 40
1
 40
1
 10
48.672234
 20
98.952963
 30
0.0
 10
48.346275
 20
99.084302
 30
0.0
 10
48.013350
 20
99.199422
 30
0.0
 10
47.675004
 20
99.298297
 30
0.0
  0
SPLINE
  5
229
100
AcDbEntity
  8
0
 62
5
100
AcDbSpline
 70
8
 71
3
 72
8
 73
4
 74
0
 40
0
 40
0
 40
0
 40
0
 40
1
 40
1
 40
1
 40
1
 10
47.675004
 20
99.298297
 30
0.0
 10
47.336660
 20
99.397171
 30
0.0
 10
46.992582
 20
99.479721
 30
0.0
 10
46.645219
 20
99.546344
 30
0.0
  0
SPLINE
  5
22a
100
AcDbEntity
  8
0
 62
5
100
AcDbSpline
 70
8
 71
3
 72
8
 73
4
 74
0
 40
0
 40
0
 40
0
 40
0
 40
1
 40
1
 40
1
 40
1
 10
46.645219
 20
99.546344
 30
0.0
 10
46.297853
 20
99.612939
 30
0.0
 10
45.947137
 20
99.663342
 30
0.0
 10
45.594117
 20
99.697870
 30
0.0
  0
SPLINE
  5
22b
100
AcDbEntity
  8
0
 62
5
100
AcDbSpline
 70
8
 71
3
 72
8
 73
4
 74
0
 40
0
 40
0
 40
0
 40
0
 40
1
 40
1
 40
1
 40
1
 10
45.594117
 20
99.697870
 30
0.0
 10
44.888079
 20
99.766953
 30
0.0
 10
44.174018
 20
99.772271
 30
0.0
 10
43.465557
 20
99.714275
 30
0.0
  0
SPLINE
  5
22c
100
AcDbEntity
  8
0
 62
5
100
AcDbSpline
 70
8
 71
3
 72
8
 73
4
 74
0
 40
0
 40
0
 40
0
 40
0
 40
1
 40
1
 40
1
 40
1
 10
43.465557
 20
99.714275
 30
0.0
 10
42.757098
 20
99.656172
 30
0.0
 10
42.054296
 20
99.534887
 30
0.0
 10
41.370329
 20
99.351134
 30
0.0
  0
SPLINE
  5
22d
100
AcDbEntity
  8
0
 62
5
100
AcDbSpline
 70
8
 71
3
 72
8
 73
4
 74
0
 40
0
 40
0
 40
0
 40
0
 40
1
 40
1
 40
1
 40
1
 10
41.370329
 20
99.351134
 30
0.0
 10
41.028347
 20
99.259244
 30
0.0
 10
40.690734
 20
99.151691
 30
0.0
 10
40.359925
 20
99.028660
 30
0.0
  0
SPLINE
  5
22e
100
AcDbEntity
  8
0
 62
5
100
AcDbSpline
 70
8
 71
3
 72
8
 73
4
 74
0
 40
0
 40
0
 40
0
 40
0
 40
1
 40
1
 40
1
 40
1
 10
40.359925
 20
99.028660
 30
0.0
 10
40.029114
 20
98.905655
 30
0.0
 10
39.704933
 20
98.767146
 30
0.0
 10
39.388661
 20
98.613185
 30
0.0
  0
SPLINE
  5
22f
100
AcDbEntity
  8
0
 62
5
100
AcDbSpline
 70
8
 71
3
 72
8
 73
4
 74
0
 40
0
 40
0
 40
0
 40
0
 40
1
 40
1
 40
1
 40
1
 10
39.388661
 20
98.613185
 30
0.0
 10
39.072391
 20
98.459224
 30
0.0
 10
38.764213
 20
98.289784
 30
0.0
 10
38.465847
 20
98.105079
 30
0.0
  0
SPLINE
  5
230
100
AcDbEntity
  8
0
 62
5
100
AcDbSpline
 70
8
 71
3
 72
8
 73
4
 74
0
 40
0
 40
0
 40
0
 40
0
 40
1
 40
1
 40
1
 40
1
 10
38.465847
 20
98.105079
 30
0.0
 10
38.167477
 20
97.920373
 30
0.0
 10
37.879044
 20
97.720401
 30
0.0
 10
37.601943
 20
97.505110
 30
0.0
  0
SPLINE
  5
231
100
AcDbEntity
  8
0
 62
5
100
AcDbSpline
 70
8
 71
3
 72
8
 73
4
 74
0
 40
0
 40
0
 40
0
 40
0
 40
1
 40
1
 40
1
 40
1
 10
37.601943
 20
97.505110
 30
0.0
 10
37.324848
 20
97.289845
 30
0.0
 10
37.059105
 20
97.059340
 30
0.0
 10
36.806643
 20
96.813674
 30
0.0
  0
SPLINE
  5
232
100
AcDbEntity
  8
0
 62
5
100
AcDbSpline
 70
8
 71
3
 72
8
 73
4
 74
0
 40
0
 40
0
 40
0
 40
0
 40
1
 40
1
 40
1
 40
1
 10
36.806643
 20
96.813674
 30
0.0
 10
36.554175
 20
96.568035
 30
0.0
 10
36.314867
 20
96.306997
 30
0.0
 10
36.090402
 20
96.031169
 30
0.0
  0
SPLINE
  5
233
100
AcDbEntity
  8
0
 62
5
100
AcDbSpline
 70
8
 71
3
 72
8
 73
4
 74
0
 40
0
 40
0
 40
0
 40
0
 40
1
 40
1
 40
1
 40
1
 10
36.090402
 20
96.031169
 30
0.0
 10
35.962037
 20
95.936792
 30
0.0
 10
35.857265
 20
95.776772
 30
0.0
 10
35.762126
 20
95.602120
 30
0.0
  0
SPLINE
  5
234
100
AcDbEntity
  8
0
 62
5
100
AcDbSpline
 70
8
 71
3
 72
8
 73
4
 74
0
 40
0
 40
0
 40
0
 40
0
 40
1
 40
1
 40
1
 40
1
 10
35.762126
 20
95.602120
 30
0.0
 10
35.666992
 20
95.427469
 30
0.0
 10
35.581410
 20
95.238133
 30
0.0
 10
35.491214
 20
95.085495
 30
0.0
  0
SPLINE
  5
235
100
AcDbEntity
  8
0
 62
5
100
AcDbSpline
 70
8
 71
3
 72
8
 73
4
 74
0
 40
0
 40
0
 40
0
 40
0
 40
1
 40
1
 40
1
 40
1
 10
35.491214
 20
95.085495
 30
0.0
 10
35.401015
 20
94.932830
 30
0.0
 10
35.306325
 20
94.816969
 30
0.0
 10
35.192780
 20
94.788606
 30
0.0
  0
SPLINE
  5
236
100
AcDbEntity
  8
0
 62
5
100
AcDbSpline
 70
8
 71
3
 72
8
 73
4
 74
0
 40
0
 40
0
 40
0
 40
0
 40
1
 40
1
 40
1
 40
1
 10
35.192780
 20
94.788606
 30
0.0
 10
35.136005
 20
94.774319
 30
0.0
 10
35.074659
 20
94.781991
 30
0.0
 10
35.006746
 20
94.818054
 30
0.0
  0
SPLINE
  5
237
100
AcDbEntity
  8
0
 62
5
100
AcDbSpline
 70
8
 71
3
 72
8
 73
4
 74
0
 40
0
 40
0
 40
0
 40
0
 40
1
 40
1
 40
1
 40
1
 10
35.006746
 20
94.818054
 30
0.0
 10
34.938830
 20
94.854117
 30
0.0
 10
34.864159
 20
94.918569
 30
0.0
 10
34.781561
 20
95.017656
 30
0.0
  0
SPLINE
  5
238
100
AcDbEntity
  8
0
 62
5
100
AcDbSpline
 70
8
 71
3
 72
8
 73
4
 74
0
 40
0
 40
0
 40
0
 40
0
 40
1
 40
1
 40
1
 40
1
 10
34.781561
 20
95.017656
 30
0.0
 10
34.427385
 20
95.101846
 30
0.0
 10
34.061755
 20
95.115869
 30
0.0
 10
33.696743
 20
95.073853
 30
0.0
  0
SPLINE
  5
239
100
AcDbEntity
  8
0
 62
5
100
AcDbSpline
 70
8
 71
3
 72
8
 73
4
 74
0
 40
0
 40
0
 40
0
 40
0
 40
1
 40
1
 40
1
 40
1
 10
33.696743
 20
95.073853
 30
0.0
 10
33.331729
 20
95.031838
 30
0.0
 10
32.967597
 20
94.933915
 30
0.0
 10
32.616960
 20
94.794030
 30
0.0
  0
SPLINE
  5
23a
100
AcDbEntity
  8
0
 62
5
100
AcDbSpline
 70
8
 71
3
 72
8
 73
4
 74
0
 40
0
 40
0
 40
0
 40
0
 40
1
 40
1
 40
1
 40
1
 10
32.616960
 20
94.794030
 30
0.0
 10
32.266326
 20
94.654118
 30
0.0
 10
31.929226
 20
94.472111
 30
0.0
 10
31.618179
 20
94.262667
 30
0.0
  0
SPLINE
  5
23b
100
AcDbEntity
  8
0
 62
5
100
AcDbSpline
 70
8
 71
3
 72
8
 73
4
 74
0
 40
0
 40
0
 40
0
 40
0
 40
1
 40
1
 40
1
 40
1
 10
31.618179
 20
94.262667
 30
0.0
 10
31.307135
 20
94.053223
 30
0.0
 10
31.021843
 20
93.816077
 30
0.0
 10
30.775595
 20
93.565411
 30
0.0
  0
SPLINE
  5
23c
100
AcDbEntity
  8
0
 62
5
100
AcDbSpline
 70
8
 71
3
 72
8
 73
4
 74
0
 40
0
 40
0
 40
0
 40
0
 40
1
 40
1
 40
1
 40
1
 10
30.775595
 20
93.565411
 30
0.0
 10
30.700178
 20
93.421398
 30
0.0
 10
30.663023
 20
93.283524
 30
0.0
 10
30.655832
 20
93.151100
 30
0.0
  0
SPLINE
  5
23d
100
AcDbEntity
  8
0
 62
5
100
AcDbSpline
 70
8
 71
3
 72
8
 73
4
 74
0
 40
0
 40
0
 40
0
 40
0
 40
1
 40
1
 40
1
 40
1
 10
30.655832
 20
93.151100
 30
0.0
 10
30.648635
 20
93.018676
 30
0.0
 10
30.671495
 20
92.891729
 30
0.0
 10
30.717067
 20
92.770497
 30
0.0
  0
SPLINE
  5
23e
100
AcDbEntity
  8
0
 62
5
100
AcDbSpline
 70
8
 71
3
 72
8
 73
4
 74
0
 40
0
 40
0
 40
0
 40
0
 40
1
 40
1
 40
1
 40
1
 10
30.717067
 20
92.770497
 30
0.0
 10
30.762625
 20
92.649265
 30
0.0
 10
30.830753
 20
92.533695
 30
0.0
 10
30.913567
 20
92.423231
 30
0.0
  0
SPLINE
  5
23f
100
AcDbEntity
  8
0
 62
5
100
AcDbSpline
 70
8
 71
3
 72
8
 73
4
 74
0
 40
0
 40
0
 40
0
 40
0
 40
1
 40
1
 40
1
 40
1
 10
30.913567
 20
92.423231
 30
0.0
 10
30.996390
 20
92.312768
 30
0.0
 10
31.093836
 20
92.207437
 30
0.0
 10
31.198439
 20
92.107345
 30
0.0
  0
SPLINE
  5
240
100
AcDbEntity
  8
0
 62
5
100
AcDbSpline
 70
8
 71
3
 72
8
 73
4
 74
0
 40
0
 40
0
 40
0
 40
0
 40
1
 40
1
 40
1
 40
1
 10
31.198439
 20
92.107345
 30
0.0
 10
31.407637
 20
91.907161
 30
0.0
 10
31.644968
 20
91.727112
 30
0.0
 10
31.848401
 20
91.565928
 30
0.0
  0
SPLINE
  5
241
100
AcDbEntity
  8
0
 62
5
100
AcDbSpline
 70
8
 71
3
 72
8
 73
4
 74
0
 40
0
 40
0
 40
0
 40
0
 40
1
 40
1
 40
1
 40
1
 10
31.848401
 20
91.565928
 30
0.0
 10
32.051834
 20
91.404718
 30
0.0
 10
32.221461
 20
91.262345
 30
0.0
 10
32.295272
 20
91.136880
 30
0.0
  0
SPLINE
  5
242
100
AcDbEntity
  8
0
 62
5
100
AcDbSpline
 70
8
 71
3
 72
8
 73
4
 74
0
 40
0
 40
0
 40
0
 40
0
 40
1
 40
1
 40
1
 40
1
 10
32.295272
 20
91.136880
 30
0.0
 10
32.057327
 20
91.046816
 30
0.0
 10
31.780594
 20
90.903173
 30
0.0
 10
31.517796
 20
90.722542
 30
0.0
  0
SPLINE
  5
243
100
AcDbEntity
  8
0
 62
5
100
AcDbSpline
 70
8
 71
3
 72
8
 73
4
 74
0
 40
0
 40
0
 40
0
 40
0
 40
1
 40
1
 40
1
 40
1
 10
31.517796
 20
90.722542
 30
0.0
 10
31.255002
 20
90.541938
 30
0.0
 10
31.006248
 20
90.324344
 30
0.0
 10
30.823651
 20
90.086537
 30
0.0
  0
SPLINE
  5
244
100
AcDbEntity
  8
0
 62
5
100
AcDbSpline
 70
8
 71
3
 72
8
 73
4
 74
0
 40
0
 40
0
 40
0
 40
0
 40
1
 40
1
 40
1
 40
1
 10
30.823651
 20
90.086537
 30
0.0
 10
30.732352
 20
89.967633
 30
0.0
 10
30.657776
 20
89.843755
 30
0.0
 10
30.606222
 20
89.716808
 30
0.0
  0
SPLINE
  5
245
100
AcDbEntity
  8
0
 62
5
100
AcDbSpline
 70
8
 71
3
 72
8
 73
4
 74
0
 40
0
 40
0
 40
0
 40
0
 40
1
 40
1
 40
1
 40
1
 10
30.606222
 20
89.716808
 30
0.0
 10
30.554676
 20
89.589861
 30
0.0
 10
30.526215
 20
89.460030
 30
0.0
 10
30.527546
 20
89.329220
 30
0.0
  0
SPLINE
  5
246
100
AcDbEntity
  8
0
 62
5
100
AcDbSpline
 70
8
 71
3
 72
8
 73
4
 74
0
 40
0
 40
0
 40
0
 40
0
 40
1
 40
1
 40
1
 40
1
 10
30.527546
 20
89.329220
 30
0.0
 10
30.528869
 20
89.198410
 30
0.0
 10
30.559814
 20
89.066356
 30
0.0
 10
30.627153
 20
88.935838
 30
0.0
  0
SPLINE
  5
247
100
AcDbEntity
  8
0
 62
5
100
AcDbSpline
 70
8
 71
3
 72
8
 73
4
 74
0
 40
0
 40
0
 40
0
 40
0
 40
1
 40
1
 40
1
 40
1
 10
30.627153
 20
88.935838
 30
0.0
 10
30.694490
 20
88.805319
 30
0.0
 10
30.798093
 20
88.676228
 30
0.0
 10
30.944574
 20
88.550207
 30
0.0
  0
SPLINE
  5
248
100
AcDbEntity
  8
0
 62
5
100
AcDbSpline
 70
8
 71
3
 72
8
 73
4
 74
0
 40
0
 40
0
 40
0
 40
0
 40
1
 40
1
 40
1
 40
1
 10
30.944574
 20
88.550207
 30
0.0
 10
31.206464
 20
88.360633
 30
0.0
 10
31.505681
 20
88.136346
 30
0.0
 10
31.827084
 20
87.922325
 30
0.0
  0
SPLINE
  5
249
100
AcDbEntity
  8
0
 62
5
100
AcDbSpline
 70
8
 71
3
 72
8
 73
4
 74
0
 40
0
 40
0
 40
0
 40
0
 40
1
 40
1
 40
1
 40
1
 10
31.827084
 20
87.922325
 30
0.0
 10
32.148484
 20
87.708303
 30
0.0
 10
32.492191
 20
87.504336
 30
0.0
 10
32.842914
 20
87.354926
 30
0.0
  0
SPLINE
  5
24a
100
AcDbEntity
  8
0
 62
5
100
AcDbSpline
 70
8
 71
3
 72
8
 73
4
 74
0
 40
0
 40
0
 40
0
 40
0
 40
1
 40
1
 40
1
 40
1
 10
32.842914
 20
87.354926
 30
0.0
 10
33.018280
 20
87.280207
 30
0.0
 10
33.195310
 20
87.219300
 30
0.0
 10
33.372343
 20
87.177417
 30
0.0
  0
SPLINE
  5
24b
100
AcDbEntity
  8
0
 62
5
100
AcDbSpline
 70
8
 71
3
 72
8
 73
4
 74
0
 40
0
 40
0
 40
0
 40
0
 40
1
 40
1
 40
1
 40
1
 10
33.372343
 20
87.177417
 30
0.0
 10
33.549376
 20
87.135560
 30
0.0
 10
33.726448
 20
87.112938
 30
0.0
 10
33.901383
 20
87.115001
 30
0.0
  0
SPLINE
  5
24c
100
AcDbEntity
  8
0
 62
5
100
AcDbSpline
 70
8
 71
3
 72
8
 73
4
 74
0
 40
0
 40
0
 40
0
 40
0
 40
1
 40
1
 40
1
 40
1
 10
33.901383
 20
87.115001
 30
0.0
 10
34.076315
 20
87.117647
 30
0.0
 10
34.248958
 20
87.143868
 30
0.0
 10
34.418019
 20
87.201044
 30
0.0
  0
SPLINE
  5
24d
100
AcDbEntity
  8
0
 62
5
100
AcDbSpline
 70
8
 71
3
 72
8
 73
4
 74
0
 40
0
 40
0
 40
0
 40
0
 40
1
 40
1
 40
1
 40
1
 10
34.418019
 20
87.201044
 30
0.0
 10
34.587074
 20
87.258247
 30
0.0
 10
34.752378
 20
87.345824
 30
0.0
 10
34.911787
 20
87.469252
 30
0.0
  0
SPLINE
  5
24e
100
AcDbEntity
  8
0
 62
5
100
AcDbSpline
 70
8
 71
3
 72
8
 73
4
 74
0
 40
0
 40
0
 40
0
 40
0
 40
1
 40
1
 40
1
 40
1
 10
34.911787
 20
87.469252
 30
0.0
 10
35.051137
 20
87.123653
 30
0.0
 10
35.211001
 20
86.792289
 30
0.0
 10
35.389280
 20
86.475133
 30
0.0
  0
SPLINE
  5
24f
100
AcDbEntity
  8
0
 62
5
100
AcDbSpline
 70
8
 71
3
 72
8
 73
4
 74
0
 40
0
 40
0
 40
0
 40
0
 40
1
 40
1
 40
1
 40
1
 10
35.389280
 20
86.475133
 30
0.0
 10
35.567559
 20
86.157951
 30
0.0
 10
35.764105
 20
85.854950
 30
0.0
 10
35.977616
 20
85.566660
 30
0.0
  0
SPLINE
  5
250
100
AcDbEntity
  8
0
 62
5
100
AcDbSpline
 70
8
 71
3
 72
8
 73
4
 74
0
 40
0
 40
0
 40
0
 40
0
 40
1
 40
1
 40
1
 40
1
 10
35.977616
 20
85.566660
 30
0.0
 10
36.191129
 20
85.278370
 30
0.0
 10
36.421684
 20
85.004764
 30
0.0
 10
36.666726
 20
84.745790
 30
0.0
  0
SPLINE
  5
251
100
AcDbEntity
  8
0
 62
5
100
AcDbSpline
 70
8
 71
3
 72
8
 73
4
 74
0
 40
0
 40
0
 40
0
 40
0
 40
1
 40
1
 40
1
 40
1
 10
36.666726
 20
84.745790
 30
0.0
 10
36.911767
 20
84.486789
 30
0.0
 10
37.171328
 20
84.242500
 30
0.0
 10
37.444201
 20
84.013265
 30
0.0
  0
SPLINE
  5
252
100
AcDbEntity
  8
0
 62
5
100
AcDbSpline
 70
8
 71
3
 72
8
 73
4
 74
0
 40
0
 40
0
 40
0
 40
0
 40
1
 40
1
 40
1
 40
1
 10
37.444201
 20
84.013265
 30
0.0
 10
37.717071
 20
83.784003
 30
0.0
 10
38.002961
 20
83.569770
 30
0.0
 10
38.299967
 20
83.370671
 30
0.0
  0
SPLINE
  5
253
100
AcDbEntity
  8
0
 62
5
100
AcDbSpline
 70
8
 71
3
 72
8
 73
4
 74
0
 40
0
 40
0
 40
0
 40
0
 40
1
 40
1
 40
1
 40
1
 10
38.299967
 20
83.370671
 30
0.0
 10
38.596964
 20
83.171572
 30
0.0
 10
38.905352
 20
82.987634
 30
0.0
 10
39.222778
 20
82.819147
 30
0.0
  0
SPLINE
  5
254
100
AcDbEntity
  8
0
 62
5
100
AcDbSpline
 70
8
 71
3
 72
8
 73
4
 74
0
 40
0
 40
0
 40
0
 40
0
 40
1
 40
1
 40
1
 40
1
 10
39.222778
 20
82.819147
 30
0.0
 10
39.540209
 20
82.650634
 30
0.0
 10
39.866861
 20
82.497361
 30
0.0
 10
40.201017
 20
82.359857
 30
0.0
  0
SPLINE
  5
255
100
AcDbEntity
  8
0
 62
5
100
AcDbSpline
 70
8
 71
3
 72
8
 73
4
 74
0
 40
0
 40
0
 40
0
 40
0
 40
1
 40
1
 40
1
 40
1
 10
40.201017
 20
82.359857
 30
0.0
 10
40.535172
 20
82.222379
 30
0.0
 10
40.876643
 20
82.100830
 30
0.0
 10
41.223824
 20
81.994785
 30
0.0
  0
SPLINE
  5
256
100
AcDbEntity
  8
0
 62
5
100
AcDbSpline
 70
8
 71
3
 72
8
 73
4
 74
0
 40
0
 40
0
 40
0
 40
0
 40
1
 40
1
 40
1
 40
1
 10
41.223824
 20
81.994785
 30
0.0
 10
41.918192
 20
81.782695
 30
0.0
 10
42.635091
 20
81.633946
 30
0.0
 10
43.359364
 20
81.550232
 30
0.0
  0
SPLINE
  5
257
100
AcDbEntity
  8
0
 62
5
100
AcDbSpline
 70
8
 71
3
 72
8
 73
4
 74
0
 40
0
 40
0
 40
0
 40
0
 40
1
 40
1
 40
1
 40
1
 10
43.359364
 20
81.550232
 30
0.0
 10
43.547448
 20
81.528536
 30
0.0
 10
43.736765
 20
81.547586
 30
0.0
 10
43.925609
 20
81.535944
 30
0.0
  0
LWPOLYLINE
  5
258
100
AcDbEntity
  8
0
 62
1
100
AcDbPolyline
 90
2
 70
0
 10
16.994658
 20
57.964983
 30
0.0
 10
16.994606
 20
57.964586
 30
0.0
  0
SPLINE
  5
259
100
AcDbEntity
  8
0
 62
5
100
AcDbSpline
 70
8
 71
3
 72
8
 73
4
 74
0
 40
0
 40
0
 40
0
 40
0
 40
1
 40
1
 40
1
 40
1
 10
44.008937
 20
87.187947
 30
0.0
 10
43.720631
 20
87.234540
 30
0.0
 10
43.439122
 20
87.317434
 30
0.0
 10
43.173325
 20
87.439857
 30
0.0
  0
SPLINE
  5
25a
100
AcDbEntity
  8
0
 62
5
100
AcDbSpline
 70
8
 71
3
 72
8
 73
4
 74
0
 40
0
 40
0
 40
0
 40
0
 40
1
 40
1
 40
1
 40
1
 10
43.173325
 20
87.439857
 30
0.0
 10
42.907532
 20
87.562280
 30
0.0
 10
42.657451
 20
87.724231
 30
0.0
 10
42.431507
 20
87.928992
 30
0.0
  0
SPLINE
  5
25b
100
AcDbEntity
  8
0
 62
5
100
AcDbSpline
 70
8
 71
3
 72
8
 73
4
 74
0
 40
0
 40
0
 40
0
 40
0
 40
1
 40
1
 40
1
 40
1
 10
42.431507
 20
87.928992
 30
0.0
 10
42.274731
 20
88.045700
 30
0.0
 10
42.134290
 20
88.172224
 30
0.0
 10
42.009825
 20
88.306870
 30
0.0
  0
SPLINE
  5
25c
100
AcDbEntity
  8
0
 62
5
100
AcDbSpline
 70
8
 71
3
 72
8
 73
4
 74
0
 40
0
 40
0
 40
0
 40
0
 40
1
 40
1
 40
1
 40
1
 10
42.009825
 20
88.306870
 30
0.0
 10
41.885370
 20
88.441516
 30
0.0
 10
41.776716
 20
88.584339
 30
0.0
 10
41.683104
 20
88.733590
 30
0.0
  0
SPLINE
  5
25d
100
AcDbEntity
  8
0
 62
5
100
AcDbSpline
 70
8
 71
3
 72
8
 73
4
 74
0
 40
0
 40
0
 40
0
 40
0
 40
1
 40
1
 40
1
 40
1
 10
41.683104
 20
88.733590
 30
0.0
 10
41.495877
 20
89.032066
 30
0.0
 10
41.368969
 20
89.356313
 30
0.0
 10
41.296304
 20
89.693207
 30
0.0
  0
SPLINE
  5
25e
100
AcDbEntity
  8
0
 62
5
100
AcDbSpline
 70
8
 71
3
 72
8
 73
4
 74
0
 40
0
 40
0
 40
0
 40
0
 40
1
 40
1
 40
1
 40
1
 10
41.296304
 20
89.693207
 30
0.0
 10
41.223636
 20
90.030128
 30
0.0
 10
41.205325
 20
90.379695
 30
0.0
 10
41.235453
 20
90.728416
 30
0.0
  0
SPLINE
  5
25f
100
AcDbEntity
  8
0
 62
5
100
AcDbSpline
 70
8
 71
3
 72
8
 73
4
 74
0
 40
0
 40
0
 40
0
 40
0
 40
1
 40
1
 40
1
 40
1
 10
41.235453
 20
90.728416
 30
0.0
 10
41.265583
 20
91.077163
 30
0.0
 10
41.344133
 20
91.425038
 30
0.0
 10
41.465286
 20
91.758995
 30
0.0
  0
SPLINE
  5
260
100
AcDbEntity
  8
0
 62
5
100
AcDbSpline
 70
8
 71
3
 72
8
 73
4
 74
0
 40
0
 40
0
 40
0
 40
0
 40
1
 40
1
 40
1
 40
1
 10
41.465286
 20
91.758995
 30
0.0
 10
41.586438
 20
92.092978
 30
0.0
 10
41.750120
 20
92.412859
 30
0.0
 10
41.950529
 20
92.705436
 30
0.0
  0
SPLINE
  5
261
100
AcDbEntity
  8
0
 62
5
100
AcDbSpline
 70
8
 71
3
 72
8
 73
4
 74
0
 40
0
 40
0
 40
0
 40
0
 40
1
 40
1
 40
1
 40
1
 10
41.950529
 20
92.705436
 30
0.0
 10
42.150938
 20
92.998038
 30
0.0
 10
42.388015
 20
93.263336
 30
0.0
 10
42.655913
 20
93.487967
 30
0.0
  0
SPLINE
  5
262
100
AcDbEntity
  8
0
 62
5
100
AcDbSpline
 70
8
 71
3
 72
8
 73
4
 74
0
 40
0
 40
0
 40
0
 40
0
 40
1
 40
1
 40
1
 40
1
 10
42.655913
 20
93.487967
 30
0.0
 10
42.923815
 20
93.712599
 30
0.0
 10
43.222553
 20
93.896643
 30
0.0
 10
43.546175
 20
94.026685
 30
0.0
  0
SPLINE
  5
263
100
AcDbEntity
  8
0
 62
5
100
AcDbSpline
 70
8
 71
3
 72
8
 73
4
 74
0
 40
0
 40
0
 40
0
 40
0
 40
1
 40
1
 40
1
 40
1
 10
43.546175
 20
94.026685
 30
0.0
 10
43.869795
 20
94.156755
 30
0.0
 10
44.218460
 20
94.232902
 30
0.0
 10
44.586036
 20
94.241792
 30
0.0
  0
SPLINE
  5
264
100
AcDbEntity
  8
0
 62
5
100
AcDbSpline
 70
8
 71
3
 72
8
 73
4
 74
0
 40
0
 40
0
 40
0
 40
0
 40
1
 40
1
 40
1
 40
1
 10
44.586036
 20
94.241792
 30
0.0
 10
44.635185
 20
94.244702
 30
0.0
 10
44.683788
 20
94.245760
 30
0.0
 10
44.732152
 20
94.244967
 30
0.0
  0
SPLINE
  5
265
100
AcDbEntity
  8
0
 62
5
100
AcDbSpline
 70
8
 71
3
 72
8
 73
4
 74
0
 40
0
 40
0
 40
0
 40
0
 40
1
 40
1
 40
1
 40
1
 10
44.732152
 20
94.244967
 30
0.0
 10
44.913518
 20
94.241527
 30
0.0
 10
45.089516
 20
94.212026
 30
0.0
 10
45.260413
 20
94.163581
 30
0.0
  0
SPLINE
  5
266
100
AcDbEntity
  8
0
 62
5
100
AcDbSpline
 70
8
 71
3
 72
8
 73
4
 74
0
 40
0
 40
0
 40
0
 40
0
 40
1
 40
1
 40
1
 40
1
 10
45.260413
 20
94.163581
 30
0.0
 10
45.431313
 20
94.115109
 30
0.0
 10
45.597053
 20
94.047640
 30
0.0
 10
45.758449
 20
93.968239
 30
0.0
  0
SPLINE
  5
267
100
AcDbEntity
  8
0
 62
5
100
AcDbSpline
 70
8
 71
3
 72
8
 73
4
 74
0
 40
0
 40
0
 40
0
 40
0
 40
1
 40
1
 40
1
 40
1
 10
45.758449
 20
93.968239
 30
0.0
 10
46.081241
 20
93.809436
 30
0.0
 10
46.386062
 20
93.602849
 30
0.0
 10
46.676612
 20
93.404703
 30
0.0
  0
SPLINE
  5
268
100
AcDbEntity
  8
0
 62
5
100
AcDbSpline
 70
8
 71
3
 72
8
 73
4
 74
0
 40
0
 40
0
 40
0
 40
0
 40
1
 40
1
 40
1
 40
1
 10
46.676612
 20
93.404703
 30
0.0
 10
46.832266
 20
93.359062
 30
0.0
 10
46.975787
 20
93.298499
 30
0.0
 10
47.107208
 20
93.225263
 30
0.0
  0
SPLINE
  5
269
100
AcDbEntity
  8
0
 62
5
100
AcDbSpline
 70
8
 71
3
 72
8
 73
4
 74
0
 40
0
 40
0
 40
0
 40
0
 40
1
 40
1
 40
1
 40
1
 10
47.107208
 20
93.225263
 30
0.0
 10
47.238629
 20
93.152026
 30
0.0
 10
47.357900
 20
93.066116
 30
0.0
 10
47.465324
 20
92.969463
 30
0.0
  0
SPLINE
  5
26a
100
AcDbEntity
  8
0
 62
5
100
AcDbSpline
 70
8
 71
3
 72
8
 73
4
 74
0
 40
0
 40
0
 40
0
 40
0
 40
1
 40
1
 40
1
 40
1
 10
47.465324
 20
92.969463
 30
0.0
 10
47.680184
 20
92.776159
 30
0.0
 10
47.847258
 20
92.540071
 30
0.0
 10
47.967622
 20
92.278028
 30
0.0
  0
SPLINE
  5
26b
100
AcDbEntity
  8
0
 62
5
100
AcDbSpline
 70
8
 71
3
 72
8
 73
4
 74
0
 40
0
 40
0
 40
0
 40
0
 40
1
 40
1
 40
1
 40
1
 10
47.967622
 20
92.278028
 30
0.0
 10
48.087986
 20
92.015984
 30
0.0
 10
48.161496
 20
91.727933
 30
0.0
 10
48.189317
 20
91.430409
 30
0.0
  0
SPLINE
  5
26c
100
AcDbEntity
  8
0
 62
5
100
AcDbSpline
 70
8
 71
3
 72
8
 73
4
 74
0
 40
0
 40
0
 40
0
 40
0
 40
1
 40
1
 40
1
 40
1
 10
48.189317
 20
91.430409
 30
0.0
 10
48.217140
 20
91.132885
 30
0.0
 10
48.199371
 20
90.825941
 30
0.0
 10
48.136606
 20
90.526195
 30
0.0
  0
SPLINE
  5
26d
100
AcDbEntity
  8
0
 62
5
100
AcDbSpline
 70
8
 71
3
 72
8
 73
4
 74
0
 40
0
 40
0
 40
0
 40
0
 40
1
 40
1
 40
1
 40
1
 10
48.136606
 20
90.526195
 30
0.0
 10
48.152217
 20
90.336277
 30
0.0
 10
48.149597
 20
90.152286
 30
0.0
 10
48.130785
 20
89.974671
 30
0.0
  0
SPLINE
  5
26e
100
AcDbEntity
  8
0
 62
5
100
AcDbSpline
 70
8
 71
3
 72
8
 73
4
 74
0
 40
0
 40
0
 40
0
 40
0
 40
1
 40
1
 40
1
 40
1
 10
48.130785
 20
89.974671
 30
0.0
 10
48.111974
 20
89.797030
 30
0.0
 10
48.077067
 20
89.625712
 30
0.0
 10
48.027302
 20
89.461512
 30
0.0
  0
SPLINE
  5
26f
100
AcDbEntity
  8
0
 62
5
100
AcDbSpline
 70
8
 71
3
 72
8
 73
4
 74
0
 40
0
 40
0
 40
0
 40
0
 40
1
 40
1
 40
1
 40
1
 10
48.027302
 20
89.461512
 30
0.0
 10
47.927773
 20
89.133111
 30
0.0
 10
47.769687
 20
88.832518
 30
0.0
 10
47.567252
 20
88.564680
 30
0.0
  0
SPLINE
  5
270
100
AcDbEntity
  8
0
 62
5
100
AcDbSpline
 70
8
 71
3
 72
8
 73
4
 74
0
 40
0
 40
0
 40
0
 40
0
 40
1
 40
1
 40
1
 40
1
 10
47.567252
 20
88.564680
 30
0.0
 10
47.364819
 20
88.296842
 30
0.0
 10
47.118045
 20
88.061681
 30
0.0
 10
46.840547
 20
87.863561
 30
0.0
  0
SPLINE
  5
271
100
AcDbEntity
  8
0
 62
5
100
AcDbSpline
 70
8
 71
3
 72
8
 73
4
 74
0
 40
0
 40
0
 40
0
 40
0
 40
1
 40
1
 40
1
 40
1
 10
46.840547
 20
87.863561
 30
0.0
 10
46.563052
 20
87.665441
 30
0.0
 10
46.254853
 20
87.504548
 30
0.0
 10
45.930137
 20
87.385300
 30
0.0
  0
LWPOLYLINE
  5
272
100
AcDbEntity
  8
0
 62
5
100
AcDbPolyline
 90
2
 70
0
 10
43.925609
 20
81.535944
 30
0.0
 10
44.008937
 20
87.187947
 30
0.0
  0
SPLINE
  5
273
100
AcDbEntity
  8
0
 62
5
100
AcDbSpline
 70
8
 71
3
 72
8
 73
4
 74
0
 40
0
 40
0
 40
0
 40
0
 40
1
 40
1
 40
1
 40
1
 10
46.326240
 20
81.785235
 30
0.0
 10
46.570651
 20
81.761687
 30
0.0
 10
46.819555
 20
81.759570
 30
0.0
 10
47.058363
 20
81.711178
 30
0.0
  0
SPLINE
  5
274
100
AcDbEntity
  8
0
 62
5
100
AcDbSpline
 70
8
 71
3
 72
8
 73
4
 74
0
 40
0
 40
0
 40
0
 40
0
 40
1
 40
1
 40
1
 40
1
 10
47.058363
 20
81.711178
 30
0.0
 10
47.265146
 20
81.753114
 30
0.0
 10
47.473555
 20
81.788569
 30
0.0
 10
47.676932
 20
81.842200
 30
0.0
  0
SPLINE
  5
275
100
AcDbEntity
  8
0
 62
5
100
AcDbSpline
 70
8
 71
3
 72
8
 73
4
 74
0
 40
0
 40
0
 40
0
 40
0
 40
1
 40
1
 40
1
 40
1
 10
47.676932
 20
81.842200
 30
0.0
 10
48.024568
 20
81.933825
 30
0.0
 10
48.366926
 20
82.042436
 30
0.0
 10
48.701682
 20
82.168537
 30
0.0
  0
SPLINE
  5
276
100
AcDbEntity
  8
0
 62
5
100
AcDbSpline
 70
8
 71
3
 72
8
 73
4
 74
0
 40
0
 40
0
 40
0
 40
0
 40
1
 40
1
 40
1
 40
1
 10
48.701682
 20
82.168537
 30
0.0
 10
49.036438
 20
82.294611
 30
0.0
 10
49.363680
 20
82.438174
 30
0.0
 10
49.681858
 20
82.599120
 30
0.0
  0
SPLINE
  5
277
100
AcDbEntity
  8
0
 62
5
100
AcDbSpline
 70
8
 71
3
 72
8
 73
4
 74
0
 40
0
 40
0
 40
0
 40
0
 40
1
 40
1
 40
1
 40
1
 10
49.681858
 20
82.599120
 30
0.0
 10
49.851831
 20
82.638278
 30
0.0
 10
50.211244
 20
82.919027
 30
0.0
 10
50.452356
 20
83.083598
 30
0.0
  0
SPLINE
  5
278
100
AcDbEntity
  8
0
 62
5
100
AcDbSpline
 70
8
 71
3
 72
8
 73
4
 74
0
 40
0
 40
0
 40
0
 40
0
 40
1
 40
1
 40
1
 40
1
 10
50.452356
 20
83.083598
 30
0.0
 10
50.572913
 20
83.165857
 30
0.0
 10
50.663803
 20
83.218853
 30
0.0
 10
50.686838
 20
83.198295
 30
0.0
  0
SPLINE
  5
279
100
AcDbEntity
  8
0
 62
5
100
AcDbSpline
 70
8
 71
3
 72
8
 73
4
 74
0
 40
0
 40
0
 40
0
 40
0
 40
1
 40
1
 40
1
 40
1
 10
50.686838
 20
83.198295
 30
0.0
 10
50.419249
 20
82.590732
 30
0.0
 10
49.751435
 20
82.019576
 30
0.0
 10
49.191190
 20
81.620876
 30
0.0
  0
SPLINE
  5
27a
100
AcDbEntity
  8
0
 62
5
100
AcDbSpline
 70
8
 71
3
 72
8
 73
4
 74
0
 40
0
 40
0
 40
0
 40
0
 40
1
 40
1
 40
1
 40
1
 10
49.191190
 20
81.620876
 30
0.0
 10
48.981807
 20
81.472577
 30
0.0
 10
48.742637
 20
81.365182
 30
0.0
 10
48.519911
 20
81.235245
 30
0.0
  0
SPLINE
  5
27b
100
AcDbEntity
  8
0
 62
5
100
AcDbSpline
 70
8
 71
3
 72
8
 73
4
 74
0
 40
0
 40
0
 40
0
 40
0
 40
1
 40
1
 40
1
 40
1
 10
48.519911
 20
81.235245
 30
0.0
 10
49.731922
 20
80.664989
 30
0.0
 10
50.783707
 20
79.739027
 30
0.0
 10
51.556558
 20
78.631137
 30
0.0
  0
LWPOLYLINE
  5
27c
100
AcDbEntity
  8
0
 62
5
100
AcDbPolyline
 90
2
 70
0
 10
45.930137
 20
87.385300
 30
0.0
 10
46.326240
 20
81.785235
 30
0.0
  0
SPLINE
  5
27d
100
AcDbEntity
  8
0
 62
5
100
AcDbSpline
 70
8
 71
3
 72
8
 73
4
 74
0
 40
0
 40
0
 40
0
 40
0
 40
1
 40
1
 40
1
 40
1
 10
51.556558
 20
78.631137
 30
0.0
 10
51.877635
 20
78.770440
 30
0.0
 10
52.193362
 20
78.925036
 30
0.0
 10
52.489447
 20
79.123368
 30
0.0
  0
SPLINE
  5
27e
100
AcDbEntity
  8
0
 62
5
100
AcDbSpline
 70
8
 71
3
 72
8
 73
4
 74
0
 40
0
 40
0
 40
0
 40
0
 40
1
 40
1
 40
1
 40
1
 10
52.489447
 20
79.123368
 30
0.0
 10
52.829235
 20
79.350936
 30
0.0
 10
53.150275
 20
79.618826
 30
0.0
 10
53.447921
 20
79.930294
 30
0.0
  0
SPLINE
  5
27f
100
AcDbEntity
  8
0
 62
5
100
AcDbSpline
 70
8
 71
3
 72
8
 73
4
 74
0
 40
0
 40
0
 40
0
 40
0
 40
1
 40
1
 40
1
 40
1
 10
53.447921
 20
79.930294
 30
0.0
 10
53.647941
 20
80.126350
 30
0.0
 10
53.843169
 20
80.345028
 30
0.0
 10
54.027731
 20
80.581010
 30
0.0
  0
SPLINE
  5
280
100
AcDbEntity
  8
0
 62
5
100
AcDbSpline
 70
8
 71
3
 72
8
 73
4
 74
0
 40
0
 40
0
 40
0
 40
0
 40
1
 40
1
 40
1
 40
1
 10
54.027731
 20
80.581010
 30
0.0
 10
54.212294
 20
80.816992
 30
0.0
 10
54.386356
 20
81.070516
 30
0.0
 10
54.544754
 20
81.336396
 30
0.0
  0
SPLINE
  5
281
100
AcDbEntity
  8
0
 62
5
100
AcDbSpline
 70
8
 71
3
 72
8
 73
4
 74
0
 40
0
 40
0
 40
0
 40
0
 40
1
 40
1
 40
1
 40
1
 10
54.544754
 20
81.336396
 30
0.0
 10
54.703155
 20
81.602302
 30
0.0
 10
54.845680
 20
81.880405
 30
0.0
 10
54.967214
 20
82.166208
 30
0.0
  0
SPLINE
  5
282
100
AcDbEntity
  8
0
 62
5
100
AcDbSpline
 70
8
 71
3
 72
8
 73
4
 74
0
 40
0
 40
0
 40
0
 40
0
 40
1
 40
1
 40
1
 40
1
 10
54.967214
 20
82.166208
 30
0.0
 10
55.088745
 20
82.451985
 30
0.0
 10
55.189358
 20
82.745302
 30
0.0
 10
55.263317
 20
83.040947
 30
0.0
  0
SPLINE
  5
283
100
AcDbEntity
  8
0
 62
5
100
AcDbSpline
 70
8
 71
3
 72
8
 73
4
 74
0
 40
0
 40
0
 40
0
 40
0
 40
1
 40
1
 40
1
 40
1
 10
55.263317
 20
83.040947
 30
0.0
 10
55.337276
 20
83.336619
 30
0.0
 10
55.384446
 20
83.634937
 30
0.0
 10
55.400133
 20
83.930450
 30
0.0
  0
SPLINE
  5
284
100
AcDbEntity
  8
0
 62
5
100
AcDbSpline
 70
8
 71
3
 72
8
 73
4
 74
0
 40
0
 40
0
 40
0
 40
0
 40
1
 40
1
 40
1
 40
1
 10
55.400133
 20
83.930450
 30
0.0
 10
55.415796
 20
84.225963
 30
0.0
 10
55.399943
 20
84.518698
 30
0.0
 10
55.346648
 20
84.804025
 30
0.0
  0
SPLINE
  5
285
100
AcDbEntity
  8
0
 62
5
100
AcDbSpline
 70
8
 71
3
 72
8
 73
4
 74
0
 40
0
 40
0
 40
0
 40
0
 40
1
 40
1
 40
1
 40
1
 10
55.346648
 20
84.804025
 30
0.0
 10
55.293353
 20
85.089378
 30
0.0
 10
55.202897
 20
85.367111
 30
0.0
 10
55.069920
 20
85.632276
 30
0.0
  0
SPLINE
  5
286
100
AcDbEntity
  8
0
 62
5
100
AcDbSpline
 70
8
 71
3
 72
8
 73
4
 74
0
 40
0
 40
0
 40
0
 40
0
 40
1
 40
1
 40
1
 40
1
 10
55.069920
 20
85.632276
 30
0.0
 10
54.936940
 20
85.897442
 30
0.0
 10
54.761535
 20
86.149987
 30
0.0
 10
54.538166
 20
86.384937
 30
0.0
  0
SPLINE
  5
287
100
AcDbEntity
  8
0
 62
5
100
AcDbSpline
 70
8
 71
3
 72
8
 73
4
 74
0
 40
0
 40
0
 40
0
 40
0
 40
1
 40
1
 40
1
 40
1
 10
54.538166
 20
86.384937
 30
0.0
 10
54.449268
 20
86.478837
 30
0.0
 10
54.330280
 20
86.546253
 30
0.0
 10
54.212604
 20
86.603535
 30
0.0
  0
SPLINE
  5
288
100
AcDbEntity
  8
0
 62
5
100
AcDbSpline
 70
8
 71
3
 72
8
 73
4
 74
0
 40
0
 40
0
 40
0
 40
0
 40
1
 40
1
 40
1
 40
1
 10
54.212604
 20
86.603535
 30
0.0
 10
54.094930
 20
86.660844
 30
0.0
 10
53.978307
 20
86.707861
 30
0.0
 10
53.893244
 20
86.761280
 30
0.0
  0
SPLINE
  5
289
100
AcDbEntity
  8
0
 62
5
100
AcDbSpline
 70
8
 71
3
 72
8
 73
4
 74
0
 40
0
 40
0
 40
0
 40
0
 40
1
 40
1
 40
1
 40
1
 10
53.893244
 20
86.761280
 30
0.0
 10
53.808180
 20
86.814726
 30
0.0
 10
53.754861
 20
86.874707
 30
0.0
 10
53.763794
 20
86.957019
 30
0.0
  0
SPLINE
  5
28a
100
AcDbEntity
  8
0
 62
5
100
AcDbSpline
 70
8
 71
3
 72
8
 73
4
 74
0
 40
0
 40
0
 40
0
 40
0
 40
1
 40
1
 40
1
 40
1
 10
53.763794
 20
86.957019
 30
0.0
 10
53.772710
 20
87.039304
 30
0.0
 10
53.844039
 20
87.144132
 30
0.0
 10
54.008353
 20
87.288013
 30
0.0
  0
SPLINE
  5
28b
100
AcDbEntity
  8
0
 62
5
100
AcDbSpline
 70
8
 71
3
 72
8
 73
4
 74
0
 40
0
 40
0
 40
0
 40
0
 40
1
 40
1
 40
1
 40
1
 10
54.008353
 20
87.288013
 30
0.0
 10
54.027324
 20
87.422130
 30
0.0
 10
54.064874
 20
87.526376
 30
0.0
 10
54.117259
 20
87.606597
 30
0.0
  0
SPLINE
  5
28c
100
AcDbEntity
  8
0
 62
5
100
AcDbSpline
 70
8
 71
3
 72
8
 73
4
 74
0
 40
0
 40
0
 40
0
 40
0
 40
1
 40
1
 40
1
 40
1
 10
54.117259
 20
87.606597
 30
0.0
 10
54.169651
 20
87.686819
 30
0.0
 10
54.236845
 20
87.742778
 30
0.0
 10
54.315699
 20
87.780614
 30
0.0
  0
SPLINE
  5
28d
100
AcDbEntity
  8
0
 62
5
100
AcDbSpline
 70
8
 71
3
 72
8
 73
4
 74
0
 40
0
 40
0
 40
0
 40
0
 40
1
 40
1
 40
1
 40
1
 10
54.315699
 20
87.780614
 30
0.0
 10
54.473406
 20
87.856258
 30
0.0
 10
54.677172
 20
87.858825
 30
0.0
 10
54.898999
 20
87.833716
 30
0.0
  0
SPLINE
  5
28e
100
AcDbEntity
  8
0
 62
5
100
AcDbSpline
 70
8
 71
3
 72
8
 73
4
 74
0
 40
0
 40
0
 40
0
 40
0
 40
1
 40
1
 40
1
 40
1
 10
54.898999
 20
87.833716
 30
0.0
 10
55.120826
 20
87.808580
 30
0.0
 10
55.360530
 20
87.755796
 30
0.0
 10
55.590821
 20
87.721718
 30
0.0
  0
SPLINE
  5
28f
100
AcDbEntity
  8
0
 62
5
100
AcDbSpline
 70
8
 71
3
 72
8
 73
4
 74
0
 40
0
 40
0
 40
0
 40
0
 40
1
 40
1
 40
1
 40
1
 10
55.590821
 20
87.721718
 30
0.0
 10
55.821106
 20
87.687586
 30
0.0
 10
56.041798
 20
87.672214
 30
0.0
 10
56.224892
 20
87.721718
 30
0.0
  0
SPLINE
  5
290
100
AcDbEntity
  8
0
 62
5
100
AcDbSpline
 70
8
 71
3
 72
8
 73
4
 74
0
 40
0
 40
0
 40
0
 40
0
 40
1
 40
1
 40
1
 40
1
 10
56.224892
 20
87.721718
 30
0.0
 10
56.602945
 20
87.701609
 30
0.0
 10
57.028170
 20
87.690047
 30
0.0
 10
57.459703
 20
87.712722
 30
0.0
  0
SPLINE
  5
291
100
AcDbEntity
  8
0
 62
5
100
AcDbSpline
 70
8
 71
3
 72
8
 73
4
 74
0
 40
0
 40
0
 40
0
 40
0
 40
1
 40
1
 40
1
 40
1
 10
57.459703
 20
87.712722
 30
0.0
 10
57.891238
 20
87.735476
 30
0.0
 10
58.329216
 20
87.792494
 30
0.0
 10
58.732886
 20
87.909228
 30
0.0
  0
SPLINE
  5
292
100
AcDbEntity
  8
0
 62
5
100
AcDbSpline
 70
8
 71
3
 72
8
 73
4
 74
0
 40
0
 40
0
 40
0
 40
0
 40
1
 40
1
 40
1
 40
1
 10
58.732886
 20
87.909228
 30
0.0
 10
58.934720
 20
87.967595
 30
0.0
 10
59.128044
 20
88.040620
 30
0.0
 10
59.307659
 20
88.132060
 30
0.0
  0
SPLINE
  5
293
100
AcDbEntity
  8
0
 62
5
100
AcDbSpline
 70
8
 71
3
 72
8
 73
4
 74
0
 40
0
 40
0
 40
0
 40
0
 40
1
 40
1
 40
1
 40
1
 10
59.307659
 20
88.132060
 30
0.0
 10
59.487274
 20
88.223500
 30
0.0
 10
59.653038
 20
88.333355
 30
0.0
 10
59.800268
 20
88.464218
 30
0.0
  0
SPLINE
  5
294
100
AcDbEntity
  8
0
 62
5
100
AcDbSpline
 70
8
 71
3
 72
8
 73
4
 74
0
 40
0
 40
0
 40
0
 40
0
 40
1
 40
1
 40
1
 40
1
 10
59.800268
 20
88.464218
 30
0.0
 10
59.947493
 20
88.595107
 30
0.0
 10
60.076191
 20
88.747163
 30
0.0
 10
60.180863
 20
88.923905
 30
0.0
  0
SPLINE
  5
295
100
AcDbEntity
  8
0
 62
5
100
AcDbSpline
 70
8
 71
3
 72
8
 73
4
 74
0
 40
0
 40
0
 40
0
 40
0
 40
1
 40
1
 40
1
 40
1
 10
60.180863
 20
88.923905
 30
0.0
 10
60.285537
 20
89.100620
 30
0.0
 10
60.366106
 20
89.301915
 30
0.0
 10
60.418062
 20
89.530833
 30
0.0
  0
SPLINE
  5
296
100
AcDbEntity
  8
0
 62
5
100
AcDbSpline
 70
8
 71
3
 72
8
 73
4
 74
0
 40
0
 40
0
 40
0
 40
0
 40
1
 40
1
 40
1
 40
1
 10
60.418062
 20
89.530833
 30
0.0
 10
60.459226
 20
89.778959
 30
0.0
 10
60.460483
 20
90.008432
 30
0.0
 10
60.427746
 20
90.220337
 30
0.0
  0
SPLINE
  5
297
100
AcDbEntity
  8
0
 62
5
100
AcDbSpline
 70
8
 71
3
 72
8
 73
4
 74
0
 40
0
 40
0
 40
0
 40
0
 40
1
 40
1
 40
1
 40
1
 10
60.427746
 20
90.220337
 30
0.0
 10
60.395014
 20
90.432215
 30
0.0
 10
60.328413
 20
90.626446
 30
0.0
 10
60.234346
 20
90.803637
 30
0.0
  0
SPLINE
  5
298
100
AcDbEntity
  8
0
 62
5
100
AcDbSpline
 70
8
 71
3
 72
8
 73
4
 74
0
 40
0
 40
0
 40
0
 40
0
 40
1
 40
1
 40
1
 40
1
 10
60.234346
 20
90.803637
 30
0.0
 10
60.140273
 20
90.980802
 30
0.0
 10
60.018697
 20
91.141087
 30
0.0
 10
59.875835
 20
91.284994
 30
0.0
  0
SPLINE
  5
299
100
AcDbEntity
  8
0
 62
5
100
AcDbSpline
 70
8
 71
3
 72
8
 73
4
 74
0
 40
0
 40
0
 40
0
 40
0
 40
1
 40
1
 40
1
 40
1
 10
59.875835
 20
91.284994
 30
0.0
 10
59.732982
 20
91.428900
 30
0.0
 10
59.568908
 20
91.556535
 30
0.0
 10
59.389820
 20
91.668692
 30
0.0
  0
SPLINE
  5
29a
100
AcDbEntity
  8
0
 62
5
100
AcDbSpline
 70
8
 71
3
 72
8
 73
4
 74
0
 40
0
 40
0
 40
0
 40
0
 40
1
 40
1
 40
1
 40
1
 10
59.389820
 20
91.668692
 30
0.0
 10
59.210728
 20
91.780849
 30
0.0
 10
59.016657
 20
91.877501
 30
0.0
 10
58.813883
 20
91.959364
 30
0.0
  0
SPLINE
  5
29b
100
AcDbEntity
  8
0
 62
5
100
AcDbSpline
 70
8
 71
3
 72
8
 73
4
 74
0
 40
0
 40
0
 40
0
 40
0
 40
1
 40
1
 40
1
 40
1
 10
58.813883
 20
91.959364
 30
0.0
 10
58.611111
 20
92.041252
 30
0.0
 10
58.399527
 20
92.108218
 30
0.0
 10
58.185627
 20
92.161294
 30
0.0
  0
SPLINE
  5
29c
100
AcDbEntity
  8
0
 62
5
100
AcDbSpline
 70
8
 71
3
 72
8
 73
4
 74
0
 40
0
 40
0
 40
0
 40
0
 40
1
 40
1
 40
1
 40
1
 10
58.185627
 20
92.161294
 30
0.0
 10
57.757822
 20
92.267471
 30
0.0
 10
57.320288
 20
92.317556
 30
0.0
 10
56.923294
 20
92.317477
 30
0.0
  0
SPLINE
  5
29d
100
AcDbEntity
  8
0
 62
5
100
AcDbSpline
 70
8
 71
3
 72
8
 73
4
 74
0
 40
0
 40
0
 40
0
 40
0
 40
1
 40
1
 40
1
 40
1
 10
56.923294
 20
92.317477
 30
0.0
 10
56.508584
 20
92.369626
 30
0.0
 10
56.067264
 20
92.380210
 30
0.0
 10
55.634221
 20
92.394233
 30
0.0
  0
SPLINE
  5
29e
100
AcDbEntity
  8
0
 62
5
100
AcDbSpline
 70
8
 71
3
 72
8
 73
4
 74
0
 40
0
 40
0
 40
0
 40
0
 40
1
 40
1
 40
1
 40
1
 10
55.634221
 20
92.394233
 30
0.0
 10
55.201182
 20
92.408256
 30
0.0
 10
54.776632
 20
92.425903
 30
0.0
 10
54.394759
 20
92.492658
 30
0.0
  0
SPLINE
  5
29f
100
AcDbEntity
  8
0
 62
5
100
AcDbSpline
 70
8
 71
3
 72
8
 73
4
 74
0
 40
0
 40
0
 40
0
 40
0
 40
1
 40
1
 40
1
 40
1
 10
54.394759
 20
92.492658
 30
0.0
 10
54.398648
 20
92.624156
 30
0.0
 10
54.350936
 20
92.760099
 30
0.0
 10
54.290889
 20
92.890326
 30
0.0
  0
SPLINE
  5
2a0
100
AcDbEntity
  8
0
 62
5
100
AcDbSpline
 70
8
 71
3
 72
8
 73
4
 74
0
 40
0
 40
0
 40
0
 40
0
 40
1
 40
1
 40
1
 40
1
 10
54.290889
 20
92.890326
 30
0.0
 10
54.230842
 20
93.020581
 30
0.0
 10
54.158242
 20
93.145067
 30
0.0
 10
54.112988
 20
93.253890
 30
0.0
  0
SPLINE
  5
2a1
100
AcDbEntity
  8
0
 62
5
100
AcDbSpline
 70
8
 71
3
 72
8
 73
4
 74
0
 40
0
 40
0
 40
0
 40
0
 40
1
 40
1
 40
1
 40
1
 10
54.112988
 20
93.253890
 30
0.0
 10
54.067742
 20
93.362661
 30
0.0
 10
54.049597
 20
93.455741
 30
0.0
 10
54.097880
 20
93.522839
 30
0.0
  0
SPLINE
  5
2a2
100
AcDbEntity
  8
0
 62
5
100
AcDbSpline
 70
8
 71
3
 72
8
 73
4
 74
0
 40
0
 40
0
 40
0
 40
0
 40
1
 40
1
 40
1
 40
1
 10
54.097880
 20
93.522839
 30
0.0
 10
54.146167
 20
93.589964
 30
0.0
 10
54.261020
 20
93.631186
 30
0.0
 10
54.481579
 20
93.636399
 30
0.0
  0
SPLINE
  5
2a3
100
AcDbEntity
  8
0
 62
5
100
AcDbSpline
 70
8
 71
3
 72
8
 73
4
 74
0
 40
0
 40
0
 40
0
 40
0
 40
1
 40
1
 40
1
 40
1
 10
54.481579
 20
93.636399
 30
0.0
 10
54.740749
 20
93.770966
 30
0.0
 10
54.960898
 20
93.934452
 30
0.0
 10
55.145884
 20
94.120877
 30
0.0
  0
SPLINE
  5
2a4
100
AcDbEntity
  8
0
 62
5
100
AcDbSpline
 70
8
 71
3
 72
8
 73
4
 74
0
 40
0
 40
0
 40
0
 40
0
 40
1
 40
1
 40
1
 40
1
 10
55.145884
 20
94.120877
 30
0.0
 10
55.330868
 20
94.307303
 30
0.0
 10
55.480738
 20
94.516694
 30
0.0
 10
55.598957
 20
94.742939
 30
0.0
  0
SPLINE
  5
2a5
100
AcDbEntity
  8
0
 62
5
100
AcDbSpline
 70
8
 71
3
 72
8
 73
4
 74
0
 40
0
 40
0
 40
0
 40
0
 40
1
 40
1
 40
1
 40
1
 10
55.598957
 20
94.742939
 30
0.0
 10
55.717175
 20
94.969158
 30
0.0
 10
55.803633
 20
95.212151
 30
0.0
 10
55.862508
 20
95.466151
 30
0.0
  0
SPLINE
  5
2a6
100
AcDbEntity
  8
0
 62
5
100
AcDbSpline
 70
8
 71
3
 72
8
 73
4
 74
0
 40
0
 40
0
 40
0
 40
0
 40
1
 40
1
 40
1
 40
1
 10
55.862508
 20
95.466151
 30
0.0
 10
55.921381
 20
95.720125
 30
0.0
 10
55.952456
 20
95.984814
 30
0.0
 10
55.959401
 20
96.254477
 30
0.0
  0
SPLINE
  5
2a7
100
AcDbEntity
  8
0
 62
5
100
AcDbSpline
 70
8
 71
3
 72
8
 73
4
 74
0
 40
0
 40
0
 40
0
 40
0
 40
1
 40
1
 40
1
 40
1
 10
55.959401
 20
96.254477
 30
0.0
 10
55.966360
 20
96.524140
 30
0.0
 10
55.949294
 20
96.798963
 30
0.0
 10
55.911729
 20
97.072251
 30
0.0
  0
SPLINE
  5
2a8
100
AcDbEntity
  8
0
 62
5
100
AcDbSpline
 70
8
 71
3
 72
8
 73
4
 74
0
 40
0
 40
0
 40
0
 40
0
 40
1
 40
1
 40
1
 40
1
 10
55.911729
 20
97.072251
 30
0.0
 10
55.874166
 20
97.345566
 30
0.0
 10
55.816243
 20
97.617425
 30
0.0
 10
55.741583
 20
97.882300
 30
0.0
  0
SPLINE
  5
2a9
100
AcDbEntity
  8
0
 62
5
100
AcDbSpline
 70
8
 71
3
 72
8
 73
4
 74
0
 40
0
 40
0
 40
0
 40
0
 40
1
 40
1
 40
1
 40
1
 10
55.741583
 20
97.882300
 30
0.0
 10
55.666928
 20
98.147148
 30
0.0
 10
55.575388
 20
98.404931
 30
0.0
 10
55.471057
 20
98.649300
 30
0.0
  0
SPLINE
  5
2aa
100
AcDbEntity
  8
0
 62
5
100
AcDbSpline
 70
8
 71
3
 72
8
 73
4
 74
0
 40
0
 40
0
 40
0
 40
0
 40
1
 40
1
 40
1
 40
1
 10
55.471057
 20
98.649300
 30
0.0
 10
55.366727
 20
98.893669
 30
0.0
 10
55.249604
 20
99.124651
 30
0.0
 10
55.123014
 20
99.336476
 30
0.0
  0
SPLINE
  5
2ab
100
AcDbEntity
  8
0
 62
5
100
AcDbSpline
 70
8
 71
3
 72
8
 73
4
 74
0
 40
0
 40
0
 40
0
 40
0
 40
1
 40
1
 40
1
 40
1
 10
55.123014
 20
99.336476
 30
0.0
 10
54.872160
 20
99.798571
 30
0.0
 10
54.564523
 20
100.224524
 30
0.0
 10
54.211829
 20
100.607323
 30
0.0
  0
SPLINE
  5
2ac
100
AcDbEntity
  8
0
 62
5
100
AcDbSpline
 70
8
 71
3
 72
8
 73
4
 74
0
 40
0
 40
0
 40
0
 40
0
 40
1
 40
1
 40
1
 40
1
 10
54.211829
 20
100.607323
 30
0.0
 10
53.859134
 20
100.990148
 30
0.0
 10
53.461319
 20
101.329662
 30
0.0
 10
53.029726
 20
101.618904
 30
0.0
  0
SPLINE
  5
2ad
100
AcDbEntity
  8
0
 62
5
100
AcDbSpline
 70
8
 71
3
 72
8
 73
4
 74
0
 40
0
 40
0
 40
0
 40
0
 40
1
 40
1
 40
1
 40
1
 10
53.029726
 20
101.618904
 30
0.0
 10
52.598135
 20
101.908120
 30
0.0
 10
52.132862
 20
102.147171
 30
0.0
 10
51.645309
 20
102.328543
 30
0.0
  0
SPLINE
  5
2ae
100
AcDbEntity
  8
0
 62
5
100
AcDbSpline
 70
8
 71
3
 72
8
 73
4
 74
0
 40
0
 40
0
 40
0
 40
0
 40
1
 40
1
 40
1
 40
1
 10
51.645309
 20
102.328543
 30
0.0
 10
51.157756
 20
102.509915
 30
0.0
 10
50.648140
 20
102.634005
 30
0.0
 10
50.127567
 20
102.693245
 30
0.0
  0
SPLINE
  5
2af
100
AcDbEntity
  8
0
 62
5
100
AcDbSpline
 70
8
 71
3
 72
8
 73
4
 74
0
 40
0
 40
0
 40
0
 40
0
 40
1
 40
1
 40
1
 40
1
 10
50.127567
 20
102.693245
 30
0.0
 10
49.988729
 20
102.708855
 30
0.0
 10
49.849125
 20
102.719835
 30
0.0
 10
49.708988
 20
102.726582
 30
0.0
  0
LWPOLYLINE
  5
2b0
100
AcDbEntity
  8
0
 62
5
100
AcDbPolyline
 90
1
 70
1
 10
51.556558
 20
78.631137
 30
0.0
  0
SPLINE
  5
2b1
100
AcDbEntity
  8
0
 62
5
100
AcDbSpline
 70
8
 71
3
 72
8
 73
4
 74
0
 40
0
 40
0
 40
0
 40
0
 40
1
 40
1
 40
1
 40
1
 10
79.298374
 20
95.286446
 30
0.0
 10
78.778362
 20
95.272423
 30
0.0
 10
78.258882
 20
95.196990
 30
0.0
 10
77.753887
 20
95.057423
 30
0.0
  0
SPLINE
  5
2b2
100
AcDbEntity
  8
0
 62
5
100
AcDbSpline
 70
8
 71
3
 72
8
 73
4
 74
0
 40
0
 40
0
 40
0
 40
0
 40
1
 40
1
 40
1
 40
1
 10
77.753887
 20
95.057423
 30
0.0
 10
77.619278
 20
95.020011
 30
0.0
 10
77.486028
 20
94.978339
 30
0.0
 10
77.353522
 20
94.932222
 30
0.0
  0
SPLINE
  5
2b3
100
AcDbEntity
  8
0
 62
5
100
AcDbSpline
 70
8
 71
3
 72
8
 73
4
 74
0
 40
0
 40
0
 40
0
 40
0
 40
1
 40
1
 40
1
 40
1
 10
77.353522
 20
94.932222
 30
0.0
 10
77.000989
 20
94.821044
 30
0.0
 10
76.661886
 20
94.680788
 30
0.0
 10
76.333816
 20
94.519075
 30
0.0
  0
SPLINE
  5
2b4
100
AcDbEntity
  8
0
 62
5
100
AcDbSpline
 70
8
 71
3
 72
8
 73
4
 74
0
 40
0
 40
0
 40
0
 40
0
 40
1
 40
1
 40
1
 40
1
 10
76.333816
 20
94.519075
 30
0.0
 10
76.005746
 20
94.357335
 30
0.0
 10
75.688508
 20
94.174032
 30
0.0
 10
75.379218
 20
93.976864
 30
0.0
  0
SPLINE
  5
2b5
100
AcDbEntity
  8
0
 62
5
100
AcDbSpline
 70
8
 71
3
 72
8
 73
4
 74
0
 40
0
 40
0
 40
0
 40
0
 40
1
 40
1
 40
1
 40
1
 10
75.379218
 20
93.976864
 30
0.0
 10
74.760638
 20
93.582476
 30
0.0
 10
74.173898
 20
93.132579
 30
0.0
 10
73.596376
 20
92.687391
 30
0.0
  0
SPLINE
  5
2b6
100
AcDbEntity
  8
0
 62
5
100
AcDbSpline
 70
8
 71
3
 72
8
 73
4
 74
0
 40
0
 40
0
 40
0
 40
0
 40
1
 40
1
 40
1
 40
1
 10
73.596376
 20
92.687391
 30
0.0
 10
74.197768
 20
92.532610
 30
0.0
 10
74.839833
 20
92.435640
 30
0.0
 10
75.493552
 20
92.349042
 30
0.0
  0
SPLINE
  5
2b7
100
AcDbEntity
  8
0
 62
5
100
AcDbSpline
 70
8
 71
3
 72
8
 73
4
 74
0
 40
0
 40
0
 40
0
 40
0
 40
1
 40
1
 40
1
 40
1
 10
75.493552
 20
92.349042
 30
0.0
 10
76.147274
 20
92.262444
 30
0.0
 10
76.812733
 20
92.185900
 30
0.0
 10
77.460882
 20
92.071547
 30
0.0
  0
SPLINE
  5
2b8
100
AcDbEntity
  8
0
 62
5
100
AcDbSpline
 70
8
 71
3
 72
8
 73
4
 74
0
 40
0
 40
0
 40
0
 40
0
 40
1
 40
1
 40
1
 40
1
 10
77.460882
 20
92.071547
 30
0.0
 10
77.784955
 20
92.014318
 30
0.0
 10
78.104809
 20
91.947854
 30
0.0
 10
78.416642
 20
91.865728
 30
0.0
  0
SPLINE
  5
2b9
100
AcDbEntity
  8
0
 62
5
100
AcDbSpline
 70
8
 71
3
 72
8
 73
4
 74
0
 40
0
 40
0
 40
0
 40
0
 40
1
 40
1
 40
1
 40
1
 10
78.416642
 20
91.865728
 30
0.0
 10
78.728467
 20
91.783627
 30
0.0
 10
79.032386
 20
91.685943
 30
0.0
 10
79.324724
 20
91.566881
 30
0.0
  0
SPLINE
  5
2ba
100
AcDbEntity
  8
0
 62
5
100
AcDbSpline
 70
8
 71
3
 72
8
 73
4
 74
0
 40
0
 40
0
 40
0
 40
0
 40
1
 40
1
 40
1
 40
1
 10
79.324724
 20
91.566881
 30
0.0
 10
79.617070
 20
91.447898
 30
0.0
 10
79.897817
 20
91.307324
 30
0.0
 10
80.163440
 20
91.139420
 30
0.0
  0
SPLINE
  5
2bb
100
AcDbEntity
  8
0
 62
5
100
AcDbSpline
 70
8
 71
3
 72
8
 73
4
 74
0
 40
0
 40
0
 40
0
 40
0
 40
1
 40
1
 40
1
 40
1
 10
80.163440
 20
91.139420
 30
0.0
 10
80.429063
 20
90.971462
 30
0.0
 10
80.679406
 20
90.776041
 30
0.0
 10
80.911068
 20
90.547203
 30
0.0
  0
SPLINE
  5
2bc
100
AcDbEntity
  8
0
 62
5
100
AcDbSpline
 70
8
 71
3
 72
8
 73
4
 74
0
 40
0
 40
0
 40
0
 40
0
 40
1
 40
1
 40
1
 40
1
 10
80.911068
 20
90.547203
 30
0.0
 10
80.576036
 20
90.659995
 30
0.0
 10
80.236071
 20
90.752864
 30
0.0
 10
79.892522
 20
90.826656
 30
0.0
  0
SPLINE
  5
2bd
100
AcDbEntity
  8
0
 62
5
100
AcDbSpline
 70
8
 71
3
 72
8
 73
4
 74
0
 40
0
 40
0
 40
0
 40
0
 40
1
 40
1
 40
1
 40
1
 10
79.892522
 20
90.826656
 30
0.0
 10
79.548974
 20
90.900422
 30
0.0
 10
79.201671
 20
90.955190
 30
0.0
 10
78.852662
 20
90.991359
 30
0.0
  0
SPLINE
  5
2be
100
AcDbEntity
  8
0
 62
5
100
AcDbSpline
 70
8
 71
3
 72
8
 73
4
 74
0
 40
0
 40
0
 40
0
 40
0
 40
1
 40
1
 40
1
 40
1
 10
78.852662
 20
90.991359
 30
0.0
 10
78.503650
 20
91.027501
 30
0.0
 10
78.152982
 20
91.045228
 30
0.0
 10
77.801560
 20
91.045228
 30
0.0
  0
SPLINE
  5
2bf
100
AcDbEntity
  8
0
 62
5
100
AcDbSpline
 70
8
 71
3
 72
8
 73
4
 74
0
 40
0
 40
0
 40
0
 40
0
 40
1
 40
1
 40
1
 40
1
 10
77.801560
 20
91.045228
 30
0.0
 10
77.450138
 20
91.045228
 30
0.0
 10
77.098136
 20
91.027501
 30
0.0
 10
76.747357
 20
90.992894
 30
0.0
  0
SPLINE
  5
2c0
100
AcDbEntity
  8
0
 62
5
100
AcDbSpline
 70
8
 71
3
 72
8
 73
4
 74
0
 40
0
 40
0
 40
0
 40
0
 40
1
 40
1
 40
1
 40
1
 10
76.747357
 20
90.992894
 30
0.0
 10
76.396577
 20
90.958180
 30
0.0
 10
76.046833
 20
90.906295
 30
0.0
 10
75.699739
 20
90.838271
 30
0.0
  0
SPLINE
  5
2c1
100
AcDbEntity
  8
0
 62
5
100
AcDbSpline
 70
8
 71
3
 72
8
 73
4
 74
0
 40
0
 40
0
 40
0
 40
0
 40
1
 40
1
 40
1
 40
1
 10
75.699739
 20
90.838271
 30
0.0
 10
75.352651
 20
90.770247
 30
0.0
 10
75.008370
 20
90.685845
 30
0.0
 10
74.668018
 20
90.585938
 30
0.0
  0
SPLINE
  5
2c2
100
AcDbEntity
  8
0
 62
5
100
AcDbSpline
 70
8
 71
3
 72
8
 73
4
 74
0
 40
0
 40
0
 40
0
 40
0
 40
1
 40
1
 40
1
 40
1
 10
74.668018
 20
90.585938
 30
0.0
 10
73.987324
 20
90.386151
 30
0.0
 10
73.322939
 20
90.124425
 30
0.0
 10
72.687511
 20
89.805761
 30
0.0
  0
SPLINE
  5
2c3
100
AcDbEntity
  8
0
 62
5
100
AcDbSpline
 70
8
 71
3
 72
8
 73
4
 74
0
 40
0
 40
0
 40
0
 40
0
 40
1
 40
1
 40
1
 40
1
 10
72.687511
 20
89.805761
 30
0.0
 10
72.052090
 20
89.487150
 30
0.0
 10
71.445604
 20
89.111706
 30
0.0
 10
70.879864
 20
88.685674
 30
0.0
  0
SPLINE
  5
2c4
100
AcDbEntity
  8
0
 62
5
100
AcDbSpline
 70
8
 71
3
 72
8
 73
4
 74
0
 40
0
 40
0
 40
0
 40
0
 40
1
 40
1
 40
1
 40
1
 10
70.879864
 20
88.685674
 30
0.0
 10
70.596993
 20
88.472631
 30
0.0
 10
70.324120
 20
88.247101
 30
0.0
 10
70.063246
 20
88.009373
 30
0.0
  0
SPLINE
  5
2c5
100
AcDbEntity
  8
0
 62
5
100
AcDbSpline
 70
8
 71
3
 72
8
 73
4
 74
0
 40
0
 40
0
 40
0
 40
0
 40
1
 40
1
 40
1
 40
1
 10
70.063246
 20
88.009373
 30
0.0
 10
69.802372
 20
87.771644
 30
0.0
 10
69.553378
 20
87.521957
 30
0.0
 10
69.317553
 20
87.260972
 30
0.0
  0
SPLINE
  5
2c6
100
AcDbEntity
  8
0
 62
5
100
AcDbSpline
 70
8
 71
3
 72
8
 73
4
 74
0
 40
0
 40
0
 40
0
 40
0
 40
1
 40
1
 40
1
 40
1
 10
69.317553
 20
87.260972
 30
0.0
 10
69.081727
 20
86.999987
 30
0.0
 10
68.859038
 20
86.727546
 30
0.0
 10
68.651311
 20
86.444733
 30
0.0
  0
SPLINE
  5
2c7
100
AcDbEntity
  8
0
 62
5
100
AcDbSpline
 70
8
 71
3
 72
8
 73
4
 74
0
 40
0
 40
0
 40
0
 40
0
 40
1
 40
1
 40
1
 40
1
 10
68.651311
 20
86.444733
 30
0.0
 10
68.443583
 20
86.161919
 30
0.0
 10
68.250790
 20
85.868549
 30
0.0
 10
68.074215
 20
85.565337
 30
0.0
  0
SPLINE
  5
2c8
100
AcDbEntity
  8
0
 62
5
100
AcDbSpline
 70
8
 71
3
 72
8
 73
4
 74
0
 40
0
 40
0
 40
0
 40
0
 40
1
 40
1
 40
1
 40
1
 10
68.074215
 20
85.565337
 30
0.0
 10
67.897637
 20
85.262098
 30
0.0
 10
67.737548
 20
84.948805
 30
0.0
 10
67.595173
 20
84.626622
 30
0.0
  0
SPLINE
  5
2c9
100
AcDbEntity
  8
0
 62
5
100
AcDbSpline
 70
8
 71
3
 72
8
 73
4
 74
0
 40
0
 40
0
 40
0
 40
0
 40
1
 40
1
 40
1
 40
1
 10
67.595173
 20
84.626622
 30
0.0
 10
67.452796
 20
84.304412
 30
0.0
 10
67.328222
 20
83.973365
 30
0.0
 10
67.223100
 20
83.633640
 30
0.0
  0
SPLINE
  5
2ca
100
AcDbEntity
  8
0
 62
5
100
AcDbSpline
 70
8
 71
3
 72
8
 73
4
 74
0
 40
0
 40
0
 40
0
 40
0
 40
1
 40
1
 40
1
 40
1
 10
67.223100
 20
83.633640
 30
0.0
 10
67.139299
 20
83.498147
 30
0.0
 10
67.101900
 20
83.310267
 30
0.0
 10
67.078921
 20
83.112755
 30
0.0
  0
SPLINE
  5
2cb
100
AcDbEntity
  8
0
 62
5
100
AcDbSpline
 70
8
 71
3
 72
8
 73
4
 74
0
 40
0
 40
0
 40
0
 40
0
 40
1
 40
1
 40
1
 40
1
 10
67.078921
 20
83.112755
 30
0.0
 10
67.055955
 20
82.915191
 30
0.0
 10
67.047401
 20
82.707863
 30
0.0
 10
67.020784
 20
82.532524
 30
0.0
  0
SPLINE
  5
2cc
100
AcDbEntity
  8
0
 62
5
100
AcDbSpline
 70
8
 71
3
 72
8
 73
4
 74
0
 40
0
 40
0
 40
0
 40
0
 40
1
 40
1
 40
1
 40
1
 10
67.020784
 20
82.532524
 30
0.0
 10
66.994170
 20
82.357264
 30
0.0
 10
66.949622
 20
82.214124
 30
0.0
 10
66.854906
 20
82.145333
 30
0.0
  0
SPLINE
  5
2cd
100
AcDbEntity
  8
0
 62
5
100
AcDbSpline
 70
8
 71
3
 72
8
 73
4
 74
0
 40
0
 40
0
 40
0
 40
0
 40
1
 40
1
 40
1
 40
1
 10
66.854906
 20
82.145333
 30
0.0
 10
66.807543
 20
82.110963
 30
0.0
 10
66.747665
 20
82.095062
 30
0.0
 10
66.671195
 20
82.103105
 30
0.0
  0
SPLINE
  5
2ce
100
AcDbEntity
  8
0
 62
5
100
AcDbSpline
 70
8
 71
3
 72
8
 73
4
 74
0
 40
0
 40
0
 40
0
 40
0
 40
1
 40
1
 40
1
 40
1
 10
66.671195
 20
82.103105
 30
0.0
 10
66.594725
 20
82.111307
 30
0.0
 10
66.501515
 20
82.143190
 30
0.0
 10
66.387877
 20
82.204282
 30
0.0
  0
SPLINE
  5
2cf
100
AcDbEntity
  8
0
 62
5
100
AcDbSpline
 70
8
 71
3
 72
8
 73
4
 74
0
 40
0
 40
0
 40
0
 40
0
 40
1
 40
1
 40
1
 40
1
 10
66.387877
 20
82.204282
 30
0.0
 10
66.027895
 20
82.150016
 30
0.0
 10
65.683283
 20
82.026191
 30
0.0
 10
65.360418
 20
81.850772
 30
0.0
  0
SPLINE
  5
2d0
100
AcDbEntity
  8
0
 62
5
100
AcDbSpline
 70
8
 71
3
 72
8
 73
4
 74
0
 40
0
 40
0
 40
0
 40
0
 40
1
 40
1
 40
1
 40
1
 10
65.360418
 20
81.850772
 30
0.0
 10
65.037552
 20
81.675433
 30
0.0
 10
64.736522
 20
81.448473
 30
0.0
 10
64.463573
 20
81.187673
 30
0.0
  0
SPLINE
  5
2d1
100
AcDbEntity
  8
0
 62
5
100
AcDbSpline
 70
8
 71
3
 72
8
 73
4
 74
0
 40
0
 40
0
 40
0
 40
0
 40
1
 40
1
 40
1
 40
1
 10
64.463573
 20
81.187673
 30
0.0
 10
64.190615
 20
80.926874
 30
0.0
 10
63.945947
 20
80.632339
 30
0.0
 10
63.735704
 20
80.321824
 30
0.0
  0
SPLINE
  5
2d2
100
AcDbEntity
  8
0
 62
5
100
AcDbSpline
 70
8
 71
3
 72
8
 73
4
 74
0
 40
0
 40
0
 40
0
 40
0
 40
1
 40
1
 40
1
 40
1
 10
63.735704
 20
80.321824
 30
0.0
 10
63.525461
 20
80.011309
 30
0.0
 10
63.349545
 20
79.684761
 30
0.0
 10
63.214806
 20
79.360249
 30
0.0
  0
SPLINE
  5
2d3
100
AcDbEntity
  8
0
 62
5
100
AcDbSpline
 70
8
 71
3
 72
8
 73
4
 74
0
 40
0
 40
0
 40
0
 40
0
 40
1
 40
1
 40
1
 40
1
 10
63.214806
 20
79.360249
 30
0.0
 10
63.198666
 20
79.198509
 30
0.0
 10
63.215864
 20
79.056349
 30
0.0
 10
63.258599
 20
78.930830
 30
0.0
  0
SPLINE
  5
2d4
100
AcDbEntity
  8
0
 62
5
100
AcDbSpline
 70
8
 71
3
 72
8
 73
4
 74
0
 40
0
 40
0
 40
0
 40
0
 40
1
 40
1
 40
1
 40
1
 10
63.258599
 20
78.930830
 30
0.0
 10
63.301420
 20
78.805312
 30
0.0
 10
63.369865
 20
78.696436
 30
0.0
 10
63.457426
 20
78.601001
 30
0.0
  0
SPLINE
  5
2d5
100
AcDbEntity
  8
0
 62
5
100
AcDbSpline
 70
8
 71
3
 72
8
 73
4
 74
0
 40
0
 40
0
 40
0
 40
0
 40
1
 40
1
 40
1
 40
1
 10
63.457426
 20
78.601001
 30
0.0
 10
63.544987
 20
78.505539
 30
0.0
 10
63.651715
 20
78.423677
 30
0.0
 10
63.769812
 20
78.352187
 30
0.0
  0
SPLINE
  5
2d6
100
AcDbEntity
  8
0
 62
5
100
AcDbSpline
 70
8
 71
3
 72
8
 73
4
 74
0
 40
0
 40
0
 40
0
 40
0
 40
1
 40
1
 40
1
 40
1
 10
63.769812
 20
78.352187
 30
0.0
 10
63.887908
 20
78.280670
 30
0.0
 10
64.017536
 20
78.219472
 30
0.0
 10
64.151960
 20
78.165735
 30
0.0
  0
SPLINE
  5
2d7
100
AcDbEntity
  8
0
 62
5
100
AcDbSpline
 70
8
 71
3
 72
8
 73
4
 74
0
 40
0
 40
0
 40
0
 40
0
 40
1
 40
1
 40
1
 40
1
 10
64.151960
 20
78.165735
 30
0.0
 10
64.420814
 20
78.058235
 30
0.0
 10
64.708021
 20
77.980315
 30
0.0
 10
64.956952
 20
77.906814
 30
0.0
  0
SPLINE
  5
2d8
100
AcDbEntity
  8
0
 62
5
100
AcDbSpline
 70
8
 71
3
 72
8
 73
4
 74
0
 40
0
 40
0
 40
0
 40
0
 40
1
 40
1
 40
1
 40
1
 10
64.956952
 20
77.906814
 30
0.0
 10
65.205883
 20
77.833365
 30
0.0
 10
65.416367
 20
77.764256
 30
0.0
 10
65.531727
 20
77.675435
 30
0.0
  0
SPLINE
  5
2d9
100
AcDbEntity
  8
0
 62
5
100
AcDbSpline
 70
8
 71
3
 72
8
 73
4
 74
0
 40
0
 40
0
 40
0
 40
0
 40
1
 40
1
 40
1
 40
1
 10
65.531727
 20
77.675435
 30
0.0
 10
65.344678
 20
77.503006
 30
0.0
 10
65.142129
 20
77.266416
 30
0.0
 10
64.965866
 20
77.000669
 30
0.0
  0
SPLINE
  5
2da
100
AcDbEntity
  8
0
 62
5
100
AcDbSpline
 70
8
 71
3
 72
8
 73
4
 74
0
 40
0
 40
0
 40
0
 40
0
 40
1
 40
1
 40
1
 40
1
 10
64.965866
 20
77.000669
 30
0.0
 10
64.789603
 20
76.734974
 30
0.0
 10
64.639806
 20
76.439937
 30
0.0
 10
64.559302
 20
76.151144
 30
0.0
  0
SPLINE
  5
2db
100
AcDbEntity
  8
0
 62
5
100
AcDbSpline
 70
8
 71
3
 72
8
 73
4
 74
0
 40
0
 40
0
 40
0
 40
0
 40
1
 40
1
 40
1
 40
1
 10
64.559302
 20
76.151144
 30
0.0
 10
64.519048
 20
76.006708
 30
0.0
 10
64.496117
 20
75.864151
 30
0.0
 10
64.495738
 20
75.727150
 30
0.0
  0
SPLINE
  5
2dc
100
AcDbEntity
  8
0
 62
5
100
AcDbSpline
 70
8
 71
3
 72
8
 73
4
 74
0
 40
0
 40
0
 40
0
 40
0
 40
1
 40
1
 40
1
 40
1
 10
64.495738
 20
75.727150
 30
0.0
 10
64.495540
 20
75.590122
 30
0.0
 10
64.517725
 20
75.458862
 30
0.0
 10
64.567827
 20
75.337974
 30
0.0
  0
SPLINE
  5
2dd
100
AcDbEntity
  8
0
 62
5
100
AcDbSpline
 70
8
 71
3
 72
8
 73
4
 74
0
 40
0
 40
0
 40
0
 40
0
 40
1
 40
1
 40
1
 40
1
 10
64.567827
 20
75.337974
 30
0.0
 10
64.617939
 20
75.217165
 30
0.0
 10
64.695731
 20
75.106755
 30
0.0
 10
64.806957
 20
75.010870
 30
0.0
  0
SPLINE
  5
2de
100
AcDbEntity
  8
0
 62
5
100
AcDbSpline
 70
8
 71
3
 72
8
 73
4
 74
0
 40
0
 40
0
 40
0
 40
0
 40
1
 40
1
 40
1
 40
1
 10
64.806957
 20
75.010870
 30
0.0
 10
64.918193
 20
74.915011
 30
0.0
 10
65.062727
 20
74.833519
 30
0.0
 10
65.245697
 20
74.771369
 30
0.0
  0
SPLINE
  5
2df
100
AcDbEntity
  8
0
 62
5
100
AcDbSpline
 70
8
 71
3
 72
8
 73
4
 74
0
 40
0
 40
0
 40
0
 40
0
 40
1
 40
1
 40
1
 40
1
 10
65.245697
 20
74.771369
 30
0.0
 10
65.559461
 20
74.693396
 30
0.0
 10
65.920641
 20
74.597458
 30
0.0
 10
66.298733
 20
74.519036
 30
0.0
  0
SPLINE
  5
2e0
100
AcDbEntity
  8
0
 62
5
100
AcDbSpline
 70
8
 71
3
 72
8
 73
4
 74
0
 40
0
 40
0
 40
0
 40
0
 40
1
 40
1
 40
1
 40
1
 10
66.298733
 20
74.519036
 30
0.0
 10
66.676831
 20
74.440613
 30
0.0
 10
67.071774
 20
74.379706
 30
0.0
 10
67.452931
 20
74.372165
 30
0.0
  0
SPLINE
  5
2e1
100
AcDbEntity
  8
0
 62
5
100
AcDbSpline
 70
8
 71
3
 72
8
 73
4
 74
0
 40
0
 40
0
 40
0
 40
0
 40
1
 40
1
 40
1
 40
1
 10
67.452931
 20
74.372165
 30
0.0
 10
67.643513
 20
74.368461
 30
0.0
 10
67.830793
 20
74.378251
 30
0.0
 10
68.010651
 20
74.405503
 30
0.0
  0
SPLINE
  5
2e2
100
AcDbEntity
  8
0
 62
5
100
AcDbSpline
 70
8
 71
3
 72
8
 73
4
 74
0
 40
0
 40
0
 40
0
 40
0
 40
1
 40
1
 40
1
 40
1
 10
68.010651
 20
74.405503
 30
0.0
 10
68.190510
 20
74.432834
 30
0.0
 10
68.363097
 20
74.477681
 30
0.0
 10
68.524578
 20
74.544991
 30
0.0
  0
SPLINE
  5
2e3
100
AcDbEntity
  8
0
 62
5
100
AcDbSpline
 70
8
 71
3
 72
8
 73
4
 74
0
 40
0
 40
0
 40
0
 40
0
 40
1
 40
1
 40
1
 40
1
 10
68.524578
 20
74.544991
 30
0.0
 10
68.686053
 20
74.612301
 30
0.0
 10
68.836400
 20
74.702048
 30
0.0
 10
68.971837
 20
74.818279
 30
0.0
  0
SPLINE
  5
2e4
100
AcDbEntity
  8
0
 62
5
100
AcDbSpline
 70
8
 71
3
 72
8
 73
4
 74
0
 40
0
 40
0
 40
0
 40
0
 40
1
 40
1
 40
1
 40
1
 10
68.971837
 20
74.818279
 30
0.0
 10
69.107272
 20
74.934511
 30
0.0
 10
69.227827
 20
75.077148
 30
0.0
 10
69.329570
 20
75.251191
 30
0.0
  0
SPLINE
  5
2e5
100
AcDbEntity
  8
0
 62
5
100
AcDbSpline
 70
8
 71
3
 72
8
 73
4
 74
0
 40
0
 40
0
 40
0
 40
0
 40
1
 40
1
 40
1
 40
1
 10
69.329570
 20
75.251191
 30
0.0
 10
69.587973
 20
74.982691
 30
0.0
 10
69.859977
 20
74.734989
 30
0.0
 10
70.143865
 20
74.507447
 30
0.0
  0
SPLINE
  5
2e6
100
AcDbEntity
  8
0
 62
5
100
AcDbSpline
 70
8
 71
3
 72
8
 73
4
 74
0
 40
0
 40
0
 40
0
 40
0
 40
1
 40
1
 40
1
 40
1
 10
70.143865
 20
74.507447
 30
0.0
 10
70.427747
 20
74.279879
 30
0.0
 10
70.723310
 20
74.072604
 30
0.0
 10
71.029081
 20
73.884988
 30
0.0
  0
SPLINE
  5
2e7
100
AcDbEntity
  8
0
 62
5
100
AcDbSpline
 70
8
 71
3
 72
8
 73
4
 74
0
 40
0
 40
0
 40
0
 40
0
 40
1
 40
1
 40
1
 40
1
 10
71.029081
 20
73.884988
 30
0.0
 10
71.334855
 20
73.697346
 30
0.0
 10
71.650693
 20
73.529388
 30
0.0
 10
71.974763
 20
73.380719
 30
0.0
  0
SPLINE
  5
2e8
100
AcDbEntity
  8
0
 62
5
100
AcDbSpline
 70
8
 71
3
 72
8
 73
4
 74
0
 40
0
 40
0
 40
0
 40
0
 40
1
 40
1
 40
1
 40
1
 10
71.974763
 20
73.380719
 30
0.0
 10
72.298830
 20
73.232102
 30
0.0
 10
72.631281
 20
73.102668
 30
0.0
 10
72.970057
 20
72.992019
 30
0.0
  0
SPLINE
  5
2e9
100
AcDbEntity
  8
0
 62
5
100
AcDbSpline
 70
8
 71
3
 72
8
 73
4
 74
0
 40
0
 40
0
 40
0
 40
0
 40
1
 40
1
 40
1
 40
1
 10
72.970057
 20
72.992019
 30
0.0
 10
73.308826
 20
72.881344
 30
0.0
 10
73.653835
 20
72.789349
 30
0.0
 10
74.003718
 20
72.715689
 30
0.0
  0
SPLINE
  5
2ea
100
AcDbEntity
  8
0
 62
5
100
AcDbSpline
 70
8
 71
3
 72
8
 73
4
 74
0
 40
0
 40
0
 40
0
 40
0
 40
1
 40
1
 40
1
 40
1
 10
74.003718
 20
72.715689
 30
0.0
 10
74.353597
 20
72.642002
 30
0.0
 10
74.708274
 20
72.586704
 30
0.0
 10
75.065670
 20
72.549001
 30
0.0
  0
SPLINE
  5
2eb
100
AcDbEntity
  8
0
 62
5
100
AcDbSpline
 70
8
 71
3
 72
8
 73
4
 74
0
 40
0
 40
0
 40
0
 40
0
 40
1
 40
1
 40
1
 40
1
 10
75.065670
 20
72.549001
 30
0.0
 10
75.423070
 20
72.511351
 30
0.0
 10
75.783353
 20
72.491613
 30
0.0
 10
76.144678
 20
72.488914
 30
0.0
  0
SPLINE
  5
2ec
100
AcDbEntity
  8
0
 62
5
100
AcDbSpline
 70
8
 71
3
 72
8
 73
4
 74
0
 40
0
 40
0
 40
0
 40
0
 40
1
 40
1
 40
1
 40
1
 10
76.144678
 20
72.488914
 30
0.0
 10
76.506001
 20
72.486268
 30
0.0
 10
76.868232
 20
72.500556
 30
0.0
 10
77.229885
 20
72.531935
 30
0.0
  0
SPLINE
  5
2ed
100
AcDbEntity
  8
0
 62
5
100
AcDbSpline
 70
8
 71
3
 72
8
 73
4
 74
0
 40
0
 40
0
 40
0
 40
0
 40
1
 40
1
 40
1
 40
1
 10
77.229885
 20
72.531935
 30
0.0
 10
77.953201
 20
72.594721
 30
0.0
 10
78.673576
 20
72.724631
 30
0.0
 10
79.376664
 20
72.917619
 30
0.0
  0
SPLINE
  5
2ee
100
AcDbEntity
  8
0
 62
5
100
AcDbSpline
 70
8
 71
3
 72
8
 73
4
 74
0
 40
0
 40
0
 40
0
 40
0
 40
1
 40
1
 40
1
 40
1
 10
79.376664
 20
72.917619
 30
0.0
 10
80.079747
 20
73.110606
 30
0.0
 10
80.765452
 20
73.366908
 30
0.0
 10
81.419568
 20
73.682264
 30
0.0
  0
SPLINE
  5
2ef
100
AcDbEntity
  8
0
 62
5
100
AcDbSpline
 70
8
 71
3
 72
8
 73
4
 74
0
 40
0
 40
0
 40
0
 40
0
 40
1
 40
1
 40
1
 40
1
 10
81.419568
 20
73.682264
 30
0.0
 10
83.749610
 20
75.007615
 30
0.0
 10
84.816439
 20
76.320531
 30
0.0
 10
84.463192
 20
77.818072
 30
0.0
  0
SPLINE
  5
2f0
100
AcDbEntity
  8
0
 62
5
100
AcDbSpline
 70
8
 71
3
 72
8
 73
4
 74
0
 40
0
 40
0
 40
0
 40
0
 40
1
 40
1
 40
1
 40
1
 10
84.463192
 20
77.818072
 30
0.0
 10
84.340002
 20
78.098663
 30
0.0
 10
84.169060
 20
78.368776
 30
0.0
 10
83.958179
 20
78.613410
 30
0.0
  0
SPLINE
  5
2f1
100
AcDbEntity
  8
0
 62
5
100
AcDbSpline
 70
8
 71
3
 72
8
 73
4
 74
0
 40
0
 40
0
 40
0
 40
0
 40
1
 40
1
 40
1
 40
1
 10
83.958179
 20
78.613410
 30
0.0
 10
83.747295
 20
78.857964
 30
0.0
 10
83.496433
 20
79.077198
 30
0.0
 10
83.214038
 20
79.255977
 30
0.0
  0
SPLINE
  5
2f2
100
AcDbEntity
  8
0
 62
5
100
AcDbSpline
 70
8
 71
3
 72
8
 73
4
 74
0
 40
0
 40
0
 40
0
 40
0
 40
1
 40
1
 40
1
 40
1
 10
83.214038
 20
79.255977
 30
0.0
 10
82.931640
 20
79.434809
 30
0.0
 10
82.617715
 20
79.573054
 30
0.0
 10
82.279985
 20
79.656344
 30
0.0
  0
SPLINE
  5
2f3
100
AcDbEntity
  8
0
 62
5
100
AcDbSpline
 70
8
 71
3
 72
8
 73
4
 74
0
 40
0
 40
0
 40
0
 40
0
 40
1
 40
1
 40
1
 40
1
 10
82.279985
 20
79.656344
 30
0.0
 10
81.942249
 20
79.739662
 30
0.0
 10
81.580964
 20
79.767708
 30
0.0
 10
81.204075
 20
79.725718
 30
0.0
  0
SPLINE
  5
2f4
100
AcDbEntity
  8
0
 62
5
100
AcDbSpline
 70
8
 71
3
 72
8
 73
4
 74
0
 40
0
 40
0
 40
0
 40
0
 40
1
 40
1
 40
1
 40
1
 10
81.204075
 20
79.725718
 30
0.0
 10
81.015631
 20
79.704816
 30
0.0
 10
80.823340
 20
79.666557
 30
0.0
 10
80.628141
 20
79.608693
 30
0.0
  0
SPLINE
  5
2f5
100
AcDbEntity
  8
0
 62
5
100
AcDbSpline
 70
8
 71
3
 72
8
 73
4
 74
0
 40
0
 40
0
 40
0
 40
0
 40
1
 40
1
 40
1
 40
1
 10
80.628141
 20
79.608693
 30
0.0
 10
80.432939
 20
79.550829
 30
0.0
 10
80.234697
 20
79.473464
 30
0.0
 10
80.034765
 20
79.374960
 30
0.0
  0
SPLINE
  5
2f6
100
AcDbEntity
  8
0
 62
5
100
AcDbSpline
 70
8
 71
3
 72
8
 73
4
 74
0
 40
0
 40
0
 40
0
 40
0
 40
1
 40
1
 40
1
 40
1
 10
80.034765
 20
79.374960
 30
0.0
 10
79.886387
 20
79.223592
 30
0.0
 10
79.723358
 20
79.084924
 30
0.0
 10
79.549133
 20
78.960279
 30
0.0
  0
SPLINE
  5
2f7
100
AcDbEntity
  8
0
 62
5
100
AcDbSpline
 70
8
 71
3
 72
8
 73
4
 74
0
 40
0
 40
0
 40
0
 40
0
 40
1
 40
1
 40
1
 40
1
 10
79.549133
 20
78.960279
 30
0.0
 10
79.374905
 20
78.835633
 30
0.0
 10
79.189649
 20
78.725064
 30
0.0
 10
78.996064
 20
78.630079
 30
0.0
  0
SPLINE
  5
2f8
100
AcDbEntity
  8
0
 62
5
100
AcDbSpline
 70
8
 71
3
 72
8
 73
4
 74
0
 40
0
 40
0
 40
0
 40
0
 40
1
 40
1
 40
1
 40
1
 10
78.996064
 20
78.630079
 30
0.0
 10
78.802476
 20
78.535067
 30
0.0
 10
78.600615
 20
78.455692
 30
0.0
 10
78.394163
 20
78.393224
 30
0.0
  0
SPLINE
  5
2f9
100
AcDbEntity
  8
0
 62
5
100
AcDbSpline
 70
8
 71
3
 72
8
 73
4
 74
0
 40
0
 40
0
 40
0
 40
0
 40
1
 40
1
 40
1
 40
1
 10
78.394163
 20
78.393224
 30
0.0
 10
78.187706
 20
78.330835
 30
0.0
 10
77.976415
 20
78.285274
 30
0.0
 10
77.763576
 20
78.258365
 30
0.0
  0
SPLINE
  5
2fa
100
AcDbEntity
  8
0
 62
5
100
AcDbSpline
 70
8
 71
3
 72
8
 73
4
 74
0
 40
0
 40
0
 40
0
 40
0
 40
1
 40
1
 40
1
 40
1
 10
77.763576
 20
78.258365
 30
0.0
 10
77.550740
 20
78.231457
 30
0.0
 10
77.336417
 20
78.222805
 30
0.0
 10
77.123690
 20
78.234288
 30
0.0
  0
SPLINE
  5
2fb
100
AcDbEntity
  8
0
 62
5
100
AcDbSpline
 70
8
 71
3
 72
8
 73
4
 74
0
 40
0
 40
0
 40
0
 40
0
 40
1
 40
1
 40
1
 40
1
 10
77.123690
 20
78.234288
 30
0.0
 10
76.910962
 20
78.245665
 30
0.0
 10
76.700010
 20
78.277521
 30
0.0
 10
76.493881
 20
78.330411
 30
0.0
  0
SPLINE
  5
2fc
100
AcDbEntity
  8
0
 62
5
100
AcDbSpline
 70
8
 71
3
 72
8
 73
4
 74
0
 40
0
 40
0
 40
0
 40
0
 40
1
 40
1
 40
1
 40
1
 10
76.493881
 20
78.330411
 30
0.0
 10
76.287754
 20
78.383275
 30
0.0
 10
76.086570
 20
78.457623
 30
0.0
 10
75.893528
 20
78.554805
 30
0.0
  0
SPLINE
  5
2fd
100
AcDbEntity
  8
0
 62
5
100
AcDbSpline
 70
8
 71
3
 72
8
 73
4
 74
0
 40
0
 40
0
 40
0
 40
0
 40
1
 40
1
 40
1
 40
1
 10
75.893528
 20
78.554805
 30
0.0
 10
75.700485
 20
78.651960
 30
0.0
 10
75.515473
 20
78.771975
 30
0.0
 10
75.342012
 20
78.916411
 30
0.0
  0
SPLINE
  5
2fe
100
AcDbEntity
  8
0
 62
5
100
AcDbSpline
 70
8
 71
3
 72
8
 73
4
 74
0
 40
0
 40
0
 40
0
 40
0
 40
1
 40
1
 40
1
 40
1
 10
75.342012
 20
78.916411
 30
0.0
 10
75.175308
 20
79.024334
 30
0.0
 10
75.025335
 20
79.143476
 30
0.0
 10
74.891260
 20
79.272222
 30
0.0
  0
SPLINE
  5
2ff
100
AcDbEntity
  8
0
 62
5
100
AcDbSpline
 70
8
 71
3
 72
8
 73
4
 74
0
 40
0
 40
0
 40
0
 40
0
 40
1
 40
1
 40
1
 40
1
 10
74.891260
 20
79.272222
 30
0.0
 10
74.757187
 20
79.400942
 30
0.0
 10
74.639064
 20
79.539081
 30
0.0
 10
74.536244
 20
79.684972
 30
0.0
  0
SPLINE
  5
300
100
AcDbEntity
  8
0
 62
5
100
AcDbSpline
 70
8
 71
3
 72
8
 73
4
 74
0
 40
0
 40
0
 40
0
 40
0
 40
1
 40
1
 40
1
 40
1
 10
74.536244
 20
79.684972
 30
0.0
 10
74.330605
 20
79.976755
 30
0.0
 10
74.185978
 20
80.299335
 30
0.0
 10
74.097121
 20
80.638028
 30
0.0
  0
SPLINE
  5
301
100
AcDbEntity
  8
0
 62
5
100
AcDbSpline
 70
8
 71
3
 72
8
 73
4
 74
0
 40
0
 40
0
 40
0
 40
0
 40
1
 40
1
 40
1
 40
1
 10
74.097121
 20
80.638028
 30
0.0
 10
74.008266
 20
80.976748
 30
0.0
 10
73.975143
 20
81.331792
 30
0.0
 10
73.992089
 20
81.688344
 30
0.0
  0
SPLINE
  5
302
100
AcDbEntity
  8
0
 62
5
100
AcDbSpline
 70
8
 71
3
 72
8
 73
4
 74
0
 40
0
 40
0
 40
0
 40
0
 40
1
 40
1
 40
1
 40
1
 10
73.992089
 20
81.688344
 30
0.0
 10
74.009049
 20
82.044897
 30
0.0
 10
74.076052
 20
82.402958
 30
0.0
 10
74.187815
 20
82.748371
 30
0.0
  0
SPLINE
  5
303
100
AcDbEntity
  8
0
 62
5
100
AcDbSpline
 70
8
 71
3
 72
8
 73
4
 74
0
 40
0
 40
0
 40
0
 40
0
 40
1
 40
1
 40
1
 40
1
 10
74.187815
 20
82.748371
 30
0.0
 10
74.299575
 20
83.093705
 30
0.0
 10
74.456144
 20
83.426498
 30
0.0
 10
74.651740
 20
83.731642
 30
0.0
  0
SPLINE
  5
304
100
AcDbEntity
  8
0
 62
5
100
AcDbSpline
 70
8
 71
3
 72
8
 73
4
 74
0
 40
0
 40
0
 40
0
 40
0
 40
1
 40
1
 40
1
 40
1
 10
74.651740
 20
83.731642
 30
0.0
 10
74.847334
 20
84.036760
 30
0.0
 10
75.082090
 20
84.314334
 30
0.0
 10
75.350539
 20
84.550157
 30
0.0
  0
SPLINE
  5
305
100
AcDbEntity
  8
0
 62
5
100
AcDbSpline
 70
8
 71
3
 72
8
 73
4
 74
0
 40
0
 40
0
 40
0
 40
0
 40
1
 40
1
 40
1
 40
1
 10
75.350539
 20
84.550157
 30
0.0
 10
75.618980
 20
84.786060
 30
0.0
 10
75.920949
 20
84.980052
 30
0.0
 10
76.251263
 20
85.117609
 30
0.0
  0
SPLINE
  5
306
100
AcDbEntity
  8
0
 62
5
100
AcDbSpline
 70
8
 71
3
 72
8
 73
4
 74
0
 40
0
 40
0
 40
0
 40
0
 40
1
 40
1
 40
1
 40
1
 10
76.251263
 20
85.117609
 30
0.0
 10
76.416416
 20
85.186374
 30
0.0
 10
76.588559
 20
85.240905
 30
0.0
 10
76.767124
 20
85.279613
 30
0.0
  0
SPLINE
  5
307
100
AcDbEntity
  8
0
 62
5
100
AcDbSpline
 70
8
 71
3
 72
8
 73
4
 74
0
 40
0
 40
0
 40
0
 40
0
 40
1
 40
1
 40
1
 40
1
 10
76.767124
 20
85.279613
 30
0.0
 10
76.945686
 20
85.318348
 30
0.0
 10
77.130759
 20
85.341208
 30
0.0
 10
77.321357
 20
85.346288
 30
0.0
  0
SPLINE
  5
308
100
AcDbEntity
  8
0
 62
5
100
AcDbSpline
 70
8
 71
3
 72
8
 73
4
 74
0
 40
0
 40
0
 40
0
 40
0
 40
1
 40
1
 40
1
 40
1
 10
77.321357
 20
85.346288
 30
0.0
 10
77.373141
 20
85.349199
 30
0.0
 10
77.424349
 20
85.350257
 30
0.0
 10
77.475220
 20
85.349463
 30
0.0
  0
SPLINE
  5
309
100
AcDbEntity
  8
0
 62
5
100
AcDbSpline
 70
8
 71
3
 72
8
 73
4
 74
0
 40
0
 40
0
 40
0
 40
0
 40
1
 40
1
 40
1
 40
1
 10
77.475220
 20
85.349463
 30
0.0
 10
77.665998
 20
85.345759
 30
0.0
 10
77.850286
 20
85.314724
 30
0.0
 10
78.029065
 20
85.263421
 30
0.0
  0
SPLINE
  5
30a
100
AcDbEntity
  8
0
 62
5
100
AcDbSpline
 70
8
 71
3
 72
8
 73
4
 74
0
 40
0
 40
0
 40
0
 40
0
 40
1
 40
1
 40
1
 40
1
 10
78.029065
 20
85.263421
 30
0.0
 10
78.207846
 20
85.212092
 30
0.0
 10
78.381106
 20
85.140548
 30
0.0
 10
78.549193
 20
85.056067
 30
0.0
  0
SPLINE
  5
30b
100
AcDbEntity
  8
0
 62
5
100
AcDbSpline
 70
8
 71
3
 72
8
 73
4
 74
0
 40
0
 40
0
 40
0
 40
0
 40
1
 40
1
 40
1
 40
1
 10
78.549193
 20
85.056067
 30
0.0
 10
78.885359
 20
84.887104
 30
0.0
 10
79.201444
 20
84.666283
 30
0.0
 10
79.502624
 20
84.451415
 30
0.0
  0
SPLINE
  5
30c
100
AcDbEntity
  8
0
 62
5
100
AcDbSpline
 70
8
 71
3
 72
8
 73
4
 74
0
 40
0
 40
0
 40
0
 40
0
 40
1
 40
1
 40
1
 40
1
 10
79.502624
 20
84.451415
 30
0.0
 10
79.705020
 20
84.392439
 30
0.0
 10
79.886527
 20
84.304227
 30
0.0
 10
80.047169
 20
84.192943
 30
0.0
  0
SPLINE
  5
30d
100
AcDbEntity
  8
0
 62
5
100
AcDbSpline
 70
8
 71
3
 72
8
 73
4
 74
0
 40
0
 40
0
 40
0
 40
0
 40
1
 40
1
 40
1
 40
1
 10
80.047169
 20
84.192943
 30
0.0
 10
80.207805
 20
84.081606
 30
0.0
 10
80.347402
 20
83.947145
 30
0.0
 10
80.465745
 20
83.795671
 30
0.0
  0
SPLINE
  5
30e
100
AcDbEntity
  8
0
 62
5
100
AcDbSpline
 70
8
 71
3
 72
8
 73
4
 74
0
 40
0
 40
0
 40
0
 40
0
 40
1
 40
1
 40
1
 40
1
 10
80.465745
 20
83.795671
 30
0.0
 10
80.584088
 20
83.644171
 30
0.0
 10
80.681306
 20
83.475658
 30
0.0
 10
80.756816
 20
83.296085
 30
0.0
  0
SPLINE
  5
30f
100
AcDbEntity
  8
0
 62
5
100
AcDbSpline
 70
8
 71
3
 72
8
 73
4
 74
0
 40
0
 40
0
 40
0
 40
0
 40
1
 40
1
 40
1
 40
1
 10
80.756816
 20
83.296085
 30
0.0
 10
80.832325
 20
83.116486
 30
0.0
 10
80.886295
 20
82.925880
 30
0.0
 10
80.918434
 20
82.730221
 30
0.0
  0
SPLINE
  5
310
100
AcDbEntity
  8
0
 62
5
100
AcDbSpline
 70
8
 71
3
 72
8
 73
4
 74
0
 40
0
 40
0
 40
0
 40
0
 40
1
 40
1
 40
1
 40
1
 10
80.918434
 20
82.730221
 30
0.0
 10
81.023164
 20
82.536202
 30
0.0
 10
81.141245
 20
82.256484
 30
0.0
 10
81.282365
 20
81.846539
 30
0.0
  0
SPLINE
  5
311
100
AcDbEntity
  8
0
 62
5
100
AcDbSpline
 70
8
 71
3
 72
8
 73
4
 74
0
 40
0
 40
0
 40
0
 40
0
 40
1
 40
1
 40
1
 40
1
 10
81.282365
 20
81.846539
 30
0.0
 10
81.436411
 20
81.671041
 30
0.0
 10
81.623942
 20
81.516259
 30
0.0
 10
81.833498
 20
81.373305
 30
0.0
  0
SPLINE
  5
312
100
AcDbEntity
  8
0
 62
5
100
AcDbSpline
 70
8
 71
3
 72
8
 73
4
 74
0
 40
0
 40
0
 40
0
 40
0
 40
1
 40
1
 40
1
 40
1
 10
81.833498
 20
81.373305
 30
0.0
 10
82.043050
 20
81.230404
 30
0.0
 10
82.274558
 20
81.099382
 30
0.0
 10
82.516790
 20
80.971429
 30
0.0
  0
SPLINE
  5
313
100
AcDbEntity
  8
0
 62
5
100
AcDbSpline
 70
8
 71
3
 72
8
 73
4
 74
0
 40
0
 40
0
 40
0
 40
0
 40
1
 40
1
 40
1
 40
1
 10
82.516790
 20
80.971429
 30
0.0
 10
83.001260
 20
80.715471
 30
0.0
 10
83.528405
 20
80.471737
 30
0.0
 10
84.006629
 20
80.169874
 30
0.0
  0
SPLINE
  5
314
100
AcDbEntity
  8
0
 62
5
100
AcDbSpline
 70
8
 71
3
 72
8
 73
4
 74
0
 40
0
 40
0
 40
0
 40
0
 40
1
 40
1
 40
1
 40
1
 10
84.006629
 20
80.169874
 30
0.0
 10
84.245736
 20
80.018982
 30
0.0
 10
84.472661
 20
79.853724
 30
0.0
 10
84.675969
 20
79.664890
 30
0.0
  0
SPLINE
  5
315
100
AcDbEntity
  8
0
 62
5
100
AcDbSpline
 70
8
 71
3
 72
8
 73
4
 74
0
 40
0
 40
0
 40
0
 40
0
 40
1
 40
1
 40
1
 40
1
 10
84.675969
 20
79.664890
 30
0.0
 10
84.879275
 20
79.476057
 30
0.0
 10
85.058782
 20
79.263570
 30
0.0
 10
85.203456
 20
79.019175
 30
0.0
  0
SPLINE
  5
316
100
AcDbEntity
  8
0
 62
5
100
AcDbSpline
 70
8
 71
3
 72
8
 73
4
 74
0
 40
0
 40
0
 40
0
 40
0
 40
1
 40
1
 40
1
 40
1
 10
85.203456
 20
79.019175
 30
0.0
 10
85.348133
 20
78.774832
 30
0.0
 10
85.458054
 20
78.498422
 30
0.0
 10
85.521268
 20
78.180869
 30
0.0
  0
SPLINE
  5
317
100
AcDbEntity
  8
0
 62
5
100
AcDbSpline
 70
8
 71
3
 72
8
 73
4
 74
0
 40
0
 40
0
 40
0
 40
0
 40
1
 40
1
 40
1
 40
1
 10
85.521268
 20
78.180869
 30
0.0
 10
85.579379
 20
77.888981
 30
0.0
 10
85.586157
 20
77.552060
 30
0.0
 10
85.556923
 20
77.184051
 30
0.0
  0
SPLINE
  5
318
100
AcDbEntity
  8
0
 62
5
100
AcDbSpline
 70
8
 71
3
 72
8
 73
4
 74
0
 40
0
 40
0
 40
0
 40
0
 40
1
 40
1
 40
1
 40
1
 10
85.556923
 20
77.184051
 30
0.0
 10
85.557045
 20
77.183998
 30
0.0
 10
85.557453
 20
77.184051
 30
0.0
 10
85.557717
 20
77.184051
 30
0.0
  0
SPLINE
  5
319
100
AcDbEntity
  8
0
 62
5
100
AcDbSpline
 70
8
 71
3
 72
8
 73
4
 74
0
 40
0
 40
0
 40
0
 40
0
 40
1
 40
1
 40
1
 40
1
 10
85.557717
 20
77.184051
 30
0.0
 10
85.558246
 20
77.184051
 30
0.0
 10
85.556394
 20
77.178495
 30
0.0
 10
85.556923
 20
77.178230
 30
0.0
  0
SPLINE
  5
31a
100
AcDbEntity
  8
0
 62
5
100
AcDbSpline
 70
8
 71
3
 72
8
 73
4
 74
0
 40
0
 40
0
 40
0
 40
0
 40
1
 40
1
 40
1
 40
1
 10
85.556923
 20
77.178230
 30
0.0
 10
85.554542
 20
77.147724
 30
0.0
 10
85.563168
 20
77.126769
 30
0.0
 10
85.560019
 20
77.095680
 30
0.0
  0
SPLINE
  5
31b
100
AcDbEntity
  8
0
 62
5
100
AcDbSpline
 70
8
 71
3
 72
8
 73
4
 74
0
 40
0
 40
0
 40
0
 40
0
 40
1
 40
1
 40
1
 40
1
 10
85.560019
 20
77.095680
 30
0.0
 10
85.560019
 20
77.095680
 30
0.0
 10
85.403373
 20
75.841264
 30
0.0
 10
84.573256
 20
74.924483
 30
0.0
  0
SPLINE
  5
31c
100
AcDbEntity
  8
0
 62
5
100
AcDbSpline
 70
8
 71
3
 72
8
 73
4
 74
0
 40
0
 40
0
 40
0
 40
0
 40
1
 40
1
 40
1
 40
1
 10
84.573256
 20
74.924483
 30
0.0
 10
84.285770
 20
74.512262
 30
0.0
 10
83.979636
 20
74.111604
 30
0.0
 10
83.636874
 20
73.734255
 30
0.0
  0
SPLINE
  5
31d
100
AcDbEntity
  8
0
 62
5
100
AcDbSpline
 70
8
 71
3
 72
8
 73
4
 74
0
 40
0
 40
0
 40
0
 40
0
 40
1
 40
1
 40
1
 40
1
 10
83.636874
 20
73.734255
 30
0.0
 10
83.225833
 20
73.281712
 30
0.0
 10
82.789866
 20
72.845387
 30
0.0
 10
82.364855
 20
72.403348
 30
0.0
  0
SPLINE
  5
31e
100
AcDbEntity
  8
0
 62
5
100
AcDbSpline
 70
8
 71
3
 72
8
 73
4
 74
0
 40
0
 40
0
 40
0
 40
0
 40
1
 40
1
 40
1
 40
1
 10
82.364855
 20
72.403348
 30
0.0
 10
81.939847
 20
71.961229
 30
0.0
 10
81.525885
 20
71.513237
 30
0.0
 10
81.158334
 20
71.038310
 30
0.0
  0
SPLINE
  5
31f
100
AcDbEntity
  8
0
 62
5
100
AcDbSpline
 70
8
 71
3
 72
8
 73
4
 74
0
 40
0
 40
0
 40
0
 40
0
 40
1
 40
1
 40
1
 40
1
 10
81.158334
 20
71.038310
 30
0.0
 10
81.556762
 20
71.009205
 30
0.0
 10
81.963437
 20
71.002300
 30
0.0
 10
82.372610
 20
71.018466
 30
0.0
  0
SPLINE
  5
320
100
AcDbEntity
  8
0
 62
5
100
AcDbSpline
 70
8
 71
3
 72
8
 73
4
 74
0
 40
0
 40
0
 40
0
 40
0
 40
1
 40
1
 40
1
 40
1
 10
82.372610
 20
71.018466
 30
0.0
 10
82.781778
 20
71.034605
 30
0.0
 10
83.193295
 20
71.074346
 30
0.0
 10
83.601605
 20
71.138243
 30
0.0
  0
SPLINE
  5
321
100
AcDbEntity
  8
0
 62
5
100
AcDbSpline
 70
8
 71
3
 72
8
 73
4
 74
0
 40
0
 40
0
 40
0
 40
0
 40
1
 40
1
 40
1
 40
1
 10
83.601605
 20
71.138243
 30
0.0
 10
84.009923
 20
71.202087
 30
0.0
 10
84.414971
 20
71.290166
 30
0.0
 10
84.810838
 20
71.404096
 30
0.0
  0
SPLINE
  5
322
100
AcDbEntity
  8
0
 62
5
100
AcDbSpline
 70
8
 71
3
 72
8
 73
4
 74
0
 40
0
 40
0
 40
0
 40
0
 40
1
 40
1
 40
1
 40
1
 10
84.810838
 20
71.404096
 30
0.0
 10
85.206702
 20
71.517999
 30
0.0
 10
85.593597
 20
71.657461
 30
0.0
 10
85.965419
 20
71.823831
 30
0.0
  0
SPLINE
  5
323
100
AcDbEntity
  8
0
 62
5
100
AcDbSpline
 70
8
 71
3
 72
8
 73
4
 74
0
 40
0
 40
0
 40
0
 40
0
 40
1
 40
1
 40
1
 40
1
 10
85.965419
 20
71.823831
 30
0.0
 10
86.337246
 20
71.990201
 30
0.0
 10
86.693904
 20
72.183611
 30
0.0
 10
87.030089
 20
72.404830
 30
0.0
  0
SPLINE
  5
324
100
AcDbEntity
  8
0
 62
5
100
AcDbSpline
 70
8
 71
3
 72
8
 73
4
 74
0
 40
0
 40
0
 40
0
 40
0
 40
1
 40
1
 40
1
 40
1
 10
87.030089
 20
72.404830
 30
0.0
 10
87.366277
 20
72.626048
 30
0.0
 10
87.681782
 20
72.875153
 30
0.0
 10
87.970733
 20
73.153600
 30
0.0
  0
SPLINE
  5
325
100
AcDbEntity
  8
0
 62
5
100
AcDbSpline
 70
8
 71
3
 72
8
 73
4
 74
0
 40
0
 40
0
 40
0
 40
0
 40
1
 40
1
 40
1
 40
1
 10
87.970733
 20
73.153600
 30
0.0
 10
88.259685
 20
73.432048
 30
0.0
 10
88.522347
 20
73.739891
 30
0.0
 10
88.752474
 20
74.077949
 30
0.0
  0
SPLINE
  5
326
100
AcDbEntity
  8
0
 62
5
100
AcDbSpline
 70
8
 71
3
 72
8
 73
4
 74
0
 40
0
 40
0
 40
0
 40
0
 40
1
 40
1
 40
1
 40
1
 10
88.752474
 20
74.077949
 30
0.0
 10
88.982595
 20
74.416060
 30
0.0
 10
89.180334
 20
74.784386
 30
0.0
 10
89.340034
 20
75.184516
 30
0.0
  0
SPLINE
  5
327
100
AcDbEntity
  8
0
 62
5
100
AcDbSpline
 70
8
 71
3
 72
8
 73
4
 74
0
 40
0
 40
0
 40
0
 40
0
 40
1
 40
1
 40
1
 40
1
 10
89.340034
 20
75.184516
 30
0.0
 10
89.452297
 20
75.441082
 30
0.0
 10
89.551198
 20
75.716751
 30
0.0
 10
89.634203
 20
76.004618
 30
0.0
  0
SPLINE
  5
328
100
AcDbEntity
  8
0
 62
5
100
AcDbSpline
 70
8
 71
3
 72
8
 73
4
 74
0
 40
0
 40
0
 40
0
 40
0
 40
1
 40
1
 40
1
 40
1
 10
89.634203
 20
76.004618
 30
0.0
 10
89.717211
 20
76.292458
 30
0.0
 10
89.784306
 20
76.592496
 30
0.0
 10
89.831865
 20
76.898328
 30
0.0
  0
SPLINE
  5
329
100
AcDbEntity
  8
0
 62
5
100
AcDbSpline
 70
8
 71
3
 72
8
 73
4
 74
0
 40
0
 40
0
 40
0
 40
0
 40
1
 40
1
 40
1
 40
1
 10
89.831865
 20
76.898328
 30
0.0
 10
89.879427
 20
77.204186
 30
0.0
 10
89.907713
 20
77.515706
 30
0.0
 10
89.913645
 20
77.826221
 30
0.0
  0
SPLINE
  5
32a
100
AcDbEntity
  8
0
 62
5
100
AcDbSpline
 70
8
 71
3
 72
8
 73
4
 74
0
 40
0
 40
0
 40
0
 40
0
 40
1
 40
1
 40
1
 40
1
 10
89.913645
 20
77.826221
 30
0.0
 10
89.919572
 20
78.136684
 30
0.0
 10
89.903221
 20
78.446378
 30
0.0
 10
89.861321
 20
78.748268
 30
0.0
  0
SPLINE
  5
32b
100
AcDbEntity
  8
0
 62
5
100
AcDbSpline
 70
8
 71
3
 72
8
 73
4
 74
0
 40
0
 40
0
 40
0
 40
0
 40
1
 40
1
 40
1
 40
1
 10
89.861321
 20
78.748268
 30
0.0
 10
89.819440
 20
79.050131
 30
0.0
 10
89.751786
 20
79.344215
 30
0.0
 10
89.655909
 20
79.624171
 30
0.0
  0
SPLINE
  5
32c
100
AcDbEntity
  8
0
 62
5
100
AcDbSpline
 70
8
 71
3
 72
8
 73
4
 74
0
 40
0
 40
0
 40
0
 40
0
 40
1
 40
1
 40
1
 40
1
 10
89.655909
 20
79.624171
 30
0.0
 10
89.560030
 20
79.904127
 30
0.0
 10
89.435633
 20
80.169663
 30
0.0
 10
89.279574
 20
80.414455
 30
0.0
  0
SPLINE
  5
32d
100
AcDbEntity
  8
0
 62
5
100
AcDbSpline
 70
8
 71
3
 72
8
 73
4
 74
0
 40
0
 40
0
 40
0
 40
0
 40
1
 40
1
 40
1
 40
1
 10
89.279574
 20
80.414455
 30
0.0
 10
89.123509
 20
80.659168
 30
0.0
 10
88.936145
 20
80.883244
 30
0.0
 10
88.713715
 20
81.079485
 30
0.0
  0
SPLINE
  5
32e
100
AcDbEntity
  8
0
 62
5
100
AcDbSpline
 70
8
 71
3
 72
8
 73
4
 74
0
 40
0
 40
0
 40
0
 40
0
 40
1
 40
1
 40
1
 40
1
 10
88.713715
 20
81.079485
 30
0.0
 10
88.491282
 20
81.275753
 30
0.0
 10
88.233938
 20
81.444213
 30
0.0
 10
87.938951
 20
81.578675
 30
0.0
  0
SPLINE
  5
32f
100
AcDbEntity
  8
0
 62
5
100
AcDbSpline
 70
8
 71
3
 72
8
 73
4
 74
0
 40
0
 40
0
 40
0
 40
0
 40
1
 40
1
 40
1
 40
1
 10
87.938951
 20
81.578675
 30
0.0
 10
87.821413
 20
81.632544
 30
0.0
 10
87.686200
 20
81.650906
 30
0.0
 10
87.555642
 20
81.660087
 30
0.0
  0
SPLINE
  5
330
100
AcDbEntity
  8
0
 62
5
100
AcDbSpline
 70
8
 71
3
 72
8
 73
4
 74
0
 40
0
 40
0
 40
0
 40
0
 40
1
 40
1
 40
1
 40
1
 10
87.555642
 20
81.660087
 30
0.0
 10
87.425080
 20
81.669083
 30
0.0
 10
87.299102
 20
81.669347
 30
0.0
 10
87.200237
 20
81.687233
 30
0.0
  0
SPLINE
  5
331
100
AcDbEntity
  8
0
 62
5
100
AcDbSpline
 70
8
 71
3
 72
8
 73
4
 74
0
 40
0
 40
0
 40
0
 40
0
 40
1
 40
1
 40
1
 40
1
 10
87.200237
 20
81.687233
 30
0.0
 10
87.101368
 20
81.705225
 30
0.0
 10
87.029690
 20
81.740097
 30
0.0
 10
87.007221
 20
81.819789
 30
0.0
  0
SPLINE
  5
332
100
AcDbEntity
  8
0
 62
5
100
AcDbSpline
 70
8
 71
3
 72
8
 73
4
 74
0
 40
0
 40
0
 40
0
 40
0
 40
1
 40
1
 40
1
 40
1
 10
87.007221
 20
81.819789
 30
0.0
 10
86.984758
 20
81.899429
 30
0.0
 10
87.011666
 20
82.023333
 30
0.0
 10
87.110319
 20
82.218199
 30
0.0
  0
SPLINE
  5
333
100
AcDbEntity
  8
0
 62
5
100
AcDbSpline
 70
8
 71
3
 72
8
 73
4
 74
0
 40
0
 40
0
 40
0
 40
0
 40
1
 40
1
 40
1
 40
1
 10
87.110319
 20
82.218199
 30
0.0
 10
87.077793
 20
82.349697
 30
0.0
 10
87.073491
 20
82.460610
 30
0.0
 10
87.092115
 20
82.554590
 30
0.0
  0
SPLINE
  5
334
100
AcDbEntity
  8
0
 62
5
100
AcDbSpline
 70
8
 71
3
 72
8
 73
4
 74
0
 40
0
 40
0
 40
0
 40
0
 40
1
 40
1
 40
1
 40
1
 10
87.092115
 20
82.554590
 30
0.0
 10
87.110716
 20
82.648623
 30
0.0
 10
87.152099
 20
82.725723
 30
0.0
 10
87.211101
 20
82.790255
 30
0.0
  0
SPLINE
  5
335
100
AcDbEntity
  8
0
 62
5
100
AcDbSpline
 70
8
 71
3
 72
8
 73
4
 74
0
 40
0
 40
0
 40
0
 40
0
 40
1
 40
1
 40
1
 40
1
 10
87.211101
 20
82.790255
 30
0.0
 10
87.329116
 20
82.919371
 30
0.0
 10
87.517245
 20
82.997714
 30
0.0
 10
87.732391
 20
83.057299
 30
0.0
  0
SPLINE
  5
336
100
AcDbEntity
  8
0
 62
5
100
AcDbSpline
 70
8
 71
3
 72
8
 73
4
 74
0
 40
0
 40
0
 40
0
 40
0
 40
1
 40
1
 40
1
 40
1
 10
87.732391
 20
83.057299
 30
0.0
 10
87.947534
 20
83.116883
 30
0.0
 10
88.189721
 20
83.157920
 30
0.0
 10
88.416069
 20
83.212318
 30
0.0
  0
SPLINE
  5
337
100
AcDbEntity
  8
0
 62
5
100
AcDbSpline
 70
8
 71
3
 72
8
 73
4
 74
0
 40
0
 40
0
 40
0
 40
0
 40
1
 40
1
 40
1
 40
1
 10
88.416069
 20
83.212318
 30
0.0
 10
88.642423
 20
83.266743
 30
0.0
 10
88.852780
 20
83.334767
 30
0.0
 10
89.004410
 20
83.448353
 30
0.0
  0
SPLINE
  5
338
100
AcDbEntity
  8
0
 62
5
100
AcDbSpline
 70
8
 71
3
 72
8
 73
4
 74
0
 40
0
 40
0
 40
0
 40
0
 40
1
 40
1
 40
1
 40
1
 10
89.004410
 20
83.448353
 30
0.0
 10
89.362619
 20
83.570908
 30
0.0
 10
89.761412
 20
83.719048
 30
0.0
 10
90.153180
 20
83.901425
 30
0.0
  0
SPLINE
  5
339
100
AcDbEntity
  8
0
 62
5
100
AcDbSpline
 70
8
 71
3
 72
8
 73
4
 74
0
 40
0
 40
0
 40
0
 40
0
 40
1
 40
1
 40
1
 40
1
 10
90.153180
 20
83.901425
 30
0.0
 10
90.544949
 20
84.083776
 30
0.0
 10
90.929682
 20
84.300390
 30
0.0
 10
91.260483
 20
84.559550
 30
0.0
  0
SPLINE
  5
33a
100
AcDbEntity
  8
0
 62
5
100
AcDbSpline
 70
8
 71
3
 72
8
 73
4
 74
0
 40
0
 40
0
 40
0
 40
0
 40
1
 40
1
 40
1
 40
1
 10
91.260483
 20
84.559550
 30
0.0
 10
91.425879
 20
84.689090
 30
0.0
 10
91.578020
 20
84.829266
 30
0.0
 10
91.710457
 20
84.981216
 30
0.0
  0
SPLINE
  5
33b
100
AcDbEntity
  8
0
 62
5
100
AcDbSpline
 70
8
 71
3
 72
8
 73
4
 74
0
 40
0
 40
0
 40
0
 40
0
 40
1
 40
1
 40
1
 40
1
 10
91.710457
 20
84.981216
 30
0.0
 10
91.842889
 20
85.133140
 30
0.0
 10
91.955731
 20
85.296626
 30
0.0
 10
92.043380
 20
85.473024
 30
0.0
  0
SPLINE
  5
33c
100
AcDbEntity
  8
0
 62
5
100
AcDbSpline
 70
8
 71
3
 72
8
 73
4
 74
0
 40
0
 40
0
 40
0
 40
0
 40
1
 40
1
 40
1
 40
1
 10
92.043380
 20
85.473024
 30
0.0
 10
92.131033
 20
85.649474
 30
0.0
 10
92.193327
 20
85.838599
 30
0.0
 10
92.224378
 20
86.041640
 30
0.0
  0
SPLINE
  5
33d
100
AcDbEntity
  8
0
 62
5
100
AcDbSpline
 70
8
 71
3
 72
8
 73
4
 74
0
 40
0
 40
0
 40
0
 40
0
 40
1
 40
1
 40
1
 40
1
 10
92.224378
 20
86.041640
 30
0.0
 10
92.255430
 20
86.244628
 30
0.0
 10
92.255152
 20
86.461772
 30
0.0
 10
92.217790
 20
86.693494
 30
0.0
  0
SPLINE
  5
33e
100
AcDbEntity
  8
0
 62
5
100
AcDbSpline
 70
8
 71
3
 72
8
 73
4
 74
0
 40
0
 40
0
 40
0
 40
0
 40
1
 40
1
 40
1
 40
1
 10
92.217790
 20
86.693494
 30
0.0
 10
92.163252
 20
86.939054
 30
0.0
 10
92.078511
 20
87.152202
 30
0.0
 10
91.968968
 20
87.336511
 30
0.0
  0
SPLINE
  5
33f
100
AcDbEntity
  8
0
 62
5
100
AcDbSpline
 70
8
 71
3
 72
8
 73
4
 74
0
 40
0
 40
0
 40
0
 40
0
 40
1
 40
1
 40
1
 40
1
 10
91.968968
 20
87.336511
 30
0.0
 10
91.859423
 20
87.520819
 30
0.0
 10
91.725160
 20
87.676315
 30
0.0
 10
91.571702
 20
87.805485
 30
0.0
  0
SPLINE
  5
340
100
AcDbEntity
  8
0
 62
5
100
AcDbSpline
 70
8
 71
3
 72
8
 73
4
 74
0
 40
0
 40
0
 40
0
 40
0
 40
1
 40
1
 40
1
 40
1
 10
91.571702
 20
87.805485
 30
0.0
 10
91.418243
 20
87.934628
 30
0.0
 10
91.245616
 20
88.037736
 30
0.0
 10
91.059331
 20
88.117878
 30
0.0
  0
SPLINE
  5
341
100
AcDbEntity
  8
0
 62
5
100
AcDbSpline
 70
8
 71
3
 72
8
 73
4
 74
0
 40
0
 40
0
 40
0
 40
0
 40
1
 40
1
 40
1
 40
1
 10
91.059331
 20
88.117878
 30
0.0
 10
90.873043
 20
88.197968
 30
0.0
 10
90.673206
 20
88.255144
 30
0.0
 10
90.465177
 20
88.292265
 30
0.0
  0
SPLINE
  5
342
100
AcDbEntity
  8
0
 62
5
100
AcDbSpline
 70
8
 71
3
 72
8
 73
4
 74
0
 40
0
 40
0
 40
0
 40
0
 40
1
 40
1
 40
1
 40
1
 10
90.465177
 20
88.292265
 30
0.0
 10
90.257148
 20
88.329360
 30
0.0
 10
90.040870
 20
88.346346
 30
0.0
 10
89.822192
 20
88.346505
 30
0.0
  0
SPLINE
  5
343
100
AcDbEntity
  8
0
 62
5
100
AcDbSpline
 70
8
 71
3
 72
8
 73
4
 74
0
 40
0
 40
0
 40
0
 40
0
 40
1
 40
1
 40
1
 40
1
 10
89.822192
 20
88.346505
 30
0.0
 10
89.603511
 20
88.346505
 30
0.0
 10
89.382333
 20
88.329836
 30
0.0
 10
89.164091
 20
88.299250
 30
0.0
  0
SPLINE
  5
344
100
AcDbEntity
  8
0
 62
5
100
AcDbSpline
 70
8
 71
3
 72
8
 73
4
 74
0
 40
0
 40
0
 40
0
 40
0
 40
1
 40
1
 40
1
 40
1
 10
89.164091
 20
88.299250
 30
0.0
 10
88.727603
 20
88.237840
 30
0.0
 10
88.302917
 20
88.120921
 30
0.0
 10
87.934705
 20
87.972490
 30
0.0
  0
SPLINE
  5
345
100
AcDbEntity
  8
0
 62
5
100
AcDbSpline
 70
8
 71
3
 72
8
 73
4
 74
0
 40
0
 40
0
 40
0
 40
0
 40
1
 40
1
 40
1
 40
1
 10
87.934705
 20
87.972490
 30
0.0
 10
87.530548
 20
87.865942
 30
0.0
 10
87.117650
 20
87.710526
 30
0.0
 10
86.710745
 20
87.561698
 30
0.0
  0
SPLINE
  5
346
100
AcDbEntity
  8
0
 62
5
100
AcDbSpline
 70
8
 71
3
 72
8
 73
4
 74
0
 40
0
 40
0
 40
0
 40
0
 40
1
 40
1
 40
1
 40
1
 10
86.710745
 20
87.561698
 30
0.0
 10
86.303840
 20
87.412869
 30
0.0
 10
85.903149
 20
87.270391
 30
0.0
 10
85.523991
 20
87.189614
 30
0.0
  0
SPLINE
  5
347
100
AcDbEntity
  8
0
 62
5
100
AcDbSpline
 70
8
 71
3
 72
8
 73
4
 74
0
 40
0
 40
0
 40
0
 40
0
 40
1
 40
1
 40
1
 40
1
 10
85.523991
 20
87.189614
 30
0.0
 10
85.478472
 20
87.313042
 30
0.0
 10
85.383410
 20
87.421468
 30
0.0
 10
85.279045
 20
87.519814
 30
0.0
  0
SPLINE
  5
348
100
AcDbEntity
  8
0
 62
5
100
AcDbSpline
 70
8
 71
3
 72
8
 73
4
 74
0
 40
0
 40
0
 40
0
 40
0
 40
1
 40
1
 40
1
 40
1
 10
85.279045
 20
87.519814
 30
0.0
 10
85.174675
 20
87.618213
 30
0.0
 10
85.060912
 20
87.706742
 30
0.0
 10
84.978282
 20
87.790721
 30
0.0
  0
SPLINE
  5
349
100
AcDbEntity
  8
0
 62
5
100
AcDbSpline
 70
8
 71
3
 72
8
 73
4
 74
0
 40
0
 40
0
 40
0
 40
0
 40
1
 40
1
 40
1
 40
1
 10
84.978282
 20
87.790721
 30
0.0
 10
84.895661
 20
87.874753
 30
0.0
 10
84.844242
 20
87.954233
 30
0.0
 10
84.863951
 20
88.034534
 30
0.0
  0
SPLINE
  5
34a
100
AcDbEntity
  8
0
 62
5
100
AcDbSpline
 70
8
 71
3
 72
8
 73
4
 74
0
 40
0
 40
0
 40
0
 40
0
 40
1
 40
1
 40
1
 40
1
 10
84.863951
 20
88.034534
 30
0.0
 10
84.883662
 20
88.114809
 30
0.0
 10
84.974475
 20
88.195692
 30
0.0
 10
85.177111
 20
88.282978
 30
0.0
  0
SPLINE
  5
34b
100
AcDbEntity
  8
0
 62
5
100
AcDbSpline
 70
8
 71
3
 72
8
 73
4
 74
0
 40
0
 40
0
 40
0
 40
0
 40
1
 40
1
 40
1
 40
1
 10
85.177111
 20
88.282978
 30
0.0
 10
85.367220
 20
88.504620
 30
0.0
 10
85.510441
 20
88.738538
 30
0.0
 10
85.612356
 20
88.980605
 30
0.0
  0
SPLINE
  5
34c
100
AcDbEntity
  8
0
 62
5
100
AcDbSpline
 70
8
 71
3
 72
8
 73
4
 74
0
 40
0
 40
0
 40
0
 40
0
 40
1
 40
1
 40
1
 40
1
 10
85.612356
 20
88.980605
 30
0.0
 10
85.714274
 20
89.222646
 30
0.0
 10
85.774829
 20
89.473021
 30
0.0
 10
85.799943
 20
89.727074
 30
0.0
  0
SPLINE
  5
34d
100
AcDbEntity
  8
0
 62
5
100
AcDbSpline
 70
8
 71
3
 72
8
 73
4
 74
0
 40
0
 40
0
 40
0
 40
0
 40
1
 40
1
 40
1
 40
1
 10
85.799943
 20
89.727074
 30
0.0
 10
85.825052
 20
89.981100
 30
0.0
 10
85.814681
 20
90.238805
 30
0.0
 10
85.774358
 20
90.496403
 30
0.0
  0
SPLINE
  5
34e
100
AcDbEntity
  8
0
 62
5
100
AcDbSpline
 70
8
 71
3
 72
8
 73
4
 74
0
 40
0
 40
0
 40
0
 40
0
 40
1
 40
1
 40
1
 40
1
 10
85.774358
 20
90.496403
 30
0.0
 10
85.734057
 20
90.753975
 30
0.0
 10
85.664051
 20
91.011467
 30
0.0
 10
85.569719
 20
91.264197
 30
0.0
  0
SPLINE
  5
34f
100
AcDbEntity
  8
0
 62
5
100
AcDbSpline
 70
8
 71
3
 72
8
 73
4
 74
0
 40
0
 40
0
 40
0
 40
0
 40
1
 40
1
 40
1
 40
1
 10
85.569719
 20
91.264197
 30
0.0
 10
85.475389
 20
91.516927
 30
0.0
 10
85.356713
 20
91.765001
 30
0.0
 10
85.219741
 20
92.004449
 30
0.0
  0
SPLINE
  5
350
100
AcDbEntity
  8
0
 62
5
100
AcDbSpline
 70
8
 71
3
 72
8
 73
4
 74
0
 40
0
 40
0
 40
0
 40
0
 40
1
 40
1
 40
1
 40
1
 10
85.219741
 20
92.004449
 30
0.0
 10
85.082769
 20
92.243923
 30
0.0
 10
84.927527
 20
92.474613
 30
0.0
 10
84.759300
 20
92.692392
 30
0.0
  0
SPLINE
  5
351
100
AcDbEntity
  8
0
 62
5
100
AcDbSpline
 70
8
 71
3
 72
8
 73
4
 74
0
 40
0
 40
0
 40
0
 40
0
 40
1
 40
1
 40
1
 40
1
 10
84.759300
 20
92.692392
 30
0.0
 10
84.591075
 20
92.910144
 30
0.0
 10
84.409822
 20
93.114773
 30
0.0
 10
84.221733
 20
93.302441
 30
0.0
  0
SPLINE
  5
352
100
AcDbEntity
  8
0
 62
5
100
AcDbSpline
 70
8
 71
3
 72
8
 73
4
 74
0
 40
0
 40
0
 40
0
 40
0
 40
1
 40
1
 40
1
 40
1
 10
84.221733
 20
93.302441
 30
0.0
 10
84.033651
 20
93.490137
 30
0.0
 10
83.838489
 20
93.660978
 30
0.0
 10
83.641922
 20
93.810177
 30
0.0
  0
SPLINE
  5
353
100
AcDbEntity
  8
0
 62
5
100
AcDbSpline
 70
8
 71
3
 72
8
 73
4
 74
0
 40
0
 40
0
 40
0
 40
0
 40
1
 40
1
 40
1
 40
1
 10
83.641922
 20
93.810177
 30
0.0
 10
83.236557
 20
94.145060
 30
0.0
 10
82.792043
 20
94.425201
 30
0.0
 10
82.321847
 20
94.648483
 30
0.0
  0
SPLINE
  5
354
100
AcDbEntity
  8
0
 62
5
100
AcDbSpline
 70
8
 71
3
 72
8
 73
4
 74
0
 40
0
 40
0
 40
0
 40
0
 40
1
 40
1
 40
1
 40
1
 10
82.321847
 20
94.648483
 30
0.0
 10
81.851651
 20
94.871765
 30
0.0
 10
81.355922
 20
95.037976
 30
0.0
 10
80.847512
 20
95.144973
 30
0.0
  0
SPLINE
  5
355
100
AcDbEntity
  8
0
 62
5
100
AcDbSpline
 70
8
 71
3
 72
8
 73
4
 74
0
 40
0
 40
0
 40
0
 40
0
 40
1
 40
1
 40
1
 40
1
 10
80.847512
 20
95.144973
 30
0.0
 10
80.339099
 20
95.251971
 30
0.0
 10
79.818386
 20
95.299622
 30
0.0
 10
79.298377
 20
95.285652
 30
0.0
  0
LWPOLYLINE
  5
356
100
AcDbEntity
  8
0
 62
5
100
AcDbPolyline
 90
2
 70
0
 10
49.708988
 20
102.726582
 30
0.0
 10
49.708996
 20
102.725947
 30
0.0
  0
LWPOLYLINE
  5
357
100
AcDbEntity
  8
0
 62
5
100
AcDbPolyline
 90
2
 70
0
 10
79.298377
 20
95.285652
 30
0.0
 10
79.298374
 20
95.286446
 30
0.0
  0
LWPOLYLINE
  5
358
100
AcDbEntity
  8
0
 62
1
100
AcDbPolyline
 90
6
 70
1
 10
18.410746
 20
70.782563
 30
0.0
 10
20.186536
 20
71.807797
 30
0.0
 10
21.962322
 20
70.782563
 30
0.0
 10
21.962322
 20
68.732043
 30
0.0
 10
20.186536
 20
67.706835
 30
0.0
 10
18.410746
 20
68.732043
 30
0.0
  0
LWPOLYLINE
  5
359
100
AcDbEntity
  8
0
 62
1
100
AcDbPolyline
 90
6
 70
1
 10
42.932093
 20
91.671709
 30
0.0
 10
44.707879
 20
92.696943
 30
0.0
 10
46.483670
 20
91.671709
 30
0.0
 10
46.483670
 20
89.621214
 30
0.0
 10
44.707879
 20
88.595954
 30
0.0
 10
42.932093
 20
89.621214
 30
0.0
  0
LWPOLYLINE
  5
35a
100
AcDbEntity
  8
0
 62
1
100
AcDbPolyline
 90
6
 70
1
 10
75.682896
 20
82.777290
 30
0.0
 10
77.458686
 20
83.802550
 30
0.0
 10
79.234472
 20
82.777290
 30
0.0
 10
79.234472
 20
80.726796
 30
0.0
 10
77.458686
 20
79.701509
 30
0.0
 10
75.682896
 20
80.726796
 30
0.0
  0
ENDSEC
  0
SECTION
  2
OBJECTS
  0
DICTIONARY
  5
C
330
0
100
AcDbDictionary
  3
ACAD_GROUP
350
D
  3
ACAD_MLINESTYLE
350
17
  0
DICTIONARY
  5
D
330
C
100
AcDbDictionary
  0
DICTIONARY
  5
1A
330
C
100
AcDbDictionary
  0
DICTIONARY
  5
17
330
C
100
AcDbDictionary
  3
STANDARD
350
18
  0
DICTIONARY
  5
19
330
C
100
AcDbDictionary
  0
ENDSEC
  0
EOF
