<?xml version="1.0" encoding="UTF-8" standalone="no"?>
<!DOCTYPE svg PUBLIC "-//W3C//DTD SVG 20010904//EN"
              "http://www.w3.org/TR/2001/REC-SVG-20010904/DTD/svg10.dtd">

<svg xmlns="http://www.w3.org/2000/svg"
     width="13.6944in" height="13.6667in"
     viewBox="0 0 986 984">
  <path id="tortues"
        fill="none" stroke="black" stroke-width="1"
        d="M 418.00,762.00
           C 418.00,762.00 516.50,764.00 516.50,764.00M 544.00,811.00
           C 544.00,811.00 634.00,778.50 634.00,778.50M 663.50,778.00
           C 663.50,778.00 743.00,727.00 743.00,727.00M 767.50,707.50
           C 767.50,707.50 826.00,630.00 826.00,630.00M 845.50,610.50
           C 845.50,610.50 872.50,518.50 872.50,518.50M 885.00,488.00
           C 885.00,488.00 891.00,392.50 891.00,392.50M 887.00,363.00
           C 887.00,363.00 876.50,269.00 876.50,269.00M 866.50,245.50
           C 866.50,245.50 809.50,169.00 809.50,169.00M 775.50,164.00
           C 775.50,164.00 689.00,125.50 689.00,125.50M 654.50,118.00
           C 654.50,118.00 561.00,98.50 561.00,98.50M 529.00,100.00
           C 529.00,100.00 435.50,97.50 435.50,97.50M 405.00,96.50
           C 405.00,96.50 310.00,108.50 310.00,108.50M 284.00,107.50
           C 284.00,107.50 197.50,154.50 197.50,154.50M 185.50,177.50
           C 185.50,177.50 130.00,256.50 130.00,256.50M 114.50,283.00
           C 114.50,283.00 102.50,378.00 102.50,378.00M 95.00,406.50
           C 95.00,406.50 91.00,504.00 91.00,504.00M 82.00,539.00
           C 82.00,539.00 90.00,635.00 90.00,635.00M 91.00,670.50
           C 91.00,670.50 118.00,766.00 118.00,765.50M 122.00,791.50
           C 122.00,791.50 187.00,867.00 187.00,867.00M 209.50,895.00
           C 209.50,895.00 307.50,889.00 307.50,889.00M 335.00,871.50
           C 335.00,871.50 406.00,809.00 406.00,809.00" />
</svg>
